<?xml version="1.0" encoding="iso-8859-1"?>
<!-- Generator: Adobe Illustrator 21.0.0, SVG Export Plug-In . SVG Version: 6.00 Build 0)  -->
<svg version="1.1" id="Layer_1" xmlns="http://www.w3.org/2000/svg" xmlns:xlink="http://www.w3.org/1999/xlink" x="0px" y="0px"
	 viewBox="0 0 100.353 100.352" style="enable-background:new 0 0 100.353 100.352;" xml:space="preserve">
<g>
	<path d="M41.779,73.231c7.675,0,13.92-6.245,13.92-13.92s-6.245-13.92-13.92-13.92s-13.92,6.245-13.92,13.92
		S34.104,73.231,41.779,73.231z M41.779,48.391c6.021,0,10.92,4.898,10.92,10.92s-4.898,10.92-10.92,10.92s-10.92-4.898-10.92-10.92
		S35.757,48.391,41.779,48.391z"/>
	<rect x="10.985" y="46.891" width="3" height="24.84"/>
	<rect x="69.102" y="46.891" width="3" height="24.84"/>
	<path d="M96.683,19.21H20.434v8.898h-8.201v9.726H3.318v42.954h76.249v-9.726h8.915v-8.898h8.2V19.21H96.683z M76.567,77.788H6.318
		V40.834h70.249V77.788z M85.482,68.063h-5.915V37.834H15.233v-6.726h70.25L85.482,68.063L85.482,68.063z M93.683,59.164h-5.2
		V28.108H23.434V22.21h70.249L93.683,59.164L93.683,59.164z"/>
</g>
</svg>
