<?xml version="1.0" encoding="UTF-8"?> <svg xmlns="http://www.w3.org/2000/svg" width="1591" height="131" viewBox="0 0 1591 131" fill="none"> <path fill-rule="evenodd" clip-rule="evenodd" d="M574.435 70.2635V57.0124C574.435 45.0774 571.216 41.5994 564.365 41.5994C558.805 41.5994 554.451 44.8251 550.606 49.3363V82.2542C554.793 85.057 557.514 86.8723 562.608 86.8723C569.931 86.8723 574.435 81.9557 574.435 70.2635ZM550.606 111.45H557.048L552.974 126.296H515.504L519.574 111.45H524.554V41.3599H518.822V24.6294H547.756L549.792 36.4687C555.959 29.5558 562.665 22.8313 575.373 22.8313C592.464 22.8313 600.834 31.8696 600.834 53.2216V72.3841C600.834 94.274 587.779 103.434 571.74 103.434C562.925 103.434 555.379 98.5775 550.606 94.4305V111.45Z" fill="#9D9F9F"></path> <path fill-rule="evenodd" clip-rule="evenodd" d="M61.4484 16.6408V88.0579H55.6301V102.827H97.0018V88.0579H89.8588V16.4076H97.0018V0.0300293H0V16.4076H7.14442V88.0579H0V102.827H41.3715V88.0579H35.552V16.6408H61.4484Z" fill="#9D9F9F"></path> <path fill-rule="evenodd" clip-rule="evenodd" d="M150.537 73.438V56.1038C150.537 45.0105 146.615 40.033 138.539 40.033C130.456 40.033 126.36 45.0105 126.36 56.1038V73.438C126.36 84.7106 130.456 88.5508 138.539 88.5508C146.615 88.5508 150.537 84.1708 150.537 73.438ZM176.766 57.9067V70.1979C176.766 94.731 161.309 104.623 138.539 104.623C116.819 104.623 100.137 94.731 100.137 71.6368V58.0856C100.137 33.7972 116.819 24.0195 138.539 24.0195C161.309 24.0195 176.766 33.6727 176.766 57.9067Z" fill="#9D9F9F"></path> <path fill-rule="evenodd" clip-rule="evenodd" d="M737.61 84.5302V66.7441L730.469 67.9973C719.171 69.9811 717.357 72.4896 717.357 79.613C717.357 85.4324 719.171 88.88 726.432 88.88C731.174 88.88 735.154 86.7495 737.61 84.5302ZM763.776 50.59V88.0573H769.922V102.827H740.46L738.424 94.8953C733.951 99.9508 726.717 104.623 716.305 104.623C701.437 104.623 692.596 96.1199 692.596 82.446V80.5298C692.596 64.754 703.132 60.0163 729.36 55.4206L737.61 53.9739V50.4654C737.61 42.9122 734.511 39.9723 725.556 39.9723C721.099 39.9723 718.824 40.6318 716.709 41.4143V49.5616H696.747V31.0969C705.008 27.0759 716.129 24.0195 729.707 24.0195C754.878 24.0195 763.776 33.3756 763.776 50.59Z" fill="#9D9F9F"></path> <path fill-rule="evenodd" clip-rule="evenodd" d="M683.256 87.8613V25.0352H651.233V41.764H657.204V56.1533H638.692V25.0352H606.67V41.764H612.635V87.8613H607.541V102.632H644.134V87.8613H638.692V69.7684H657.204V87.8613H652.109V102.632H688.708V87.8613H683.256Z" fill="#9D9F9F"></path> <path fill-rule="evenodd" clip-rule="evenodd" d="M257.12 88.0256V25.0352H180.062V40.7452H187.207V88.0256H180.062V102.794H218.591V88.0256H212.769V40.9832H231.556V88.0256H225.738V102.794H264.264V88.0256H257.12Z" fill="#9D9F9F"></path> <path fill-rule="evenodd" clip-rule="evenodd" d="M330.914 24.8015L313.484 70.7309L312.653 77.5881L311.937 70.7116L293.225 25.0379H265.104V41.7683H272.864L297.492 102.154L305.727 101.976L300.808 103.94L299.863 106.972C298.675 110.961 297.018 114.528 291.057 112.194V103.366H272.1V120.481C276.154 127.145 286.682 130.004 292.751 130.004C300.708 130.004 315.033 127.861 318.827 117.146L347.813 41.5815H353.677V24.8015H330.914Z" fill="#9D9F9F"></path> <path fill-rule="evenodd" clip-rule="evenodd" d="M820.654 60.6518C809.6 60.7412 804.697 56.1616 804.697 49.0364C804.697 43.2189 806.812 39.4982 810.486 38.069C814.166 36.6366 817.42 37.5357 822.105 37.5357V60.4797L820.654 60.6518ZM848.587 88.0641L848.271 44.5396V40.5969H854.418V25.8274H824.956H802.842C787.969 25.8274 779.931 33.9571 779.931 47.6311V49.5522C779.931 60.6315 787.404 67.1128 800.339 69.992L793.597 71.6867L784.87 88.0641H777.008V102.834H801.8V102.637L802.604 102.631L819.182 71.7964C819.302 71.7964 819.421 71.8032 819.54 71.8032L822.105 71.8256V88.0641H817.446V102.834H855.376V88.0641H848.587Z" fill="#9D9F9F"></path> <path fill-rule="evenodd" clip-rule="evenodd" d="M477.235 59.6975C466.179 59.7848 461.274 55.2052 461.274 48.0832C461.274 42.2609 463.392 38.5402 467.064 37.1126C470.748 35.6786 473.998 36.5777 478.688 36.5777V59.5233L477.235 59.6975ZM505.167 88.0625L504.856 44.7633V39.6405H510.996V24.8726H481.537H459.42C444.552 24.8726 436.515 33.0071 436.515 46.6763V48.5942C436.515 59.2919 443.469 65.7045 455.58 68.7294L456.34 69.7782L448.752 71.685L440.029 88.0625H432.16V102.832H456.962V102.635L457.761 102.629L474.859 70.8291C475.283 70.8354 475.69 70.8499 476.123 70.8499L478.688 70.8707V88.0625H474.022V102.832H511.958V88.0625H505.167Z" fill="#9D9F9F"></path> <path fill-rule="evenodd" clip-rule="evenodd" d="M418.934 87.8645L397.601 24.6392H396.905H394.887H387.78H381.339H375.214H361.52V41.368H368.697L350.507 88.0657H343.33V102.835H374.656V88.0657H370.701L382.483 57.1673L392.886 87.8645H386.368V102.636H424.382V87.8645H418.934Z" fill="#9D9F9F"></path> <path fill-rule="evenodd" clip-rule="evenodd" d="M1216.38 84.4943V66.7129L1209.24 67.9635C1197.95 69.9421 1196.13 72.4553 1196.13 79.5824C1196.13 85.3981 1197.95 88.7131 1205.21 88.7131C1209.95 88.7131 1213.93 86.7152 1216.38 84.4943ZM1242.55 50.551V88.0251H1248.7V102.793H1219.24L1217.2 94.8563C1212.73 99.9138 1205.49 104.589 1195.08 104.589C1180.21 104.589 1171.37 96.0877 1171.37 82.4117V80.4939C1171.37 64.7218 1181.91 59.982 1208.13 55.3847L1216.38 53.9381V50.4328C1216.38 42.878 1213.28 39.9381 1204.33 39.9381C1199.87 39.9381 1197.59 40.5977 1195.48 41.3802V49.5242H1175.53V31.0627C1183.78 27.0466 1194.9 23.8672 1208.48 23.8672C1233.65 23.8672 1242.55 33.3399 1242.55 50.551Z" fill="#9D9F9F"></path> <path fill-rule="evenodd" clip-rule="evenodd" d="M1558.16 84.4943V66.7129L1551.02 67.9635C1539.72 69.9421 1537.9 72.4553 1537.9 79.5824C1537.9 85.3981 1539.72 88.7131 1546.98 88.7131C1551.72 88.7131 1555.7 86.7152 1558.16 84.4943ZM1584.33 50.551V88.0251H1590.47V102.793H1561.01L1558.98 94.8563C1554.5 99.9138 1547.27 104.589 1536.86 104.589C1521.98 104.589 1513.14 96.0877 1513.14 82.4117V80.4939C1513.14 64.7218 1523.68 59.982 1549.91 55.3847L1558.16 53.9381V50.4328C1558.16 42.878 1555.06 39.9381 1546.1 39.9381C1541.65 39.9381 1539.37 40.5977 1537.26 41.3802V49.5242H1517.3V31.0627C1525.56 27.0466 1534.71 23.8672 1548.29 23.8672C1573.47 23.8672 1584.33 33.3399 1584.33 50.551Z" fill="#9D9F9F"></path> <path fill-rule="evenodd" clip-rule="evenodd" d="M1007.22 0V16.3712H1000.02V88.0277H1007.22V102.796H965.25V88.0277H973.091V33.1064L955.585 82.4611H941.479L923.154 33.1064V88.0277H930.647V102.796H895.936V88.0277H903.139V16.3712H895.936V0H934.71L951.377 46.4994L968.406 0H1007.22Z" fill="#9D9F9F"></path> <path fill-rule="evenodd" clip-rule="evenodd" d="M1036.71 56.3108H1059.48V53.0166C1059.48 42.3415 1056.25 39.5597 1048.53 39.5597C1041.27 39.5597 1036.71 43.0553 1036.71 53.676V56.3108ZM1082.95 54.9391V69.9244H1036.71V72.2015C1036.71 84.681 1041.62 88.4624 1051.93 88.4624C1056.61 88.4624 1060.82 87.8093 1063.28 86.7329V78.4514H1082.95V96.2614C1076.82 100.323 1066.85 104.588 1051.22 104.588C1025.4 104.588 1010.71 94.0914 1010.71 70.707V57.7497C1010.71 37.6003 1022.42 23.8672 1048.06 23.8672C1072.77 23.8672 1082.95 33.6401 1082.95 54.9391Z" fill="#9D9F9F"></path> <path fill-rule="evenodd" clip-rule="evenodd" d="M1418.84 87.9575V42.456H1423.93V25.7766H1386V42.456H1392.79V77.3703C1389.04 81.1897 1384.06 85.032 1378.09 85.032C1373.02 85.032 1370.72 82.3363 1370.72 75.4952V42.456H1377.51V25.7766H1339.92V42.456H1344.66V79.5959C1344.66 97.5848 1352.86 104.705 1367.38 104.705C1378.27 104.705 1386.7 98.6565 1393.16 91.1769L1395.23 102.787H1424.81V87.9575H1418.84Z" fill="#9D9F9F"></path> <path fill-rule="evenodd" clip-rule="evenodd" d="M1332.1 88.0281V25.7866H1300.08V42.5235H1306.05V56.3159H1287.53V25.7866H1255.52V42.5235H1261.49V88.0281H1256.39V102.796H1292.98V88.0281H1287.53V69.929H1306.05V88.0281H1300.96V102.796H1337.55V88.0281H1332.1Z" fill="#9D9F9F"></path> <path fill-rule="evenodd" clip-rule="evenodd" d="M1506.81 88.0281L1506.65 88.1415L1480.91 58.6726L1496.72 42.7487L1506.04 42.7598V26.0278H1502.13H1486.75H1475.62V38.6958L1464.17 51.7087L1464.01 52.5007V25.7866H1431.99V42.5235H1437.96V88.0281H1432.87V102.796H1469.46V88.0281H1464.01V72.8114L1476.61 88.2642H1476.79V103.035H1485.86H1506.76H1509.13V88.0281H1506.81Z" fill="#9D9F9F"></path> <path fill-rule="evenodd" clip-rule="evenodd" d="M1165.31 42.7642V26.0305H1142.4L1129.76 46.742L1113.97 26.0305H1089.6V42.7642H1095.37L1109.64 61.3803L1115.82 62.0927L1110.65 64.22L1097 88.269H1090.59V103.009H1110.23L1123.49 79.7446L1141.25 103.009H1165.31V88.269H1162.2L1143.06 63.672L1138.57 62.0256L1142.47 60.8489L1154.1 42.7849L1165.31 42.7642Z" fill="#9D9F9F"></path> </svg> 