<?xml version="1.0" encoding="UTF-8"?> <svg xmlns="http://www.w3.org/2000/svg" width="799" height="208" viewBox="0 0 799 208" fill="none"> <path fill-rule="evenodd" clip-rule="evenodd" d="M323.333 0C320.245 6.44405 317.607 12.1227 314.814 17.7289C301.963 43.474 289.227 69.2709 276.106 94.8764C272.883 101.165 272.78 106.43 276.039 112.812C290.874 141.826 305.28 171.057 319.809 200.215C320.913 202.439 321.861 204.756 323.255 207.828H0V0H323.333ZM286.563 22.6317H22.634V184.891H286.263C284.692 181.457 283.516 178.701 282.179 176.027C271.66 154.807 261.297 133.504 250.467 112.445C247.332 106.342 247.358 101.202 250.519 95.2126C257.291 82.3762 263.577 69.2812 270.023 56.269C275.412 45.3773 280.739 34.4751 286.563 22.6317Z" fill="#9D9F9F"></path> <path fill-rule="evenodd" clip-rule="evenodd" d="M106.962 158.713L80.815 122.913H75.7161V158.713H46.8691V46.0711H91.9869C104.423 46.0711 114.44 49.0914 122.041 55.1372C129.638 61.1882 133.597 70.5233 133.913 83.1425C133.913 103.09 126.524 115.383 111.75 120.053L142.52 158.718H106.973L106.962 158.713ZM75.7161 98.4096H92.4533C98.0807 98.4096 102.066 96.2684 104.402 91.9707C106.734 87.6781 106.734 83.3752 104.402 79.0826C102.071 74.79 98.0807 72.6437 92.4481 72.6437H75.711V98.4199V98.4096H75.7161ZM233.906 80.4221C233.802 83.5045 232.776 86.8558 230.797 90.4554C228.869 94.0183 225.894 96.9063 222.273 98.7302C229.18 102.226 233.797 106.902 236.123 112.741C238.471 118.58 239.16 124.201 238.201 129.601C235.118 149.021 221.728 158.718 198.027 158.718H151.951V46.0659H197.234C208.282 46.0659 217.236 49.169 224.091 55.3751C230.952 61.5709 234.232 69.9182 233.911 80.4324L233.906 80.4221ZM180.658 90.1347H197.239C201.602 90.1347 204.711 88.459 206.582 85.1181C208.432 81.7719 208.463 78.4465 206.655 75.0952C204.862 71.7387 201.727 70.0785 197.255 70.0785H180.673V90.1347H180.658ZM180.658 133.733H197.239C202.659 133.733 206.463 131.804 208.65 127.92C210.826 124.062 210.81 120.203 208.582 116.387C206.328 112.56 202.556 110.656 197.25 110.656H180.668V133.738L180.658 133.733Z" fill="#9D9F9F"></path> <path d="M363.945 140.606L344.876 114.489H341.155V140.606H320.117V58.4575H353.022C362.09 58.4575 369.396 60.6607 374.94 65.067C380.485 69.4786 383.366 76.2898 383.594 85.4956C383.594 100.039 378.205 109.012 367.427 112.415L389.874 140.611H363.945V140.606ZM341.145 96.6253H353.358C357.467 96.6253 360.374 95.053 362.074 91.9293C363.784 88.7952 363.784 85.6611 362.074 82.527C360.364 79.3929 357.462 77.831 353.358 77.831H341.15V96.6253H341.145ZM413.933 58.4575V113.108C413.933 115.59 414.752 117.685 416.384 119.433C418.006 121.171 419.96 122.226 422.255 122.624C424.535 123.012 426.852 123.012 429.173 122.624C431.505 122.231 433.474 121.176 435.106 119.433C436.728 117.685 437.552 115.585 437.552 113.108V58.4523H458.59V113.108C458.59 117.287 457.839 121.098 456.326 124.537C454.953 127.8 452.867 130.715 450.221 133.071C447.571 135.377 444.616 137.309 441.438 138.812C438.194 140.388 434.686 141.352 431.09 141.656C427.489 141.966 423.862 141.966 420.219 141.656C416.605 141.352 413.078 140.388 409.814 138.812C406.652 137.318 403.718 135.385 401.098 133.071C398.575 130.837 396.58 127.982 395.108 124.537C393.631 121.103 392.901 117.287 392.901 113.108V58.4523H413.939L413.933 58.4575ZM465.689 126.916L478.825 114.608C480.379 116.547 482.328 118.176 484.696 119.485C487.064 120.793 489.411 121.657 491.733 122.034C494.065 122.422 496.272 122.515 498.355 122.319C500.448 122.127 502.19 121.491 503.589 120.405C504.977 119.329 505.713 117.923 505.796 116.226C505.874 114.054 504.511 112.285 501.723 110.889C498.941 109.493 495.609 108.526 491.722 107.993C484.52 106.824 478.488 104.026 473.648 99.5732C468.808 95.1254 466.383 89.2296 466.383 81.8753C466.383 74.2211 469.306 68.2063 475.156 63.8258C481.012 59.4556 488.007 57.2783 496.142 57.2783C507.698 57.2783 517.077 61.6485 524.29 70.3836L510.683 80.8306C508.039 77.9798 504.659 75.9113 500.915 74.852C497.194 73.8073 493.956 73.8849 491.199 75.0848C488.453 76.2846 487.033 78.4361 486.95 81.5288C487.188 85.0767 490.836 87.6315 497.883 89.1831C501.221 89.7933 504.128 90.4553 506.599 91.1483C509.087 91.8517 511.677 92.9068 514.387 94.3445C517.098 95.7771 519.289 97.4372 520.968 99.3301C522.627 101.228 523.974 103.705 524.974 106.762C525.979 109.813 526.399 113.278 526.254 117.142C526.058 122.082 524.145 126.799 520.844 130.485C517.557 134.305 513.361 137.239 508.641 139.018C503.874 140.839 498.889 141.759 493.702 141.759C488.66 141.759 483.649 140.466 478.695 137.917C473.742 135.362 469.42 131.695 465.699 126.901L465.689 126.916ZM593.7 83.5096C593.617 85.7593 592.871 88.2004 591.43 90.8277C590.026 93.4275 587.855 95.5342 585.212 96.8632C590.249 99.4129 593.617 102.821 595.317 107.077C597.027 111.334 597.529 115.435 596.83 119.376C594.581 133.536 584.818 140.611 567.532 140.611H533.928V58.4575H566.952C575.009 58.4575 581.543 60.7227 586.539 65.2429C591.544 69.763 593.933 75.8554 593.7 83.52V83.5096ZM554.862 90.595H566.957C570.138 90.595 572.408 89.3692 573.771 86.9385C575.118 84.4974 575.139 82.0667 573.823 79.6256C572.517 77.1794 570.226 75.9692 566.967 75.9692H554.873V90.595H554.862ZM554.862 122.391H566.957C570.91 122.391 573.683 120.984 575.279 118.15C576.864 115.337 576.854 112.523 575.227 109.741C573.584 106.948 570.833 105.562 566.962 105.562H554.873V122.391H554.862ZM644.046 58.4523L673.463 140.611H651.14L645.787 124.134H623.816L618.697 140.616H596.363L625.091 58.4627H644.046V58.4523ZM628.464 105.671H640.797L635.097 81.6581H634.512L628.47 105.676L628.464 105.671ZM672.416 126.916L685.552 114.608C687.107 116.547 689.055 118.176 691.423 119.485C693.796 120.793 696.139 121.657 698.47 122.034C700.792 122.422 703.004 122.515 705.088 122.319C707.181 122.127 708.922 121.491 710.321 120.405C711.71 119.329 712.446 117.923 712.529 116.226C712.606 114.054 711.243 112.285 708.456 110.889C705.673 109.493 702.341 108.526 698.455 107.993C691.252 106.824 685.221 104.026 680.381 99.5732C675.536 95.1254 673.111 89.2296 673.111 81.8753C673.111 74.2211 676.033 68.2063 681.883 63.8258C687.739 59.4556 694.734 57.2783 702.87 57.2783C714.425 57.2783 723.804 61.6485 731.017 70.3836L717.41 80.8306C714.763 77.9807 711.382 75.9124 707.637 74.852C703.916 73.8073 700.678 73.8849 697.921 75.0848C695.175 76.2846 693.755 78.4361 693.672 81.5288C693.91 85.0767 697.558 87.6315 704.606 89.1831C707.943 89.7933 710.85 90.4553 713.321 91.1483C715.809 91.8517 718.4 92.9068 721.11 94.3445C723.82 95.7771 726.012 97.4372 727.69 99.3301C729.349 101.228 730.696 103.705 731.696 106.762C732.701 109.813 733.121 113.278 732.976 117.142C732.78 122.082 730.867 126.799 727.566 130.485C724.198 134.364 720.12 137.208 715.358 139.018C710.591 140.839 705.606 141.759 700.419 141.759C695.377 141.759 690.366 140.466 685.412 137.917C680.464 135.362 676.147 131.695 672.422 126.901L672.416 126.916ZM761.724 77.9396V90.7139H795.095V108.696H761.724V120.995H798.007V140.611H740.676V58.4575H797.997V77.9551L761.709 77.9448L761.724 77.9396Z" fill="#9D9F9F"></path> </svg> 