<?xml version="1.0" encoding="UTF-8"?> <svg xmlns="http://www.w3.org/2000/svg" width="154.001" height="41.185"> <path d="M62.398 1c-.596 1.246-1.105 2.344-1.644 3.428-2.48 4.978-4.938 9.966-7.47 14.917-.622 1.216-.642 2.234-.013 3.468 2.863 5.61 5.643 11.262 8.447 16.9.213.43.396.878.665 1.472H0V1zm-7.096 4.376H4.368V36.75h50.876c-.303-.664-.53-1.197-.788-1.714-2.03-4.103-4.03-8.222-6.12-12.294-.605-1.18-.6-2.174.01-3.332 1.307-2.482 2.52-5.014 3.764-7.53 1.04-2.106 2.068-4.214 3.192-6.504" fill="#ad475c" fill-rule="evenodd"></path> <path d="M20.642 31.688l-5.046-6.922h-.984v6.922H9.045V9.908h8.707c2.4 0 4.333.584 5.8 1.753 1.466 1.17 2.23 2.975 2.291 5.415 0 3.857-1.426 6.234-4.277 7.137l5.938 7.476h-6.86zm-6.03-11.66h3.23c1.086 0 1.855-.414 2.306-1.245.45-.83.45-1.662 0-2.492-.45-.83-1.22-1.245-2.307-1.245h-3.23v4.984-.002M45.14 16.55c-.02.596-.218 1.244-.6 1.94a3.83 3.83 0 0 1-1.645 1.6c1.333.676 2.224 1.58 2.673 2.709.453 1.129.586 2.216.401 3.26-.595 3.755-3.179 5.63-7.753 5.63h-8.892V9.907h8.739c2.132 0 3.86.6 5.183 1.8 1.324 1.198 1.957 2.812 1.895 4.845zm-10.276 1.878h3.2c.842 0 1.442-.324 1.803-.97.357-.647.363-1.29.014-1.938-.346-.649-.951-.97-1.814-.97h-3.2v3.878zm0 8.43h3.2c1.046 0 1.78-.373 2.202-1.124.42-.746.417-1.492-.013-2.23-.435-.74-1.163-1.108-2.187-1.108h-3.2v4.463l-.002-.001" fill="#ad475c" fill-rule="evenodd"></path> <path d="M70.235 28.187l-3.68-5.05h-.718v5.05h-4.06V12.303h6.35c1.75 0 3.16.426 4.23 1.278 1.07.853 1.626 2.17 1.67 3.95 0 2.812-1.04 4.547-3.12 5.205l4.332 5.452h-5.004zm-4.4-8.504h2.357c.793 0 1.354-.304 1.682-.908.33-.606.33-1.212 0-1.818-.33-.606-.89-.908-1.682-.908h-2.356v3.634zm14.047-7.38V22.87c0 .48.158.885.473 1.223.313.336.69.54 1.133.617.44.075.887.075 1.335 0 .45-.076.83-.28 1.145-.617.313-.338.472-.744.472-1.223V12.302h4.06V22.87c0 .808-.145 1.545-.437 2.21a4.596 4.596 0 0 1-1.178 1.65 7.4 7.4 0 0 1-1.695 1.11 5.65 5.65 0 0 1-1.997.55c-.695.06-1.395.06-2.098 0a5.709 5.709 0 0 1-2.008-.55 7.157 7.157 0 0 1-1.682-1.11c-.487-.432-.872-.984-1.156-1.65-.285-.664-.426-1.402-.426-2.21V12.302h4.06zM89.87 25.54l2.535-2.38c.3.375.676.69 1.133.943.457.253.91.42 1.358.493.45.075.876.093 1.278.055.404-.037.74-.16 1.01-.37.268-.208.41-.48.426-.808.015-.42-.248-.762-.786-1.032-.537-.27-1.18-.457-1.93-.56-1.39-.226-2.554-.767-3.488-1.628-.934-.86-1.402-2-1.402-3.422 0-1.48.564-2.643 1.693-3.49 1.13-.845 2.48-1.266 4.05-1.266 2.23 0 4.04.845 5.432 2.534l-2.626 2.02a4.087 4.087 0 0 0-1.885-1.156c-.718-.202-1.343-.187-1.875.045-.53.232-.804.648-.82 1.246.046.686.75 1.18 2.11 1.48.644.118 1.205.246 1.682.38.48.136.98.34 1.503.618.523.277.946.598 1.27.964.32.367.58.846.773 1.437.194.59.275 1.26.247 2.007a4.115 4.115 0 0 1-1.044 2.58 5.81 5.81 0 0 1-2.355 1.65c-.92.352-1.882.53-2.883.53-.973 0-1.94-.25-2.896-.743-.956-.494-1.79-1.203-2.508-2.13zm24.704-8.393c-.016.435-.16.907-.438 1.415a2.789 2.789 0 0 1-1.2 1.167c.972.493 1.622 1.152 1.95 1.975.33.823.427 1.616.292 2.378-.434 2.738-2.318 4.106-5.654 4.106h-6.485V12.303h6.373c1.555 0 2.816.438 3.78 1.312.966.874 1.427 2.052 1.382 3.534zm-7.495 1.37h2.334c.614 0 1.052-.237 1.315-.707.26-.472.264-.942.01-1.414-.252-.473-.694-.707-1.323-.707h-2.334v2.828zm0 6.148h2.334c.763 0 1.298-.272 1.606-.82.306-.544.304-1.088-.01-1.626-.317-.54-.848-.808-1.595-.808h-2.333v3.254zm17.211-12.363l5.677 15.886h-4.308l-1.033-3.186h-4.24l-.988 3.187h-4.31l5.544-15.885h3.658zm-3.007 9.13h2.38l-1.1-4.643h-.113l-1.166 4.644zm8.482 4.108l2.535-2.38c.3.375.676.69 1.133.943.458.253.91.42 1.36.493.448.075.875.093 1.277.055.404-.037.74-.16 1.01-.37.268-.208.41-.48.426-.808.015-.42-.248-.762-.786-1.032-.537-.27-1.18-.457-1.93-.56-1.39-.226-2.554-.767-3.488-1.628-.935-.86-1.403-2-1.403-3.422 0-1.48.564-2.643 1.693-3.49 1.13-.845 2.48-1.266 4.05-1.266 2.23 0 4.04.845 5.432 2.534l-2.626 2.02a4.095 4.095 0 0 0-1.886-1.156c-.718-.202-1.343-.187-1.875.045-.53.232-.804.648-.82 1.246.046.686.75 1.18 2.11 1.48.644.118 1.205.246 1.682.38.48.136.98.34 1.503.618.523.277.946.598 1.27.964.32.367.58.846.773 1.437.194.59.275 1.26.247 2.007a4.115 4.115 0 0 1-1.044 2.58c-.65.75-1.437 1.3-2.356 1.65-.92.352-1.882.53-2.883.53-.973 0-1.94-.25-2.896-.743-.955-.494-1.788-1.203-2.507-2.13zM147 16.07v2.47h6.44v3.477H147v2.378h7.002v3.793h-11.064V12.303H154v3.77l-7.003-.002z" fill="#fff"></path> </svg> 