<?xml version="1.0" encoding="UTF-8"?> <svg xmlns="http://www.w3.org/2000/svg" width="168" height="56" viewBox="0 0 168 56" fill="none"> <rect width="168" height="56" rx="28" fill="black"></rect> <path fill-rule="evenodd" clip-rule="evenodd" d="M139.675 14C131.953 14 125.349 20.267 125.349 28C125.349 35.7329 131.975 41.9999 139.675 41.9999C147.375 41.9999 154 35.7329 154 28C154 20.267 147.396 14 139.675 14ZM139.675 36.2215C138.048 36.2215 136.465 35.7399 135.114 34.8335C133.764 33.9342 132.71 32.6454 132.095 31.137C131.473 29.6358 131.31 27.9787 131.628 26.3854C131.946 24.7921 132.724 23.3262 133.877 22.179C135.029 21.0318 136.486 20.2458 138.084 19.9271C139.682 19.6085 141.329 19.7714 142.828 20.3945C144.327 21.0177 145.614 22.0728 146.512 23.4254C147.41 24.7779 147.891 26.3712 147.891 27.9929C147.905 29.0763 147.707 30.1598 147.297 31.1583C146.894 32.1638 146.286 33.0773 145.522 33.8421C144.751 34.614 143.839 35.2159 142.842 35.6195C141.838 36.0374 140.756 36.2356 139.675 36.2215ZM28.3323 14.0011C20.6111 14.0011 14 20.2682 14 27.994C14 35.7269 20.6252 41.9939 28.3252 41.9939C36.0252 41.9939 42.6504 35.7269 42.6504 27.994C42.6575 20.2682 36.0464 14.0011 28.3323 14.0011ZM28.3323 36.2226C26.706 36.2226 25.1222 35.741 23.7717 34.8417C22.4212 33.9353 21.3677 32.6535 20.7454 31.1523C20.1232 29.651 19.9606 27.994 20.2788 26.4007C20.597 24.8073 21.3747 23.3415 22.5272 22.1872C23.6727 21.0329 25.1363 20.254 26.7343 19.9353C28.3252 19.6167 29.9798 19.7795 31.4787 20.4027C32.9777 21.0259 34.2646 22.081 35.1626 23.4335C36.0676 24.7861 36.5414 26.3794 36.5414 28.0011C36.5555 29.0845 36.3575 30.1609 35.9474 31.1664C35.5444 32.172 34.9363 33.0855 34.1727 33.8503C33.402 34.6222 32.4969 35.2241 31.4929 35.6277C30.4888 36.0314 29.4141 36.2367 28.3323 36.2226ZM69.5047 27.9929C69.5047 20.267 76.1157 14 83.8299 14C91.5511 14 98.1551 20.267 98.1551 27.9929C98.1551 35.7258 91.5299 41.9928 83.8299 41.9928C76.1299 41.9928 69.5047 35.7258 69.5047 27.9929ZM79.2693 34.8335C80.6198 35.7399 82.2036 36.2215 83.8299 36.2215C84.9188 36.2356 85.9935 36.0374 86.9905 35.6195C87.9945 35.2159 88.9066 34.614 89.6773 33.8421C90.441 33.0773 91.049 32.1638 91.4521 31.1583C91.8622 30.1598 92.0672 29.0763 92.046 27.9929C92.046 26.3712 91.5652 24.7779 90.6672 23.4254C89.7692 22.0728 88.4824 21.0177 86.9834 20.3945C85.4844 19.7714 83.8299 19.6085 82.239 19.9271C80.641 20.2458 79.1774 21.0318 78.0319 22.179C76.8794 23.3262 76.1016 24.7921 75.7834 26.3854C75.4652 27.9787 75.6279 29.6358 76.2501 31.137C76.8652 32.6454 77.9188 33.9342 79.2693 34.8335ZM59.733 25.9039C61.5007 24.5159 62.9219 22.7456 63.9047 20.7274C64.8876 18.7021 65.3896 16.4856 65.3896 14.2408H59.2664C59.2664 19.4031 56.4027 24.2185 51.7856 24.7496V14.2408H45.7543V41.7379H51.7573V31.1866H60.4543V41.745H66.4926V25.9039H59.733ZM103.72 32.8579C103.932 29.8766 104.293 14.2409 104.293 14.2409L122.224 14.2196V41.7309H116.341V19.9981H109.829C109.829 19.9981 109.447 30.7831 109.306 33.1978C108.98 38.7426 105.551 42 101.401 42H98.4663V36.7102C98.4663 36.7102 99.4774 36.696 99.8168 36.689C102.369 36.6323 103.571 34.9186 103.72 32.8579Z" fill="white"></path> </svg> 