<?xml version="1.0" encoding="UTF-8" standalone="no"?> <svg xmlns="http://www.w3.org/2000/svg" xmlns:xlink="http://www.w3.org/1999/xlink" xmlns:serif="http://www.serif.com/" width="100%" height="100%" viewBox="0 0 128 40" xml:space="preserve" style="fill-rule:evenodd;clip-rule:evenodd;stroke-linejoin:round;stroke-miterlimit:2;"> <g id="symbol-sprite.svg_dc-logo-h2" transform="matrix(1,0,0,1,0,0.0008487)"> <g> <path d="M21.992,30.947C21.924,30.327 22.312,27.273 22.312,27.273C22.312,27.273 23.094,27.4 23.848,27.48C24.601,27.56 25.814,27.625 25.814,27.625C25.814,27.625 25.16,29.916 25.54,30.439C26.417,31.648 31.215,34.633 32.315,35.831C32.868,36.364 33.429,36.881 34.116,37.347C34.601,37.747 36.168,37.792 36.58,38.192C36.856,38.481 37.193,39.322 37.024,39.474C36.908,39.578 34.534,39.629 34.116,39.556C33.663,39.556 33.12,39.133 33.12,39.133C33.12,39.133 32.783,39.474 32.315,39.233C31.49,38.835 31.613,38.013 31.131,37.347C30.856,37.08 26.824,34.512 24.226,33.092C21.997,31.874 22.096,31.892 21.992,30.947ZM5.96,23.042C5.477,22.626 3.693,24.106 3.182,23.999C2.672,23.892 3.172,22.669 2.719,22.744C2.106,22.845 1.943,24.234 1.392,24.343C0.505,24.666 0,23.378 0,21.84C0,20.302 0.564,18.628 2.487,17.556C4.409,16.483 7.256,16.21 9.465,16.928C11.561,15.841 14.319,12.686 20.461,12.538C26.603,12.391 28.902,15.364 30.208,14.653C31.513,13.941 31.955,12.336 31.671,11.137C31.127,8.84 30.072,7.591 29.227,5.546C28.697,4.263 28.668,2.568 29.337,1.325C29.635,0.774 30.363,0.13 31.46,0.01C32.558,-0.109 32.847,0.785 33.615,1.028C34.383,1.272 36.025,1.422 36.153,1.989C36.281,2.556 34.311,3.002 33.865,2.955C32.819,2.847 32.159,3.529 32.215,4.733C32.283,6.265 32.655,6.811 34.112,8.992C35.569,11.172 35.556,14.797 33.695,17.326C33.108,18.066 32.483,18.693 32.069,19.538C31.735,20.215 32.069,18.851 32.069,21.552C32.069,24.254 30.663,25.554 28.826,26.125C26.353,26.894 24.217,26.606 22.033,26.357C19.01,26.012 16.645,26.052 15.411,26.357C14.341,26.622 10.993,28.452 10.581,29.304C10.363,29.764 9.181,34.549 8.964,35.6C8.876,36.032 8.926,36.893 8.719,37.277C8.493,37.703 5.738,39.386 4.802,39.731C4.372,39.891 3.502,40.095 3.398,39.949C2.788,39.269 2.79,39.112 4.562,37.873C3.943,36.63 5.728,36.326 6.253,35.713C6.826,35.046 7.865,27.785 8.221,26.839C8.578,25.893 9.968,25.568 10.532,24.727C10.265,24.428 9.896,24.587 8.919,24.853C8.081,25.081 6.331,25.685 5.959,25.383C5.588,25.081 6.443,23.457 5.959,23.041L5.96,23.042ZM54.134,18.755L48.456,18.755L48.456,4.708L54.113,4.708C58.608,4.708 61.727,7.508 61.727,11.721C61.727,15.975 58.608,18.755 54.134,18.755ZM54.113,16.123C56.953,16.123 58.608,14.122 58.608,11.721C58.608,9.257 57.06,7.341 54.134,7.341L51.51,7.341L51.51,16.123L54.113,16.123ZM68.718,19.008C65.556,19.008 63.168,16.923 63.168,13.658C63.168,10.71 65.406,8.33 68.546,8.33C71.665,8.33 73.751,10.605 73.751,13.911L73.751,14.543L66.03,14.543C66.224,15.786 67.256,16.818 69.02,16.818C69.902,16.818 71.107,16.46 71.774,15.828L73,17.597C71.967,18.524 70.332,19.007 68.72,19.007L68.718,19.008ZM71.128,12.69C71.041,11.721 70.353,10.52 68.546,10.52C66.846,10.52 66.116,11.679 66.008,12.69L71.128,12.69ZM78.656,19.008C76.741,19.008 75.73,18.039 75.73,16.207L75.73,4.707L78.462,4.707L78.462,15.491C78.462,16.144 78.806,16.628 79.409,16.628C79.817,16.628 80.205,16.481 80.355,16.312L80.935,18.355C80.527,18.713 79.775,19.008 78.655,19.008L78.656,19.008ZM83.496,7.488C82.615,7.489 81.889,6.769 81.882,5.888C81.882,5.003 82.614,4.308 83.496,4.308C84.399,4.308 85.13,5.003 85.13,5.888C85.13,6.772 84.399,7.488 83.496,7.488ZM84.872,18.755L82.14,18.755L82.14,8.583L84.872,8.583L84.872,18.755ZM93.218,18.755L90.271,18.755L86.098,8.583L89.024,8.583L91.734,15.659L94.466,8.583L97.391,8.583L93.218,18.755ZM103.5,19.008C100.338,19.008 97.95,16.923 97.95,13.658C97.95,10.71 100.187,8.33 103.328,8.33C106.447,8.33 108.533,10.605 108.533,13.911L108.533,14.543L100.811,14.543C101.005,15.786 102.037,16.818 103.801,16.818C104.683,16.818 105.888,16.46 106.554,15.828L107.78,17.597C106.748,18.524 105.113,19.007 103.5,19.007L103.5,19.008ZM105.91,12.69C105.823,11.721 105.135,10.52 103.328,10.52C101.628,10.52 100.898,11.679 100.79,12.69L105.91,12.69ZM113.244,18.755L110.512,18.755L110.512,8.583L113.244,8.583L113.244,9.952C113.997,9.067 115.266,8.33 116.557,8.33L116.557,10.942C116.309,10.894 116.057,10.873 115.804,10.879C114.9,10.879 113.696,11.384 113.244,12.037L113.244,18.755ZM122.472,22.883C120.73,22.883 119.332,22.399 118.127,21.367L119.353,19.45C120.106,20.335 121.375,20.693 122.472,20.693C124.236,20.693 125.268,19.513 125.268,18.081L125.268,17.028C124.558,17.786 123.311,18.566 121.611,18.566C119.331,18.566 118.256,17.344 118.256,15.364L118.256,8.583L120.988,8.583L120.988,14.311C120.988,15.722 121.741,16.186 122.902,16.186C123.956,16.186 124.795,15.617 125.268,15.027L125.268,8.583L128,8.583L128,18.081C128,21.135 125.784,22.883 122.472,22.883ZM55.182,38.153C50.859,38.153 47.525,35.205 47.525,30.888C47.525,26.55 50.859,23.622 55.182,23.622C58.322,23.622 60.152,25.286 61.162,27.055L58.538,28.319C57.936,27.181 56.645,26.276 55.182,26.276C52.558,26.276 50.665,28.234 50.665,30.888C50.665,33.542 52.558,35.5 55.182,35.5C56.645,35.5 57.936,34.595 58.538,33.457L61.162,34.7C60.152,36.448 58.322,38.154 55.182,38.154L55.182,38.153ZM66.094,38.153C64.179,38.153 63.168,37.185 63.168,35.353L63.168,23.853L65.9,23.853L65.9,34.637C65.9,35.29 66.244,35.774 66.847,35.774C67.255,35.774 67.643,35.627 67.793,35.458L68.373,37.501C67.965,37.859 67.213,38.154 66.093,38.154L66.094,38.153ZM79.323,37.901L76.59,37.901L76.59,36.616C75.88,37.375 74.632,38.154 72.933,38.154C70.653,38.154 69.577,36.932 69.577,34.953L69.577,27.729L72.309,27.729L72.309,33.899C72.309,35.311 73.062,35.774 74.224,35.774C75.278,35.774 76.117,35.205 76.59,34.616L76.59,27.729L79.322,27.729L79.322,37.9L79.323,37.901ZM84.765,34.637C85.238,35.29 86.227,35.774 87.131,35.774C88.701,35.774 89.755,34.574 89.755,32.804C89.755,31.056 88.701,29.856 87.131,29.856C86.227,29.856 85.238,30.361 84.765,31.036L84.765,34.637ZM84.765,37.901L82.033,37.901L82.033,23.854L84.765,23.854L84.765,29.034C85.582,27.982 86.744,27.476 87.97,27.476C90.615,27.476 92.573,29.498 92.573,32.804C92.573,36.216 90.593,38.154 87.97,38.154C86.722,38.154 85.582,37.606 84.765,36.595L84.765,37.901Z" style="fill:rgb(46,47,51);fill-rule:nonzero;"></path> </g> </g> </svg> 