<?xml version="1.0" encoding="UTF-8" standalone="no"?> <svg xmlns="http://www.w3.org/2000/svg" xmlns:xlink="http://www.w3.org/1999/xlink" xmlns:serif="http://www.serif.com/" width="100%" height="100%" viewBox="0 0 512 470" xml:space="preserve" style="fill-rule:evenodd;clip-rule:evenodd;stroke-linejoin:round;stroke-miterlimit:2;"> <g transform="matrix(1,0,0,1,6950.37,-5907.01)"> <path d="M-6860.13,6181.09C-6860.13,6181.09 -6891.59,6194.97 -6898.15,6196.89C-6904.7,6198.82 -6937.48,6141.68 -6937.48,6141.68C-6937.48,6141.68 -6947.97,6095.25 -6840.46,6055.91C-6732.96,6016.59 -6629.39,5916.95 -6599.24,5914.98C-6569.08,5913.01 -6565.81,5938.58 -6555.97,5949.72C-6546.14,5960.87 -6556.63,5969.39 -6557.94,5983.15C-6559.25,5996.92 -6578.26,6012.65 -6578.26,6027.07C-6578.26,6041.49 -6571.7,6066.4 -6571.7,6066.4L-6836.53,6072.3C-6836.53,6072.3 -6866.03,6069.68 -6873.24,6087.38C-6880.45,6105.08 -6878.48,6141.68 -6878.48,6141.68L-6858.82,6151.62L-6841.12,6163.42C-6841.12,6163.42 -6835.22,6164.07 -6829.32,6171.28C-6823.42,6178.5 -6821.45,6174.51 -6820.8,6181.09C-6820.14,6187.67 -6819.49,6205.37 -6819.49,6205.37L-6817.52,6213.89C-6817.52,6213.89 -6846.36,6192.86 -6860.13,6181.09Z" style="fill:rgb(252,238,33);"></path> <g transform="matrix(1,0,0,1,-6950.37,5885.69)"> <g> <path d="M501.317,277.329C507.213,277.329 511.984,272.558 511.984,266.662L511.984,213.329C511.984,189.798 492.849,170.662 469.317,170.662L389.029,170.662C385.966,163.877 383.983,156.799 383.983,149.329C383.983,130.016 394.702,112.162 411.962,102.735C414.472,101.36 416.337,99.027 417.108,96.266C417.889,93.516 417.525,90.558 416.108,88.068L390.118,42.672C384.441,32.776 375.274,25.703 364.305,22.766C353.388,19.849 341.972,21.381 332.201,27.068L21.14,208.162C0.952,219.912 -5.995,246.016 5.64,266.329L32.515,313.308C33.942,315.808 36.317,317.621 39.098,318.339C41.869,319.058 44.827,318.631 47.286,317.151C55.89,311.963 65.099,309.328 74.651,309.328C97.935,309.328 118.275,324.668 125.199,346.858C118.294,368.318 98.375,383.995 74.651,383.995C68.755,383.995 63.984,388.766 63.984,394.662L63.984,447.995C63.984,471.526 83.119,490.662 106.651,490.662L469.318,490.662C492.849,490.662 511.985,471.527 511.985,447.995L511.985,394.662C511.985,388.766 507.214,383.995 501.318,383.995C471.912,383.995 447.985,360.068 447.985,330.662C447.984,301.256 471.911,277.329 501.317,277.329ZM342.942,45.506C347.765,42.693 353.432,41.912 358.786,43.371C364.234,44.829 368.776,48.35 371.599,53.277L392.568,89.902C373.891,103.912 362.651,125.84 362.651,149.329C362.651,156.563 363.842,163.735 365.949,170.662L127.955,170.662L342.942,45.506ZM74.65,287.996C64.89,287.996 55.15,290.017 45.994,293.913L24.161,255.736C18.317,245.548 21.786,232.476 31.869,226.601L64.567,207.566C64.307,209.47 63.984,211.356 63.984,213.33L63.984,266.663C63.984,272.559 68.755,277.33 74.651,277.33C94.277,277.33 111.273,288.107 120.534,303.939C107.761,293.889 91.76,287.996 74.65,287.996ZM426.65,330.662C426.65,368.214 454.515,399.381 490.65,404.568L490.65,447.995C490.65,459.755 481.077,469.328 469.317,469.328L213.317,469.328L213.317,450.661C213.317,444.765 208.546,439.994 202.65,439.994C196.754,439.994 191.983,444.765 191.983,450.661L191.983,469.328L106.65,469.328C94.89,469.328 85.317,459.755 85.317,447.995L85.317,404.568C121.452,399.38 149.317,368.214 149.317,330.662C149.317,293.11 121.452,261.943 85.317,256.756L85.317,213.329C85.317,201.569 94.89,191.996 106.65,191.996L191.983,191.996L191.983,215.996C191.983,221.892 196.754,226.663 202.65,226.663C208.546,226.663 213.317,221.892 213.317,215.996L213.317,191.996L469.317,191.996C481.077,191.996 490.65,201.569 490.65,213.329L490.65,256.756C454.515,261.943 426.65,293.11 426.65,330.662Z" style="fill:rgb(47,54,64);fill-rule:nonzero;"></path> <path d="M202.65,269.329C196.754,269.329 191.983,274.1 191.983,279.996L191.983,301.329C191.983,307.225 196.754,311.996 202.65,311.996C208.546,311.996 213.317,307.225 213.317,301.329L213.317,279.996C213.317,274.1 208.546,269.329 202.65,269.329Z" style="fill:rgb(47,54,64);fill-rule:nonzero;"></path> <path d="M202.65,354.662C196.754,354.662 191.983,359.433 191.983,365.329L191.983,386.662C191.983,392.558 196.754,397.329 202.65,397.329C208.546,397.329 213.317,392.558 213.317,386.662L213.317,365.329C213.317,359.433 208.546,354.662 202.65,354.662Z" style="fill:rgb(47,54,64);fill-rule:nonzero;"></path> <path d="M401.046,236.798C396.348,233.288 389.65,234.225 386.119,238.933L258.119,409.6C254.577,414.308 255.536,420.996 260.254,424.527C262.171,425.965 264.41,426.662 266.639,426.662C269.889,426.662 273.087,425.193 275.181,422.391L403.181,251.724C406.723,247.016 405.765,240.329 401.046,236.798Z" style="fill:rgb(47,54,64);fill-rule:nonzero;"></path> <path d="M287.984,319.996C305.932,319.996 319.984,301.256 319.984,277.329C319.984,253.402 305.932,234.662 287.984,234.662C270.036,234.662 255.984,253.402 255.984,277.329C255.984,301.256 270.036,319.996 287.984,319.996ZM287.984,255.996C292.338,255.996 298.651,264.309 298.651,277.329C298.651,290.35 292.338,298.662 287.984,298.662C283.63,298.662 277.317,290.349 277.317,277.329C277.317,264.308 283.63,255.996 287.984,255.996Z" style="fill:rgb(47,54,64);fill-rule:nonzero;"></path> <path d="M373.317,341.329C355.369,341.329 341.317,360.069 341.317,383.996C341.317,407.923 355.369,426.663 373.317,426.663C391.265,426.663 405.317,407.923 405.317,383.996C405.317,360.069 391.265,341.329 373.317,341.329ZM373.317,405.329C368.963,405.329 362.65,397.016 362.65,383.996C362.65,370.976 368.963,362.663 373.317,362.663C377.671,362.663 383.984,370.976 383.984,383.996C383.984,397.016 377.671,405.329 373.317,405.329Z" style="fill:rgb(47,54,64);fill-rule:nonzero;"></path> </g> </g> </g> </svg> 