<?xml version="1.0" encoding="UTF-8"?>
 <svg xmlns="http://www.w3.org/2000/svg" width="34" height="34" viewBox="0 0 34 34" fill="none">
     <path fill-rule="evenodd" clip-rule="evenodd" d="M0 17C0 26.3874 7.6126 34 17 34C26.3874 34 34 26.3874 34 17C34 7.6126 26.3874 0 17 0C7.6126 0 0 7.6126 0 17ZM21.6888 7.55487C20.4648 7.49707 20.0976 7.48687 17.0002 7.48687C13.9028 7.48687 13.5356 7.49707 12.3116 7.55487C11.1794 7.60927 10.564 7.79627 10.156 7.95607C9.61538 8.16687 9.22778 8.41847 8.82318 8.82307C8.41858 9.22767 8.16698 9.61528 7.95618 10.1559C7.79638 10.5639 7.60598 11.1793 7.55498 12.3115C7.49718 13.5355 7.48698 13.9027 7.48698 17.0001C7.48698 20.0975 7.50058 20.4647 7.55498 21.6887C7.60938 22.8209 7.79638 23.4363 7.95618 23.8443C8.16698 24.3849 8.41858 24.7725 8.82318 25.1771C9.22778 25.5817 9.61538 25.8333 10.156 26.0441C10.564 26.2039 11.1794 26.3943 12.3116 26.4453C13.5356 26.5031 13.9028 26.5133 17.0002 26.5133C20.0976 26.5133 20.4648 26.4997 21.6888 26.4453C22.821 26.3909 23.4364 26.2039 23.8444 26.0441C24.385 25.8333 24.7726 25.5817 25.1772 25.1771C25.5818 24.7725 25.8334 24.3849 26.0442 23.8443C26.204 23.4363 26.3944 22.8209 26.4454 21.6887C26.5032 20.4647 26.5134 20.0975 26.5134 17.0001C26.5134 13.9027 26.4998 13.5355 26.4454 12.3115C26.391 11.1793 26.204 10.5639 26.0442 10.1559C25.8334 9.61528 25.5818 9.22767 25.1772 8.82307C24.7726 8.41847 24.385 8.16687 23.8444 7.95607C23.4364 7.79627 22.821 7.60587 21.6888 7.55487ZM12.2164 5.46727C13.454 5.40947 13.8484 5.39587 17.0002 5.39587C20.152 5.39587 20.5464 5.40947 21.7806 5.46387C23.0182 5.52167 23.8614 5.71887 24.5992 6.00447C25.3642 6.30367 26.0102 6.69807 26.6562 7.34407C27.3022 7.98667 27.7 8.63607 27.9958 9.39427C28.2848 10.1355 28.4786 10.9787 28.5364 12.2129C28.5942 13.4505 28.6078 13.8449 28.6078 16.9967C28.6078 20.1485 28.5942 20.5429 28.5364 21.7805C28.4786 23.0181 28.2814 23.8613 27.9958 24.5991C27.6966 25.3641 27.3022 26.0101 26.6562 26.6561C26.0136 27.3021 25.3642 27.6999 24.606 27.9957C23.8648 28.2847 23.0216 28.4785 21.7874 28.5363C20.5498 28.5941 20.1554 28.6077 17.0036 28.6077C13.8518 28.6077 13.4574 28.5941 12.2198 28.5363C10.9822 28.4785 10.139 28.2813 9.40118 27.9957C8.63618 27.6965 7.99018 27.3021 7.34418 26.6561C6.69818 26.0135 6.30038 25.3641 6.00458 24.6059C5.71558 23.8647 5.52178 23.0215 5.46398 21.7873C5.40618 20.5497 5.39258 20.1553 5.39258 17.0035C5.39258 13.8517 5.40618 13.4573 5.46398 12.2197C5.52178 10.9821 5.71898 10.1389 6.00458 9.40107C6.30378 8.63608 6.69818 7.99007 7.34418 7.34407C7.98678 6.69807 8.63618 6.30027 9.39778 6.00787C10.139 5.71887 10.9822 5.52507 12.2164 5.46727ZM17.0005 11.0399C13.7093 11.0399 11.0403 13.7089 11.0403 17.0001C11.0403 20.2913 13.7093 22.9603 17.0005 22.9603C20.2917 22.9603 22.9607 20.2913 22.9607 17.0001C22.9607 13.7089 20.2917 11.0399 17.0005 11.0399ZM17.0005 20.8693C14.8653 20.8693 13.1313 19.1387 13.1313 17.0001C13.1313 14.8615 14.8653 13.1309 17.0005 13.1309C19.1357 13.1309 20.8697 14.8615 20.8697 17.0001C20.8697 19.1387 19.1357 20.8693 17.0005 20.8693ZM24.5894 10.8052C24.5894 11.5751 23.9653 12.1992 23.1954 12.1992C22.4255 12.1992 21.8014 11.5751 21.8014 10.8052C21.8014 10.0353 22.4255 9.41119 23.1954 9.41119C23.9653 9.41119 24.5894 10.0353 24.5894 10.8052Z" fill="#5D5D5D"></path>
 </svg> 