<?xml version="1.0" encoding="UTF-8"?> <svg xmlns="http://www.w3.org/2000/svg" width="153" height="110" viewBox="0 0 153 110" fill="none"> <path d="M151.828 65.927L70.659 40.5378C69.5178 40.182 68.2802 40.4774 67.4127 41.3128L35.9203 71.6192C34.9937 72.5086 35.3575 74.0905 36.5733 74.4685L117.055 99.5464C118.731 100.067 120.55 99.6322 121.825 98.4029L152.481 68.7731C153.404 67.8837 153.04 66.3082 151.828 65.927Z" fill="#CCCCCC"></path> <path d="M113.955 90.0044L31.6606 64.2626C31.7508 63.8846 31.9405 63.5352 32.2265 63.2588L64.8819 31.7105C65.6312 30.9862 66.7009 30.7321 67.6866 31.0402L148.277 56.2484C149.462 56.6201 150.404 57.3284 151.069 58.221L119.568 88.6608C118.069 90.1092 115.926 90.6206 113.955 90.0044Z" fill="#757575"></path> <path d="M113.955 90.0044C115.926 90.6206 118.069 90.1092 119.567 88.6607L151.069 58.2209C152.705 60.4095 152.683 63.7035 150.475 65.8349L120.339 94.9533C119.179 96.0714 117.521 96.4684 115.998 95.9888L37.1454 71.2221C34.3967 70.3581 32.304 68.0711 31.6511 65.2123C31.5764 64.8915 31.5858 64.5675 31.6604 64.2594L113.955 90.0044Z" fill="#4A4A4A"></path> <path d="M39.515 64.4689L51.2655 68.1028L108.392 85.7542L139.11 56.0704L131.924 53.7707L70.8239 34.2166L39.515 64.4689Z" fill="#4A4A4A"></path> <path d="M51.2655 68.1028L108.389 85.7575L139.11 56.0737L131.924 53.7739C119.229 59.2914 87.8201 70.771 51.2655 68.1028Z" fill="#3D3D3D"></path> <path d="M50.2081 49.6668C50.2174 49.67 50.2298 49.6732 50.2392 49.6764L50.8642 49.8416C51.0849 49.9019 51.3243 49.832 51.4985 49.6668L56.0258 45.2611C56.0507 45.2357 56.0724 45.2071 56.0911 45.1785C56.1999 44.9848 56.116 44.7306 55.9014 44.6735L55.4692 44.5591C55.1894 44.4829 54.8846 44.5686 54.667 44.7815L50.1334 49.1618C49.9655 49.3174 50.0122 49.5906 50.2081 49.6668Z" fill="#3D3D3D"></path> <path d="M50.2078 49.6669C50.2171 49.6701 50.2295 49.6733 50.2389 49.6765L50.8639 49.8416C51.0846 49.902 51.3241 49.8321 51.4982 49.6669L56.0255 45.2612C56.0504 45.2358 56.0722 45.2072 56.0908 45.1786C56.0659 45.1659 56.038 45.1532 56.01 45.1437L55.5778 45.0293C55.2979 44.9531 54.9932 45.0389 54.7755 45.2517L50.242 49.632C50.2264 49.6415 50.214 49.6542 50.2078 49.6669Z" fill="#4A4A4A"></path> <path d="M39.7451 69.8976L39.8478 70.3455C39.8757 70.4726 39.969 70.5774 40.0934 70.6123L44.9752 72.1529L45.1898 72.2228L50.5256 73.9063C50.6593 73.9476 50.793 73.9063 50.8831 73.8206C50.8956 73.811 50.9049 73.7983 50.9142 73.7824C50.9204 73.7761 50.9267 73.7666 50.9329 73.757C50.9391 73.7475 50.9484 73.7348 50.9515 73.7221C50.9578 73.7126 50.964 73.6998 50.9671 73.6903C50.9733 73.6744 50.9795 73.6586 50.9826 73.6363C50.9951 73.5855 50.9982 73.5283 50.9826 73.468L50.8738 72.9883C50.8427 72.8581 50.7525 72.7564 50.6282 72.7183L44.8944 70.9268L44.6798 70.8601L40.2053 69.4625C40.1058 69.4307 40.0032 69.4466 39.9255 69.4911C39.7918 69.5641 39.7078 69.7261 39.7451 69.8976Z" fill="#A6A6A6"></path> <path d="M123.579 75.4532C123.71 75.6374 123.899 75.7867 124.142 75.863L127.472 76.908C127.848 77.0287 128.252 76.9303 128.542 76.6571L136.163 69.329C136.349 69.1512 136.455 68.9288 136.492 68.7001C136.539 68.4111 136.471 68.1093 136.306 67.8711C136.175 67.6805 135.983 67.528 135.734 67.455L132.413 66.4163C132.04 66.2987 131.632 66.3972 131.346 66.6704L123.713 73.9889C123.523 74.1699 123.414 74.3955 123.38 74.6273C123.34 74.9132 123.411 75.215 123.579 75.4532Z" fill="#3D3D3D"></path> <path d="M123.383 74.6242C123.383 74.6274 123.386 74.6337 123.389 74.6369C123.519 74.8211 123.709 74.9704 123.952 75.0466L127.282 76.0917C127.658 76.2124 128.062 76.1139 128.351 75.8408L135.973 68.5127C136.159 68.3348 136.265 68.1125 136.302 67.8838C136.302 67.8806 136.305 67.8742 136.302 67.8711C136.172 67.6805 135.979 67.528 135.73 67.455L132.409 66.4163C132.036 66.2987 131.629 66.3972 131.343 66.6704L123.709 73.9889C123.526 74.1668 123.417 74.3923 123.383 74.6242Z" fill="#A6A6A6"></path> <path d="M39.9256 69.4909C40.0034 69.4464 40.106 69.4306 40.2055 69.4623L44.68 70.86L44.8945 70.9267L50.6283 72.7182C50.7527 72.7563 50.846 72.8579 50.874 72.9882L50.9828 73.4678C51.0015 73.5472 50.9921 73.6203 50.9672 73.6902C50.9641 73.6997 50.9579 73.7124 50.9517 73.7219C50.933 73.76 50.9113 73.7918 50.8833 73.8204L51.3 73.5536V73.5504C51.4306 73.4742 51.5114 73.3185 51.471 73.147L51.3621 72.6673C51.3311 72.5371 51.2409 72.4355 51.1165 72.3973L45.2583 70.5677L45.0469 70.501L40.6936 69.1415C40.5879 69.1097 40.4853 69.1288 40.4014 69.1796V69.1764L39.9256 69.4909Z" fill="#7A7A7A"></path> <path d="M44.6797 70.8567L44.975 72.1527L45.1896 72.2194L44.8911 70.9234L45.2549 70.5677L45.0434 70.501L44.6797 70.8567Z" fill="#3D3D3D"></path> <path d="M145.288 66.1779L145.711 68.0234L148.746 65.0821L148.329 63.2588L148.015 63.5606L146.992 64.5421L145.288 66.1779Z" fill="#A6A6A6"></path> <path d="M145.288 66.1779L145.599 67.5374L148.323 64.901L148.015 63.5605L146.992 64.5421L145.288 66.1779Z" fill="#3D3D3D"></path> <path d="M67.0735 56.404C66.8921 53.2852 76.4795 50.1662 88.4875 49.4375C100.496 48.7088 110.377 50.6463 110.558 53.7651C110.74 56.8838 101.152 60.0029 89.1443 60.7316C77.1363 61.4603 67.2548 59.5228 67.0735 56.404Z" fill="#3D3D3D"></path> <path d="M74.3228 0.549524L74.6866 0.501877L74.7985 0.965637L75.3178 0.606699L75.464 1.00058L76.005 0.625758L76.1574 0.997401L76.2258 1.52151L76.6145 1.44528L76.8414 1.67081L77.3203 1.4421L77.7028 1.39128L77.9049 1.66445L77.7401 2.57291L78.4086 2.02657L78.5983 2.31245L78.7258 2.70632L79.1051 2.66821L79.0958 3.28761L79.2855 3.57032L79.9198 3.1002L80.2836 3.09067L80.1965 3.83714L80.4981 3.93561L81.0703 3.56714L81.0019 4.28819L81.5429 3.97372L81.7668 4.19607L82.0622 4.29454L82.143 4.77101L82.4291 4.88536V5.51112L83.1505 4.8536L83.1194 5.53971L83.2469 5.94629L83.8874 5.41265L84.1393 5.59053L84.4098 5.72712L84.643 5.93676L84.6306 6.63875L84.8856 6.82299L85.2525 6.77534L85.5075 6.9564L85.7749 7.11204L86.3936 6.5117L86.2848 7.48686L86.8912 6.88334L87.1213 7.11522L87.5286 6.93416L87.6219 7.49957L87.6623 8.21744L88.1318 7.86803L88.5081 7.74733L88.9092 7.53768L88.8408 8.62403L89.217 8.49062L89.699 8.02368L89.7363 8.88449L90.0814 8.82732L90.4204 8.77332L90.6194 9.18626L91.0236 8.8972L91.375 8.78285L91.6766 8.82732L91.8725 9.29426L92.1057 9.63413L92.4757 9.41814L92.7307 9.68813L93.2189 8.90673L93.4085 9.46896L93.763 9.26249L93.9838 9.72943L94.3445 9.45943L94.6492 9.83107L94.8451 9.46578L95.3395 9.66272L95.5634 9.45625L95.694 9.08461L96.008 9.0179L96.2723 8.86226L96.2008 8.0745L96.8196 8.60179L97.0994 8.48426L97.2829 8.15709L97.3917 7.65204L97.6747 7.51863L97.967 7.4011L98.5764 8.11897L98.5422 7.15016L98.9278 7.30898L99.388 7.72192L99.4999 7.07075L99.6803 6.58475L100.035 6.68958L100.408 6.88652L100.598 6.35287L100.968 6.5657L101.226 6.26711L101.555 6.32429L101.854 6.22582L102.221 6.5784L102.51 6.41005L102.861 6.80075L103.132 6.46087L103.468 6.8611L103.732 6.20358L104.061 6.7944L104.354 6.34652L104.658 5.8637L104.969 6.22582L105.259 6.77216L105.554 6.87063L105.908 6.06382L106.16 6.76263L106.509 6.34652L106.754 6.88016L107.152 6.20041L107.473 6.18135L107.703 6.67687L108.098 6.2544L108.362 6.51487L108.576 6.97863L108.763 7.47098L109.248 6.81346L109.428 7.31216L109.814 7.08981L109.932 7.72509L110.482 7.04534L110.812 7.05169L110.924 7.63933L111.387 7.30898L111.717 7.33757L111.652 8.25238L112.053 8.10944L112.385 8.12533L112.7 8.18886L112.696 8.85273L113.163 8.63356L113.66 8.39532L113.471 9.31331L114.03 8.99249L114.033 9.55472L114.211 9.83107L114.481 9.96766L115.137 9.58649L114.954 10.3425L115.196 10.5235L115.893 10.1551L115.943 10.5807L116.07 10.9047L115.936 11.5051L116.857 10.9682L116.434 11.8481L117.003 11.7115L116.857 12.2769L117.749 11.8703L117.305 12.6835L117.958 12.5279L117.575 13.2426L118.337 13.0266L118.362 13.3982L118.71 13.5284L118.663 13.9446L119.189 13.9604L118.716 14.6497L119.086 14.7736L119.158 15.0913L119.693 15.1325L119.369 15.6725L119.944 15.7107L119.758 16.1585L120.576 16.0982L119.789 16.8224L120.461 16.851L120.016 17.3815L120.498 17.5117L121.123 17.6006L120.619 18.1248L121.051 18.3026L121.294 18.5536L120.859 19.0173L121.409 19.1793L120.964 19.6272L121.369 19.84L120.989 20.2498L121.338 20.4848L122.062 20.6564L121.975 20.9962L122.053 21.3075L122.096 21.622L121.331 22.0445L121.925 22.2827L122.143 22.5781L122.283 22.8862L122.217 23.2102L122.13 23.5342L121.863 23.8582L121.661 24.1695L121.987 24.4808L122.19 24.8016L121.62 25.0939L122.357 25.4464L121.313 25.6878L122.301 26.0849L121.263 26.2914L122.087 26.7043L121.813 26.9838L121.194 27.1998L121.86 27.6318L121.107 27.8034L120.924 28.0733L121.25 28.4609L121.036 28.7277L121.409 29.1438L120.685 29.2613L121.549 29.8458L121.322 30.1063L121.017 30.335L121.045 30.678L121.201 31.0719L121.076 31.3641L120.675 31.5388L119.988 31.577L120.088 31.955L120.467 32.4727L120.271 32.7237L120.215 33.0476L119.397 32.9619L119.801 33.5336L119.167 33.5241L119.677 34.188L119.556 34.4834L118.76 34.3405L119.164 34.9821L118.601 34.9662L118.172 35.0329L118.483 35.646L118.443 36.0113L117.914 35.9827L117.435 35.9763L117.69 36.6021L117.199 36.5703L117.364 37.1484L116.561 36.7927L117.065 37.7361L116.129 37.1993L116.058 37.5614L116.26 38.2475L116.033 38.4603L115.386 38.1585L115.582 38.8923L115.395 39.1655L114.63 38.6414L114.646 39.1814L114.472 39.4768L113.757 39.0734L113.775 39.5943L113.533 39.7881L113.769 40.4075L113.452 40.5377L113.135 40.6679L113.231 41.1793L112.731 41.1317L112.662 41.497L112.476 41.7479L111.798 41.497L111.751 41.8877L111.935 42.5325L111.418 42.4277L111.334 42.7961L110.921 42.7898L110.535 42.812L110.8 43.603L110.097 43.2313L109.761 43.298L109.826 43.8729L109.45 43.8857L109.425 44.3621L109.167 44.5336L108.838 44.5972L108.632 44.8386L108.446 45.1149L108.004 45.0006L107.818 45.2769L107.535 45.3976L107.454 45.855L107.019 45.7248L106.801 45.9567L106.655 46.3315L106.387 46.4808L105.924 46.2553L105.877 46.8461L105.57 46.9255L105.349 47.1796L104.991 47.1383L104.456 46.6809L104.515 47.5989L104.173 47.583L103.965 47.9007L103.421 47.3289L103.365 48.0754L103.063 48.1484L102.466 47.3289L102.298 47.7863L101.941 47.6434L101.698 47.888L101.431 48.0436L101.151 48.1802L100.828 48.1325L100.703 48.9362L100.402 49.0283L100.088 49.041L99.6336 48.2882L99.4222 48.8314L99.1455 49.0378L98.7879 48.7234L98.4178 48.2437L98.1753 48.7202L97.8395 48.4057L97.5659 48.6884L97.2642 48.6853L97.0093 49.4095L96.6983 49.3841L96.3687 48.9012L96.0733 49.0918L95.7686 49.1935L95.4639 49.2602L95.1623 48.4438L94.8482 49.3301L94.5621 48.6217L94.2232 49.5334L93.9216 49.4031L93.62 49.2729L93.3806 48.3867L92.9919 49.3714L92.7524 48.7011L92.4975 48.2691L92.1523 48.6376L91.8227 48.7996L91.5304 48.7043L91.3003 48.2215L90.9583 48.4438L90.7344 48.0023L90.3115 48.6027L90.0224 48.4978L89.8109 48.0373L89.5715 47.7482L89.074 48.5264L88.9309 47.8435L88.5858 47.9737L88.3712 47.6053L88.0168 47.7577L87.5846 48.1421L87.3203 47.9578L86.972 48.0373L86.9067 47.2527L86.6144 47.1828L86.2413 47.3226L85.8681 47.4591L85.6567 47.1479L85.5821 46.5062L85.3053 46.3887L84.8047 46.8143L84.7736 46.1092L84.4658 46.0615L84.0211 46.322L83.6604 46.3792L83.4614 46.0774L83.0883 46.1505L82.8489 45.944L82.8769 45.2102L82.3016 45.6645L82.2767 45.0609L82.0995 44.7592L81.6269 44.9847L81.2631 45.0133L81.232 44.4574L80.6412 44.8608L80.5603 44.4002L80.3054 44.2287L79.8731 44.3431L79.6835 44.0699L79.6741 43.5267L79.3508 43.4632L78.7164 43.8475L78.6884 43.3488L78.4304 43.1837L78.4459 42.6405L78.0759 42.6278L77.7463 42.5547L77.2239 42.7294L77.171 42.2974L77.3296 41.605L76.8321 41.732L76.6891 41.4271L76.5305 41.1444L76.4714 40.7442L75.9895 40.8363L75.4982 40.9252L75.3427 40.6362L75.4982 40.0168L74.9416 40.1597L74.6306 40.039L74.3819 39.8484L74.6679 39.1305L74.5778 38.7938L73.7133 39.2004L73.6978 38.7906V38.3745L73.7382 37.9235L73.589 37.6503L72.9049 37.8472L72.8831 37.4597L72.4323 37.4343L72.0716 37.3295L72.2239 36.8086L72.4043 36.2749L72.0249 36.186L71.4559 36.2336L71.5616 35.7699L71.0206 35.7794L70.8433 35.5253L70.8869 35.1155L70.3551 35.1028L70.89 34.3722L69.9851 34.5946L70.2214 34.0736L70.2277 33.7052L70.2743 33.3176L69.3632 33.5019L69.3508 33.1461L69.5436 32.6792L69.6586 32.2662L69.4565 32.028L69.5591 31.6278L69.4285 31.3546L68.3589 31.542L68.9404 30.9163L68.1381 30.948L68.0262 30.6558L68.7693 29.9887L68.5113 29.7664L68.6108 29.3979L68.1039 29.2709L68.1972 28.9056L68.2718 28.553L67.6375 28.4545L67.538 28.1623L67.8334 27.7398L67.0902 27.6509L67.5971 27.1744L66.8664 27.0632L67.283 26.6249L67.5598 26.2342L66.8477 26.0944L67.056 25.7291L67.3141 25.3575L67.0809 25.0939L66.5554 24.881L67.1804 24.4554L67.084 24.1632L67.1244 23.8487L66.7855 23.5882L65.9957 23.3754L66.8508 22.9656L66.1263 22.7242L66.1823 22.4034L66.3999 22.0762L66.204 21.7745L66.3999 21.4568L66.5958 21.1424L66.4466 20.8342L66.8539 20.5293L66.1978 20.2117L66.6238 19.9131L66.7606 19.6145L66.431 19.2873L66.9659 19.0205L66.2165 18.6457L65.9895 18.3058L67.0032 18.1089L66.5337 17.7404L66.3502 17.3973L66.3968 17.0861L66.8664 16.8542L66.26 16.419L67.0685 16.2697L66.7016 15.8695L67.0933 15.644L67.1369 15.339L66.8166 14.9324L67.5815 14.8244L67.0529 14.348L67.5442 14.1764L67.3203 13.7762L67.1555 13.3887L67.9671 13.3506L67.4758 12.836L68.2656 12.8137L68.0013 12.3754L67.9858 12.0323L68.4366 11.8958L68.306 11.4987L68.3402 11.1715L68.3154 10.8094L69.0367 10.8285L69.2326 10.5902L69.1736 10.2122L68.9217 9.7199L68.9683 9.38637L69.0989 9.10049L69.3943 8.91308L70.0069 8.93214L70.1499 8.66214L70.3147 8.40485L70.3458 8.05544L70.7221 7.94427L71.0081 7.77592L70.7438 7.20734L71.3222 7.25498L71.26 6.82616L70.9615 6.20358L71.6238 6.33382L71.6456 5.95582L72.2364 6.05111L72.1026 5.53653L72.4944 5.46982L72.5007 5.06642L72.9795 5.08865L73.2127 4.89171L72.709 3.99596L73.4926 4.31995L73.6729 4.06902L74.0585 4.02137L74.3228 3.55443L73.7973 3.16055L73.9372 2.80479L73.2469 2.60468L73.9092 2.18539L73.8253 1.88363L73.4615 1.57551L73.6605 1.25787L73.8191 0.956108L73.788 0.638464L73.5517 0L74.2295 0.673405L74.3228 0.549524Z" fill="#FCEE21"></path> <path d="M75.6747 5.04403L75.9918 4.86933L75.967 4.88839L76.2251 4.68509C76.421 4.57392 76.5298 4.84074 76.4489 4.93286L76.2095 5.15838L76.2002 5.16791L76.1877 5.17427L75.9359 5.34579L75.8675 5.53638L75.9608 5.86991L75.995 5.99061L75.8892 6.05732L75.6405 6.21614L75.6125 6.45437L75.6094 6.47343L75.6032 6.48931L75.5161 6.75931V7.06107V7.08013L75.513 7.09919L75.4508 7.40095L75.4384 7.46448L75.3886 7.50259L75.1212 7.70271L74.9222 8.21094L74.9253 8.48729L74.9688 8.7827L75.1088 9.1067L75.1616 9.23058L75.0559 9.30999L74.8476 9.46881L74.9813 9.68481L75.0559 9.80551L74.9502 9.9008L74.7419 10.0882L74.8351 10.3042L74.8818 10.4154L74.7947 10.4948L74.5522 10.7203L74.5677 10.9109L74.745 11.1968L74.8103 11.3016L74.7294 11.3969L74.5335 11.6288L74.6019 11.848L74.7108 12.1529L74.717 12.1656L74.7201 12.1815L74.7761 12.4864L74.7823 12.515L74.7792 12.5436L74.7356 12.8485L74.7139 13.1154L74.8196 13.3758L74.8538 13.4584L74.8072 13.5315L74.6455 13.7824L74.7667 13.9762L74.7916 14.0175V14.0651L74.7885 14.3161L74.9844 14.5352L75.0373 14.5956L75.0248 14.675L74.9782 14.9672L75.0404 15.2055L75.1989 15.4564L75.2363 15.5167L75.2207 15.5866L75.1647 15.8503L75.3233 16.044L75.3295 16.0536L75.3358 16.0631L75.5037 16.3299L75.513 16.3426L75.5192 16.3585L75.628 16.6444L75.6467 16.692L75.6343 16.7429L75.5814 16.9811L75.8177 17.105L75.8706 17.1304L75.8923 17.1844C75.9545 17.3273 76.0229 17.4671 76.0758 17.6164C76.1318 17.7593 76.1784 17.8991 76.2251 18.0388L76.3712 18.2866L76.4085 18.347L76.3899 18.4168L76.3246 18.6582L76.6106 18.7027L76.6697 18.7122L76.7101 18.7599L76.906 18.9949L76.9651 19.0648L76.9371 19.1538L76.8283 19.4936L77.0086 19.5921L77.0335 19.6048L77.0522 19.6271L77.2543 19.8494L77.4782 20.0527L77.531 20.1003V20.1734L77.5341 20.4243L77.7984 20.4593L77.8637 20.4688L77.9042 20.5228L78.0907 20.7642L78.1187 20.8023L78.1249 20.85L78.156 21.1327L78.3737 21.2216L78.4079 21.2375L78.4328 21.2661L78.6007 21.4567L78.8899 21.5202L78.9241 21.5266L78.952 21.5456L79.1946 21.7267L79.2288 21.7521L79.2474 21.7902L79.3625 22.0411L79.5895 22.146L79.6579 22.1777L79.6796 22.2508L79.7792 22.578L79.9533 22.7686C80.115 22.8734 80.2767 22.9814 80.4352 23.0925L80.712 23.2037L80.9856 23.3308L81.2748 23.4134L81.2934 23.4197L81.309 23.4293L81.5422 23.5595L81.8314 23.5754L81.8842 23.5785L81.9247 23.6103L82.1672 23.8072L82.1952 23.8295L82.2107 23.8644L82.3071 24.0677L82.587 23.8994L82.6678 23.8517L82.7487 23.8994L83.013 24.0487L83.0472 24.0677L83.0689 24.0995L83.2586 24.3854L83.439 24.4934L83.7157 24.4235L83.8245 24.3949L83.8898 24.487L84.0329 24.6871L84.2692 24.5474L84.3656 24.4902L84.4526 24.5601L84.7045 24.7602L84.8911 24.8586L85.1554 24.6966L85.2704 24.6236L85.3606 24.7252L85.6218 25.0206C85.712 25.1223 85.5378 25.3732 85.3793 25.2462L85.2207 25.0905L85.0092 25.243L84.9191 25.3097L84.7885 25.2525C84.6921 25.2081 84.5926 25.1668 84.4962 25.1223L84.49 25.1191L84.462 25.1001L84.3438 25.0175L84.1261 25.1636L83.9209 25.3002L83.7468 25.081L83.6442 24.9476L83.4887 24.9952L83.3768 25.0302L83.24 24.9571L82.9632 24.8078L82.9135 24.7792L82.8544 24.703L82.6958 24.4902L82.4439 24.6617L82.0895 24.9031L81.8656 24.487L81.7288 24.2297L81.6697 24.1852L81.4645 24.1821H81.3805L81.2717 24.1281L81.0633 24.0232L80.7928 23.9565L80.7742 23.9534L80.7213 23.9311L80.4477 23.8168L80.1678 23.7183L80.1274 23.7056L80.0683 23.6675C79.9004 23.5563 79.7294 23.4483 79.5584 23.3435L79.518 23.3181L79.462 23.2609L79.2412 23.0354L79.1666 22.9591L79.1231 22.8257L79.0857 22.7177L79.008 22.686L78.8339 22.6129L78.7344 22.4128L78.6566 22.2571L78.6255 22.2349L78.3799 22.1873L78.212 22.1555L78.0752 22.0062L77.9695 21.8887L77.7736 21.8124L77.4564 21.6886L77.4098 21.3233L77.3942 21.2026L77.2792 21.1899L76.7692 21.1295L76.7537 20.5832L76.7506 20.4752L76.7132 20.4434L76.6977 20.4307L76.6697 20.4021L76.5391 20.2655L76.3183 20.1512L75.8519 19.9098L75.9918 19.4428L75.2953 19.338L75.4788 18.6265L75.5161 18.4804L75.5006 18.4549L75.4664 18.3978L75.4415 18.3279L75.37 18.1182C75.3451 18.0452 75.3202 17.9848 75.2953 17.9213C75.2736 17.8641 75.2518 17.8038 75.2238 17.7466L75.0715 17.6672L74.6206 17.4353L74.7325 16.9239L74.7667 16.7619L74.7543 16.727L74.6424 16.5491L74.462 16.3267L74.2537 16.0694L74.3221 15.755L74.3407 15.6756L74.319 15.6406L74.2599 15.5485L74.235 15.4532L74.1573 15.1546L74.12 15.0149L74.1417 14.8815L74.1448 14.8624L74.1169 14.8306L73.9458 14.6369L73.9489 14.3859L73.9521 14.2525L73.8774 14.1255L73.666 13.7665L73.8868 13.433L73.9303 13.3663L73.8805 13.2392L73.893 13.0995L73.9241 12.766L73.9645 12.5245L73.9396 12.3721L73.8526 12.1116L73.7562 11.7844L73.6598 11.4477L73.8557 11.2254L73.8121 11.1523L73.8059 11.0284L73.7904 10.714L73.7748 10.4122L73.9707 10.2439L73.9987 10.2184L73.8712 9.8881L74.1324 9.66575L73.9147 9.28458L74.2848 9.02411L74.3221 8.9987L74.3065 8.95423L74.3034 8.91293L74.2723 8.58258L74.2661 8.52858V8.51905L74.2785 8.19506L74.2817 8.08388L74.3096 8.02353L74.5677 7.4486L74.6268 7.32154L74.7045 7.27071L74.9222 7.12778L74.9533 7.01025L74.9688 6.7466L74.9751 6.66719L74.9875 6.63543L75.0994 6.35908L75.1461 6.09861L75.1772 5.93343L75.286 5.87308L75.4508 5.78414L75.4166 5.61579L75.3979 5.5205L75.4228 5.46015C75.4632 5.36485 75.5068 5.26956 75.5503 5.17427L75.5907 5.08533L75.6747 5.04403Z" fill="#ABA000"></path> <path d="M96.001 30.9001L96.0196 31.205L96.0258 31.2971L95.9543 31.3511L95.7305 31.5195L95.7056 31.7577L95.6869 32.0722V32.0849L95.6838 32.0944L95.6247 32.3962L95.6216 32.4153L95.6123 32.4343L95.4848 32.7107L95.3822 32.9648L95.3729 33.2475L95.3698 33.3174L95.32 33.365L95.1179 33.5588L95.1365 33.8002L95.1397 33.8383L95.1272 33.8732L95.037 34.1146L95.0992 34.3942L95.1117 34.4545L95.0837 34.5085L94.95 34.7658L94.9064 35.0199L94.9251 35.3153L94.9282 35.3693L94.9002 35.4138L94.7634 35.6425L94.8038 35.8966V35.903V35.9093L94.8256 36.2174V36.227V36.2365L94.8069 36.5383L94.8038 36.5732L94.7883 36.605L94.695 36.786L94.7696 36.8464L94.9749 36.8877C95.1614 36.9067 95.348 36.9258 95.5346 36.9385L95.8144 36.9099L95.8704 36.9036L95.917 36.9353L96.116 37.0656L96.2933 36.8654L96.3275 36.8241L96.3772 36.8114L96.6664 36.7447L96.7535 36.7257L96.8188 36.7892L97.0302 36.9957L97.0893 37.0529L97.08 37.1354L97.0582 37.3228V37.3356L97.0551 37.3483L96.9773 37.6405L96.9183 37.9391L96.9058 37.9963L96.8623 38.0344L96.6726 38.1964L96.741 38.4505L96.7566 38.5045L96.7379 38.5553L96.6291 38.8412L96.6166 38.8761L96.5887 38.9015L96.3897 39.0921L96.3928 39.3431V39.3748L96.3834 39.4034L96.2933 39.6544L96.3306 39.9466L96.3337 39.9752L96.3275 40.0038L96.2653 40.3055L96.2591 40.3373L96.2404 40.3659L96.0849 40.5946L96.0694 40.8614L96.0663 40.9217L96.0258 40.9662L95.8175 41.2013L95.7242 41.449C95.69 41.6428 95.6527 41.8366 95.6154 42.0303C95.6123 42.2304 95.6061 42.4274 95.5936 42.6275L95.6092 42.8022L95.7615 42.8308L96.0476 42.7704L96.0818 42.7641L96.116 42.7736L96.4207 42.8467L96.4487 42.853L96.4736 42.8689L96.6726 42.9991L96.8841 42.7831L96.9369 42.7291L97.0115 42.7323L97.3194 42.7514L97.3505 42.7546L97.3785 42.7673L97.6739 42.9038L97.9102 42.9229L98.162 42.7768L98.2336 42.7355L98.3082 42.7704L98.5414 42.8753L98.7404 42.6847L98.7995 42.6275L98.8803 42.6434L99.1913 42.7006L99.4307 42.7133L99.6515 42.5068L99.7261 42.4369L99.8194 42.4719L100.099 42.5767L100.202 42.5354L100.404 42.4528L100.426 42.672L100.447 42.8753L100.457 42.9515L100.404 43.0087L100.193 43.2342L100.043 43.4534L100.012 43.7075L100.077 44.0219L100.09 44.0887L100.053 44.1458L100.043 44.1585H100.074L100.102 44.1712L100.326 44.2634L100.578 44.1776L100.653 44.1522L100.718 44.1967L100.97 44.3618L101.212 44.3936L101.492 44.3618L101.53 44.3587L101.564 44.3714L101.809 44.4571L102.046 44.365L102.344 44.2634L102.369 44.2538H102.394C102.574 44.2538 102.755 44.2475 102.935 44.2443L103.159 44.0728L103.224 44.0219L103.302 44.0442L103.572 44.1204L103.815 44.0537L103.837 44.0474H103.862L104.129 44.0537L104.362 43.9425L104.62 43.7901L104.645 43.7774L104.673 43.771L104.962 43.7138C105.105 43.7361 105.23 43.9394 105.025 44.0442L104.782 44.1109L104.543 44.2729L104.527 44.2824L104.26 44.4285L104.225 44.4476L104.163 44.4508L103.902 44.4571C103.815 44.4857 103.728 44.5175 103.641 44.5429L103.582 44.5588L103.51 44.5397L103.324 44.4952L103.156 44.6318L103.097 44.6795L103 44.6858C102.82 44.6985 102.637 44.7081 102.456 44.7144L102.204 44.8097C102.111 44.851 102.018 44.8891 101.921 44.9272L101.822 44.9685L101.713 44.9336L101.48 44.8542L101.247 44.8828L101.212 44.8859L101.172 44.8796L100.873 44.8446L100.808 44.8351L100.746 44.7938L100.594 44.6954L100.426 44.7557L100.317 44.7938L100.202 44.7462L99.9811 44.6572H99.7416L99.126 44.6604L99.468 44.1395C99.5053 44.0823 99.5457 44.0251 99.5862 43.9648C99.5799 43.8981 99.5706 43.8345 99.5675 43.7678L99.5644 43.6757L99.6452 43.3612L99.667 43.2723L99.6857 43.2533L99.8971 43.0118L99.9158 42.9864C99.95 42.961 99.9811 42.9324 100.012 42.9038L99.8069 42.8371C99.7447 42.9007 99.6794 42.9642 99.6204 43.0309L99.5737 43.0817L99.4804 43.0849L99.1602 43.0913L99.1322 43.0881L98.9456 43.0658L98.759 43.2818L98.6564 43.4025L98.4605 43.3358L98.2895 43.2787L98.1123 43.4057L98.0532 43.447L97.9195 43.4502L97.6023 43.4534H97.5681L97.478 43.4216L97.2448 43.339H97.1981C97.139 43.4121 97.0768 43.4851 97.0147 43.555L96.7814 43.8091L96.4518 43.6185L96.2217 43.4851C96.1782 43.4756 96.1347 43.4693 96.0911 43.4597L95.8673 43.5105L95.7802 43.5296L95.6807 43.5105C95.5781 43.4915 95.4755 43.4756 95.376 43.4565L95.006 43.3835L94.9749 43.0118L94.95 42.7006L94.9469 42.6561L94.95 42.6275L94.9686 42.3226C94.9749 42.2209 94.9749 42.1193 94.9811 42.0176L94.9873 41.9477L94.9904 41.9319C95.0402 41.7349 95.0868 41.5348 95.1303 41.3379L95.1428 41.2775L95.1521 41.2553C95.1925 41.16 95.2361 41.0647 95.2827 40.9726L95.3324 40.8678L95.3666 40.836L95.5377 40.674L95.5563 40.5374L95.575 40.4008L95.6216 40.3405L95.7957 40.1213L95.8455 39.9498L95.8331 39.6956L95.8268 39.5972L95.8486 39.5495L95.9605 39.2954L95.9761 39.0445L95.9854 38.9079L96.0601 38.8475L96.3026 38.6506C96.3275 38.5966 96.3523 38.5426 96.3772 38.4886L96.315 38.2059L96.287 38.0757L96.3772 38.0026C96.4549 37.9423 96.5327 37.8819 96.6104 37.8215L96.6633 37.5833L96.7441 37.2911L96.7566 37.2021C96.7286 37.1767 96.7037 37.1513 96.6757 37.1259C96.6353 37.1386 96.5949 37.1513 96.5576 37.1672C96.5265 37.2117 96.4954 37.2593 96.4674 37.307L96.3586 37.4848L96.2715 37.631L96.0196 37.5357L95.8362 37.4658C95.7553 37.4912 95.6714 37.5198 95.5905 37.542H95.5159C95.4164 37.5516 95.3169 37.5643 95.2174 37.5643C95.1179 37.5643 95.0184 37.5706 94.9189 37.5643L94.8722 37.5579C94.7883 37.5484 94.7043 37.5325 94.6204 37.5166L94.5147 37.4976L94.4183 37.4213C94.3468 37.3641 94.2752 37.307 94.2037 37.2498L93.8772 36.9893L94.07 36.6209L94.1819 36.4049L94.1944 36.2429L94.1788 35.9887L94.1353 35.6997L94.1073 35.5155L94.2006 35.3598C94.2317 35.3058 94.2659 35.255 94.3001 35.201L94.2939 35.0517L94.2908 34.9818L94.3001 34.9373L94.3592 34.6356L94.3747 34.5498L94.4058 34.4958L94.4836 34.3529C94.4742 34.3021 94.4649 34.2512 94.4556 34.2004L94.4307 34.0479L94.4742 33.9463L94.5644 33.7335L94.5582 33.527L94.552 33.3078L94.6888 33.1903L94.8536 33.0474C94.8567 33.0061 94.8598 32.9616 94.866 32.9203L94.8754 32.8282L94.894 32.7869L95.0308 32.501L95.1708 32.2374C95.1894 32.1611 95.2112 32.0817 95.2329 32.0055L95.2267 32.0468L95.2734 31.726L95.3324 31.4051L95.3573 31.2654L95.4382 31.2146L95.6496 31.0812C95.6527 31.0144 95.6527 30.9477 95.6558 30.881L95.662 30.8048L95.6745 30.7826L95.8393 30.503C95.9792 30.3188 96.1969 30.5094 96.1378 30.6428L96.001 30.9001Z" fill="#ABA000"></path> <path d="M101.73 21.015C100.368 19.2078 100.698 16.6151 102.467 15.224C104.236 13.8328 106.774 14.17 108.136 15.9772C109.498 17.7843 109.167 20.377 107.398 21.7682C105.629 23.1593 103.091 22.8221 101.73 21.015Z" fill="#31332A"></path> <path d="M105.606 15.5105C105.155 15.9584 105.342 16.8986 106.019 17.6165C106.697 18.3312 107.615 18.5503 108.065 18.1056C108.516 17.6578 108.33 16.7175 107.652 15.9997C106.974 15.2818 106.057 15.0658 105.606 15.5105Z" fill="#636A78"></path> <path d="M121.091 27.8289L120.923 28.0766L121.25 28.4641L121.038 28.7278L121.408 29.1439L120.684 29.2614L121.551 29.8427L121.324 30.1032L121.02 30.3319L121.048 30.6749L121.203 31.0656L121.079 31.3579L120.678 31.5358L119.99 31.5739L120.09 31.9487L120.469 32.4664L120.273 32.7206L120.217 33.0414L119.4 32.9556L119.804 33.5274L119.173 33.5178L119.679 34.1817L119.558 34.4771L118.762 34.3342L119.166 34.9758L118.604 34.9599L118.174 35.0235L118.361 35.3919C119.552 35.5603 120.805 35.1887 121.735 34.2675C123.339 32.6793 123.377 30.0651 121.825 28.4292C121.598 28.2005 121.352 27.9972 121.091 27.8289Z" fill="#31332A"></path> <path d="M121.641 30.7317C121.532 30.187 121.674 29.6964 121.96 29.6359C122.246 29.5754 122.567 29.9679 122.676 30.5125C122.786 31.0572 122.643 31.5478 122.357 31.6083C122.072 31.6689 121.751 31.2764 121.641 30.7317Z" fill="#636A78"></path> <path d="M109.608 27.006C109.583 27.0346 109.549 27.0823 109.508 27.1458C109.179 27.6413 108.408 29.093 109.082 30.0713C109.776 31.0782 114.061 32.9047 115.099 32.9269C115.196 32.9301 115.267 32.9142 115.301 32.8825C115.332 32.8507 115.348 32.784 115.354 32.6887C115.41 31.7485 114.412 27.9876 114.076 26.7488C114.002 26.4724 113.806 26.2564 113.544 26.1579C111.928 25.5639 110.227 26.5073 109.732 26.8917C109.673 26.9425 109.63 26.9806 109.608 27.006Z" fill="#FC8B2D"></path> <path d="M109.608 27.006C109.583 27.0345 109.549 27.0822 109.509 27.1457C109.919 27.6825 110.364 28.1908 110.815 28.6926C111.275 29.1977 111.744 29.6932 112.223 30.1792C112.699 30.6684 113.184 31.1448 113.678 31.6181C114.145 32.0628 114.614 32.5075 115.102 32.93C115.199 32.9332 115.27 32.9173 115.305 32.8855C115.336 32.8538 115.351 32.7871 115.357 32.6918C114.944 32.1835 114.518 31.6975 114.083 31.2147C113.625 30.7097 113.162 30.2078 112.69 29.7155C112.22 29.2199 111.741 28.7339 111.253 28.2606C110.762 27.7905 110.264 27.3268 109.736 26.8948C109.673 26.9424 109.63 26.9805 109.608 27.006Z" fill="#D13301"></path> <path d="M113.725 28.0352C113.582 28.1019 113.548 28.3656 113.644 28.626C113.741 28.8865 113.936 29.039 114.079 28.9723C114.223 28.9056 114.257 28.6419 114.16 28.3814C114.061 28.1242 113.868 27.9685 113.725 28.0352Z" fill="#D13301"></path> <path d="M74.0978 52.3667H77.6301L77.3938 41.5891C77.3938 41.5732 77.3938 41.5573 77.3938 41.5446C77.4093 41.1253 77.7545 40.8013 78.1618 40.8172C78.5723 40.8331 78.8894 41.1857 78.8739 41.6018L78.479 52.3223L87.9752 51.3598C88.2022 51.3376 88.4043 51.5059 88.4261 51.7378C88.4479 51.9697 88.2831 52.1761 88.0561 52.1984L81.0132 52.9131L89.2408 54.4378C89.4646 54.4791 89.6139 54.6982 89.5735 54.9269C89.5362 55.1302 89.3651 55.2732 89.1692 55.2732C89.1444 55.2732 89.1195 55.27 89.0946 55.2668L80.1208 53.6024L86.0069 57.3124C86.1997 57.4331 86.2619 57.6936 86.1406 57.8906C86.0225 58.0875 85.7675 58.151 85.5747 58.0271L77.9286 53.2085L74.0947 53.2117C73.8677 53.2117 73.6842 53.0243 73.6842 52.7924C73.6873 52.5541 73.8708 52.3667 74.0978 52.3667Z" fill="#FC8B2D"></path> <path d="M90.1544 52.7352C90.1544 52.9321 90.3099 53.0909 90.5027 53.0909L93.7489 53.0878L100.223 57.1695C100.384 57.2743 100.599 57.2203 100.702 57.052C100.804 56.8868 100.751 56.6676 100.587 56.5628L95.6022 53.4213L103.199 54.8285C103.22 54.8316 103.242 54.8316 103.261 54.8316C103.429 54.8316 103.575 54.7109 103.603 54.5394C103.637 54.3456 103.513 54.1614 103.323 54.1265L96.3546 52.8337L102.315 52.2301C102.505 52.2111 102.645 52.0364 102.629 51.8394C102.611 51.6457 102.44 51.5027 102.247 51.5186L94.2091 52.335L94.3242 49.2506L94.2216 49.5302L93.9168 49.3999L93.6152 49.2697L93.4038 48.4788L93.4877 52.3763H90.4996C90.3099 52.3794 90.1544 52.5383 90.1544 52.7352Z" fill="#FC8B2D"></path> </svg> 