<?xml version="1.0" encoding="UTF-8"?> <svg xmlns="http://www.w3.org/2000/svg" width="55" height="81" viewBox="0 0 55 81" fill="none"> <path d="M21 2.6875C31.1482 2.6875 39.375 11.1101 39.375 21.5C39.375 31.8899 31.1482 40.3125 21 40.3125C10.8518 40.3125 2.625 31.8899 2.625 21.5C2.625 11.1101 10.8518 2.6875 21 2.6875ZM31.5 18.8125H29.75L29.7468 19.0709C29.6129 24.3938 25.3564 28.6667 20.125 28.6667C19.9584 28.6667 19.7925 28.6623 19.6272 28.6537L21.6187 26.6126L20.3813 25.3457L16.2626 29.5625L20.3813 33.7793L21.6187 32.5124L19.5987 30.4461C19.7736 30.4542 19.949 30.4583 20.125 30.4583C26.3175 30.4583 31.3542 25.3922 31.4969 19.0874L31.5 18.8125ZM21.6187 9.22072L20.3813 10.4876L22.4007 12.5539C22.226 12.5458 22.0508 12.5417 21.875 12.5417C15.6825 12.5417 10.6458 17.6078 10.5031 23.9126L10.5 24.1875H12.25L12.2532 23.9291C12.3871 18.6062 16.6436 14.3333 21.875 14.3333C22.0416 14.3333 22.2076 14.3377 22.3729 14.3463L20.3813 16.3874L21.6187 17.6543L25.7374 13.4375L21.6187 9.22072Z" fill="#2EAFF0"></path> <g clip-path="url(#clip0)"> <path d="M13.998 76.769C13.861 73.9549 22.928 71.2472 34.2496 70.721C45.5713 70.1949 54.8603 72.0496 54.9972 74.8637C55.1341 77.6777 46.0671 80.3855 34.7455 80.9116C23.4239 81.4378 14.1349 79.583 13.998 76.769Z" fill="#E3E3E3"></path> <path d="M5.79298 46.681L5.98241 46.4356L6.32703 46.6319L6.42289 46.1145L6.74469 46.2527L6.84283 45.7108L7.15778 45.8312L7.5161 46.0921L7.70096 45.8111L7.97255 45.8044L8.1209 45.3851L8.31718 45.1242L8.60246 45.1598L9.05206 45.7777L9.12282 45.0662L9.4081 45.113L9.72077 45.2624L9.92389 45.0126L10.2936 45.3717L10.5766 45.4163L10.6725 44.7673L10.8824 44.542L11.2841 45.0216L11.5215 44.8967L11.6402 44.3435L12.035 44.7941L12.1674 44.29L12.4367 44.2811L12.6717 44.1606L13.0072 44.3837L13.2492 44.2766L13.6257 44.6357L13.66 43.8238L14.0548 44.2365L14.3766 44.3904L14.4359 43.7012L14.6916 43.6499L14.938 43.5651L15.2051 43.545L15.6204 43.9532L15.8829 43.9064L16.0746 43.6588L16.3348 43.6075L16.5881 43.5339L16.595 42.8202L17.1176 43.4402V42.7332L17.3938 42.7265L17.5284 42.3763L17.9233 42.644L18.382 43.0298L18.4527 42.5481L18.6034 42.2536L18.7175 41.8901L19.3314 42.5525L19.4752 42.2514L19.482 41.6916L20.0229 42.1622L20.1941 41.9213L20.363 41.6849L20.7304 41.8031L20.7989 41.3927L20.9381 41.1161L21.1481 40.9622L21.5452 41.1095L21.8898 41.1652L21.9811 40.8173H22.2961L22.1135 40.0768L22.5677 40.2842L22.6544 39.9519L23.0698 40.0879L23.1223 39.7155L23.5285 39.7445L23.4235 39.4188L23.8389 39.2337L23.848 38.9794L23.702 38.6895L23.848 38.462L23.9119 38.2144L23.3939 37.8085L24.0831 37.7349L24.1767 37.4985L24.0899 37.204L23.8526 36.8472L23.9393 36.5996L24.042 36.3587L24.8408 36.4011L24.236 35.8703L24.5601 35.7275L25.085 35.6874L24.7587 35.248L24.5738 34.8621L24.8499 34.7082L25.19 34.5967L24.9823 34.1752L25.3292 34.0748L25.3041 33.7514L25.5369 33.5841L25.6556 33.3477L26.0869 33.3276L26.1577 33.0577L26.6027 33.0711L26.5594 32.712L27.0021 32.7388L26.7625 32.2035L27.3171 32.3418L27.2212 31.9113L27.1117 31.4519L27.5134 31.4719L28.02 31.6102L28.2551 31.4898L27.9789 30.814L28.5518 31.0593L28.5084 30.6155L28.9763 30.7716L28.8051 30.1449L28.9831 29.9397L29.4191 30.0846L29.4008 29.6051L29.7157 29.5939L30.122 29.73L30.5328 29.8995L30.4255 29.2304L30.8341 29.4066L30.9299 29.0497L31.3818 29.3419L31.3019 28.6193L31.5028 28.4252L31.9227 28.6951L32.0026 28.2267L32.2148 28.0438L32.7283 28.6059L32.8813 28.2847L33.0889 28.0929L33.3172 27.939L33.7143 28.3204L33.8603 27.9145L34.0133 27.4795L34.4537 28.1152L34.5952 27.5955L34.9353 27.9145L35.2069 27.968L35.4534 27.881L35.6131 27.2676L35.96 27.8119L36.2134 27.7673L36.4074 27.1405L36.6949 27.3524L36.9665 27.4617L37.2472 27.8832L37.4755 27.0223L37.7516 27.7806L38.0095 27.3613L38.2629 27.7717L38.5504 27L38.7764 27.7338L39.0708 27.252L39.2762 27.8899L39.598 27.31L39.8399 27.5063L40.1252 27.3702L40.3488 27.6357L40.6706 27.3301L40.8053 28.0059L41.0997 27.8565L41.3348 27.9948L41.6794 27.6959L41.8118 28.1977L42.1769 27.8721L42.3367 28.2423L42.7863 27.716L42.7544 28.6037L43.1743 28.2133L43.2291 28.7843L43.5942 28.568L44.021 28.2446L44.037 28.8468L44.4022 28.6884L44.6966 28.6862L44.7194 29.2125L45.1439 28.9739L45.1485 29.4958L45.5182 29.3754L45.5387 29.8371L45.8902 29.7635L46.4243 29.4222L46.5794 29.672L46.8122 29.8014L47.0291 29.9553L46.8259 30.6556L47.3257 30.4348L47.6339 30.4727L47.9032 30.5664L48.0584 30.7917L48.1999 31.0281L48.2364 31.3716L48.3048 31.6727L48.6883 31.6548L49.0009 31.715L48.8366 32.2258L49.4893 31.9827L49.0123 32.7499L49.8431 32.3819L49.3456 33.1247L50.0873 32.8637L50.0941 33.1893L49.8545 33.6845L50.5118 33.5306L50.1649 34.0815L50.2197 34.3469L50.6465 34.3714L50.6807 34.6525L51.1531 34.6659L50.7925 35.1699L51.6598 34.9803L51.6826 35.2681L51.6392 35.5825L51.8606 35.7632L52.1915 35.8926L52.292 36.1335L52.1596 36.4747L51.7716 36.9119L52.0592 37.0658L52.5978 37.1349L52.6343 37.3959L52.7941 37.6144L52.2555 38.0583L52.842 38.143L52.4586 38.5177L53.1615 38.5891L53.2665 38.8322L52.7051 39.2292L53.335 39.3519L52.9881 39.682L52.7735 39.9764L53.3281 40.1415L53.5221 40.3757L53.1889 40.6768L52.9036 40.9622L53.4308 41.1652L53.1182 41.444L53.5655 41.6737L52.8717 41.9548L53.7412 42.189L52.858 42.4455L53.036 42.6953L53.57 42.9674L53.5609 43.2239L52.9949 43.4402L53.5541 43.7435L53.6066 44.0112L52.8329 44.1718L53.1684 44.4729L53.2437 44.7428L52.5704 44.9457L52.8968 45.2312L52.8694 45.4877L53.3829 45.6996L53.2733 45.965L53.1638 46.2304L53.529 46.4669L53.2003 46.739L53.3806 46.9888L53.4217 47.2453L52.8648 47.5084L53.0725 47.7605L53.57 48.017L53.198 48.269L53.3715 48.53L53.1204 48.7775L52.9036 49.0207L53.5381 49.3128L52.8945 49.5247L52.7347 49.7634L53.1204 50.0533L52.9036 50.2875L53.1752 50.5752L53.125 50.8273L52.9652 51.0637L52.9881 51.3246L53.0451 51.5945L52.7119 51.7953L52.7667 52.0629L52.6708 52.3038L52.8991 52.616L52.5613 52.8012L52.5704 53.0666L52.7096 53.3655L52.6389 53.6153L52.2258 53.7647L52.5567 54.1305L52.4198 54.358L52.4403 54.639L52.203 54.8308L51.6073 54.891L52.1961 55.3795L51.9816 55.5758L52.05 55.8836L51.3791 55.8858L51.7967 56.3453L51.6598 56.5683L50.8108 56.4568L50.9865 56.8203L50.6853 56.9542L50.6875 57.2396L50.6213 57.4917L50.5369 57.737L50.3178 57.9043L50.7263 58.4396L50.6008 58.6716L50.4205 58.8678L49.6947 58.7139L49.8979 59.1511L49.8568 59.4366L49.4528 59.47L48.9439 59.4187L49.0854 59.838L48.6951 59.8604L48.7042 60.186L48.5217 60.3667L48.8069 60.9332L48.6061 61.1049L48.1177 61.0291L48.0538 61.3146L47.9351 61.5554L47.7913 61.7785L47.1203 61.493L47.4672 62.1889L46.8693 61.9547L47.2162 62.6818L46.9583 62.7889L46.6981 62.8959L46.0226 62.5324L46.3832 63.3286L45.8354 63.0922L45.4246 62.9985L45.4406 63.4178L45.3425 63.7078L45.1097 63.8282L44.6806 63.6922L44.6098 64.0245L44.2104 63.9085L44.32 64.504L44.0849 64.62L43.6787 64.4817L43.3614 64.4617L43.5349 65.2066L43.0374 64.901L42.9096 65.1865L42.5604 65.1018L42.4394 65.4051L42.4143 65.8846L42.145 65.9382L41.9852 66.1947L41.4717 65.782L41.2549 65.9203L41.118 66.2214L40.9765 66.527L40.6615 66.4757L40.2302 66.1545L39.9951 66.2527L39.9517 66.7991L39.509 66.4155L39.2967 66.5716L39.1872 66.9887L39.0046 67.2385L38.7079 67.185L38.5276 67.4526L38.2606 67.4794L37.8361 67.0422L37.7653 67.6489L37.3865 67.3188L37.0966 67.2519L36.9528 67.6667L36.752 67.9031L36.3982 67.602L36.2864 68.1909L35.9623 67.9767L35.709 68.0303L35.5173 68.3559L35.2388 68.3158L34.9079 68.0102L34.6751 68.1686L34.5291 68.7685L34.2095 68.5009L33.9562 68.5633L33.6367 68.2422L33.4107 68.4563L33.1711 68.6169L32.9634 69.0295L32.669 68.8154L32.3472 68.3247L32.1281 68.6949L31.8588 68.6079L31.5918 68.541L31.3179 68.3492L31.0828 68.6905L30.8432 69.0362L30.5762 68.967L30.2954 68.5165L30.0512 68.9358L29.7911 69.054L29.5286 69.0942L29.2661 68.5143L29.0082 68.376L28.7389 69.1276L28.481 68.9024L28.23 68.6637L27.9835 68.3827L27.7302 68.3158L27.438 68.8399L27.1916 68.6325L26.9086 68.889L26.6301 69.0473L26.4065 68.6592L26.1942 68.2444L25.9112 68.4206L25.6008 68.7908L25.384 68.463L25.0668 68.7953L24.8066 68.7552L24.5875 68.4942L24.2611 68.8064L24.1402 68.0704L23.7339 68.7395L23.5605 68.3002L23.3436 68.086L23.1382 67.8385L22.7023 68.4897L22.4809 68.2957L22.3143 67.9121L22.134 67.6065L21.8693 67.5931L21.6913 67.3032L21.4494 67.2229L20.9222 67.9745L20.8925 67.2675L20.4338 67.7693L20.1873 67.6712L20.2306 66.8415L19.9431 66.8705L19.7787 66.5984L19.3999 66.8326L19.2356 66.5671L19.069 66.3196L18.6308 66.6474L18.3934 66.5404L18.3158 66.1211L17.8183 66.5181L17.832 65.9382L17.3299 66.3151L17.3139 65.8133L17.2454 65.4252L16.7365 65.7731L16.6383 65.4386L16.5676 65.0705L16.2709 65.0639L15.8281 65.2579L15.9445 64.6378L15.7117 64.5286L15.5451 64.3256L15.1868 64.3791L14.5843 64.7338L14.849 63.9843L14.2716 64.2832L14.1119 64.0669L14.0434 63.7479L13.7444 63.6944L13.6691 63.3933L13.5984 63.0944L13.3245 63.0097L13.3815 62.5904L12.7996 62.8045L12.8726 62.3785L12.7744 62.1242L12.3796 62.1353L12.5371 61.6603L11.8638 61.8989L11.5238 61.8409L12.0122 61.1183L11.5078 61.1897L11.1928 61.1049L11.0331 60.8997L11.1723 60.4849L10.5492 60.6008L10.9418 60.0276L10.4808 60.0209L10.5789 59.6574L10.4191 59.4544L9.98323 59.4143L10.3758 58.8946L9.77326 58.9392L9.96041 58.5467L9.5884 58.453L9.25519 58.3303L9.71849 57.8195L9.11597 57.8218L9.57014 57.3333L9.1502 57.2419L8.93339 57.0567L9.12053 56.7043L8.8033 56.5571L8.62528 56.3497L8.39249 56.1601L8.83525 55.7364L8.80786 55.4799L8.5454 55.3014L8.09579 55.1721L7.92463 54.9535L7.83105 54.7104L7.89267 54.4271L8.26925 54.068L8.19393 53.8271L8.13688 53.5796L7.94516 53.3632L8.10264 53.0733L8.16883 52.8034L7.66901 52.6383L8.0433 52.3172L7.74889 52.1097L7.19429 51.9335L7.66901 51.6101L7.45219 51.3804L7.863 51.0793L7.47273 50.8652L7.66901 50.5931L7.42937 50.3589L7.72607 50.0823L7.74889 49.8303L6.90673 49.6206L7.57087 49.3329L7.52523 49.0831L7.72835 48.8244L7.60283 48.3961L7.0528 48.4898L6.92043 48.1999L6.38865 48.5032L6.53016 47.8631L6.29964 47.7426L5.89797 47.785L5.82265 47.4839L5.73592 47.2163L5.52596 47.0534L4.99875 46.8304L5.81124 46.8081L5.79298 46.681Z" fill="#FCEE21"></path> <path d="M9.30926 48.4338L9.3937 48.1438L9.39142 48.1706L9.42337 47.8985C9.47359 47.7178 9.69953 47.8026 9.70638 47.9052L9.69953 48.1773V48.1884L9.69725 48.1996L9.64932 48.4494L9.72464 48.5988L9.98025 48.7327L10.0738 48.7817L10.051 48.8821L9.99851 49.123L10.1263 49.2746L10.1354 49.2858L10.1423 49.2992L10.2518 49.5044L10.4344 49.6761L10.4458 49.6873L10.455 49.6984L10.5987 49.9103L10.6284 49.9527L10.6216 50.004L10.5828 50.2783L10.7699 50.6887L10.9388 50.8471L11.1419 50.9898L11.4204 51.0902L11.5253 51.1281L11.5117 51.2374L11.4843 51.4537L11.6942 51.4961L11.8106 51.5207L11.8061 51.6366L11.7969 51.8686L11.9818 51.9377L12.0754 51.9734L12.0731 52.0716L12.064 52.3459L12.1895 52.4463L12.4679 52.502L12.5706 52.5221L12.5798 52.6247L12.6026 52.8745L12.776 52.9615L13.0248 53.0685L13.0362 53.073L13.0453 53.0797L13.2622 53.2224L13.2804 53.2358L13.2941 53.2537L13.4516 53.4544L13.5999 53.6194L13.819 53.7042L13.8875 53.731L13.9035 53.8023L13.9582 54.0432L14.1477 54.0856L14.1865 54.0945L14.2161 54.1213L14.3668 54.2663L14.6155 54.273L14.684 54.2752L14.7251 54.3287L14.8734 54.5228L15.056 54.6209L15.3025 54.6677L15.3596 54.6789L15.3915 54.728L15.517 54.9131L15.7293 54.9287H15.7384L15.7475 54.9309L16.0077 54.9822L16.0214 54.9844L16.0351 54.9889L16.2725 55.087L16.3136 55.1027L16.3364 55.1383L16.4482 55.3079L16.6627 55.2365L16.7107 55.2209L16.7563 55.2365C16.8796 55.2811 17.0028 55.319 17.126 55.3725C17.2447 55.4194 17.3566 55.4729 17.4707 55.5242L17.708 55.5777L17.7674 55.5911L17.7993 55.6424L17.9066 55.8186L18.1051 55.6714L18.1462 55.6402L18.1987 55.6424L18.4566 55.658L18.5342 55.6625L18.5707 55.7294L18.7122 55.9881L18.8788 55.9346L18.9016 55.9279H18.9268L19.1824 55.9346L19.438 55.9167L19.4996 55.9123L19.5452 55.9547L19.6982 56.0974L19.8785 55.9591L19.9241 55.9257L19.9812 55.9324L20.2391 55.9569L20.2779 55.9614L20.3098 55.9859L20.5015 56.1286L20.6864 56.0483L20.7161 56.035L20.748 56.0372L20.9625 56.0461L21.1748 55.9078L21.1999 55.8922L21.2296 55.8878L21.4829 55.8431L21.5194 55.8365L21.5536 55.8476L21.7727 55.9212L21.9713 55.8431L22.0306 55.8208L22.0877 55.8498L22.3433 55.977L22.5624 55.9814C22.7222 55.9435 22.8842 55.9078 23.0463 55.8766L23.279 55.774L23.5187 55.6826L23.7401 55.5554L23.7538 55.5465L23.7697 55.542L23.9865 55.4751L24.1691 55.3101L24.2011 55.2811L24.2467 55.2744L24.5092 55.2409L24.5411 55.2365L24.5708 55.2454L24.7511 55.3012L24.8173 55.0357L24.8356 54.9599L24.9131 54.9376L25.1596 54.864L25.1916 54.8551L25.2258 54.8618L25.5111 54.9108L25.6846 54.864L25.8078 54.6566L25.8557 54.5763L25.9493 54.5897L26.1547 54.6187L26.2118 54.3956L26.2346 54.3064L26.3282 54.293L26.5997 54.2551L26.7709 54.1993L26.8303 53.9473L26.8554 53.8358L26.9718 53.8403L27.3073 53.8514C27.4214 53.8559 27.4693 54.1034 27.2981 54.128L27.111 54.1347L27.0767 54.3488L27.063 54.4402L26.9512 54.4848C26.8668 54.5183 26.7823 54.554 26.6979 54.5852L26.691 54.5874L26.6614 54.5941L26.5404 54.6164L26.497 54.8305L26.4582 55.0313L26.2232 55.009L26.0817 54.9956L26.0178 55.116L25.9721 55.203L25.8466 55.2432L25.591 55.3257L25.5431 55.3413L25.4609 55.3324L25.2372 55.3079L25.1893 55.5577L25.1231 55.9101L24.7374 55.8052L24.5023 55.7405L24.4407 55.7517L24.3152 55.8744L24.265 55.9234L24.1668 55.9569L23.9797 56.0216L23.7789 56.1465L23.7652 56.1554L23.7195 56.1755L23.4867 56.2736L23.2608 56.3851L23.2288 56.4007L23.1695 56.4141C23.0029 56.452 22.8363 56.4922 22.6697 56.5368L22.6309 56.5479H22.5624L22.2954 56.5502L22.2041 56.5524L22.0968 56.5033L22.0101 56.4632L21.9462 56.49L21.7978 56.5524L21.6176 56.4967L21.4783 56.4543L21.4464 56.461L21.2729 56.5814L21.152 56.6639L20.9785 56.6617L20.8439 56.6595L20.6818 56.7331L20.4171 56.8535L20.1683 56.6728L20.0861 56.6126L20.0085 56.6728L19.6662 56.945L19.3261 56.6416L19.2577 56.5814L19.2166 56.5859L19.2006 56.5881H19.1664H19.0066L18.8058 56.655L18.3836 56.7978L18.1873 56.4476L17.708 56.8067L17.3885 56.2892L17.3223 56.1822L17.2972 56.1777L17.2424 56.1666L17.1854 56.1398L17.0165 56.064C16.9594 56.0372 16.9069 56.0171 16.8522 55.9948C16.802 55.9747 16.7563 55.9547 16.7038 55.9368L16.5669 55.9837L16.1561 56.1242L15.9142 55.7651L15.8388 55.6513L15.8092 55.6402L15.6357 55.6045L15.3938 55.5867L15.1154 55.5643L14.967 55.3413L14.9305 55.2855L14.8963 55.2789L14.8073 55.261L14.7342 55.2209L14.5083 55.096L14.401 55.038L14.3325 54.9488L14.3234 54.9354L14.2892 54.9331L14.0701 54.9242L13.9194 54.777L13.8396 54.699L13.7186 54.6722L13.374 54.5941L13.3055 54.2685L13.2918 54.2038L13.1868 54.1614L13.1115 54.0744L12.9312 53.8648L12.808 53.7042L12.7007 53.6306L12.4907 53.5347L12.2374 53.4053L11.9772 53.2715L11.959 53.0262L11.8882 53.0106L11.8083 52.9436L11.6075 52.7719L11.4181 52.6091L11.4318 52.395L11.4341 52.3637L11.1602 52.2522L11.183 51.9667L10.8224 51.8797L10.8886 51.5073L10.8954 51.4694L10.8589 51.4537L10.8315 51.4314L10.6124 51.2619L10.5759 51.2329L10.5714 51.2262L10.3842 51.0344L10.3203 50.9697L10.2998 50.9184L10.1081 50.4344L10.0647 50.3252L10.0807 50.2471L10.124 50.0352L10.0738 49.9482L9.92547 49.7876L9.87983 49.7386L9.86842 49.714L9.768 49.4888L9.63791 49.3103L9.55575 49.1966L9.58542 49.0962L9.62878 48.9468L9.50782 48.8732L9.43707 48.8308L9.41653 48.7817C9.38229 48.7037 9.35034 48.6211 9.32067 48.5408L9.291 48.4672L9.30926 48.4338Z" fill="#ABA000"></path> <path d="M37.0419 50.9654L37.2382 51.1305L37.2952 51.1796L37.2861 51.2532L37.2542 51.4851L37.3842 51.6368L37.5623 51.8264L37.5691 51.8331L37.5737 51.8398L37.7197 52.0472L37.7289 52.0606L37.7357 52.0762L37.8247 52.3104L37.916 52.5178L38.0803 52.6851L38.1214 52.7252V52.7832L38.1168 53.0174L38.272 53.1445L38.2971 53.1646L38.3108 53.1914L38.4044 53.3832L38.6098 53.5059L38.6532 53.5326L38.6692 53.5817L38.7445 53.8092L38.8723 53.9809L39.0617 54.1371L39.0959 54.1661L39.1051 54.2107L39.1598 54.4248L39.3379 54.5452L39.3424 54.5497L39.347 54.5541L39.5456 54.717L39.5524 54.7236L39.5592 54.7303L39.7304 54.9132L39.751 54.9355L39.7601 54.9645L39.8149 55.1251L39.897 55.114L40.0431 55.0158C40.1663 54.9155 40.2873 54.8129 40.4082 54.7103L40.5589 54.5251L40.5885 54.4872L40.6365 54.4761L40.8328 54.4315L40.8168 54.2107L40.8145 54.1661L40.8373 54.1281L40.9697 53.9162L41.0085 53.8538L41.0838 53.8516L41.3349 53.8426L41.4056 53.8404L41.449 53.8939L41.5494 54.0144L41.5562 54.0233L41.5608 54.0322L41.6909 54.2463L41.8347 54.4515L41.8621 54.4917L41.8575 54.5408L41.8415 54.746L42.0355 54.8508L42.0766 54.8731L42.0971 54.9132L42.2067 55.143L42.2204 55.172V55.2032L42.2158 55.4307L42.3687 55.5712L42.387 55.589L42.3984 55.6113L42.4965 55.8098L42.6951 55.9548L42.7133 55.9682L42.727 55.9883L42.8708 56.1979L42.8868 56.2202L42.8914 56.247L42.937 56.47L43.0876 56.6306L43.1219 56.6663L43.1242 56.7154L43.1401 56.9763L43.2337 57.1748C43.3296 57.3064 43.4254 57.438 43.519 57.5719C43.6377 57.6878 43.7541 57.8061 43.8659 57.9265L43.9823 58.0157L44.0896 57.9399L44.2242 57.7347L44.2402 57.7101L44.2653 57.6945L44.4912 57.5518L44.5118 57.5384L44.5346 57.5339L44.7309 57.4871L44.7263 57.2351V57.1726L44.772 57.1302L44.9682 56.954L44.9865 56.9362L45.0116 56.9273L45.2695 56.8269L45.4224 56.6953L45.484 56.4611L45.5023 56.3942L45.5685 56.3674L45.7693 56.2872L45.7716 56.0597V55.9905L45.8286 55.9504L46.05 55.7965L46.2007 55.6604L46.2075 55.4084L46.2098 55.3236L46.2874 55.2879L46.5179 55.1786L46.5544 55.0917L46.6252 54.9244L46.7712 55.0359L46.9059 55.1407L46.9561 55.1809L46.9584 55.2433L46.9698 55.4998L47.0154 55.7139L47.1501 55.8768L47.3783 56.0173L47.4262 56.0485L47.4399 56.1043L47.4422 56.1176L47.4605 56.0998L47.4856 56.0886L47.675 56.0084L47.7731 55.8076L47.8028 55.7474L47.869 55.7318L48.1178 55.6738L48.2821 55.5467L48.4282 55.3593L48.4464 55.3348L48.4738 55.3214L48.6724 55.221L48.7591 55.0248L48.8755 54.7883L48.8846 54.7683L48.9006 54.7526C49.0078 54.6434 49.1128 54.5318 49.2178 54.4203L49.2475 54.1861L49.2566 54.1192L49.316 54.0858L49.5236 53.9653L49.6286 53.7802L49.6378 53.7623L49.6514 53.749L49.8158 53.5928L49.8888 53.3899L49.9504 53.1468L49.9573 53.1245L49.971 53.1044L50.1079 52.897C50.206 52.8234 50.4023 52.8635 50.3453 53.0464L50.2403 53.2315L50.1946 53.4702L50.1901 53.4858L50.117 53.7311L50.1079 53.7623L50.0714 53.8003L49.9208 53.9609C49.8865 54.03 49.8523 54.0991 49.8158 54.1661L49.7907 54.2107L49.7382 54.2441L49.599 54.3311L49.5807 54.5118L49.5739 54.5764L49.5214 54.6367C49.4209 54.7526 49.3182 54.8664 49.2133 54.9801L49.1197 55.1876C49.0877 55.2679 49.0558 55.3459 49.0215 55.424L48.9873 55.5065L48.9006 55.5511L48.7134 55.647L48.5925 55.8032L48.5742 55.8255L48.5468 55.8478L48.346 56.0061L48.3003 56.0418L48.2387 56.0574L48.0904 56.0931L48.0265 56.2269L47.9854 56.3161L47.8895 56.3585L47.7047 56.4411L47.5632 56.586L47.198 56.9585L47.0885 56.4544C47.077 56.3987 47.0656 56.3407 47.0542 56.2849C47.0109 56.2515 46.9675 56.218 46.9241 56.1823L46.8648 56.131L46.7233 55.9013L46.6822 55.8366L46.6799 55.8143L46.6617 55.5489L46.6594 55.5221C46.664 55.4864 46.6662 55.4508 46.6685 55.4151L46.5042 55.4998C46.5042 55.5734 46.5065 55.6493 46.5088 55.7229L46.511 55.7809L46.4563 55.8388L46.2691 56.0351L46.2509 56.0507L46.1276 56.1511L46.1459 56.3853L46.1573 56.5147L45.9998 56.5949L45.8629 56.6641L45.8332 56.8425L45.8241 56.9027L45.7465 56.983L45.5593 57.1771L45.5388 57.1972L45.4658 57.2328L45.2763 57.3243L45.2489 57.3533C45.2581 57.4313 45.2649 57.5094 45.2695 57.5875L45.2832 57.8752L44.9705 57.9644L44.7514 58.0269C44.7195 58.0492 44.6875 58.0692 44.6556 58.0915L44.5529 58.2566L44.5141 58.319L44.4433 58.3681C44.3726 58.4194 44.3018 58.4729 44.2288 58.522L43.964 58.7027L43.7221 58.5086L43.519 58.3458L43.4893 58.3213L43.4733 58.3034L43.3022 58.1183C43.2428 58.0581 43.1835 58.0001 43.1264 57.9376L43.0876 57.893L43.0808 57.8819C42.9918 57.7391 42.9005 57.5964 42.8069 57.4581L42.7795 57.4157L42.7704 57.3957C42.7362 57.3176 42.7065 57.2373 42.6768 57.157L42.6426 57.0678V57.0299L42.6449 56.8336L42.5741 56.7444L42.5034 56.6552L42.4965 56.5927L42.4691 56.363L42.3961 56.2359L42.2364 56.0976L42.1724 56.044L42.1565 56.0039L42.072 55.7898L41.9305 55.6381L41.8529 55.5556L41.8621 55.4775L41.8894 55.2188C41.8712 55.172 41.8529 55.1274 41.8347 55.0827L41.627 54.9578L41.5311 54.8998L41.5425 54.8039C41.5517 54.7214 41.5631 54.6411 41.5722 54.5586L41.4581 54.3913L41.3303 54.175L41.2846 54.117C41.2527 54.1192 41.223 54.1214 41.1911 54.1237C41.1751 54.1549 41.1591 54.1861 41.1431 54.2174C41.1523 54.262 41.1614 54.3066 41.1728 54.3512L41.2162 54.5185L41.2504 54.6545L41.0404 54.7504L40.8875 54.8218C40.8556 54.8865 40.8236 54.9511 40.7871 55.0136L40.7437 55.0582C40.689 55.1229 40.6388 55.192 40.5794 55.25C40.5201 55.3102 40.4653 55.3749 40.4037 55.4307L40.3717 55.4552C40.3147 55.4998 40.2553 55.5422 40.196 55.5823L40.1207 55.6359L40.018 55.6515C39.9404 55.6626 39.8628 55.6716 39.7875 55.6827L39.4337 55.7296L39.3265 55.4039L39.2648 55.2121L39.1735 55.1117L39.0115 54.9757L38.8107 54.8374L38.6829 54.7504L38.6463 54.6054C38.6326 54.5564 38.6235 54.5051 38.6121 54.4538L38.5185 54.3735L38.4752 54.3356L38.4546 54.3066L38.3086 54.0991L38.2675 54.0389L38.2538 53.9899L38.215 53.8605C38.1785 53.8382 38.142 53.8137 38.1077 53.7913L38.0005 53.72L37.9639 53.6352L37.8886 53.459L37.7608 53.3453L37.6239 53.2248L37.633 53.0754L37.6444 52.8947C37.6216 52.868 37.5965 52.8412 37.5737 52.8144L37.5235 52.7564L37.5098 52.7208L37.4185 52.4754L37.3432 52.2412C37.3089 52.1855 37.2724 52.1297 37.2405 52.0717L37.2633 52.0985L37.0967 51.8866L36.9392 51.668L36.8707 51.5721L36.889 51.4963L36.9346 51.2933C36.8958 51.2532 36.857 51.2152 36.8182 51.1751L36.7749 51.1283L36.7703 51.1082L36.6996 50.8495C36.6699 50.6599 36.9187 50.6376 36.962 50.7491L37.0419 50.9654Z" fill="#ABA000"></path> <path d="M32.4448 40.8995C31.0909 39.5765 31.0909 37.4313 32.4448 36.1083C33.7986 34.7852 35.9936 34.7852 37.3475 36.1083C38.7013 37.4313 38.7013 39.5765 37.3475 40.8995C35.9936 42.2226 33.7986 42.2226 32.4448 40.8995Z" fill="#31332A"></path> <path d="M33.4994 36.3918C33.4994 36.9182 34.1772 37.3442 35.0148 37.3442C35.8524 37.3442 36.5303 36.9182 36.5303 36.3918C36.5303 35.8655 35.8524 35.4395 35.0148 35.4395C34.1772 35.4372 33.4994 35.8655 33.4994 36.3918Z" fill="#636A78"></path> <path d="M50.17 34.1059L50.2202 34.349L50.647 34.3735L50.6812 34.6523L51.1536 34.6679L50.793 35.172L51.6626 34.9824L51.6831 35.2701L51.6398 35.5869L51.8634 35.7653L52.1921 35.8969L52.2925 36.1378L52.1601 36.479L51.7721 36.9139L52.0574 37.0678L52.5983 37.1348L52.6325 37.3979L52.7923 37.6165L52.2514 38.0604L52.8379 38.1451L52.4545 38.5198L53.1575 38.5934L53.2624 38.8343L52.701 39.2313L53.3309 39.354L52.9863 39.6841L52.7695 39.9785L53.105 40.0744C53.9197 39.4544 54.4424 38.4886 54.4424 37.4024C54.4424 35.5311 52.8904 34.0122 50.9733 34.0122C50.6972 34.0122 50.4279 34.0457 50.17 34.1059Z" fill="#31332A"></path> <path d="M51.7767 34.6143C51.642 34.8218 51.852 35.1876 52.2468 35.4329C52.6416 35.6782 53.0707 35.7095 53.2054 35.502C53.34 35.2946 53.13 34.9288 52.7352 34.6835C52.3404 34.4381 51.9113 34.4069 51.7767 34.6143Z" fill="#636A78"></path> <path d="M42.8187 40.5496C42.8233 40.5808 42.8301 40.6299 42.8438 40.6901C42.9465 41.1719 43.3619 42.4633 44.3547 42.6172C45.3771 42.7733 49.0379 41.2388 49.6701 40.6277C49.7294 40.5719 49.7637 40.5206 49.7637 40.4805C49.7637 40.4448 49.734 40.3957 49.6769 40.3377C49.1452 39.7667 46.2786 38.2188 45.3315 37.7125C45.1192 37.5988 44.8728 37.5921 44.6582 37.6969C43.3345 38.3304 42.8872 39.8939 42.8256 40.4113C42.8187 40.4738 42.8164 40.5206 42.8187 40.5496Z" fill="#FC8B2D"></path> <path d="M42.8187 40.5493C42.8233 40.5806 42.8301 40.6296 42.8438 40.6899C43.4144 40.7501 43.985 40.7702 44.5555 40.788C45.1352 40.8014 45.7149 40.7992 46.2923 40.788C46.872 40.7791 47.4494 40.7612 48.0291 40.7345C48.5769 40.7077 49.1246 40.6787 49.6701 40.6274C49.7294 40.5717 49.7637 40.5204 49.7637 40.4802C49.7637 40.4445 49.734 40.3954 49.6769 40.3375C49.1246 40.2951 48.5746 40.275 48.0246 40.2616C47.4449 40.2482 46.8675 40.2393 46.2878 40.2416C45.7081 40.2416 45.1307 40.2527 44.5532 40.275C43.9781 40.3018 43.4007 40.3375 42.8233 40.4088C42.8187 40.4735 42.8164 40.5204 42.8187 40.5493Z" fill="#D13301"></path> <path d="M45.8225 38.6248C45.7791 38.7497 45.916 38.9214 46.1306 39.0106C46.3451 39.0998 46.5551 39.0708 46.5984 38.9459C46.6418 38.821 46.5049 38.6493 46.2903 38.5601C46.0758 38.4731 45.8658 38.4999 45.8225 38.6248Z" fill="#D13301"></path> <path d="M20.0056 73.9412H23.0296L22.8265 65.1155C22.8265 65.1043 22.8265 65.091 22.8265 65.0776C22.8402 64.7341 23.1346 64.4687 23.4838 64.4798C23.8353 64.4932 24.1068 64.7809 24.0954 65.1222L23.7577 73.901L31.8894 73.1137C32.0834 73.0958 32.2568 73.2341 32.2751 73.4215C32.2933 73.6111 32.1518 73.7806 31.9579 73.7984L25.9304 74.3828L32.9735 75.6318C33.1652 75.6652 33.293 75.8459 33.2565 76.0333C33.2245 76.2005 33.0762 76.3165 32.9096 76.3165C32.889 76.3165 32.8685 76.3143 32.8457 76.3121L25.1635 74.9493L30.2028 77.9893C30.3694 78.0897 30.4196 78.3016 30.3169 78.4644C30.2142 78.6272 29.9974 78.6763 29.8308 78.5759L23.2852 74.6281L20.0033 74.6303C19.8093 74.6303 19.6518 74.4764 19.6518 74.2869C19.6518 74.0973 19.8093 73.9412 20.0056 73.9412Z" fill="#FC8B2D"></path> <path d="M33.425 73.2181C33.425 73.4077 33.5825 73.5616 33.7765 73.5616L37.0584 73.5594L43.6039 77.5071C43.7705 77.6053 43.9873 77.5562 44.09 77.3934C44.1927 77.2328 44.1403 77.0209 43.9759 76.9183L38.9344 73.8783L46.6188 75.2411C46.6393 75.2455 46.6622 75.2455 46.6827 75.2455C46.8493 75.2455 46.9977 75.1273 47.0296 74.9623C47.0638 74.7749 46.936 74.5965 46.7443 74.5608L39.7012 73.3118L45.7287 72.7274C45.9227 72.7073 46.0642 72.5401 46.0437 72.3505C46.0254 72.1609 45.852 72.0248 45.658 72.0427L37.5262 72.83L37.7271 67.6109L37.3847 67.312L37.0949 67.2451L36.9511 67.66L36.748 67.8964L36.6818 67.8406L36.7982 72.8679H33.7742C33.5802 72.8746 33.425 73.0285 33.425 73.2181Z" fill="#FC8B2D"></path> </g> <defs> <clipPath id="clip0"> <rect width="50" height="54" fill="white" transform="matrix(-1 0 0 1 55 27)"></rect> </clipPath> </defs> </svg> 