<?xml version="1.0" encoding="UTF-8"?> <svg xmlns="http://www.w3.org/2000/svg" width="118" height="84" viewBox="0 0 118 84" fill="none"> <path d="M111 47C111 54.1797 105.18 60 98 60C94.2151 60 90.8081 58.3827 88.4325 55.8013C87.8085 55.1237 87.2562 54.3792 86.786 53.5807C85.6511 51.6503 85 49.401 85 47C85 39.8203 90.8203 34 98 34C100.402 34 102.651 34.6511 104.581 35.7866C105.379 36.2562 106.123 36.8085 106.801 37.4331C109.382 39.8076 111 43.2151 111 47Z" fill="#F0CD00"></path> <path d="M111 47C111 54.0179 105.44 59.7368 98.4839 59.991C91.5281 59.7368 85.9678 54.0179 85.9678 47C85.9678 39.9821 91.5281 34.2632 98.4839 34.009C105.44 34.2632 111 39.9821 111 47Z" fill="#FFDE50"></path> <path d="M106.801 37.4331L88.4326 55.8013C87.8086 55.1237 87.2563 54.3793 86.7861 53.5807L104.581 35.7866C105.379 36.2562 106.123 36.8086 106.801 37.4331Z" fill="#FFEA94"></path> <path d="M110.103 42.2474L93.2465 59.1038C92.0531 58.6348 90.9457 57.9943 89.9551 57.2127L108.212 38.9554C108.994 39.9461 109.634 41.0535 110.103 42.2474Z" fill="#FFEA94"></path> <path d="M108.102 47C108.102 52.5788 103.579 57.1018 98.0002 57.1018C96.0571 57.1018 94.2424 56.5531 92.7021 55.6023C92.0308 55.1884 91.4122 54.6976 90.8571 54.1426C90.4491 53.7351 90.0755 53.292 89.7418 52.8192C89.2823 52.1682 88.8976 51.4603 88.601 50.7084C88.1616 49.5968 87.9144 48.3881 87.8995 47.1242C87.8984 47.0828 87.8984 47.0414 87.8984 47C87.8984 41.4211 92.4208 36.8982 98.0002 36.8982C98.0416 36.8982 98.0835 36.8982 98.1249 36.8993C99.3888 36.9141 100.597 37.1619 101.709 37.6007C102.461 37.8979 103.168 38.282 103.819 38.7415C104.292 39.0758 104.735 39.4488 105.143 39.8569C105.698 40.4114 106.189 41.0306 106.603 41.7018C107.553 43.2422 108.102 45.0569 108.102 47Z" fill="#FAA300"></path> <path d="M105.143 39.8569L90.8571 54.1426C90.4491 53.735 90.0755 53.292 89.7418 52.8192C89.2823 52.1682 88.8976 51.4603 88.601 50.7084C88.1616 49.5968 87.9144 48.3881 87.8995 47.1242C87.8984 47.0828 87.8984 47.0414 87.8984 47C87.8984 41.4211 92.4208 36.8982 98.0002 36.8982C98.0416 36.8982 98.0835 36.8982 98.1249 36.8993C99.3888 36.9141 100.597 37.1619 101.709 37.6007C102.461 37.8979 103.168 38.282 103.819 38.7415C104.292 39.0758 104.735 39.4488 105.143 39.8569Z" fill="#FFBD00"></path> <path d="M108.102 47C108.102 52.5788 103.579 57.1018 98.0001 57.1018C97.8085 57.1018 97.6186 57.0965 97.4297 57.0859C102.743 56.7903 106.961 52.3873 106.961 47C106.961 41.6127 102.743 37.2097 97.4297 36.9141C97.6186 36.9035 97.8085 36.8982 98.0001 36.8982C103.579 36.8982 108.102 41.4211 108.102 47Z" fill="#F68E00"></path> <path d="M98.5208 49.1788C101.165 49.1788 103.316 47.0276 103.316 44.3836C103.316 41.7395 101.165 39.5884 98.5208 39.5884H93.231C92.6449 39.5884 92.1698 40.0635 92.1698 40.6496V47.0563H91.447C90.8609 47.0563 90.3857 47.5314 90.3857 48.1175C90.3857 48.7037 90.8609 49.1788 91.447 49.1788H92.1698V50.3993H91.447C90.8609 50.3993 90.3857 50.8744 90.3857 51.4606C90.3857 52.0467 90.8609 52.5218 91.447 52.5218H92.1698V53.6063C92.1698 54.1924 92.6449 54.6675 93.231 54.6675C93.8171 54.6675 94.2922 54.1924 94.2922 53.6063V52.5218H98.0041C98.5902 52.5218 99.0653 52.0467 99.0653 51.4606C99.0653 50.8744 98.5902 50.3993 98.0041 50.3993H94.2922V49.1788H98.5208ZM94.2922 41.7108H98.5208C99.9945 41.7108 101.194 42.9098 101.194 44.3836C101.194 45.8573 99.9945 47.0563 98.5208 47.0563H94.2922V41.7108Z" fill="#F68E00"></path> <path d="M99.8469 49.1788C102.491 49.1788 104.642 47.0276 104.642 44.3836C104.642 41.7395 102.491 39.5884 99.8469 39.5884H94.5572C93.971 39.5884 93.4959 40.0635 93.4959 40.6496V47.0563H92.7731C92.187 47.0563 91.7119 47.5314 91.7119 48.1175C91.7119 48.7037 92.187 49.1788 92.7731 49.1788H93.4959V50.3993H92.7731C92.187 50.3993 91.7119 50.8744 91.7119 51.4606C91.7119 52.0467 92.187 52.5218 92.7731 52.5218H93.4959V53.6063C93.4959 54.1924 93.971 54.6675 94.5572 54.6675C95.1433 54.6675 95.6184 54.1924 95.6184 53.6063V52.5218H99.3303C99.9164 52.5218 100.392 52.0467 100.392 51.4606C100.392 50.8744 99.9164 50.3993 99.3303 50.3993H95.6184V49.1788H99.8469ZM95.6184 41.7108H99.8469C101.321 41.7108 102.52 42.9098 102.52 44.3836C102.52 45.8573 101.321 47.0563 99.8469 47.0563H95.6184V41.7108Z" fill="#FFEA94"></path> <rect width="84" height="84" rx="42" fill="white"></rect> <g clip-path="url(#clip0)"> <path d="M47.5403 65.595C47.4021 62.6661 56.5622 59.8477 68.0001 59.2998C79.438 58.752 88.8223 60.6822 88.9606 63.6111C89.0988 66.54 79.9387 69.3584 68.5008 69.9063C57.0629 70.4541 47.6786 68.5239 47.5403 65.595Z" fill="#E3E3E3"></path> <path d="M39.0004 34.6507L39.5324 34.8807L39.7426 35.0533L39.8309 35.333L39.9061 35.6466L40.311 35.5996L40.5446 35.7277L40.4018 36.3942L40.9416 36.0806L41.074 36.3812L41.6293 36.2845L41.7565 36.7288L41.5515 36.9981L41.593 37.2595L40.9235 37.5575L41.7747 37.7744L41.7539 38.0385L41.4529 38.326L41.6942 38.5691L41.497 38.854L41.8915 39.0762L41.4762 39.3899L41.6916 39.6278L41.2141 39.965L41.7747 40.148L42.0731 40.3623L41.6916 40.6969L42.1977 40.8694L42.1302 41.1491L41.9719 41.4524L42.1639 41.6798L42.221 41.936L42.2989 42.1869L41.9174 42.5607L41.8551 42.8561L41.9486 43.1096L42.125 43.3371L42.5766 43.473L42.8413 43.6612L42.8724 43.9278L42.4261 44.3696L42.6622 44.5657L42.8413 44.78L43.1631 44.9342L42.9736 45.3002L43.1942 45.4936L43.6199 45.5903L43.1605 46.0975L43.7704 46.0949L43.3006 46.6281L43.638 46.7536L44.0143 46.8503L43.8249 47.2581L44.4321 47.211L44.0351 47.7521L44.4763 47.794L44.6372 48.0057L44.5385 48.3847L45.0057 48.39L44.6086 48.9886L45.2392 48.8657L45.0991 49.297L45.26 49.5114L45.5792 49.6002L46.0879 49.5244L45.5922 50.2773L45.9373 50.3374L46.6173 50.0917L46.459 50.5857L46.8586 50.5753L46.9573 50.8393L46.882 51.2837L47.4711 51.0615L47.4114 51.498L47.6891 51.5869L47.7618 51.8953L47.8396 52.209L48.1407 52.2639L48.2107 52.5959L48.3716 52.8207L48.9555 52.5096L48.6882 53.2912L49.2955 52.9227L49.6588 52.8678L49.8249 53.0795L50.0611 53.1945L49.9443 53.8402L50.3907 53.6389L50.6917 53.6467L50.7618 54.031L50.8604 54.3787L51.3743 54.0153L51.4443 54.4205L51.4599 54.9407L51.9686 54.5512L51.953 55.1524L52.4564 54.7394L52.5343 55.1759L52.7731 55.2857L53.2168 54.9459L53.3855 55.2047L53.5516 55.4792L53.9357 55.2361L54.1018 55.521L54.3925 55.4896L54.3483 56.3549L54.5975 56.4568L55.062 55.934L55.0932 56.6712L55.6252 55.8896L55.8691 55.9706L56.0508 56.2712L56.3181 56.2869L56.5023 56.6032L56.671 57.0031L56.8942 57.207L57.3328 56.5274L57.5404 56.7862L57.761 57.0084L57.9375 57.4684L58.3475 56.7705L58.4695 57.539L58.7991 57.2149L59.0223 57.4867L59.287 57.5259L59.6036 57.1809L59.8242 57.5233L60.1278 57.1312L60.4133 56.9482L60.6287 57.3795L60.8545 57.7847L61.1347 57.62L61.4202 57.3508L61.6693 57.5678L61.9652 57.0214L62.2221 57.0894L62.4713 57.3848L62.7256 57.6331L62.9851 57.8657L63.2576 57.0815L63.5171 57.2253L63.7844 57.8318L64.0491 57.7899L64.3112 57.6671L64.5604 57.2305L64.8433 57.6985L65.1132 57.7716L65.3571 57.4135L65.5933 57.0554L65.871 57.2567L66.1409 57.3247L66.4133 57.4161L66.6339 57.0293L66.9583 57.539L67.2542 57.7638L67.4644 57.3325L67.7057 57.1678L67.9367 56.943L68.2585 57.275L68.5154 57.2096L68.8372 57.4893L68.9878 56.8646L69.2213 56.6999L69.5561 57.0162L69.8364 57.058L70.031 56.7182L70.288 56.6633L70.6175 56.8855L70.7291 56.2738L71.0847 56.5875L71.2897 56.3418L71.435 55.9105L71.7283 55.981L72.1124 56.3235L72.1824 55.6909L72.6106 56.1457L72.8805 56.1196L73.0622 55.8399L73.3632 55.8948L73.5449 55.6334L73.6565 55.1995L73.8693 55.0348L74.3157 55.4347L74.3572 54.8649L74.596 54.7629L75.0319 55.0975L75.3486 55.1498L75.4757 54.8675L75.4913 54.8309L75.6288 54.5146L75.8494 54.3734L76.3321 54.7734L76.3814 54.9903L76.3892 54.9956L76.602 54.9485L76.82 54.9015L76.9394 55.1001L76.9809 55.1707L77.1003 55.1498L77.2171 55.1289L77.3235 55.1942C77.4636 55.2805 77.609 55.3641 77.7517 55.4452L77.9775 55.5314L78.0891 55.5733L78.1514 55.6831L78.2396 55.8425L78.372 55.8869L78.4498 55.9131L78.5095 55.9758L78.6289 56.0987L78.6989 56.1118L78.9766 56.0124L79.231 55.9183L79.3841 56.151L79.5528 56.4045L79.5839 56.4516L79.5995 56.5117L79.6566 56.7287L79.6929 56.7417L79.9239 56.7679L79.9862 56.7731L80.0484 56.8045L80.1341 56.8463L80.3547 56.7522L80.8322 56.5509L80.8581 57.0763L80.8633 57.2122L80.9957 57.1208L81.276 56.9273L81.4966 57.1966L81.59 57.309L81.7249 57.3325L81.9014 57.3639L81.9922 57.5207C82.0312 57.5887 82.0727 57.6566 82.1142 57.7272L82.1921 57.6802L82.5606 57.4527L82.7474 57.8527L82.8305 58.0304L82.9031 57.9808L83.1211 57.8292L83.3495 57.9782L83.5727 58.1219L83.6999 58.2056L83.7077 58.2343L84.0191 58.0409L84.2241 58.4461C84.3071 58.6055 84.385 58.7702 84.4654 58.9323L84.6575 59.0211H84.6601L84.699 58.9689L84.5667 58.7754L84.6679 58.5794L84.6653 58.5768L84.4629 58.4199L84.5018 58.1637L84.5122 58.0906L84.4369 58.0043L84.398 57.9546L84.372 57.8945L84.2604 57.6436L84.2423 57.607L84.2345 57.5651L84.1748 57.3064L84.154 57.2096L84.1748 57.1103L84.2189 56.9169L84.1929 56.7365L84.1566 56.4934L84.3071 56.3679L84.141 56.1666L83.8763 55.8503L84.1099 55.6308L83.7647 55.3485L84.18 55.006L84.4135 54.8152L84.4603 54.7002L84.4992 54.5564L84.577 54.2689L84.8651 54.2349L85.013 54.2166L85.0338 54.214L85.0494 54.2114L85.3167 54.2035L85.4464 54.1983L85.5528 54.261L85.7838 54.4022L85.7916 54.4074L85.8824 54.3212L86.3599 53.8794L86.5727 54.4911L86.6117 54.5982L86.6532 54.5643L87.1541 54.1486L87.315 54.7263L87.6419 54.5486L87.7873 55.04L87.7925 55.0609L87.9067 54.9564L88.1558 54.7316L88.4205 54.9276L88.5529 55.0243L88.6956 55.0322L88.7657 55.0348L88.8279 55.0609L89.0719 55.1603L89.1939 55.2491L89.2613 55.3772L89.3703 55.5863L89.4508 55.6046L89.4923 55.6151L89.5261 55.6282L89.7051 55.7066H89.7129L89.9179 55.4556L90.0451 55.2988L90.2397 55.3119L90.4992 55.3302L90.6134 55.338L90.7017 55.4034L90.7847 55.4661L90.8626 55.4399L91.078 55.3641L91.2441 55.5184L91.3894 55.6543L91.5062 55.5393L91.693 55.3511L91.9292 55.4635L92.1913 55.5889L92.2121 55.5994L92.2302 55.6125L92.4223 55.7353L92.5131 55.6099L92.6325 55.4426L92.8323 55.453L93.0815 55.4661L93.3254 55.4556L93.4059 55.453L93.4759 55.4818L93.7251 55.5811L93.7666 55.4792L93.9093 55.1237L94.1377 55.2308L94.1247 55.1472L94.1143 55.0923H94.1014L93.8029 55.108L93.738 54.8152L93.6965 54.6191L93.6031 54.5643L93.5901 54.5564L93.5797 54.5486L93.4526 54.4545L93.2501 54.4388L93.0399 54.4257L92.9543 54.2323L92.905 54.1251L92.8012 54.1042L92.7648 54.0963L92.7311 54.0833L92.4872 53.9787L92.3237 53.9107L92.2821 53.7408L92.2121 53.4664L92.1031 53.4873L91.8254 53.5396L91.7164 53.286L91.5814 53.3226L91.296 53.3984L91.1714 53.1292L91.0494 52.8651L91.0364 52.8338L91.0287 52.8024L90.982 52.6247L90.8755 52.5515L90.7224 52.4469L90.7198 52.2613V52.2404H90.3928L90.3669 51.9738L90.2553 51.9947L89.7934 52.0731L89.8479 51.6052L89.8634 51.464L89.8401 51.451L89.539 51.3307L89.1056 51.1608L89.3859 50.787L89.456 50.6903L89.3807 50.6537L89.3314 50.5282L89.2172 50.2407L89.142 50.0551L89.2613 49.8956L89.3937 49.7205L89.4145 49.5114L89.4326 49.3179L89.6065 49.2291L89.8764 49.0905L89.9075 49.0774L89.9387 49.067L90.0451 49.0356L90.0633 48.9677L90.0892 48.6409L90.11 48.4083L90.3306 48.3324L90.6056 48.241L90.629 48.2331L90.655 48.2279L90.8678 48.1913L91.0053 48.0841L91.0416 48.0527L91.0884 48.0344L91.1636 48.0031L91.1948 47.8515L91.2155 47.7547L91.2804 47.6816L91.4595 47.4829L91.4984 47.4358L91.5529 47.4071L91.7865 47.2816L91.8773 47.2319L91.9811 47.2398L92.2095 47.2581C92.2744 47.1927 92.3055 47.1614 92.3704 47.0986L92.3574 46.8791L92.3263 46.3693L92.8116 46.5131L92.8167 46.5157L92.8401 46.1916L93.2112 46.2386L93.4266 46.2648L93.4033 46.155L93.3877 46.0844L93.1827 45.7812L93.014 45.5302L92.9465 45.4989L92.783 45.5145L92.7052 45.5224L92.6299 45.4962L92.5209 45.457L92.4067 45.5093L92.142 45.6923L91.8695 45.8831L91.6619 45.6217L91.514 45.4387L91.5036 45.4335L91.3193 45.5172L91.0079 45.6583L90.8548 45.3551L90.7458 45.1407L90.725 45.1329L90.4655 45.159L90.289 45.1773L90.1671 45.0466L89.9387 44.7957L89.6688 44.5055L89.9854 44.265L90.2813 44.0429L90.2864 43.9749L90.289 43.9409L90.2968 43.9095L90.3072 43.8677L90.0762 43.6272L89.8349 43.3763L90.0762 43.1253L90.1489 43.0495L90.1203 42.9267L90.0477 42.6078L90.3591 42.5058L90.4759 42.4692L90.4733 42.464L90.4318 42.1764L90.7017 42.0771L90.8262 42.0301V42.0274L90.7614 41.7399L90.751 41.6929L90.7536 41.6432L90.7666 41.353L90.7717 41.2589L90.821 41.1805L90.9638 40.9505L91.0027 40.8851L91.0676 40.8433L91.1766 40.7701L91.1818 40.6603L91.187 40.5322L91.2726 40.4355L91.3089 40.3963L91.1896 40.3571L91.0468 40.3074L90.943 40.3702L90.751 40.4904L90.5745 40.3623L90.4967 40.3074L90.4733 40.3336L90.2397 40.5819L90.0036 40.344L89.8686 40.2081L89.8556 40.2186L89.8219 40.2421L89.7908 40.2551L89.5935 40.3336L89.4067 40.5061L89.3833 40.5296L89.36 40.5427L89.1134 40.6943L88.9499 40.7989L88.7916 40.7021L88.6307 40.6028L88.5814 40.6237L88.392 40.825L88.2388 40.9897L88.0416 40.8956L87.93 40.8407L87.8366 40.9191L87.6653 41.0629L87.4862 40.9426L87.3409 40.8459L87.2423 40.8982L87.0788 40.9845L87.0477 40.9609L87.0451 40.8747L87.3876 40.6812L87.1567 40.3571L87.193 40.263L87.2553 40.1061L87.2008 39.8264L87.5355 39.6173L87.481 39.3376L87.4577 39.0658L87.6186 38.8201L87.6705 38.5587L87.3954 38.258L87.616 38.0149L87.2267 37.7117L87.3876 37.4634L88.0364 37.2412L87.3954 36.938L87.616 36.6844L87.8703 36.4282L87.6939 36.1564L88.0702 35.895L87.5667 35.6257L87.3591 35.3643L87.9196 35.0899L87.8807 34.8232L87.699 34.5644L88.0312 34.2795L87.6627 34.0338L87.7743 33.7593L87.8859 33.4822L87.3669 33.26L87.3954 32.9934L87.0658 32.6954L87.7432 32.4837L87.6679 32.2014L87.3279 31.8877L88.1091 31.7204L88.0546 31.4407L87.4914 31.1244L88.0624 30.8996L88.0728 30.6304L87.533 30.348L87.3539 30.0892L88.2466 29.82L87.3669 29.5769L88.0676 29.2867L87.616 29.0463L87.93 28.7561L87.398 28.5444L87.6887 28.249L88.0234 27.9353L87.8288 27.6922L87.2682 27.5197L87.4862 27.2138L87.8366 26.8688L87.2008 26.7407L87.7691 26.3277L87.6627 26.0741L86.9516 25.9983L87.3409 25.6062L86.7466 25.52L87.2916 25.0573L87.1281 24.8299L87.0918 24.5554L86.5468 24.4874L86.2561 24.328L86.648 23.8731L86.7829 23.5176L86.6791 23.2667L86.347 23.1307L86.1212 22.9425L86.1653 22.6132L86.1445 22.3152L85.2674 22.5112L85.6333 21.9884L85.1558 21.9727L85.122 21.6826L84.6912 21.6564L84.6367 21.3794L84.9871 20.8043L84.3253 20.9637L84.5667 20.4462L84.5589 20.1089L83.8115 20.3808L84.3123 19.6071L83.4741 19.9913L83.9568 19.194L83.2976 19.445L83.4611 18.9143L83.1445 18.8516L82.7578 18.8725L82.6903 18.5588L82.654 18.2007L82.5113 17.955L82.3556 17.7224L82.0831 17.6256L81.7716 17.5864L81.2682 17.8165L81.4732 17.0871L81.2526 16.9277L81.0164 16.7918L80.8607 16.533L80.3183 16.8885L79.9654 16.9669L79.9446 16.4859L79.5709 16.6114L79.5657 16.0677L79.1375 16.3186L79.1142 15.7697L78.8157 15.7723L78.4498 15.9396L78.4316 15.3122L78.0034 15.6494L77.6323 15.8742L77.5778 15.2809L77.1548 15.686L77.1886 14.7607L76.7318 15.3096L76.5735 14.9254L76.2024 15.2652L76.0674 14.7424L75.7171 15.0534L75.4809 14.9097L75.1825 15.0665L75.0475 14.3607L74.7205 14.6796L74.4947 14.3999L74.2067 14.5411L73.9627 14.3346L73.6357 14.941L73.4281 14.2745L73.1297 14.7764L72.8961 14L72.6055 14.8025L72.3511 14.3738L72.0916 14.8103L71.8113 14.0209L71.583 14.9175L71.2975 14.4784L71.025 14.366L70.7343 14.1438L70.5397 14.7973L70.2854 14.8443L69.935 14.2771L69.7715 14.9149L69.525 15.0064L69.2473 14.9515L68.9047 14.6195L68.7646 15.1632L68.3182 14.5019L68.1651 14.9541L68.0172 15.375L67.6149 14.9776L67.3865 15.1371L67.1763 15.3384L67.0206 15.673L66.5016 15.0874L66.2862 15.2783L66.2057 15.7671L65.7827 15.4848L65.5777 15.686L65.6581 16.4389L65.2014 16.1356L65.1028 16.5068L64.6927 16.3239L64.7991 17.0192L64.3839 16.844L63.9739 16.7029L63.6573 16.716L63.678 17.2152L63.2342 17.0636L63.0552 17.2754L63.2265 17.9289L62.7541 17.7642L62.7983 18.2269L62.2195 17.9707L62.4998 18.6739L62.2611 18.7993L61.7498 18.6556L61.345 18.6346L61.4539 19.113L61.55 19.56L60.9894 19.4162L61.2308 19.9704L60.787 19.9443L60.8311 20.3181L60.3795 20.305L60.3095 20.5873L59.8735 20.6082L59.7515 20.8539L59.5179 21.0265L59.5413 21.3637L59.1884 21.4682L59.3986 21.9048L59.056 22.0198L58.7757 22.1792L58.9626 22.5818L59.2922 23.0419L58.7627 23.0811L58.4332 23.2301L59.0456 23.7843L58.2385 23.7398L58.1347 23.9908L58.0439 24.2495L58.2852 24.6207L58.3735 24.9292L58.2774 25.1749L57.5819 25.2507L58.1062 25.6742L58.0413 25.9304L57.8934 26.1682L58.0413 26.4715L58.0335 26.7381L57.6157 26.9289L57.7221 27.2687L57.312 27.24L57.2575 27.6269L56.8397 27.4857L56.7515 27.8307L56.2947 27.6164L56.4764 28.3875H56.1598L56.0689 28.7483L55.716 28.6908L55.3137 28.5365L55.1035 28.6986L54.9634 28.9861L54.8959 29.4122L54.5248 29.2894L54.3535 29.5351L54.1822 29.786L53.6347 29.2972L53.6269 29.8775L53.4815 30.1912L52.8613 29.5011L52.7471 29.8775L52.594 30.1834L52.5239 30.6852L52.062 30.2853L51.6623 30.0056L51.5274 30.3689L51.2471 30.3742L51.2497 31.1113L50.7229 30.4657L50.7151 31.208L50.4582 31.2839L50.1934 31.3361L49.9988 31.5949L49.7341 31.6446L49.3163 31.2185L49.0464 31.2394L48.7972 31.3283L48.5403 31.3806L48.478 32.0994L48.1536 31.94L47.754 31.5113L47.7202 32.3556L47.3387 31.9818L47.0948 32.0942L46.7574 31.8616L46.5187 31.987L46.2488 31.9975L46.1138 32.5203L45.7168 32.0498L45.5948 32.6275L45.3534 32.7608L44.9512 32.2615L44.7384 32.4941L44.6423 33.1712L44.3569 33.1241L43.9832 32.7503L43.7782 33.0091L43.4615 32.8549L43.1735 32.8052L43.1034 33.5476L42.6492 32.9045L42.3612 32.8679L42.1614 33.1398L42.0108 33.5763L41.7357 33.5816L41.5489 33.8717L41.1882 33.6025L40.869 33.477L40.7703 34.0416L40.4459 33.8979L40.3499 34.4364L39.9996 34.2325L39.8101 34.4886L39.8283 34.6219L39.0004 34.6507Z" fill="#FCEE21"></path> <path d="M76.0698 39.8709L76.0361 39.8631L76.0101 39.8421L75.8103 39.6748L75.5871 39.6095L75.5715 39.6043L75.5637 39.599L75.1797 39.4082L74.8527 39.7533L74.7774 39.8317L74.6892 39.7716L74.4945 39.6382L74.2713 39.6173L74.1857 39.6095L74.1649 39.5285L74.0689 39.186L73.8898 39.2984L73.8509 39.322L73.8094 39.3141L73.5836 39.2749L73.3319 39.3559L73.2307 39.3899L73.1969 39.2906L73.0724 38.9063L72.8881 39.0135L72.8518 39.0344L72.8128 39.024L72.613 38.9638L72.3639 39.1651L72.2938 39.2226L72.2367 39.1547L72.0109 38.8906L71.8059 38.6894L71.6139 38.739L71.3647 39.0998L71.2947 39.1991L71.235 39.0945L70.9806 38.6554C70.9625 38.6214 70.9729 38.577 71.0066 38.5587C71.0403 38.5377 71.0845 38.5482 71.1026 38.5822L71.3024 38.9115L71.4971 38.6162L71.5153 38.5926L71.5464 38.5848L71.8059 38.5116L71.8526 38.4985L71.889 38.5325L72.1329 38.7626L72.1355 38.7652L72.1381 38.7678L72.312 38.9612L72.5274 38.7782L72.5637 38.7469L72.613 38.7599L72.8206 38.8174L73.075 38.6632L73.1814 38.5979L73.2229 38.7181L73.363 39.1154L73.5395 39.0527L73.5654 39.0449L73.5914 39.0501L73.8016 39.0841L74.0741 38.9037L74.2039 38.8201L74.2506 38.9717L74.3725 39.3795L74.5464 39.3899L74.5776 39.3925L74.6061 39.4108L74.7385 39.4971L75.0525 39.1494L75.12 39.0788L75.2108 39.1207L75.6753 39.3429L75.9167 39.4082L75.9426 39.4161L75.966 39.4344L76.1632 39.5912L76.3657 39.633L76.6226 39.6043L76.7108 39.5938L76.7627 39.6722L76.9444 39.9441L77.1234 40.0513L77.3362 40.0617L77.601 40.0199L77.6658 40.0094L77.7203 40.0486L77.9176 40.1898L78.1382 40.1976L78.1693 40.2003L78.2004 40.2133L78.3743 40.2891L78.5949 40.1741L78.665 40.1375L78.7402 40.1689L78.9946 40.2682L79.0024 40.2708L79.0127 40.2761L79.1347 40.3414L79.3475 40.0983L79.402 40.033L79.4928 40.0356L79.755 40.0434H79.7783L79.8043 40.0513L80.0586 40.1297L80.0923 40.1401L80.1235 40.1637L80.3155 40.3205L80.5128 40.3231H80.575L80.6295 40.3623L80.7723 40.4721L80.9202 40.3885L81.1849 40.1767L81.3718 40.0251L81.4963 40.2369L81.5898 40.4015L81.6702 40.31L81.8337 40.1218L81.9998 40.3153L82.0828 40.4146L82.1866 40.2917L82.3709 40.0748L82.5422 40.3074L82.6408 40.4407L82.7187 40.3649L82.8277 40.2578L82.973 40.3179L83.2091 40.412L83.3597 40.4355L83.5465 40.3205L83.6555 40.2552L83.7749 40.31L83.928 40.3806C84.0656 40.3048 84.2005 40.2316 84.3406 40.1637L84.5483 40.0617L84.6702 40.2604L84.8233 40.5061C84.922 40.4486 85.0206 40.3911 85.1166 40.331L85.2619 40.2421L85.4047 40.3466L85.5915 40.48L85.7498 40.4538L85.7732 40.4486L85.8043 40.4512L86.0197 40.459L86.217 40.3963L86.4531 40.2891L86.6971 40.1637L86.8502 40.0852L86.9929 40.1898L87.1305 40.2891L87.1979 40.2525L87.1616 40.3466L87.3926 40.6708L87.05 40.8642L87.0526 40.9505L86.941 40.8642L86.7905 40.7518L86.6919 40.7989L86.4272 40.9139L86.409 40.9217L86.396 40.927L86.1365 41.0028L86.0872 41.0158L86.0431 41.0132L85.8017 40.9975L85.5682 41.0315L85.4566 41.0472L85.3709 40.9845L85.2308 40.8799C85.1088 40.9505 84.9868 41.0211 84.8623 41.089L84.6391 41.2119L84.5145 40.9975L84.3536 40.7283C84.2498 40.7806 84.1486 40.8276 84.0474 40.8825L83.9358 40.9426L83.8268 40.8877L83.6763 40.8146L83.5284 40.9008L83.4505 40.9479L83.3675 40.9322L83.1053 40.8851L83.0742 40.8799L83.0534 40.8721L82.9315 40.8198L82.7758 40.9688L82.5811 41.157L82.428 40.94L82.3398 40.8146L82.2541 40.9113L82.0802 41.1073L81.9167 40.9087L81.8259 40.7989L81.7143 40.9217L81.5119 41.1439L81.3692 40.8851L81.2498 40.6682L81.1641 40.7335L81.1486 40.744L81.1356 40.7518L80.8579 40.9034L80.7385 40.9688L80.6373 40.8877L80.4401 40.7309L80.2428 40.7257L80.1728 40.7231L80.1235 40.6786L79.9081 40.4956L79.7134 40.4303L79.5629 40.4225L79.3086 40.7021L79.21 40.8093L79.088 40.7387L78.8466 40.6028L78.678 40.5322L78.4574 40.642L78.3821 40.6786L78.3068 40.6446L78.0863 40.5401L77.8501 40.527L77.7982 40.5218L77.7593 40.493L77.5776 40.3545L77.3674 40.3859L77.3492 40.3885L77.3337 40.3859L77.0638 40.3649L77.0248 40.3623L76.9937 40.344L76.7549 40.195L76.7238 40.1741L76.7056 40.148L76.5577 39.9179L76.3708 39.9336L76.3475 39.9362L76.3267 39.931L76.0698 39.8709Z" fill="#ABA000"></path> <path d="M67.2538 48.3534L67.2875 48.2488L67.4095 47.8646C67.4198 47.828 67.4588 47.8071 67.4951 47.8175C67.534 47.828 67.5574 47.8672 67.547 47.9064L67.4717 48.1861L67.8584 48.1652L67.9986 48.1573L67.9441 48.2933L67.8169 48.62L68.105 48.6122L68.1543 48.6096L68.1906 48.6488L68.3593 48.8291L68.5747 48.9729L68.5799 48.9755L68.5877 48.9834L68.7719 49.1507L68.9925 49.2892L69.0133 49.3023L69.0315 49.3258L69.182 49.5428L69.1898 49.5532L69.1975 49.5741L69.2936 49.8303L69.3922 49.995L69.6335 50.0368L69.7373 50.0551L69.7581 50.1675C69.7892 50.3296 69.8126 50.4916 69.836 50.6537L70.1292 50.5544L70.2927 50.4995L70.3524 50.6694L70.4329 50.8942L70.6093 50.9961L70.6327 51.0092L70.656 51.0354L70.7676 51.1608L71.0271 51.1399L71.2659 51.1216L71.2374 51.37L71.2166 51.5529L71.349 51.5059L71.4839 51.4562L71.5825 51.5686L71.7616 51.7725L71.7797 51.7934L71.7927 51.8248L71.9147 52.0783L71.9744 52.1672L72.2131 52.1071L72.3273 52.0783L72.4208 52.162L72.6206 52.3371L72.6725 52.3842L72.6933 52.46L72.7529 52.6848L72.8931 52.7475L72.932 52.7658L72.9683 52.8024L73.1604 52.9959L73.1915 53.0272L73.2123 53.0743L73.285 53.239L73.4381 53.2703L73.464 53.2756L73.4952 53.2886L73.6509 53.3592L73.9363 53.2808L74.2374 53.1998L74.2685 53.5187L74.3023 53.835L74.3749 53.8951L74.5358 53.9369L74.8161 53.9055L74.9199 53.8951L75.0108 53.9604L75.1742 54.0754L75.3922 54.1173L75.4597 54.1303L75.522 54.18L75.6492 54.2872L75.849 54.2976L75.9606 54.3029L76.0462 54.3891L76.2383 54.5852L76.298 54.6453L76.3187 54.7368L76.3291 54.7838L75.8464 54.3839L75.6258 54.5251L75.4883 54.8414L75.4727 54.878L75.413 54.8727L75.3429 54.81L75.1924 54.6793L74.9952 54.6348L74.9303 54.6218L74.8836 54.5852L74.7538 54.4885L74.5358 54.5068L74.4813 54.512L74.4346 54.4989L74.1699 54.4205L74.1102 54.4022L74.0687 54.3682L73.8637 54.1957L73.7703 54.1173L73.7625 54.0049L73.7521 53.8794L73.6872 53.8951L73.5938 53.9186L73.5133 53.8794L73.2953 53.7748L73.0488 53.7199L72.9138 53.6886L72.8645 53.5657L72.7607 53.3095L72.6388 53.1788L72.4415 53.0847L72.3325 53.0325L72.3066 52.9201L72.2417 52.6456L72.1898 52.5959L71.9225 52.656L71.7642 52.69L71.6811 52.5593L71.528 52.3215L71.5176 52.3032L71.5124 52.2901L71.4009 52.0365L71.3412 51.9659L71.0323 52.0653L70.7053 52.1725L70.7547 51.8379L70.7962 51.5555L70.6898 51.5608L70.5912 51.5634L70.5315 51.4928L70.3758 51.3072L70.1785 51.1817L70.1162 51.1425L70.0981 51.0798L70.0565 50.9491L69.7451 51.0432L69.5479 51.1033L69.5271 50.9047C69.5064 50.7112 69.483 50.5178 69.4571 50.3243L69.265 50.2825L69.1949 50.2695L69.1638 50.2119L69.0289 49.9715L69.0211 49.9584L69.0185 49.9479L68.9328 49.6865L68.8135 49.5009L68.6162 49.3676L68.6058 49.3598L68.5981 49.3545L68.4164 49.1742L68.2062 49.0226L68.1932 49.0147L68.1854 49.0043L68.0453 48.8448L67.656 48.8396L67.4951 48.837L67.56 48.6932L67.7131 48.3534L67.3602 48.356L67.2538 48.3534Z" fill="#ABA000"></path> <path d="M66.7262 28.4755C65.358 27.0974 65.358 24.863 66.7262 23.4849C68.0944 22.1068 70.3127 22.1068 71.6809 23.4849C73.0491 24.863 73.0491 27.0974 71.6809 28.4755C70.3127 29.8536 68.0944 29.8536 66.7262 28.4755Z" fill="#31332A"></path> <path d="M69.3224 24.7723C68.4767 24.7723 67.7912 24.3276 67.7912 23.779C67.7912 23.2304 68.4767 22.7856 69.3224 22.7856C70.168 22.7856 70.8535 23.2304 70.8535 23.779C70.8535 24.3276 70.168 24.7723 69.3224 24.7723Z" fill="#636A78"></path> <path d="M84.6337 21.4002L84.683 21.6538L85.1138 21.6799L85.1476 21.9701L85.6251 21.9858L85.2592 22.5086L86.1363 22.3125L86.1571 22.6105L86.113 22.9399L86.3388 23.1255L86.671 23.2614L86.7748 23.5124L86.6398 23.8679L86.2479 24.3201L86.536 24.4822L87.081 24.5527L87.1173 24.8272L87.2808 25.0546L86.7358 25.5173L87.3275 25.6036L86.9409 25.9931L87.6519 26.0689L87.7583 26.3198L87.19 26.7328L87.8258 26.8609L87.4755 27.206L87.2549 27.5118L87.5922 27.6137C88.4149 26.9681 88.9443 25.9617 88.9443 24.8298C88.9443 22.8798 87.3742 21.3009 85.4408 21.3009C85.1657 21.3035 84.8932 21.3349 84.6337 21.4002Z" fill="#31332A"></path> <path d="M86.2587 21.9283C86.1238 22.1452 86.3366 22.5269 86.7336 22.7804C87.1333 23.0366 87.5667 23.068 87.7016 22.851C87.8366 22.634 87.6238 22.2524 87.2267 21.9988C86.827 21.7453 86.3937 21.7139 86.2587 21.9283Z" fill="#636A78"></path> <path d="M77.2059 28.1078C77.2085 28.1418 77.2163 28.1915 77.2319 28.2542C77.3357 28.7561 77.7535 30.1023 78.7578 30.2618C79.7907 30.4265 83.4889 28.8267 84.1273 28.1889C84.187 28.1287 84.2207 28.0765 84.2207 28.0372C84.2207 28.0006 84.1896 27.951 84.1351 27.8882C83.5979 27.2949 80.7016 25.682 79.744 25.1566C79.5312 25.039 79.2821 25.0311 79.0641 25.1383C77.7276 25.797 77.2734 27.4256 77.2111 27.9641C77.2059 28.0294 77.2033 28.0791 77.2059 28.1078Z" fill="#FC8B2D"></path> <path d="M77.2059 28.1078C77.2085 28.1417 77.2163 28.1914 77.2319 28.2542C77.808 28.3169 78.3867 28.3378 78.9603 28.3561C79.5442 28.3692 80.1307 28.3666 80.7146 28.3561C81.2985 28.3483 81.8824 28.3273 82.469 28.3012C83.0217 28.2751 83.5771 28.2437 84.1273 28.1888C84.187 28.1287 84.2207 28.0764 84.2207 28.0372C84.2207 28.0006 84.1896 27.9509 84.1351 27.8882C83.5771 27.8464 83.0217 27.8228 82.4664 27.8098C81.8824 27.7967 81.2985 27.7862 80.712 27.7889C80.1281 27.7889 79.5442 27.7993 78.9603 27.8255C78.379 27.8542 77.795 27.8908 77.2137 27.964C77.2059 28.0293 77.2033 28.079 77.2059 28.1078Z" fill="#D13301"></path> <path d="M80.2549 26.1944C80.2108 26.3251 80.3483 26.5028 80.5663 26.5969C80.7817 26.6884 80.9945 26.6596 81.0386 26.5289C81.0828 26.3982 80.9452 26.2205 80.7272 26.1264C80.5118 26.0349 80.299 26.0663 80.2549 26.1944Z" fill="#D13301"></path> <path d="M54.1594 62.8768H57.2139L57.0089 53.686C57.0089 53.6729 57.0089 53.6598 57.0089 53.6467C57.0219 53.2912 57.3203 53.0115 57.6733 53.0246C58.0262 53.0377 58.3039 53.3383 58.2909 53.6938L57.9484 62.835L66.1621 62.0142C66.3568 61.9959 66.5332 62.1397 66.5514 62.3357C66.5696 62.5318 66.4268 62.7095 66.2322 62.7278L60.1413 63.3369L67.2573 64.6387C67.4519 64.6753 67.5791 64.8609 67.5454 65.0569C67.5142 65.2294 67.3637 65.3523 67.195 65.3523C67.1743 65.3523 67.1535 65.3497 67.1301 65.3471L59.3679 63.9277L64.4597 67.0932C64.6284 67.1978 64.6803 67.4174 64.5765 67.5873C64.4727 67.7572 64.2547 67.8095 64.086 67.7049L57.4735 63.5957L54.1568 63.5983C53.9596 63.5983 53.8013 63.4388 53.8013 63.2402C53.8039 63.0389 53.9622 62.8768 54.1594 62.8768Z" fill="#FC8B2D"></path> <path d="M67.7167 62.1267C67.7167 62.3253 67.875 62.4848 68.0722 62.4848L71.3888 62.4822L78.0014 66.5914C78.17 66.696 78.388 66.6437 78.4918 66.4738C78.5957 66.3065 78.5438 66.0843 78.3777 65.9797L73.2859 62.8141L81.0481 64.2336C81.0689 64.2388 81.0896 64.2388 81.113 64.2388C81.2817 64.2388 81.4322 64.1159 81.4633 63.9434C81.4971 63.7473 81.3699 63.5618 81.1753 63.5252L74.0593 62.226L80.1502 61.6169C80.3474 61.596 80.4901 61.4209 80.4694 61.2248C80.4512 61.0288 80.2747 60.885 80.0801 60.9033L71.8663 61.7241L72.0662 56.2948L71.721 55.9837L71.4278 55.9158L71.2824 56.3471L71.0774 56.5928L71.0099 56.5327L71.1267 61.7685H68.0722C67.875 61.7685 67.7167 61.928 67.7167 62.1267Z" fill="#FC8B2D"></path> </g> <defs> <clipPath id="clip0"> <rect width="79" height="56" fill="white" transform="matrix(-1 0 0 1 118 14)"></rect> </clipPath> </defs> </svg> 