<?xml version="1.0" encoding="UTF-8"?> <svg xmlns="http://www.w3.org/2000/svg" width="271" height="76" viewBox="0 0 271 76" fill="none"> <path d="M271 53.0005C271 43.0594 262.941 35.0005 253 35.0005H97V53.0005C97 62.9416 105.059 71.0005 115 71.0005H253C262.941 71.0005 271 62.9416 271 53.0005Z" fill="#414141"></path> <path d="M108.12 60.9925C108.088 60.9765 108.024 60.9525 107.928 60.9205C107.832 60.8885 107.728 60.8725 107.616 60.8725C107.424 60.8245 107.264 60.7205 107.136 60.5605C107.024 60.4005 106.968 60.2165 106.968 60.0085C106.968 59.8965 106.976 59.8085 106.992 59.7445C107.04 59.6965 107.08 59.5685 107.112 59.3605C107.16 59.1685 107.184 58.9925 107.184 58.8325C107.232 58.7365 107.272 58.6405 107.304 58.5445C107.336 58.4325 107.376 58.2805 107.424 58.0885C107.552 57.3845 107.848 56.2005 108.312 54.5365C108.776 52.8725 109.064 51.9845 109.176 51.8725V51.6085C109.176 51.5605 109.192 51.4645 109.224 51.3205C109.256 51.1765 109.328 51.0245 109.44 50.8645C109.504 50.6725 109.552 50.4885 109.584 50.3125C109.632 50.1205 109.664 49.9765 109.68 49.8805C109.744 49.8005 109.848 49.5605 109.992 49.1605C110.152 48.7605 110.256 48.4965 110.304 48.3685C110.416 48.0645 110.552 47.7125 110.712 47.3125C110.888 46.8965 111.008 46.6245 111.072 46.4965V46.3765C111.104 46.3445 111.184 46.1845 111.312 45.8965C111.456 45.5925 111.576 45.3365 111.672 45.1285C111.784 44.8725 112.08 44.2085 112.56 43.1365C112.608 43.0245 112.68 42.8885 112.776 42.7285C112.888 42.5525 112.944 42.4325 112.944 42.3685C113.008 42.2565 113.12 42.2005 113.28 42.2005C113.424 42.2005 113.568 42.2565 113.712 42.3685C113.872 42.4645 113.992 42.5925 114.072 42.7525L114.312 43.1365L113.448 44.8645C113.208 45.2805 113 45.6805 112.824 46.0645C112.648 46.4485 112.56 46.6725 112.56 46.7365C112.496 46.8965 112.368 47.2245 112.176 47.7205C112 48.2165 111.856 48.6405 111.744 48.9925C111.664 49.2325 111.568 49.4885 111.456 49.7605C111.344 50.0165 111.264 50.2005 111.216 50.3125C111.088 50.6005 111.024 50.7605 111.024 50.7925C111.024 50.7285 111.984 50.6965 113.904 50.6965C114.208 50.6965 114.744 50.6885 115.512 50.6725C116.296 50.6565 116.784 50.6325 116.976 50.6005L118.224 50.4805L119.04 48.0085C119.2 47.4485 119.552 46.3605 120.096 44.7445C120.336 44.0565 120.528 43.6165 120.672 43.4245C120.816 43.2165 120.992 43.1125 121.2 43.1125C121.28 43.1125 121.392 43.1525 121.536 43.2325C121.696 43.2965 121.8 43.3845 121.848 43.4965C122.024 43.6725 122.112 43.8565 122.112 44.0485C122.112 44.2725 121.984 44.5845 121.728 44.9845C121.536 45.3205 121.264 45.9525 120.912 46.8805C120.768 47.3125 120.68 47.5605 120.648 47.6245C120.648 47.9605 120.568 48.2085 120.408 48.3685C120.344 48.4325 120.232 48.6645 120.072 49.0645C119.912 49.4485 119.832 49.6725 119.832 49.7365C119.832 49.8645 119.808 50.0085 119.76 50.1685C119.712 50.3125 119.656 50.4165 119.592 50.4805L119.424 51.0565C118.864 53.0885 118.424 54.4965 118.104 55.2805C118.104 55.3605 118.064 55.5045 117.984 55.7125C117.904 55.9205 117.864 56.0645 117.864 56.1445C117.832 56.2565 117.76 56.4805 117.648 56.8165C117.536 57.1525 117.48 57.3525 117.48 57.4165C117.448 57.5925 117.384 57.8725 117.288 58.2565C117.048 59.3445 116.928 59.9365 116.928 60.0325C116.896 60.0645 116.848 60.0805 116.784 60.0805C116.72 60.0805 116.616 60.0565 116.472 60.0085C116.344 59.9605 116.248 59.9205 116.184 59.8885C115.8 59.6805 115.608 59.4405 115.608 59.1685C115.608 58.9925 115.68 58.7605 115.824 58.4725C115.872 58.3925 116.024 57.8725 116.28 56.9125L116.496 56.0245C116.592 55.7685 116.808 55.0085 117.144 53.7445C117.416 52.7685 117.568 52.2645 117.6 52.2325V51.9925C117.552 51.9125 116.968 51.8725 115.848 51.8725C114.584 51.8725 113.424 51.9365 112.368 52.0645H111.24H110.616C110.536 52.2405 110.288 52.9845 109.872 54.2965C109.472 55.5925 109.248 56.4085 109.2 56.7445C109.088 57.2725 108.912 58.0085 108.672 58.9525C108.432 59.8805 108.248 60.5605 108.12 60.9925ZM126.683 58.9525C126.299 58.5845 126.011 58.0405 125.819 57.3205C125.787 57.2245 125.771 57.0565 125.771 56.8165C125.771 56.5765 125.771 56.4085 125.771 56.3125C125.675 56.5525 125.499 56.7685 125.243 56.9605C124.875 57.3285 124.507 57.6005 124.139 57.7765C123.579 58.1445 123.123 58.3285 122.771 58.3285C122.451 58.3285 122.147 58.1525 121.859 57.8005C121.651 57.6245 121.491 57.4485 121.379 57.2725C121.283 57.0965 121.235 56.8805 121.235 56.6245C121.235 56.4485 121.259 56.2565 121.307 56.0485C121.339 55.4565 121.419 54.8885 121.547 54.3445C121.691 53.8005 121.955 53.1045 122.339 52.2565C122.851 51.2485 123.219 50.5765 123.443 50.2405C123.523 50.2085 123.627 50.1925 123.755 50.1925C123.915 50.1925 124.043 50.2405 124.139 50.3365C124.251 50.4325 124.315 50.5605 124.331 50.7205C124.379 50.7845 124.403 50.8725 124.403 50.9845C124.403 51.3845 124.163 52.0405 123.683 52.9525C123.059 54.4565 122.747 55.4965 122.747 56.0725C122.747 56.4085 122.843 56.6085 123.035 56.6725C123.115 56.7205 123.203 56.7445 123.299 56.7445C123.699 56.7445 124.179 56.4725 124.739 55.9285C125.299 55.3845 125.835 54.5125 126.347 53.3125C126.571 52.7685 126.707 52.2085 126.755 51.6325C126.739 51.5845 126.731 51.5125 126.731 51.4165C126.731 51.1285 126.875 50.8965 127.163 50.7205C127.227 50.6245 127.315 50.5525 127.427 50.5045C127.539 50.4405 127.611 50.4405 127.643 50.5045L128.027 50.4805C128.075 50.4645 128.123 50.5125 128.171 50.6245C128.219 50.7205 128.267 50.7845 128.315 50.8165C128.427 50.9125 128.483 51.0885 128.483 51.3445C128.483 51.8725 128.251 52.6805 127.787 53.7685C127.483 54.4085 127.275 54.9045 127.163 55.2565C127.067 55.5925 127.011 55.9205 126.995 56.2405C126.995 56.8485 127.227 57.3525 127.691 57.7525C127.851 57.8645 127.947 57.9845 127.979 58.1125C128.011 58.2405 128.019 58.4165 128.003 58.6405C127.971 58.7845 127.875 58.9045 127.715 59.0005C127.571 59.0805 127.411 59.1205 127.235 59.1205C127.027 59.1205 126.843 59.0645 126.683 58.9525ZM139.026 49.8085C139.058 49.8245 139.106 49.8485 139.17 49.8805C139.234 49.8965 139.282 49.9285 139.314 49.9765C139.474 50.1365 139.554 50.3205 139.554 50.5285C139.554 50.6405 139.514 50.7765 139.434 50.9365C139.322 51.1445 139.202 51.3445 139.074 51.5365C138.866 51.8885 138.69 52.2085 138.546 52.4965C138.418 52.7845 138.266 53.1925 138.09 53.7205C138.506 53.6245 138.778 53.5445 138.906 53.4805C139.034 53.4005 139.25 53.1925 139.554 52.8565C139.842 52.5685 140.114 52.3125 140.37 52.0885C141.346 51.1445 141.866 50.6325 141.93 50.5525C142.058 50.3605 142.17 50.2165 142.266 50.1205C142.362 50.0085 142.49 49.9285 142.65 49.8805C142.874 49.9125 143.026 49.9525 143.106 50.0005C143.202 50.0485 143.402 50.1925 143.706 50.4325C143.77 50.4965 143.802 50.6085 143.802 50.7685C143.802 51.0725 143.714 51.2885 143.538 51.4165C143.49 51.4485 143.178 51.6965 142.602 52.1605C141.434 53.1365 140.442 53.9045 139.626 54.4645C139.978 55.0245 140.322 55.6485 140.658 56.3365C140.69 56.7205 140.826 56.9845 141.066 57.1285C141.306 57.2725 141.642 57.3445 142.074 57.3445C142.202 57.4085 142.282 57.4885 142.314 57.5845C142.362 57.6805 142.386 57.7845 142.386 57.8965C142.402 58.0085 142.418 58.0965 142.434 58.1605C142.29 58.2565 142.146 58.3765 142.002 58.5205C141.858 58.6485 141.738 58.7125 141.642 58.7125C141.53 58.7125 141.354 58.6645 141.114 58.5685C140.89 58.4885 140.682 58.3765 140.49 58.2325C140.298 58.0725 140.098 57.8725 139.89 57.6325C139.698 57.4085 139.322 56.8405 138.762 55.9285C138.202 55.0165 137.89 54.5045 137.826 54.3925C137.778 54.5205 137.714 54.6645 137.634 54.8245C137.57 54.9685 137.522 55.1045 137.49 55.2325C137.458 55.3445 137.442 55.4965 137.442 55.6885C137.282 55.9125 137.154 56.2005 137.058 56.5525C136.978 56.8885 136.914 57.1285 136.866 57.2725C136.77 57.6245 136.562 57.9125 136.242 58.1365C135.954 58.1205 135.674 57.9445 135.402 57.6085C135.322 57.4645 135.282 57.3045 135.282 57.1285C135.282 56.9525 135.322 56.7605 135.402 56.5525C135.434 56.4085 135.546 56.0725 135.738 55.5445C135.93 55.0165 136.082 54.5925 136.194 54.2725C136.274 54.0645 136.402 53.7125 136.578 53.2165C136.77 52.7045 136.874 52.4005 136.89 52.3045C136.938 52.0965 137.082 51.8005 137.322 51.4165C137.642 50.8565 137.842 50.3925 137.922 50.0245C137.954 49.9125 138.034 49.8085 138.162 49.7125C138.306 49.6005 138.45 49.5445 138.594 49.5445C138.77 49.5445 138.914 49.6325 139.026 49.8085ZM154.874 56.4085C154.858 56.4725 154.842 56.5525 154.826 56.6485C154.81 56.7445 154.802 56.8645 154.802 57.0085C154.802 57.1365 154.818 57.2245 154.85 57.2725C154.93 57.2725 154.994 57.2645 155.042 57.2485C155.106 57.2325 155.17 57.2245 155.234 57.2245C155.33 57.2245 155.394 57.2645 155.426 57.3445C155.506 57.6165 155.546 57.7845 155.546 57.8485C155.546 58.0085 155.434 58.2085 155.21 58.4485C155.034 58.6245 154.866 58.7125 154.706 58.7125C154.626 58.7125 154.522 58.6885 154.394 58.6405C154.026 58.4805 153.778 58.2885 153.65 58.0645C153.506 57.8565 153.434 57.5365 153.434 57.1045C153.434 56.8005 153.442 56.5605 153.458 56.3845C153.474 56.2885 153.562 55.9765 153.722 55.4485C153.898 54.9205 154.026 54.5525 154.105 54.3445C153.962 54.3765 153.826 54.4325 153.698 54.5125C153.586 54.5925 153.474 54.6725 153.362 54.7525C153.202 54.9125 152.986 55.0725 152.714 55.2325C152.442 55.3925 152.194 55.5125 151.97 55.5925C151.906 55.6245 151.834 55.6405 151.754 55.6405C151.578 55.6405 151.378 55.5845 151.154 55.4725C150.946 55.3445 150.794 55.1845 150.698 54.9925C150.618 54.8005 150.562 54.5845 150.53 54.3445C150.514 54.2645 150.506 54.1445 150.506 53.9845C150.506 53.5845 150.602 53.1925 150.794 52.8085L151.394 51.5845C151.538 51.3125 151.738 50.9045 151.994 50.3605C152.042 50.2645 152.114 50.1445 152.21 50.0005C152.306 49.8565 152.37 49.7285 152.402 49.6165C152.418 49.5525 152.466 49.4805 152.546 49.4005C152.642 49.3045 152.73 49.2565 152.81 49.2565C153.226 49.2885 153.522 49.4405 153.698 49.7125C153.794 49.8245 153.842 49.9445 153.842 50.0725C153.842 50.2325 153.778 50.3845 153.65 50.5285C153.154 51.2005 152.642 52.1045 152.114 53.2405C151.97 53.4965 151.898 53.7525 151.898 54.0085C151.898 54.0885 151.906 54.1525 151.922 54.2005C152.178 54.2005 152.546 54.0245 153.026 53.6725C153.506 53.3205 154.122 52.8325 154.874 52.2085L155.45 51.7285C155.818 51.4245 156.138 51.0565 156.41 50.6245C156.554 50.3525 156.802 50.2085 157.154 50.1925C157.394 50.3045 157.546 50.3765 157.61 50.4085C157.674 50.5365 157.738 50.6725 157.802 50.8165C157.882 50.9445 157.922 51.0485 157.922 51.1285C157.922 51.2725 157.81 51.4645 157.586 51.7045C157.474 51.7205 157.25 51.9685 156.914 52.4485C156.594 52.9125 156.346 53.3125 156.17 53.6485C156.122 53.7285 156.058 53.8165 155.978 53.9125C155.914 53.9925 155.85 54.0885 155.786 54.2005L154.874 56.4085ZM162.249 58.1605C161.849 58.5125 161.369 58.6885 160.809 58.6885C160.409 58.6885 160.025 58.5925 159.657 58.4005C159.305 58.2085 159.009 57.9445 158.769 57.6085C158.561 57.3525 158.409 57.0645 158.313 56.7445C158.217 56.4245 158.169 56.0325 158.169 55.5685C158.169 55.4085 158.185 55.0885 158.217 54.6085C158.265 54.0165 158.457 53.4005 158.793 52.7605C159.145 52.1205 159.577 51.5525 160.089 51.0565C160.601 50.5445 161.105 50.1925 161.601 50.0005C161.857 49.8405 162.089 49.7605 162.297 49.7605C162.409 49.7605 162.521 49.7685 162.633 49.7845C162.745 49.8005 162.865 49.8165 162.993 49.8325C163.345 49.8805 163.609 49.9525 163.785 50.0485C163.977 50.1285 164.137 50.2565 164.265 50.4325C164.665 50.8325 164.865 51.2965 164.865 51.8245C164.801 52.2085 164.553 52.6485 164.121 53.1445C163.689 53.6405 163.169 54.0405 162.561 54.3445C162.273 54.4405 161.945 54.4885 161.577 54.4885C161.081 54.4885 160.681 54.3845 160.377 54.1765C160.233 54.1285 160.121 54.1045 160.041 54.1045C159.897 54.1045 159.785 54.2005 159.705 54.3925C159.641 54.5845 159.577 54.9365 159.513 55.4485C159.497 55.5605 159.489 55.7205 159.489 55.9285C159.489 56.7445 159.761 57.1925 160.305 57.2725C160.673 57.3525 160.937 57.3925 161.097 57.3925C161.289 57.3925 161.505 57.3285 161.745 57.2005L162.201 56.9365C162.297 56.8885 162.385 56.8245 162.465 56.7445C162.545 56.6645 162.617 56.5925 162.681 56.5285C162.713 56.4965 162.761 56.4485 162.825 56.3845C162.889 56.3045 162.945 56.2565 162.993 56.2405C163.057 56.2085 163.113 56.1925 163.161 56.1925C163.225 56.1925 163.297 56.2325 163.377 56.3125C163.457 56.3765 163.521 56.4245 163.569 56.4565C163.713 56.4565 163.745 56.5605 163.665 56.7685C163.585 56.9605 163.409 57.1925 163.137 57.4645C162.881 57.7205 162.585 57.9525 162.249 58.1605ZM162.225 53.0725C162.497 52.9605 162.769 52.7605 163.041 52.4725C163.329 52.1845 163.473 51.9445 163.473 51.7525C163.473 51.5605 163.401 51.4005 163.257 51.2725C163.113 51.1445 162.913 51.0805 162.657 51.0805C162.465 51.0805 162.321 51.0965 162.225 51.1285C162.001 51.1925 161.737 51.3685 161.433 51.6565C161.129 51.9285 160.865 52.2085 160.641 52.4965C160.417 52.7845 160.329 52.9525 160.377 53.0005C160.457 53.1445 160.769 53.2165 161.313 53.2165C161.681 53.2165 161.985 53.1685 162.225 53.0725ZM172.262 55.7365C172.198 55.8325 172.078 56.0005 171.902 56.2405C171.726 56.4645 171.598 56.6965 171.518 56.9365C171.47 57.0645 171.39 57.1765 171.278 57.2725C171.182 57.3525 171.126 57.4005 171.11 57.4165C171.03 57.3845 170.934 57.3525 170.822 57.3205C170.726 57.2885 170.646 57.2485 170.582 57.2005C170.518 57.1365 170.438 57.0565 170.342 56.9605C170.022 56.6565 169.894 56.3685 169.958 56.0965C169.942 55.9365 169.934 55.7765 169.934 55.6165C169.95 55.4565 169.958 55.3125 169.958 55.1845C169.974 54.9925 169.982 54.7045 169.982 54.3205C169.982 53.5845 169.942 53.1285 169.862 52.9525C169.686 52.9685 169.566 52.9925 169.502 53.0245C169.438 53.0565 169.358 53.1525 169.262 53.3125C169.23 53.3765 169.134 53.5285 168.974 53.7685C168.83 53.9925 168.638 54.2725 168.398 54.6085C168.158 54.9765 167.846 55.4485 167.462 56.0245C167.094 56.6005 166.918 56.8805 166.934 56.8645C166.742 57.0885 166.582 57.3765 166.454 57.7285C166.278 58.1285 166.102 58.2405 165.926 58.0645C165.59 57.8885 165.342 57.7365 165.182 57.6085C165.038 57.3525 164.958 57.0965 164.942 56.8405C164.99 56.8245 165.046 56.8005 165.11 56.7685C165.174 56.7205 165.222 56.6805 165.254 56.6485C165.286 56.6165 165.31 56.5765 165.326 56.5285L167.15 53.8645L167.462 53.4085C167.542 53.2485 167.758 52.9445 168.11 52.4965C168.142 52.4165 168.294 52.2005 168.566 51.8485C168.854 51.4965 169.046 51.2965 169.142 51.2485C169.222 51.2005 169.286 51.1205 169.334 51.0085C169.398 50.8805 169.438 50.8005 169.454 50.7685C169.502 50.5125 169.67 50.3845 169.958 50.3845C170.054 50.3845 170.126 50.3925 170.174 50.4085L171.11 51.1285C171.094 51.1925 171.086 51.2965 171.086 51.4405C171.086 51.6645 171.15 52.0005 171.278 52.4485C171.262 52.4965 171.254 52.5685 171.254 52.6645C171.254 52.7925 171.262 52.9205 171.278 53.0485C171.31 53.1605 171.326 53.2805 171.326 53.4085C171.326 53.5045 171.318 53.5765 171.302 53.6245C171.302 53.9285 171.382 54.0805 171.542 54.0805C171.654 54.0805 171.79 54.0005 171.95 53.8405C172.398 53.2805 173.246 52.3765 174.494 51.1285C174.958 50.6645 175.206 50.4085 175.238 50.3605C175.286 50.2805 175.366 50.2405 175.478 50.2405C175.558 50.2405 175.622 50.2565 175.67 50.2885C175.894 50.4005 176.062 50.4965 176.174 50.5765C176.302 50.6565 176.454 50.7845 176.63 50.9605C176.726 51.0725 176.774 51.1925 176.774 51.3205C176.774 51.4005 176.75 51.4805 176.702 51.5605C176.558 51.8965 176.366 52.5605 176.126 53.5525C175.886 54.5285 175.758 55.2165 175.742 55.6165C175.742 55.7285 175.726 55.9045 175.694 56.1445C175.678 56.3685 175.67 56.5685 175.67 56.7445C175.67 57.0965 175.702 57.4085 175.766 57.6805C175.846 57.9845 175.886 58.2405 175.886 58.4485C175.886 58.6085 175.846 58.7205 175.766 58.7845C175.702 58.8485 175.574 58.8965 175.382 58.9285C175.286 58.8805 175.166 58.8005 175.022 58.6885C174.878 58.5605 174.742 58.4565 174.614 58.3765C174.582 58.2485 174.518 58.0485 174.422 57.7765C174.342 57.4885 174.31 57.2325 174.326 57.0085C174.326 56.9285 174.302 56.8005 174.254 56.6245C174.222 56.4325 174.23 56.2885 174.278 56.1925L174.254 55.9045C174.254 55.3285 174.39 54.4325 174.662 53.2165C174.614 53.1525 174.566 53.1125 174.518 53.0965C174.486 53.0805 174.438 53.1045 174.374 53.1685C174.166 53.3605 173.862 53.6885 173.462 54.1525C173.43 54.1845 173.366 54.2405 173.27 54.3205C173.174 54.3845 173.126 54.4725 173.126 54.5845L172.262 55.7365ZM185.377 50.1445C185.633 50.4005 185.761 50.6645 185.761 50.9365C185.761 51.2245 185.569 51.7285 185.185 52.4485C185.057 52.8165 184.913 53.1605 184.753 53.4805C184.609 53.8005 184.497 54.0085 184.417 54.1045L183.865 55.3765C183.625 55.9045 183.329 56.5205 182.977 57.2245C182.545 58.1205 182.241 58.7845 182.065 59.2165L181.753 59.7205C180.953 61.0005 180.337 61.8965 179.905 62.4085C179.025 63.1925 178.345 63.6485 177.865 63.7765C177.657 63.8405 177.409 63.8725 177.121 63.8725C176.593 63.8725 176.097 63.7525 175.633 63.5125C175.153 63.2885 174.881 63.0245 174.817 62.7205C174.801 62.6085 174.841 62.4885 174.937 62.3605C175.033 62.2325 175.137 62.1685 175.249 62.1685C175.329 62.1685 175.393 62.2005 175.441 62.2645C175.569 62.3605 175.753 62.4485 175.993 62.5285C176.249 62.6245 176.521 62.6725 176.809 62.6725C176.921 62.6725 177.073 62.6565 177.265 62.6245C177.585 62.5605 177.921 62.3685 178.273 62.0485C178.625 61.7285 178.945 61.3765 179.233 60.9925C179.777 60.1925 180.361 59.1925 180.985 57.9925C180.761 57.9285 180.545 57.7765 180.337 57.5365C180.129 57.2805 179.961 57.0165 179.833 56.7445C179.721 56.4725 179.681 56.2725 179.713 56.1445V55.8805C179.569 55.8805 179.449 55.6085 179.353 55.0645C179.273 54.5205 179.233 53.8885 179.233 53.1685C179.233 52.8965 179.249 52.5525 179.281 52.1365C179.345 51.8805 179.377 51.5685 179.377 51.2005C179.393 50.8165 179.401 50.5685 179.401 50.4565V50.3605C179.401 50.1685 179.417 50.0325 179.449 49.9525C179.497 49.8725 179.569 49.8005 179.665 49.7365C179.793 49.6725 179.921 49.6405 180.049 49.6405C180.497 49.6405 180.721 50.2325 180.721 51.4165C180.721 51.5925 180.705 51.9365 180.673 52.4485C180.657 52.6725 180.649 53.0085 180.649 53.4565C180.649 54.2885 180.721 55.0245 180.865 55.6645C181.009 56.3045 181.225 56.7445 181.513 56.9845L181.657 56.6485C181.833 56.1845 181.969 55.8885 182.065 55.7605C182.289 55.2965 182.417 55.0005 182.449 54.8725C182.481 54.7605 182.569 54.5765 182.713 54.3205L183.025 53.6725C183.057 53.5765 183.161 53.2725 183.337 52.7605C183.513 52.2325 183.689 51.8085 183.865 51.4885C183.929 51.3605 184.025 51.1765 184.153 50.9365C184.281 50.6805 184.385 50.4965 184.465 50.3845C184.545 50.2725 184.633 50.2005 184.729 50.1685C184.857 50.0565 184.961 50.0005 185.041 50.0005C185.105 50.0005 185.217 50.0485 185.377 50.1445ZM194.569 50.0965C194.969 50.0165 195.297 49.9765 195.553 49.9765C195.937 49.9765 196.329 50.0565 196.729 50.2165C196.905 50.2645 197.121 50.4005 197.377 50.6245C197.633 50.8325 197.793 51.0245 197.857 51.2005C198.113 51.4085 198.337 51.9845 198.529 52.9285C198.353 54.1445 198.097 55.1125 197.761 55.8325C197.585 56.2325 197.425 56.5285 197.281 56.7205C197.137 56.9125 196.929 57.1445 196.657 57.4165L195.481 58.1605C195.001 58.4645 194.673 58.6565 194.497 58.7365C194.321 58.8165 194.073 58.8565 193.753 58.8565C193.529 58.9525 193.273 59.0005 192.985 59.0005C192.697 58.9845 192.505 58.9765 192.409 58.9765C191.945 58.9925 191.593 58.8965 191.353 58.6885C191.129 58.4645 191.041 58.1605 191.089 57.7765C191.233 57.6325 191.385 57.5605 191.545 57.5605C191.641 57.5605 191.761 57.5845 191.905 57.6325C192.081 57.6965 192.265 57.7285 192.457 57.7285C192.649 57.7285 192.817 57.6965 192.961 57.6325C193.025 57.6005 193.121 57.5845 193.249 57.5845C193.393 57.5685 193.497 57.5525 193.561 57.5365C193.993 57.3765 194.465 57.1525 194.977 56.8645C195.505 56.5765 195.913 56.2645 196.201 55.9285C196.233 55.8965 196.281 55.8005 196.345 55.6405C196.409 55.4645 196.433 55.3445 196.417 55.2805C196.273 55.2805 196.033 55.3045 195.697 55.3525C195.377 55.4005 195.113 55.4485 194.905 55.4965C194.841 55.5125 194.753 55.5205 194.641 55.5205C194.401 55.5205 194.209 55.4565 194.065 55.3285C193.921 55.2005 193.793 55.0005 193.681 54.7285C193.665 54.6965 193.657 54.6565 193.657 54.6085C193.657 54.5285 193.697 54.4405 193.777 54.3445C193.857 54.2325 193.921 54.1285 193.969 54.0325C194.049 54.0165 194.153 54.0085 194.281 54.0085C194.425 54.0085 194.529 54.0325 194.593 54.0805C194.657 54.1125 194.697 54.1285 194.713 54.1285C194.761 54.1285 194.817 54.1125 194.881 54.0805C194.961 54.0325 195.033 54.0245 195.097 54.0565C195.161 54.0885 195.217 54.1125 195.265 54.1285C195.313 54.1285 195.425 54.1205 195.601 54.1045C195.793 54.0725 196.097 54.0405 196.513 54.0085C196.721 54.0085 196.849 53.9365 196.897 53.7925C196.961 53.6165 196.993 53.4005 196.993 53.1445C196.993 53.0485 196.977 52.7765 196.945 52.3285C196.865 52.0885 196.785 51.9285 196.705 51.8485C196.641 51.7525 196.529 51.6485 196.369 51.5365C196.257 51.5205 196.105 51.5125 195.913 51.5125C195.257 51.5125 194.825 51.6565 194.617 51.9445C194.313 52.1685 194.009 52.2805 193.705 52.2805C193.513 52.2805 193.409 52.2245 193.393 52.1125C193.393 52.0805 193.369 51.9685 193.321 51.7765C193.289 51.5845 193.273 51.4165 193.273 51.2725C193.273 51.0965 193.313 51.0085 193.393 51.0085C193.505 50.8805 193.609 50.7365 193.705 50.5765C193.817 50.4165 193.929 50.3045 194.041 50.2405C194.169 50.1605 194.345 50.1125 194.569 50.0965ZM210.76 56.9125C210.824 56.9605 210.856 57.0325 210.856 57.1285C210.856 57.2405 210.816 57.3525 210.736 57.4645C210.672 57.5605 210.608 57.6085 210.544 57.6085C210.24 57.6085 209.944 57.5285 209.656 57.3685C209.384 57.1925 209.248 56.9205 209.248 56.5525V55.0645C209.248 54.3125 209.192 53.8885 209.08 53.7925C208.84 53.6645 208.424 53.9285 207.832 54.5845C207.256 55.2405 206.696 56.0165 206.152 56.9125C205.976 57.2005 205.832 57.4245 205.72 57.5845C205.608 57.7445 205.52 57.8245 205.456 57.8245C205.408 57.8245 205.328 57.7845 205.216 57.7045C204.72 57.5605 204.472 57.2805 204.472 56.8645C204.472 56.8165 204.488 56.7125 204.52 56.5525C204.68 56.0245 204.84 55.4405 205 54.8005C205.16 54.1445 205.288 53.5925 205.384 53.1445C205.336 53.0485 205.256 53.0005 205.144 53.0005C204.984 53.0005 204.8 53.0805 204.592 53.2405C204.192 53.5125 203.68 54.1605 203.056 55.1845C202.272 56.3845 201.728 57.1125 201.424 57.3685C201.312 57.5605 201.208 57.7125 201.112 57.8245C201.032 57.9205 200.952 57.9685 200.872 57.9685C200.808 57.9685 200.688 57.9205 200.512 57.8245C200.048 57.5525 199.816 57.1685 199.816 56.6725C199.816 56.4325 199.888 55.9525 200.032 55.2325C200.176 54.5125 200.336 53.8405 200.512 53.2165C200.656 52.9445 200.784 52.6645 200.896 52.3765C201.024 52.0725 201.088 51.8885 201.088 51.8245C201.152 51.4885 201.232 51.1285 201.328 50.7445C201.424 50.3605 201.496 50.1445 201.544 50.0965C201.656 49.9845 201.784 49.9285 201.928 49.9285C202.168 49.9285 202.344 50.0565 202.456 50.3125C202.632 50.4885 202.72 50.7125 202.72 50.9845C202.72 51.2885 202.632 51.6805 202.456 52.1605C202.184 52.7525 201.888 53.6165 201.568 54.7525C201.904 54.3845 202.144 54.0965 202.288 53.8885C202.672 53.3445 203.168 52.7365 203.776 52.0645C204.272 51.5205 204.832 51.2485 205.456 51.2485C206.192 51.3765 206.616 51.9925 206.728 53.0965C206.728 53.2885 206.712 53.5285 206.68 53.8165C206.648 54.0885 206.624 54.2645 206.608 54.3445C206.672 54.2485 206.832 54.0405 207.088 53.7205C207.36 53.4005 207.688 53.0725 208.072 52.7365C208.424 52.4645 208.752 52.3285 209.056 52.3285C209.312 52.3285 209.536 52.4325 209.728 52.6405C210.064 52.8325 210.304 53.1045 210.448 53.4565C210.592 53.7925 210.664 54.2245 210.664 54.7525C210.664 55.0245 210.656 55.2405 210.64 55.4005C210.608 55.7205 210.592 55.9205 210.592 56.0005C210.592 56.3045 210.648 56.6085 210.76 56.9125ZM214.079 58.6405C213.887 58.6405 213.735 58.6085 213.623 58.5445C213.511 58.4805 213.351 58.3605 213.143 58.1845C212.615 57.6245 212.351 57.1125 212.351 56.6485C212.351 56.5365 212.359 56.4565 212.375 56.4085C212.423 56.2965 212.439 56.1845 212.423 56.0725C212.423 55.9605 212.423 55.8885 212.423 55.8565C212.359 55.7925 212.327 55.7525 212.327 55.7365C212.327 55.7045 212.343 55.6805 212.375 55.6645C212.407 55.6325 212.431 55.6005 212.447 55.5685C212.543 55.5685 212.575 55.4805 212.543 55.3045C212.511 55.1765 212.575 54.8965 212.735 54.4645C212.895 54.0165 213.095 53.6085 213.335 53.2405C213.511 52.9525 213.767 52.5925 214.103 52.1605C214.455 51.7285 214.767 51.4005 215.039 51.1765C215.423 50.8405 215.767 50.5925 216.071 50.4325C216.375 50.2725 216.711 50.1525 217.079 50.0725C217.399 49.9925 217.615 49.9525 217.727 49.9525C217.839 49.9525 217.935 49.9845 218.015 50.0485C218.111 50.0965 218.231 50.1925 218.375 50.3365C218.807 50.5285 219.103 50.7765 219.263 51.0805C219.439 51.3685 219.527 51.8245 219.527 52.4485C219.527 53.4885 219.103 54.6165 218.255 55.8325C217.887 56.3605 217.543 56.7685 217.223 57.0565C216.903 57.3285 216.479 57.6245 215.951 57.9445C215.615 58.1845 215.303 58.3605 215.015 58.4725C214.743 58.5685 214.431 58.6245 214.079 58.6405ZM216.383 56.0965C216.767 55.6645 217.071 55.2565 217.295 54.8725C217.535 54.4885 217.759 54.0005 217.967 53.4085C218.047 53.1365 218.087 52.8085 218.087 52.4245C218.087 51.9445 218.023 51.6725 217.895 51.6085C217.735 51.5285 217.575 51.4885 217.415 51.4885C217.063 51.4885 216.695 51.6485 216.311 51.9685C215.847 52.3685 215.431 52.8645 215.063 53.4565C214.695 54.0325 214.319 54.7525 213.935 55.6165C213.775 55.9525 213.695 56.2805 213.695 56.6005C213.695 56.8405 213.751 57.0325 213.863 57.1765C213.991 57.3205 214.159 57.3925 214.367 57.3925C214.895 57.3925 215.567 56.9605 216.383 56.0965ZM228.785 58.9285C228.737 58.9285 228.577 58.9365 228.305 58.9525C228.049 58.9525 227.801 58.8965 227.561 58.7845C227.321 58.6565 227.121 58.4645 226.961 58.2085C226.849 58.0005 226.753 57.7605 226.673 57.4885C226.593 57.2165 226.553 56.9845 226.553 56.7925C226.553 56.7125 226.569 56.6245 226.601 56.5285C226.905 54.7685 227.153 53.6565 227.345 53.1925L227.729 52.2565C227.809 52.0005 227.833 51.7125 227.801 51.3925V51.2965C227.801 51.0885 227.881 50.9125 228.041 50.7685C228.313 50.5605 228.529 50.2885 228.689 49.9525C228.801 49.6805 228.977 49.3125 229.217 48.8485C229.457 48.3845 229.633 48.0805 229.745 47.9365C229.921 47.6965 230.081 47.4645 230.225 47.2405C230.257 47.1925 230.369 47.0245 230.561 46.7365C230.769 46.4325 231.001 46.1765 231.257 45.9685C231.561 45.4565 232.161 44.8405 233.057 44.1205C233.441 43.8005 233.681 43.5925 233.777 43.4965C233.825 43.4485 233.969 43.4005 234.209 43.3525C234.449 43.2885 234.601 43.2485 234.665 43.2325C234.793 43.2005 235.009 43.1445 235.313 43.0645C235.409 43.0165 235.585 43.0565 235.841 43.1845C236.113 43.2965 236.313 43.4245 236.441 43.5685C236.697 44.0165 236.825 44.3685 236.825 44.6245C236.825 44.8325 236.777 45.0645 236.681 45.3205C236.585 45.5765 236.401 45.9925 236.129 46.5685C235.553 47.7205 234.505 48.8165 232.985 49.8565C232.409 50.3685 231.761 50.8165 231.041 51.2005C230.513 51.4725 230.081 51.6645 229.745 51.7765C229.489 51.8565 229.305 52.0405 229.193 52.3285C229.129 52.4725 229.073 52.6485 229.025 52.8565C228.993 53.0645 228.945 53.2005 228.881 53.2645C228.785 53.3605 228.625 53.8965 228.401 54.8725C228.177 55.8485 228.065 56.5125 228.065 56.8645C228.065 56.9925 228.081 57.1045 228.113 57.2005C228.145 57.2965 228.217 57.3685 228.329 57.4165C228.553 57.3685 228.729 57.2965 228.857 57.2005C229.001 57.0885 229.177 56.9125 229.385 56.6725C229.833 56.1125 230.153 55.5765 230.345 55.0645C230.393 54.9205 230.441 54.7365 230.489 54.5125C230.537 54.2725 230.593 54.0885 230.657 53.9605C230.657 53.4005 230.649 53.0405 230.633 52.8805C230.617 52.7045 230.561 52.4965 230.465 52.2565C230.545 52.2085 230.609 52.1605 230.657 52.1125C230.721 52.0485 230.801 52.0245 230.897 52.0405C231.265 52.1205 231.641 52.3445 232.025 52.7125C232.137 52.8245 232.169 52.9605 232.121 53.1205C232.057 53.6325 232.025 54.0005 232.025 54.2245C231.977 54.3365 231.897 54.5845 231.785 54.9685C231.769 55.1765 231.721 55.3765 231.641 55.5685C231.353 56.1605 231.145 56.5605 231.017 56.7685C230.665 57.4245 230.185 57.9845 229.577 58.4485L228.785 58.9285ZM235.433 44.0245C234.969 44.2325 234.601 44.4325 234.329 44.6245C234.073 44.8005 233.745 45.0885 233.345 45.4885C232.961 45.8725 232.433 46.5285 231.761 47.4565C231.105 48.3685 230.665 49.1045 230.441 49.6645C230.521 49.6805 230.617 49.6885 230.729 49.6885C230.889 49.6885 231.025 49.6085 231.137 49.4485C232.273 48.6645 233.161 47.9845 233.801 47.4085C234.441 46.8165 234.857 46.2645 235.049 45.7525C235.113 45.6245 235.201 45.4645 235.313 45.2725C235.425 45.0645 235.497 44.8725 235.529 44.6965L235.433 44.0245ZM236.86 58.7365C236.636 58.7685 236.468 58.7845 236.356 58.7845C235.764 58.7845 235.276 58.6005 234.892 58.2325C234.508 57.8645 234.316 57.3525 234.316 56.6965C234.252 55.9925 234.404 55.1205 234.772 54.0805C235.156 53.0405 235.636 52.1685 236.212 51.4645C236.612 51.0005 236.956 50.6245 237.244 50.3365C237.532 50.0485 237.796 49.8565 238.036 49.7605C238.372 49.6165 238.748 49.5445 239.164 49.5445C239.452 49.6085 239.732 49.7285 240.004 49.9045C240.292 50.0805 240.436 50.2565 240.436 50.4325L240.556 50.5525C240.652 50.5525 240.74 50.6725 240.82 50.9125C240.9 51.1365 240.94 51.3845 240.94 51.6565C240.94 51.8805 240.9 52.0725 240.82 52.2325C240.756 52.5365 240.644 52.8005 240.484 53.0245C240.34 53.2485 240.196 53.3605 240.052 53.3605C239.876 53.3605 239.788 53.4085 239.788 53.5045C239.788 53.5685 239.756 53.6005 239.692 53.6005C239.612 53.6005 239.516 53.5525 239.404 53.4565C239.292 53.3605 239.212 53.2485 239.164 53.1205C239.164 53.0725 239.196 52.9365 239.26 52.7125C239.324 52.4885 239.388 52.2405 239.452 51.9685C239.5 51.7765 239.524 51.6085 239.524 51.4645C239.524 51.1445 239.404 50.9845 239.164 50.9845C239.036 50.9845 238.908 51.0165 238.78 51.0805C238.14 51.4325 237.572 51.9925 237.076 52.7605C236.58 53.5285 236.164 54.5845 235.828 55.9285C235.748 56.2805 235.708 56.5605 235.708 56.7685C235.708 56.9285 235.716 57.0565 235.732 57.1525C235.764 57.2485 235.796 57.3045 235.828 57.3205C235.908 57.3525 236.076 57.3685 236.332 57.3685C236.924 57.3685 237.34 57.2965 237.58 57.1525C238.092 56.8805 238.66 56.5125 239.284 56.0485C239.348 56.0005 239.444 55.9205 239.572 55.8085C239.7 55.6805 239.82 55.5925 239.932 55.5445C240.044 55.3685 240.148 55.2645 240.244 55.2325C240.34 55.1845 240.492 55.1605 240.7 55.1605C240.908 55.2245 241.076 55.3125 241.204 55.4245C241.332 55.5205 241.332 55.6005 241.204 55.6645C241.156 55.6645 241.124 55.6805 241.108 55.7125C241.092 55.7445 241.084 55.7685 241.084 55.7845C241.116 55.8645 240.988 56.0645 240.7 56.3845C240.412 56.7045 240.092 57.0085 239.74 57.2965C239.388 57.5685 239.148 57.7045 239.02 57.7045C238.956 57.7045 238.9 57.7125 238.852 57.7285C238.804 57.7445 238.78 57.7845 238.78 57.8485C238.78 57.9125 238.532 58.0645 238.036 58.3045C237.556 58.5285 237.164 58.6725 236.86 58.7365ZM246.999 58.1605C246.599 58.5125 246.119 58.6885 245.559 58.6885C245.159 58.6885 244.775 58.5925 244.407 58.4005C244.055 58.2085 243.759 57.9445 243.519 57.6085C243.311 57.3525 243.159 57.0645 243.063 56.7445C242.967 56.4245 242.919 56.0325 242.919 55.5685C242.919 55.4085 242.935 55.0885 242.967 54.6085C243.015 54.0165 243.207 53.4005 243.543 52.7605C243.895 52.1205 244.327 51.5525 244.839 51.0565C245.351 50.5445 245.855 50.1925 246.351 50.0005C246.607 49.8405 246.839 49.7605 247.047 49.7605C247.159 49.7605 247.271 49.7685 247.383 49.7845C247.495 49.8005 247.615 49.8165 247.743 49.8325C248.095 49.8805 248.359 49.9525 248.535 50.0485C248.727 50.1285 248.887 50.2565 249.015 50.4325C249.415 50.8325 249.615 51.2965 249.615 51.8245C249.551 52.2085 249.303 52.6485 248.871 53.1445C248.439 53.6405 247.919 54.0405 247.311 54.3445C247.023 54.4405 246.695 54.4885 246.327 54.4885C245.831 54.4885 245.431 54.3845 245.127 54.1765C244.983 54.1285 244.871 54.1045 244.791 54.1045C244.647 54.1045 244.535 54.2005 244.455 54.3925C244.391 54.5845 244.327 54.9365 244.263 55.4485C244.247 55.5605 244.239 55.7205 244.239 55.9285C244.239 56.7445 244.511 57.1925 245.055 57.2725C245.423 57.3525 245.687 57.3925 245.847 57.3925C246.039 57.3925 246.255 57.3285 246.495 57.2005L246.951 56.9365C247.047 56.8885 247.135 56.8245 247.215 56.7445C247.295 56.6645 247.367 56.5925 247.431 56.5285C247.463 56.4965 247.511 56.4485 247.575 56.3845C247.639 56.3045 247.695 56.2565 247.743 56.2405C247.807 56.2085 247.863 56.1925 247.911 56.1925C247.975 56.1925 248.047 56.2325 248.127 56.3125C248.207 56.3765 248.271 56.4245 248.319 56.4565C248.463 56.4565 248.495 56.5605 248.415 56.7685C248.335 56.9605 248.159 57.1925 247.887 57.4645C247.631 57.7205 247.335 57.9525 246.999 58.1605ZM246.975 53.0725C247.247 52.9605 247.519 52.7605 247.791 52.4725C248.079 52.1845 248.223 51.9445 248.223 51.7525C248.223 51.5605 248.151 51.4005 248.007 51.2725C247.863 51.1445 247.663 51.0805 247.407 51.0805C247.215 51.0805 247.071 51.0965 246.975 51.1285C246.751 51.1925 246.487 51.3685 246.183 51.6565C245.879 51.9285 245.615 52.2085 245.391 52.4965C245.167 52.7845 245.079 52.9525 245.127 53.0005C245.207 53.1445 245.519 53.2165 246.063 53.2165C246.431 53.2165 246.735 53.1685 246.975 53.0725ZM251.852 57.7525C251.548 57.8645 251.316 57.9205 251.156 57.9205C250.932 57.9205 250.692 57.8245 250.436 57.6325C250.212 57.4085 250.1 57.1845 250.1 56.9605C250.1 56.6085 250.372 56.2485 250.916 55.8805C251.236 55.6885 251.468 55.5925 251.612 55.5925C251.692 55.5925 251.884 55.6485 252.188 55.7605C252.62 56.0165 252.836 56.3125 252.836 56.6485C252.836 56.8405 252.748 57.0325 252.572 57.2245C252.412 57.4165 252.172 57.5925 251.852 57.7525ZM256.61 57.7525C256.306 57.8645 256.074 57.9205 255.914 57.9205C255.69 57.9205 255.45 57.8245 255.194 57.6325C254.97 57.4085 254.858 57.1845 254.858 56.9605C254.858 56.6085 255.13 56.2485 255.674 55.8805C255.994 55.6885 256.226 55.5925 256.37 55.5925C256.45 55.5925 256.642 55.6485 256.946 55.7605C257.378 56.0165 257.594 56.3125 257.594 56.6485C257.594 56.8405 257.506 57.0325 257.33 57.2245C257.17 57.4165 256.93 57.5925 256.61 57.7525ZM261.367 57.7525C261.063 57.8645 260.831 57.9205 260.671 57.9205C260.447 57.9205 260.207 57.8245 259.951 57.6325C259.727 57.4085 259.615 57.1845 259.615 56.9605C259.615 56.6085 259.887 56.2485 260.431 55.8805C260.751 55.6885 260.983 55.5925 261.127 55.5925C261.207 55.5925 261.399 55.6485 261.703 55.7605C262.135 56.0165 262.351 56.3125 262.351 56.6485C262.351 56.8405 262.263 57.0325 262.087 57.2245C261.927 57.4165 261.687 57.5925 261.367 57.7525Z" fill="white"></path> <g clip-path="url(#clip0)"> <path d="M12.0579 70.045C11.8744 66.0845 24.0242 62.2736 39.1952 61.5331C54.3661 60.7926 66.8134 63.403 66.9969 67.3635C67.1804 71.324 55.0306 75.1349 39.8596 75.8754C24.6886 76.6159 12.2414 74.0056 12.0579 70.045Z" fill="#383838"></path> <path d="M1.0648 27.6996L1.31864 27.3543L1.78043 27.6306L1.90888 26.9023L2.3401 27.0969L2.4716 26.3341L2.89363 26.5036L3.37378 26.8709L3.62149 26.4754L3.98543 26.466L4.18422 25.8758L4.44722 25.5086L4.8295 25.5588L5.43197 26.4283L5.52678 25.4269L5.90907 25.4929L6.32804 25.7032L6.60022 25.3516L7.09566 25.857L7.47488 25.9198L7.60333 25.0063L7.88469 24.6893L8.42294 25.3642L8.74099 25.1884L8.90002 24.4099L9.4291 25.044L9.60648 24.3346L9.96735 24.322L10.2823 24.1525L10.7319 24.4664L11.0561 24.3157L11.5607 24.8211L11.6066 23.6785L12.1356 24.2592L12.5669 24.4758L12.6464 23.5058L12.9889 23.4336L13.3192 23.3144L13.677 23.2861L14.2336 23.8606L14.5853 23.7946L14.8422 23.4462L15.1908 23.374L15.5303 23.2704L15.5395 22.2659L16.2398 23.1386V22.1435L16.6099 22.1341L16.7903 21.6412L17.3194 22.0179L17.9341 22.561L18.0289 21.8829L18.2307 21.4686L18.3836 20.9569L19.2063 21.8892L19.399 21.4654L19.4081 20.6775L20.1329 21.3399L20.3623 21.0009L20.5886 20.6681L21.081 20.8345L21.1727 20.2569L21.3593 19.8677L21.6407 19.6511L22.1728 19.8582L22.6346 19.9367L22.7569 19.447H23.179L22.9343 18.4049L23.5429 18.6968L23.6591 18.2291L24.2157 18.4205L24.286 17.8963L24.8304 17.9371L24.6897 17.4788L25.2463 17.2183L25.2586 16.8604L25.0628 16.4523L25.2586 16.1322L25.3442 15.7837L24.65 15.2124L25.5736 15.1088L25.699 14.7761L25.5827 14.3617L25.2647 13.8595L25.3809 13.511L25.5185 13.172L26.5889 13.2317L25.7785 12.4846L26.2127 12.2837L26.9161 12.2272L26.4788 11.6088L26.2311 11.0657L26.6011 10.8491L27.0568 10.6922L26.7785 10.0989L27.2434 9.95761L27.2097 9.50245L27.5217 9.26702L27.6807 8.93428L28.2587 8.90603L28.3535 8.5262L28.9499 8.54503L28.8918 8.03964L29.4851 8.07731L29.1639 7.32394L29.9071 7.51856L29.7786 6.91272L29.6319 6.26607L30.1701 6.29432L30.849 6.48894L31.164 6.31943L30.794 5.3683L31.5616 5.71359L31.5035 5.08892L32.1304 5.30865L31.9011 4.42658L32.1396 4.13778L32.7237 4.34182L32.6993 3.66692L33.1213 3.65123L33.6657 3.84271L34.2162 4.08128L34.0724 3.13956L34.6198 3.38754L34.7483 2.88529L35.3538 3.29651L35.2468 2.27945L35.5159 2.00635L36.0786 2.38618L36.1857 1.72698L36.4701 1.46957L37.1582 2.26062L37.3631 1.80859L37.6414 1.53863L37.9472 1.32204L38.4793 1.85882L38.6751 1.28751L38.88 0.675388L39.4702 1.57002L39.6598 0.83862L40.1155 1.28751L40.4794 1.36284L40.8097 1.24042L41.0238 0.377177L41.4887 1.14311L41.8281 1.08033L42.0881 0.19825L42.4734 0.496461L42.8373 0.650276L43.2135 1.24356L43.5193 0.031879L43.8894 1.09916L44.235 0.509017L44.5744 1.08661L44.9598 0.000488281L45.2625 1.03324L45.657 0.355203L45.9323 1.25298L46.3635 0.436819L46.6877 0.713057L47.07 0.521574L47.3697 0.895123L47.8009 0.465071L47.9813 1.41621L48.3758 1.20589L48.6908 1.40051L49.1526 0.979878L49.33 1.68617L49.8193 1.22786L50.0334 1.74895L50.6359 1.00813L50.593 2.25748L51.1558 1.70814L51.2292 2.51174L51.7185 2.20725L52.2904 1.75209L52.3118 2.59964L52.8011 2.37676L53.1956 2.37362L53.2262 3.11444L53.795 2.77856L53.8011 3.51311L54.2966 3.3436L54.3241 3.99338L54.7951 3.8898L55.5107 3.40952L55.7187 3.76109L56.0306 3.94316L56.3211 4.15975L56.049 5.14542L56.7187 4.83465L57.1316 4.88802L57.4924 5.01986L57.7004 5.33691L57.89 5.66965L57.9389 6.15306L58.0307 6.57684L58.5445 6.55173L58.9635 6.63648L58.7433 7.35533L59.6179 7.01317L58.9788 8.09301L60.092 7.57506L59.4253 8.62037L60.4192 8.2531L60.4284 8.7114L60.1072 9.40828L60.988 9.19168L60.5232 9.96703L60.5966 10.3406L61.1685 10.3751L61.2143 10.7706L61.8474 10.7895L61.3642 11.4989L62.5263 11.2321L62.5569 11.637L62.4988 12.0796L62.7954 12.3339L63.2389 12.516L63.3734 12.855L63.1961 13.3353L62.6762 13.9505L63.0615 14.1671L63.7832 14.2644L63.8322 14.6317L64.0463 14.9393L63.3245 15.564L64.1105 15.6833L63.5967 16.2106L64.5386 16.3111L64.6793 16.6532L63.927 17.212L64.7711 17.3847L64.3062 17.8492L64.0187 18.2636L64.7619 18.4959L65.0218 18.8255L64.5753 19.2493L64.1931 19.6511L64.8995 19.9367L64.4805 20.3291L65.0799 20.6524L64.1502 21.0479L65.3154 21.3775L64.1319 21.7385L64.3704 22.0901L65.0861 22.4731L65.0738 22.8341L64.3154 23.1386L65.0647 23.5655L65.135 23.9422L64.0982 24.1682L64.5478 24.592L64.6487 24.9718L63.7466 25.2574L64.1839 25.6592L64.1472 26.0202L64.8353 26.3184L64.6885 26.692L64.5417 27.0655L65.031 27.3983L64.5906 27.7812L64.8322 28.1328L64.8873 28.4938L64.1411 28.8642L64.4194 29.2189L65.0861 29.5799L64.5876 29.9347L64.82 30.3019L64.4836 30.6504L64.1931 30.9925L65.0432 31.4037L64.1808 31.7019L63.9667 32.0378L64.4836 32.4459L64.1931 32.7755L64.557 33.1804L64.4897 33.5352L64.2756 33.8679L64.3062 34.2352L64.3827 34.615L63.9362 34.8975L64.0096 35.2742L63.8811 35.6132L64.1869 36.0527L63.7343 36.3132L63.7466 36.6868L63.9331 37.1074L63.8383 37.459L63.2848 37.6693L63.7282 38.1841L63.5447 38.5043L63.5722 38.8998L63.2542 39.1698L62.456 39.2545L63.245 39.942L62.9575 40.2182L63.0493 40.6514L62.1501 40.6546L62.7098 41.3012L62.5263 41.6151L61.3886 41.4582L61.6241 41.9698L61.2204 42.1582L61.2235 42.56L61.1348 42.9147L61.0217 43.26L60.7281 43.4954L61.2755 44.2488L61.1073 44.5753L60.8657 44.8515L59.8932 44.6349L60.1653 45.2502L60.1103 45.652L59.569 45.6991L58.887 45.6269L59.0766 46.217L58.5537 46.2484L58.5659 46.7067L58.3212 46.961L58.7035 47.7583L58.4344 48L57.7799 47.8933L57.6943 48.2951L57.5353 48.6341L57.3426 48.948L56.4435 48.5462L56.9083 49.5256L56.1071 49.196L56.5719 50.2193L56.2263 50.37L55.8777 50.5207L54.9725 50.009L55.4557 51.1296L54.7217 50.7969L54.1712 50.6651L54.1926 51.2552L54.0611 51.6633L53.7492 51.8328L53.1742 51.6413L53.0794 52.109L52.5442 51.9458L52.691 52.7839L52.376 52.9472L51.8316 52.7525L51.4065 52.7243L51.639 53.7727L50.9723 53.3427L50.801 53.7445L50.3331 53.6252L50.171 54.0521L50.1374 54.727L49.7765 54.8024L49.5624 55.1633L48.8743 54.5826L48.5838 54.7772L48.4003 55.201L48.2107 55.6311L47.7886 55.5589L47.2106 55.1068L46.8956 55.245L46.8375 56.014L46.2442 55.4741L45.9598 55.6939L45.813 56.2809L45.5684 56.6324L45.1708 56.5571L44.9292 56.9338L44.5714 56.9715L44.0025 56.3562L43.9077 57.21L43.4001 56.7454L43.0117 56.6513L42.819 57.2351L42.5499 57.5679L42.0758 57.1441L41.926 57.9728L41.4917 57.6715L41.1523 57.7468L40.8954 58.2051L40.5223 58.1486L40.0788 57.7186L39.7669 57.9414L39.5711 58.7858L39.143 58.4091L38.8035 58.497L38.3754 58.045L38.0726 58.3464L37.7515 58.5724L37.4732 59.1531L37.0787 58.8518L36.6475 58.1612L36.3539 58.6822L35.993 58.5598L35.6352 58.4656L35.2682 58.1957L34.9532 58.676L34.6321 59.1625L34.2743 59.0652L33.8981 58.4311L33.5709 59.0213L33.2222 59.1876L32.8705 59.2441L32.5188 58.428L32.1733 58.2334L31.8124 59.2912L31.4668 58.9742L31.1304 58.6383L30.8001 58.2428L30.4606 58.1486L30.0692 58.8863L29.7389 58.5944L29.3597 58.9553L28.9866 59.1782L28.6869 58.632L28.4024 58.0482L28.0232 58.2961L27.6073 58.8172L27.3168 58.3558L26.8917 58.8235L26.543 58.767L26.2494 58.3997L25.8121 58.8392L25.65 57.8033L25.1057 58.745L24.8732 58.1266L24.5827 57.8253L24.3074 57.4768L23.7233 58.3935L23.4267 58.1203L23.2034 57.5804L22.9618 57.1504L22.6071 57.1315L22.3685 56.7235L22.0443 56.6105L21.3379 57.6683L21.2981 56.6732L20.6834 57.3795L20.3531 57.2414L20.4113 56.0737L20.0259 56.1145L19.8057 55.7315L19.298 56.0611L19.0779 55.6876L18.8546 55.3391L18.2674 55.8006L17.9494 55.6499L17.8454 55.0598L17.1787 55.6185L17.197 54.8024L16.5242 55.3329L16.5028 54.6266L16.4111 54.0804L15.7291 54.5701L15.5976 54.0992L15.5028 53.5813L15.1052 53.5718L14.5119 53.8449L14.6679 52.9723L14.3559 52.8185L14.1327 52.5328L13.6525 52.6081L12.8452 53.1073L13.1999 52.0525L12.4262 52.4732L12.2121 52.1687L12.1204 51.7198L11.7197 51.6445L11.6188 51.2207L11.524 50.8L11.157 50.6808L11.2335 50.0906L10.4536 50.392L10.5515 49.7924L10.42 49.4345L9.89089 49.4502L10.1019 48.7816L9.19973 49.1175L8.74405 49.0359L9.39851 48.0188L8.72264 48.1193L8.30061 48L8.08653 47.7112L8.27308 47.1273L7.43819 47.2906L7.9642 46.4838L7.34644 46.4744L7.47794 45.9627L7.26386 45.6771L6.67974 45.6206L7.20576 44.8892L6.39838 44.952L6.64916 44.3995L6.15066 44.2676L5.70416 44.095L6.32499 43.3761L5.51761 43.3793L6.1262 42.6918L5.56348 42.5631L5.27295 42.3026L5.52372 41.8066L5.09863 41.5994L4.86008 41.3075L4.54814 41.0407L5.14144 40.4443L5.10474 40.0833L4.75305 39.8321L4.15057 39.6501L3.9212 39.3424L3.79582 39.0003L3.87839 38.6016L4.383 38.0962L4.28208 37.7572L4.20562 37.4088L3.94873 37.1043L4.15975 36.6962L4.24844 36.3164L3.57868 36.0841L4.08023 35.6321L3.68572 35.3401L2.94257 35.0921L3.57868 34.637L3.28815 34.3137L3.83863 33.8899L3.31567 33.5885L3.57868 33.2056L3.25757 32.876L3.65514 32.4867L3.68572 32.132L2.55723 31.8369L3.44718 31.432L3.38601 31.0804L3.6582 30.7163L3.48999 30.1136L2.75296 30.2454L2.57558 29.8373L1.86301 30.2643L2.05262 29.3633L1.74373 29.1938L1.20548 29.2535L1.10456 28.8297L0.98835 28.453L0.706993 28.2239L0.000534058 27.91L1.08927 27.8786L1.0648 27.6996Z" fill="#FDEE21"></path> <path d="M5.77703 30.167L5.89018 29.759L5.88713 29.7966L5.92994 29.4137C5.99722 29.1594 6.29999 29.2787 6.30917 29.4231L6.29999 29.806V29.8217L6.29693 29.8374L6.23271 30.189L6.33363 30.3993L6.67616 30.5877L6.80154 30.6567L6.77096 30.798L6.70062 31.137L6.87188 31.3505L6.88411 31.3662L6.89329 31.385L7.04009 31.6738L7.28475 31.9155L7.30003 31.9312L7.31227 31.9469L7.50494 32.2451L7.54469 32.3047L7.53552 32.3769L7.48353 32.763L7.73431 33.3406L7.96062 33.5635L8.2328 33.7644L8.60591 33.9057L8.74659 33.959L8.72824 34.1128L8.69154 34.4173L8.97289 34.477L9.12887 34.5115L9.12275 34.6747L9.11052 35.0012L9.35823 35.0985L9.48362 35.1487L9.48056 35.2869L9.46833 35.673L9.63653 35.8142L10.0096 35.8927L10.1473 35.9209L10.1595 36.0653L10.1901 36.4169L10.4225 36.5393L10.7558 36.69L10.7711 36.6963L10.7834 36.7057L11.0739 36.9066L11.0984 36.9254L11.1167 36.9506L11.3277 37.2331L11.5265 37.4654L11.8201 37.5847L11.9119 37.6223L11.9333 37.7228L12.0067 38.0618L12.2605 38.1214L12.3125 38.134L12.3523 38.1717L12.5541 38.3757L12.8874 38.3851L12.9792 38.3883L13.0342 38.4636L13.233 38.7367L13.4777 38.8748L13.808 38.9407L13.8844 38.9564L13.9272 39.0255L14.0955 39.286L14.3799 39.308H14.3921L14.4043 39.3111L14.753 39.3833L14.7713 39.3865L14.7897 39.3928L15.1077 39.5309L15.1628 39.5529L15.1934 39.6031L15.3432 39.8416L15.6307 39.7412L15.6949 39.7192L15.7561 39.7412C15.9212 39.804 16.0864 39.8573 16.2515 39.9327C16.4105 39.9986 16.5604 40.0739 16.7133 40.1461L17.0314 40.2215L17.1109 40.2403L17.1537 40.3125L17.2974 40.5605L17.5635 40.3533L17.6185 40.3094L17.6889 40.3125L18.0345 40.3345L18.1384 40.3408L18.1874 40.4349L18.377 40.7991L18.6002 40.7237L18.6308 40.7143H18.6645L19.007 40.7237L19.3495 40.6986L19.4321 40.6923L19.4933 40.752L19.6982 40.9529L19.9398 40.7583L20.0009 40.7112L20.0774 40.7206L20.423 40.7551L20.4749 40.7614L20.5178 40.7959L20.7747 40.9968L21.0224 40.8838L21.0621 40.865L21.1049 40.8681L21.3924 40.8807L21.6768 40.6861L21.7105 40.6641L21.7502 40.6578L22.0897 40.595L22.1386 40.5856L22.1845 40.6013L22.4781 40.7049L22.7442 40.595L22.8237 40.5636L22.9001 40.6044L23.2427 40.7834L23.5362 40.7896C23.7503 40.7363 23.9675 40.6861 24.1846 40.6421L24.4965 40.4977L24.8177 40.369L25.1143 40.1901L25.1327 40.1775L25.1541 40.1712L25.4446 40.0771L25.6892 39.8448L25.7321 39.804L25.7932 39.7946L26.1449 39.7475L26.1877 39.7412L26.2275 39.7538L26.4691 39.8322L26.5578 39.4587L26.5823 39.352L26.6862 39.3206L27.0165 39.217L27.0593 39.2044L27.1052 39.2138L27.4875 39.2829L27.7199 39.217L27.8851 38.925L27.9493 38.812L28.0747 38.8309L28.3499 38.8717L28.4264 38.5578L28.457 38.4322L28.5823 38.4134L28.9463 38.36L29.1756 38.2815L29.2552 37.9268L29.2888 37.7699L29.4448 37.7761L29.8943 37.7918C30.0472 37.7981 30.1115 38.1465 29.8821 38.1811L29.6313 38.1905L29.5855 38.4918L29.5671 38.6205L29.4172 38.6833C29.3041 38.7304 29.1909 38.7806 29.0778 38.8246L29.0686 38.8277L29.0288 38.8371L28.8668 38.8685L28.8087 39.1699L28.7567 39.4524L28.4417 39.421L28.2521 39.4022L28.1664 39.5717L28.1053 39.6941L27.9371 39.7506L27.5945 39.8668L27.5303 39.8887L27.4202 39.8762L27.1205 39.8416L27.0563 40.1932L26.9676 40.6892L26.4508 40.5417L26.1358 40.4506L26.0532 40.4663L25.885 40.639L25.8177 40.708L25.6862 40.7551L25.4354 40.8461L25.1663 41.0219L25.1479 41.0345L25.0868 41.0627L24.7748 41.2009L24.4721 41.3578L24.4293 41.3798L24.3497 41.3986C24.1265 41.452 23.9032 41.5085 23.68 41.5713L23.628 41.587H23.5362L23.1784 41.5901L23.0561 41.5932L22.9124 41.5242L22.7962 41.4677L22.7105 41.5054L22.5117 41.5932L22.2701 41.5148L22.0836 41.4551L22.0408 41.4645L21.8083 41.6341L21.6463 41.7502L21.4138 41.7471L21.2334 41.7439L21.0163 41.8475L20.6615 42.017L20.3281 41.7628L20.2181 41.678L20.1141 41.7628L19.6553 42.1457L19.1997 41.7188L19.1079 41.6341L19.0529 41.6403L19.0315 41.6435H18.9856H18.7715L18.5024 41.7376L17.9366 41.9385L17.6736 41.4457L17.0314 41.9511L16.6032 41.2228L16.5145 41.0722L16.4809 41.0659L16.4075 41.0502L16.331 41.0125L16.1047 40.9058C16.0283 40.8681 15.9579 40.8399 15.8845 40.8085C15.8172 40.7802 15.7561 40.752 15.6857 40.7269L15.5022 40.7928L14.9518 40.9905L14.6276 40.4852L14.5267 40.3251L14.4869 40.3094L14.2545 40.2591L13.9303 40.234L13.5572 40.2026L13.3584 39.8887L13.3095 39.8103L13.2636 39.8008L13.1443 39.7757L13.0465 39.7192L12.7437 39.5434L12.6 39.4618L12.5082 39.3363L12.496 39.3174L12.4501 39.3143L12.1565 39.3017L11.9547 39.0945L11.8476 38.9847L11.6856 38.947L11.2238 38.8371L11.132 38.3788L11.1137 38.2878L10.973 38.2282L10.8721 38.1057L10.6305 37.8107L10.4653 37.5847L10.3216 37.4811L10.0402 37.3461L9.70076 37.164L9.35212 36.9757L9.32765 36.6304L9.23285 36.6084L9.1258 36.5142L8.85668 36.2725L8.60285 36.0434L8.6212 35.742L8.62425 35.6981L8.25727 35.5411L8.28785 35.1393L7.80465 35.0169L7.89333 34.4927L7.90251 34.4393L7.85358 34.4173L7.81688 34.3859L7.52329 34.1474L7.47436 34.1066L7.46824 34.0971L7.21746 33.8272L7.13183 33.7362L7.10431 33.664L6.84742 32.9828L6.78931 32.829L6.81072 32.7191L6.86883 32.4209L6.80154 32.2985L6.60275 32.0724L6.54159 32.0034L6.5263 31.9689L6.39174 31.6518L6.21742 31.4007L6.10732 31.2406L6.14708 31.0993L6.20519 30.889L6.0431 30.7854L5.94829 30.7258L5.92077 30.6567C5.8749 30.5469 5.83208 30.4307 5.79232 30.3177L5.75256 30.2141L5.77703 30.167Z" fill="#ABA000"></path> <path d="M42.9381 33.73L43.2011 33.9623L43.2776 34.0313L43.2654 34.1349L43.2226 34.4614L43.3969 34.6748L43.6354 34.9417L43.6446 34.9511L43.6507 34.9605L43.8464 35.2524L43.8587 35.2713L43.8678 35.2932L43.9871 35.6228L44.1094 35.9148L44.3296 36.1502L44.3847 36.2067V36.2883L44.3786 36.6179L44.5865 36.7969L44.6202 36.8251L44.6385 36.8628L44.7639 37.1327L45.0392 37.3054L45.0973 37.3431L45.1187 37.4121L45.2196 37.7323L45.3909 37.974L45.6447 38.1937L45.6906 38.2346L45.7028 38.2973L45.7762 38.5987L46.0147 38.7682L46.0208 38.7745L46.027 38.7808L46.293 39.0099L46.3022 39.0193L46.3114 39.0287L46.5407 39.2861L46.5683 39.3175L46.5805 39.3583L46.6539 39.5844L46.764 39.5687L46.9597 39.4305C47.1249 39.2893 47.287 39.1449 47.449 39.0005L47.6509 38.7399L47.6906 38.6866L47.7549 38.6709L48.0179 38.6081L47.9965 38.2973L47.9934 38.2346L48.024 38.1812L48.2014 37.883L48.2534 37.7951L48.3543 37.7919L48.6907 37.7794L48.7855 37.7762L48.8436 37.8516L48.9782 38.0211L48.9873 38.0337L48.9935 38.0462L49.1678 38.3476L49.3605 38.6364L49.3971 38.6929L49.391 38.7619L49.3696 39.0507L49.6296 39.1982L49.6846 39.2296L49.7121 39.2861L49.8589 39.6095L49.8773 39.6503V39.6942L49.8712 40.0144L50.0761 40.2122L50.1005 40.2373L50.1158 40.2687L50.2473 40.548L50.5134 40.7521L50.5379 40.7709L50.5562 40.7992L50.7489 41.0942L50.7703 41.1256L50.7764 41.1633L50.8376 41.4772L51.0394 41.7032L51.0853 41.7534L51.0884 41.8225L51.1098 42.1898L51.2352 42.4692C51.3636 42.6544 51.492 42.8396 51.6174 43.0279C51.7765 43.1911 51.9324 43.3575 52.0823 43.527L52.2383 43.6526L52.382 43.5459L52.5624 43.2571L52.5838 43.2225L52.6175 43.2006L52.9202 42.9997L52.9478 42.9808L52.9784 42.9745L53.2414 42.9086L53.2352 42.5539V42.466L53.2964 42.4064L53.5594 42.1584L53.5839 42.1333L53.6175 42.1207L53.9631 41.9795L54.168 41.7943L54.2506 41.4647L54.275 41.3705L54.3637 41.3328L54.6329 41.2198L54.6359 40.8996V40.8023L54.7124 40.7458L55.009 40.5292L55.2109 40.3377L55.22 39.983L55.2231 39.8637L55.3271 39.8135L55.636 39.6597L55.6849 39.5373L55.7797 39.3018L55.9754 39.4588L56.1559 39.6063L56.2231 39.6628L56.2262 39.7507L56.2415 40.1117L56.3027 40.4131L56.4831 40.6422L56.7889 40.84L56.8531 40.8839L56.8715 40.9624L56.8746 40.9812L56.899 40.9561L56.9327 40.9404L57.1865 40.8274L57.318 40.5449L57.3578 40.4602L57.4464 40.4382L57.7798 40.3566L58 40.1776L58.1957 39.914L58.2202 39.8794L58.2569 39.8606L58.5229 39.7193L58.6392 39.4431L58.7951 39.1104L58.8074 39.0821L58.8288 39.0601C58.9725 38.9063 59.1132 38.7494 59.2539 38.5924L59.2936 38.2628L59.3059 38.1686L59.3854 38.1215L59.6637 37.952L59.8044 37.6915L59.8166 37.6664L59.8349 37.6475L60.0551 37.4278L60.153 37.1422L60.2356 36.8L60.2447 36.7686L60.2631 36.7404L60.4466 36.4484C60.5781 36.3448 60.8411 36.4013 60.7646 36.6587L60.624 36.9193L60.5628 37.2552L60.5567 37.2771L60.4588 37.6224L60.4466 37.6664L60.3976 37.7197L60.1958 37.9458C60.1499 38.0431 60.1041 38.1404 60.0551 38.2346L60.0215 38.2973L59.9511 38.3444L59.7646 38.4668L59.7401 38.7211L59.731 38.8121L59.6606 38.8969C59.5261 39.0601 59.3884 39.2202 59.2477 39.3803L59.1224 39.6722C59.0795 39.7853 59.0367 39.8951 58.9909 40.005L58.945 40.1211L58.8288 40.1839L58.578 40.3189L58.4159 40.5386L58.3914 40.57L58.3547 40.6014L58.0856 40.8243L58.0245 40.8745L57.9419 40.8965L57.7431 40.9467L57.6575 41.135L57.6024 41.2606L57.474 41.3203L57.2263 41.4364L57.0366 41.6404L56.5473 42.1647L56.4005 41.4552C56.3852 41.3768 56.3699 41.2951 56.3547 41.2167C56.2965 41.1696 56.2384 41.1225 56.1803 41.0723L56.1008 41.0001L55.9112 40.6767L55.8562 40.5857L55.8531 40.5543L55.8286 40.1808L55.8256 40.1431C55.8317 40.0929 55.8348 40.0427 55.8378 39.9924L55.6176 40.1117C55.6176 40.2153 55.6207 40.322 55.6237 40.4256L55.6268 40.5072L55.5534 40.5889L55.3026 40.8651L55.2781 40.8871L55.113 41.0283L55.1375 41.3579L55.1528 41.54L54.9417 41.653L54.7582 41.7503L54.7185 42.0014L54.7063 42.0862L54.6023 42.1992L54.3515 42.4723L54.324 42.5005L54.2261 42.5508L53.9723 42.6795L53.9356 42.7203C53.9478 42.8301 53.957 42.94 53.9631 43.0499L53.9815 43.4548L53.5625 43.5804L53.2689 43.6683C53.2261 43.6997 53.1833 43.7279 53.1404 43.7593L53.0028 43.9916L52.9508 44.0795L52.856 44.1486C52.7612 44.2208 52.6664 44.2961 52.5685 44.3652L52.2138 44.6194L51.8896 44.3463L51.6174 44.1172L51.5777 44.0826L51.5563 44.0575L51.3269 43.797C51.2474 43.7122 51.1679 43.6306 51.0914 43.5427L51.0394 43.4799L51.0303 43.4642C50.911 43.2633 50.7887 43.0624 50.6633 42.8678L50.6266 42.8082L50.6143 42.7799C50.5685 42.6701 50.5287 42.5571 50.4889 42.444L50.4431 42.3185V42.2651L50.4461 41.9889L50.3513 41.8633L50.2565 41.7378L50.2473 41.6499L50.2106 41.3265L50.1128 41.1476L49.8987 40.953L49.8131 40.8776L49.7917 40.8211L49.6785 40.5198L49.4889 40.3063L49.3849 40.1902L49.3971 40.0803L49.4338 39.7162C49.4094 39.6503 49.3849 39.5875 49.3605 39.5247L49.0822 39.3489L48.9537 39.2673L48.969 39.1323C48.9812 39.0162 48.9965 38.9032 49.0088 38.787L48.8558 38.5516L48.6846 38.2471L48.6234 38.1655C48.5806 38.1686 48.5408 38.1718 48.498 38.1749C48.4766 38.2189 48.4552 38.2628 48.4338 38.3067C48.446 38.3695 48.4583 38.4323 48.4736 38.4951L48.5317 38.7305L48.5775 38.922L48.2962 39.057L48.0913 39.1574C48.0485 39.2485 48.0056 39.3395 47.9567 39.4274L47.8986 39.4902C47.8252 39.5812 47.7579 39.6785 47.6784 39.7601C47.5989 39.8449 47.5255 39.9359 47.4429 40.0144L47.4001 40.0489C47.3237 40.1117 47.2441 40.1714 47.1646 40.2279L47.0637 40.3032L46.9261 40.3252C46.8221 40.3409 46.7181 40.3534 46.6172 40.3691L46.1432 40.435L45.9994 39.9767L45.9169 39.7068L45.7945 39.5655L45.5774 39.374L45.3083 39.1794L45.137 39.057L45.0881 38.8529C45.0697 38.7839 45.0575 38.7117 45.0422 38.6395L44.9168 38.5265L44.8587 38.4731L44.8312 38.4323L44.6355 38.1404L44.5804 38.0556L44.5621 37.9866L44.5101 37.8045C44.4611 37.7731 44.4122 37.7386 44.3663 37.7072L44.2226 37.6067L44.1737 37.4875L44.0727 37.2395L43.9015 37.0794L43.718 36.9099L43.7302 36.6995L43.7455 36.4453C43.7149 36.4076 43.6813 36.3699 43.6507 36.3323L43.5834 36.2507L43.5651 36.2004L43.4428 35.8551L43.3418 35.5255C43.296 35.4471 43.247 35.3686 43.2042 35.287L43.2348 35.3246L43.0115 35.0264L42.8005 34.7188L42.7088 34.5838L42.7332 34.4771L42.7944 34.1914C42.7424 34.1349 42.6904 34.0816 42.6384 34.0251L42.5803 33.9591L42.5742 33.9309L42.4794 33.5668C42.4396 33.2999 42.773 33.2685 42.8311 33.4255L42.9381 33.73Z" fill="#ABA000"></path> <path d="M36.7764 19.5625C34.9623 17.7004 34.9623 14.6814 36.7764 12.8193C38.5906 10.9572 41.5319 10.9572 43.346 12.8193C45.1602 14.6814 45.1602 17.7004 43.346 19.5625C41.5319 21.4246 38.5906 21.4246 36.7764 19.5625Z" fill="#31332A"></path> <path d="M38.1887 13.2191C38.1887 13.9599 39.097 14.5594 40.2193 14.5594C41.3417 14.5594 42.25 13.9599 42.25 13.2191C42.25 12.4782 41.3417 11.8787 40.2193 11.8787C39.097 11.8755 38.1887 12.4782 38.1887 13.2191Z" fill="#636A78"></path> <path d="M60.5289 10.0015L60.5962 10.3436L61.168 10.3782L61.2139 10.7705L61.847 10.7925L61.3638 11.5019L62.529 11.2351L62.5565 11.6401L62.4984 12.0858L62.7981 12.3369L63.2385 12.5221L63.373 12.8612L63.1957 13.3414L62.6758 13.9536L63.058 14.1702L63.7828 14.2643L63.8287 14.6347L64.0428 14.9424L63.318 15.567L64.104 15.6863L63.5902 16.2137L64.5321 16.3173L64.6728 16.6563L63.9205 17.215L64.7645 17.3877L64.3027 17.8523L64.0122 18.2666L64.4618 18.4016C65.5536 17.529 66.2539 16.1697 66.2539 14.641C66.2539 12.0073 64.1743 9.86963 61.6054 9.86963C61.2353 9.86963 60.8745 9.91671 60.5289 10.0015Z" fill="#31332A"></path> <path d="M62.6813 10.7172C62.5009 11.0091 62.7823 11.5239 63.3113 11.8692C63.8404 12.2145 64.4154 12.2584 64.5958 11.9665C64.7762 11.6746 64.4949 11.1598 63.9658 10.8145C63.4367 10.4692 62.8618 10.4252 62.6813 10.7172Z" fill="#636A78"></path> <path d="M50.6781 19.0702C50.6843 19.1142 50.6934 19.1832 50.7118 19.268C50.8494 19.946 51.406 21.7635 52.7363 21.9801C54.1064 22.1999 59.0119 20.0402 59.859 19.1801C59.9385 19.1016 59.9844 19.0294 59.9844 18.9729C59.9844 18.9227 59.9446 18.8536 59.8682 18.772C59.1556 17.9684 55.3144 15.7899 54.0453 15.0773C53.7608 14.9172 53.4306 14.9078 53.1431 15.0554C51.3693 15.9469 50.7699 18.1473 50.6873 18.8756C50.6781 18.9635 50.6751 19.0294 50.6781 19.0702Z" fill="#FC8B2D"></path> <path d="M50.6781 19.0701C50.6843 19.1141 50.6934 19.1831 50.7118 19.2679C51.4763 19.3527 52.2409 19.3809 53.0055 19.406C53.7823 19.4249 54.5591 19.4217 55.3328 19.406C56.1096 19.3935 56.8833 19.3684 57.6601 19.3307C58.3941 19.293 59.1281 19.2522 59.859 19.18C59.9385 19.1015 59.9844 19.0293 59.9844 18.9728C59.9844 18.9226 59.9446 18.8535 59.8682 18.7719C59.1281 18.7123 58.391 18.684 57.654 18.6652C56.8772 18.6464 56.1035 18.6338 55.3267 18.637C54.5499 18.637 53.7761 18.6527 53.0024 18.684C52.2317 18.7217 51.458 18.7719 50.6843 18.8724C50.6781 18.9634 50.6751 19.0293 50.6781 19.0701Z" fill="#D13301"></path> <path d="M54.7024 16.3613C54.6443 16.537 54.8278 16.7788 55.1153 16.9043C55.4027 17.0299 55.6841 16.9891 55.7422 16.8133C55.8003 16.6375 55.6168 16.3958 55.3293 16.2702C55.0419 16.1478 54.7605 16.1855 54.7024 16.3613Z" fill="#D13301"></path> <path d="M20.1085 66.0654H24.1607L23.8885 53.6441C23.8885 53.6284 23.8885 53.6096 23.8885 53.5908C23.9069 53.1074 24.3014 52.7338 24.7693 52.7495C25.2403 52.7683 25.6042 53.1733 25.5889 53.6536L25.1363 66.0089L36.0328 64.9008C36.2928 64.8757 36.5252 65.0703 36.5497 65.334C36.5741 65.6009 36.3845 65.8394 36.1246 65.8645L28.0477 66.687L37.4855 68.4448C37.7424 68.4919 37.9136 68.7462 37.8647 69.0099C37.8219 69.2453 37.6231 69.4085 37.3998 69.4085C37.3723 69.4085 37.3448 69.4054 37.3142 69.4023L27.0202 67.4843L33.7728 71.7628C33.996 71.9041 34.0633 72.2023 33.9257 72.4315C33.7881 72.6606 33.4975 72.7297 33.2743 72.5884L24.5032 67.0323L20.1055 67.0354C19.8455 67.0354 19.6345 66.8188 19.6345 66.552C19.6345 66.2852 19.8455 66.0654 20.1085 66.0654Z" fill="#FC8B2D"></path> <path d="M38.0905 65.0485C38.0905 65.3153 38.3015 65.5319 38.5615 65.5319L42.9592 65.5288L51.7303 71.0849C51.9535 71.2231 52.2441 71.154 52.3817 70.9248C52.5193 70.6988 52.449 70.4006 52.2288 70.2562L45.4731 65.9777L55.7702 67.8956C55.7977 67.9019 55.8283 67.9019 55.8558 67.9019C56.0791 67.9019 56.2779 67.7355 56.3207 67.5033C56.3666 67.2396 56.1953 66.9885 55.9384 66.9382L46.5007 65.1803L54.5775 64.3579C54.8374 64.3297 55.0271 64.0942 54.9995 63.8274C54.9751 63.5606 54.7426 63.3691 54.4827 63.3942L43.5862 64.5023L43.8553 57.1569L43.3966 56.7363L43.0082 56.6421L42.8155 57.226L42.5433 57.5587L42.4546 57.4802L42.6106 64.5557H38.5584C38.2985 64.5651 38.0905 64.7817 38.0905 65.0485Z" fill="#FC8B2D"></path> </g> <defs> <clipPath id="clip0"> <rect width="67" height="76" fill="white" transform="matrix(-1 0 0 1 67 0.000488281)"></rect> </clipPath> </defs> </svg> 