<?xml version="1.0" encoding="UTF-8"?> <svg xmlns="http://www.w3.org/2000/svg" width="99" height="84" viewBox="0 0 99 84" fill="none"> <rect width="84" height="84" rx="42" fill="white"></rect> <path d="M98.2542 51.9536L46.6119 35.7968C45.8858 35.5704 45.0984 35.7584 44.5465 36.29L24.5099 55.5759C23.9204 56.1418 24.1519 57.1485 24.9254 57.389L76.1305 73.3477C77.1968 73.6792 78.3542 73.4023 79.1653 72.62L98.6696 53.7647C99.2572 53.1987 99.0257 52.1961 98.2542 51.9536Z" fill="#CCCCCC"></path> <path d="M74.1572 67.2755L21.7987 50.8944C21.856 50.6538 21.9767 50.4315 22.1587 50.2556L42.9351 30.1794C43.4119 29.7185 44.0925 29.5568 44.7196 29.7529L95.994 45.7944C96.7477 46.0309 97.3471 46.4817 97.7705 47.0497L77.728 66.4205C76.7745 67.3422 75.4114 67.6677 74.1572 67.2755Z" fill="#757575"></path> <path d="M74.1576 67.2755C75.4119 67.6677 76.7749 67.3422 77.7285 66.4205L97.771 47.0497C98.8116 48.4424 98.7977 50.5386 97.3931 51.8949L78.2191 70.4248C77.4812 71.1363 76.4267 71.389 75.4574 71.0838L25.2889 55.3231C23.54 54.7733 22.2086 53.318 21.7932 51.4987C21.7457 51.2946 21.7516 51.0884 21.7991 50.8923L74.1576 67.2755Z" fill="#4A4A4A"></path> <path d="M26.7972 51.0257L34.2733 53.3381L70.6192 64.5709L90.1631 45.6812L85.5912 44.2177L46.717 31.7742L26.7972 51.0257Z" fill="#4A4A4A"></path> <path d="M34.2733 53.3382L70.6172 64.573L90.1631 45.6833L85.5912 44.2198C77.5136 47.731 57.5305 55.0362 34.2733 53.3382Z" fill="#3D3D3D"></path> <path d="M33.6008 41.6062C33.6067 41.6082 33.6146 41.6102 33.6205 41.6122L34.0182 41.7173C34.1587 41.7558 34.311 41.7113 34.4218 41.6062L37.3022 38.8025C37.318 38.7864 37.3319 38.7682 37.3438 38.75C37.413 38.6267 37.3596 38.465 37.2231 38.4286L36.9481 38.3558C36.77 38.3073 36.5762 38.3619 36.4377 38.4973L33.5533 41.2848C33.4465 41.3838 33.4761 41.5577 33.6008 41.6062Z" fill="#3D3D3D"></path> <path d="M33.6008 41.6062C33.6067 41.6082 33.6146 41.6102 33.6205 41.6123L34.0182 41.7174C34.1586 41.7558 34.311 41.7113 34.4218 41.6062L37.3022 38.8026C37.318 38.7864 37.3319 38.7682 37.3438 38.75C37.3279 38.7419 37.3101 38.7338 37.2923 38.7278L37.0173 38.655C36.8393 38.6065 36.6454 38.6611 36.5069 38.7965L33.6225 41.584C33.6126 41.59 33.6047 41.5981 33.6008 41.6062Z" fill="#4A4A4A"></path> <path d="M26.9432 54.4803L27.0085 54.7653C27.0263 54.8462 27.0857 54.9129 27.1648 54.9351L30.2708 55.9155L30.4073 55.9599L33.8021 57.0313C33.8872 57.0575 33.9722 57.0313 34.0296 56.9767C34.0375 56.9706 34.0435 56.9625 34.0494 56.9524C34.0533 56.9484 34.0573 56.9423 34.0613 56.9363C34.0652 56.9302 34.0711 56.9221 34.0731 56.914C34.0771 56.908 34.081 56.8999 34.083 56.8938C34.087 56.8837 34.0909 56.8736 34.0929 56.8594C34.1008 56.8271 34.1028 56.7907 34.0929 56.7523L34.0237 56.4471C34.0039 56.3642 33.9465 56.2995 33.8674 56.2753L30.2193 55.1352L30.0828 55.0928L27.236 54.2034C27.1727 54.1831 27.1074 54.1933 27.058 54.2216C26.9729 54.268 26.9195 54.3711 26.9432 54.4803Z" fill="#A6A6A6"></path> <path d="M80.2817 58.0156C80.3648 58.1329 80.4855 58.2279 80.6398 58.2764L82.7586 58.9414C82.998 59.0182 83.2551 58.9556 83.4391 58.7817L88.288 54.1184C88.4067 54.0052 88.474 53.8637 88.4977 53.7182C88.5274 53.5343 88.4839 53.3422 88.379 53.1906C88.2959 53.0693 88.1733 52.9723 88.015 52.9258L85.9021 52.2648C85.6647 52.19 85.4056 52.2527 85.2236 52.4265L80.3668 57.0838C80.2461 57.199 80.1769 57.3425 80.1551 57.4901C80.1294 57.672 80.1749 57.864 80.2817 58.0156Z" fill="#3D3D3D"></path> <path d="M80.1561 57.4881C80.1561 57.4901 80.1581 57.4941 80.1601 57.4961C80.2432 57.6134 80.3638 57.7084 80.5181 57.7569L82.6369 58.4219C82.8763 58.4987 83.1335 58.4361 83.3175 58.2622L88.1664 53.5989C88.2851 53.4857 88.3523 53.3443 88.3761 53.1987C88.3761 53.1967 88.3781 53.1926 88.3761 53.1906C88.293 53.0693 88.1703 52.9723 88.0121 52.9258L85.8992 52.2648C85.6618 52.19 85.4026 52.2527 85.2206 52.4265L80.3638 57.0838C80.2471 57.197 80.1779 57.3405 80.1561 57.4881Z" fill="#A6A6A6"></path> <path d="M27.058 54.2215C27.1074 54.1932 27.1727 54.1831 27.236 54.2033L30.0828 55.0927L30.2193 55.1351L33.8674 56.2752C33.9465 56.2995 34.0059 56.3641 34.0237 56.447L34.0929 56.7522C34.1048 56.8028 34.0988 56.8493 34.083 56.8937C34.081 56.8998 34.0771 56.9079 34.0731 56.9139C34.0612 56.9382 34.0474 56.9584 34.0296 56.9766L34.2947 56.8068V56.8048C34.3778 56.7563 34.4292 56.6572 34.4035 56.5481L34.3343 56.2429C34.3145 56.16 34.2571 56.0953 34.178 56.071L30.4508 54.9067L30.3163 54.8643L27.5466 53.9991C27.4793 53.9789 27.4141 53.9911 27.3606 54.0234V54.0214L27.058 54.2215Z" fill="#7A7A7A"></path> <path d="M30.0823 55.0908L30.2702 55.9155L30.4067 55.9579L30.2168 55.1332L30.4482 54.9068L30.3137 54.8644L30.0823 55.0908Z" fill="#3D3D3D"></path> <path d="M94.094 52.1133L94.3631 53.2877L96.2939 51.4159L96.0288 50.2556L95.829 50.4476L95.1782 51.0722L94.094 52.1133Z" fill="#A6A6A6"></path> <path d="M94.0936 52.1132L94.2914 52.9784L96.0244 51.3006L95.8286 50.4476L95.1777 51.0722L94.0936 52.1132Z" fill="#3D3D3D"></path> <path d="M44.3296 45.8934C44.2142 43.9087 50.314 41.9239 57.9539 41.4601C65.5938 40.9964 71.8807 42.2294 71.9961 44.214C72.1115 46.1987 66.0117 48.1835 58.3718 48.6473C50.7319 49.111 44.445 47.8781 44.3296 45.8934Z" fill="#3D3D3D"></path> <path d="M48.9426 10.3497L49.1741 10.3194L49.2453 10.6145L49.5757 10.3861L49.6687 10.6367L50.0129 10.3982L50.1099 10.6347L50.1534 10.9682L50.4007 10.9197L50.5451 11.0632L50.8498 10.9177L51.0931 10.8854L51.2217 11.0592L51.1168 11.6373L51.5422 11.2896L51.6629 11.4716L51.744 11.7222L51.9853 11.6979L51.9794 12.0921L52.1001 12.272L52.5036 11.9729L52.7351 11.9668L52.6797 12.4418L52.8716 12.5045L53.2356 12.27L53.1921 12.7288L53.5363 12.5287L53.6788 12.6702L53.8667 12.7329L53.9181 13.0361L54.1002 13.1089V13.5071L54.5591 13.0887L54.5393 13.5253L54.6205 13.784L55.028 13.4444L55.1882 13.5576L55.3604 13.6445L55.5087 13.7779L55.5008 14.2247L55.663 14.3419L55.8965 14.3116L56.0587 14.4268L56.2288 14.5258L56.6225 14.1438L56.5533 14.7644L56.9391 14.3803L57.0855 14.5279L57.3446 14.4126L57.404 14.7725L57.4297 15.2293L57.7284 15.0069L57.9678 14.9301L58.223 14.7967L58.1795 15.488L58.4189 15.4031L58.7255 15.106L58.7492 15.6538L58.9688 15.6174L59.1845 15.583L59.3111 15.8458L59.5683 15.6619L59.7918 15.5891L59.9837 15.6174L60.1084 15.9145L60.2567 16.1308L60.4921 15.9934L60.6544 16.1652L60.965 15.6679L61.0856 16.0257L61.3112 15.8943L61.4516 16.1915L61.6811 16.0196L61.875 16.2561L61.9996 16.0237L62.3142 16.149L62.4566 16.0176L62.5397 15.7811L62.7395 15.7387L62.9077 15.6396L62.8622 15.1383L63.2559 15.4739L63.4339 15.3991L63.5506 15.1909L63.6199 14.8695L63.7999 14.7846L63.9859 14.7098L64.3736 15.1666L64.3519 14.5501L64.5972 14.6512L64.89 14.9139L64.9612 14.4996L65.0759 14.1903L65.3015 14.257L65.5389 14.3823L65.6595 14.0427L65.895 14.1782L66.0592 13.9882L66.2689 14.0245L66.4588 13.9619L66.6922 14.1863L66.8762 14.0791L67.0998 14.3278L67.2719 14.1115L67.4855 14.3662L67.6537 13.9477L67.8634 14.3237L68.0494 14.0387L68.2432 13.7314L68.4411 13.9619L68.6251 14.3096L68.813 14.3722L69.0385 13.8588L69.1988 14.3035L69.4204 14.0387L69.5766 14.3783L69.8299 13.9457L70.0336 13.9336L70.18 14.2489L70.4313 13.9801L70.5994 14.1458L70.7359 14.4409L70.8546 14.7543L71.1633 14.3358L71.278 14.6532L71.5233 14.5117L71.5985 14.916L71.9487 14.4834L72.1584 14.4874L72.2296 14.8614L72.5244 14.6512L72.7341 14.6694L72.6925 15.2515L72.9477 15.1606L73.1594 15.1707L73.3592 15.2111L73.3572 15.6336L73.654 15.4941L73.9705 15.3425L73.8498 15.9267L74.2059 15.7225L74.2079 16.0803L74.3207 16.2561L74.4928 16.3431L74.9102 16.1005L74.7935 16.5816L74.9478 16.6968L75.391 16.4623L75.4226 16.7332L75.5037 16.9394L75.4187 17.3214L76.0042 16.9798L75.7352 17.5397L76.0972 17.4528L76.0042 17.8126L76.572 17.5539L76.2891 18.0713L76.7046 17.9723L76.4612 18.4271L76.9459 18.2896L76.9618 18.5261L77.1833 18.609L77.1536 18.8738L77.488 18.8839L77.1873 19.3226L77.4227 19.4014L77.4682 19.6035L77.8085 19.6298L77.6027 19.9734L77.9687 19.9977L77.85 20.2827L78.3703 20.2443L77.8698 20.7052L78.2971 20.7234L78.0142 21.0609L78.3209 21.1438L78.7185 21.2004L78.398 21.5339L78.673 21.6471L78.8273 21.8068L78.5504 22.1019L78.9005 22.205L78.6176 22.49L78.8748 22.6255L78.6334 22.8862L78.855 23.0358L79.316 23.145L79.2606 23.3612L79.31 23.5593L79.3377 23.7595L78.8511 24.0283L79.2289 24.1799L79.3674 24.3679L79.4564 24.564L79.4149 24.7701L79.3595 24.9763L79.1894 25.1825L79.0608 25.3806L79.2685 25.5787L79.3971 25.7828L79.035 25.9688L79.5039 26.1932L78.8392 26.3468L79.4683 26.5995L78.8075 26.7309L79.3318 26.9936L79.1577 27.1715L78.764 27.309L79.1874 27.5839L78.7086 27.693L78.5919 27.8649L78.7996 28.1115L78.6631 28.2813L78.9005 28.5461L78.4396 28.6208L78.9895 28.9928L78.8451 29.1585L78.6512 29.3041L78.6691 29.5224L78.768 29.773L78.6888 29.959L78.4336 30.0702L77.9964 30.0944L78.0597 30.335L78.3011 30.6645L78.1764 30.8241L78.1408 31.0303L77.6205 30.9757L77.8777 31.3396L77.4741 31.3335L77.7986 31.756L77.7214 31.944L77.215 31.853L77.4722 32.2613L77.1141 32.2512L76.8411 32.2937L77.0389 32.6838L77.0132 32.9163L76.6769 32.8981L76.3722 32.894L76.5344 33.2922L76.2219 33.272L76.3267 33.6399L75.8163 33.4135L76.1368 34.0139L75.5413 33.6722L75.4958 33.9027L75.6244 34.3393L75.48 34.4747L75.0685 34.2827L75.1931 34.7496L75.0744 34.9235L74.5878 34.59L74.5976 34.9336L74.4869 35.1216L74.0318 34.8649L74.0437 35.1964L73.8894 35.3197L74.0398 35.7138L73.838 35.7967L73.6362 35.8796L73.6975 36.205L73.379 36.1747L73.3355 36.4072L73.2168 36.5668L72.7855 36.4072L72.7558 36.6558L72.8725 37.0661L72.5441 36.9994L72.4907 37.2339L72.2276 37.2299L71.9823 37.244L72.1505 37.7473L71.7033 37.5108L71.4897 37.5533L71.5312 37.9191L71.2919 37.9272L71.276 38.2304L71.1118 38.3396L70.9021 38.38L70.7716 38.5336L70.6529 38.7095L70.3719 38.6367L70.2532 38.8126L70.0732 38.8894L70.0218 39.1805L69.7448 39.0976L69.6063 39.2452L69.5133 39.4837L69.3432 39.5787L69.0484 39.4352L69.0188 39.8111L68.8229 39.8617L68.6824 40.0234L68.4549 39.9971L68.1147 39.706L68.1522 40.2902L67.9346 40.2801L67.8021 40.4822L67.4559 40.1184L67.4203 40.5934L67.2284 40.6399L66.8485 40.1184L66.7417 40.4095L66.5142 40.3185L66.3599 40.4742L66.1897 40.5732L66.0117 40.6601L65.8059 40.6298L65.7268 41.1412L65.5349 41.1998L65.3351 41.2079L65.0463 40.7288L64.9117 41.0745L64.7357 41.2059L64.5082 41.0058L64.2727 40.7006L64.1184 41.0038L63.9048 40.8036L63.7307 40.9835L63.5388 40.9815L63.3766 41.4424L63.1787 41.4262L62.969 41.119L62.7811 41.2403L62.5872 41.3049L62.3933 41.3474L62.2014 40.8279L62.0016 41.3919L61.8196 40.9411L61.604 41.5212L61.4121 41.4383L61.2202 41.3555L61.0678 40.7915L60.8205 41.4181L60.6682 40.9916L60.506 40.7167L60.2864 40.9512L60.0767 41.0543L59.8907 40.9936L59.7443 40.6864L59.5267 40.8279L59.3843 40.5469L59.1152 40.929L58.9312 40.8623L58.7967 40.5692L58.6444 40.3852L58.3279 40.8805L58.2368 40.4459L58.0173 40.5287L57.8807 40.2943L57.6552 40.3913L57.3802 40.6359L57.2121 40.5186L56.9905 40.5692L56.949 40.0699L56.763 40.0254L56.5256 40.1144L56.2882 40.2013L56.1537 40.0032L56.1062 39.5949L55.9301 39.5201L55.6116 39.7909L55.5918 39.3422L55.396 39.3119L55.1131 39.4776L54.8836 39.514L54.757 39.322L54.5196 39.3685L54.3672 39.2371L54.385 38.7701L54.019 39.0592L54.0032 38.6751L53.8905 38.4831L53.5898 38.6266L53.3583 38.6448L53.3385 38.2911L52.9626 38.5478L52.9112 38.2547L52.749 38.1455L52.474 38.2183L52.3533 38.0445L52.3474 37.6988L52.1416 37.6584L51.738 37.903L51.7202 37.5856L51.556 37.4805L51.5659 37.1349L51.3305 37.1268L51.1208 37.0803L50.7884 37.1915L50.7548 36.9165L50.8557 36.4759L50.5392 36.5567L50.4482 36.3627L50.3473 36.1828L50.3097 35.9281L50.003 35.9867L49.6905 36.0433L49.5915 35.8594L49.6905 35.4652L49.3363 35.5562L49.1385 35.4794L48.9802 35.3581L49.1622 34.9012L49.1049 34.687L48.5549 34.9457L48.545 34.685V34.4202L48.5707 34.1331L48.4758 33.9593L48.0405 34.0846L48.0267 33.838L47.7398 33.8218L47.5103 33.7551L47.6073 33.4236L47.722 33.084L47.4807 33.0274L47.1186 33.0578L47.1859 32.7626L46.8417 32.7687L46.7289 32.607L46.7566 32.3462L46.4183 32.3381L46.7586 31.8732L46.1829 32.0147L46.3332 31.6832L46.3372 31.4487L46.3669 31.2021L45.7872 31.3194L45.7793 31.093L45.902 30.7958L45.9752 30.5331L45.8466 30.3815L45.9118 30.1268L45.8288 29.9529L45.1482 30.0722L45.5182 29.674L45.0077 29.6942L44.9365 29.5082L45.4093 29.0837L45.2451 28.9422L45.3085 28.7078L44.986 28.6269L45.0453 28.3945L45.0928 28.1701L44.6892 28.1074L44.6259 27.9215L44.8139 27.6526L44.341 27.596L44.6635 27.2928L44.1986 27.2221L44.4637 26.9431L44.6398 26.6945L44.1867 26.6055L44.3193 26.3731L44.4835 26.1366L44.3351 25.9688L44.0008 25.8334L44.3984 25.5625L44.3371 25.3766L44.3628 25.1764L44.1472 25.0107L43.6447 24.8753L44.1887 24.6145L43.7278 24.4609L43.7634 24.2567L43.9019 24.0485L43.7772 23.8565L43.9019 23.6543L44.0265 23.4542L43.9315 23.2582L44.1907 23.0641L43.7733 22.862L44.0443 22.672L44.1313 22.482L43.9216 22.2738L44.2619 22.104L43.7851 21.8654L43.6407 21.6491L44.2857 21.5238L43.9869 21.2893L43.8702 21.071L43.8999 20.8729L44.1986 20.7254L43.8128 20.4485L44.3272 20.3535L44.0938 20.0988L44.343 19.9552L44.3707 19.7612L44.167 19.5025L44.6536 19.4337L44.3173 19.1305L44.6299 19.0214L44.4874 18.7667L44.3826 18.5201L44.8989 18.4958L44.5864 18.1684L45.0889 18.1542L44.9207 17.8753L44.9108 17.6569L45.1977 17.57L45.1146 17.3174L45.1363 17.1092L45.1205 16.8787L45.5795 16.8908L45.7041 16.7392L45.6665 16.4987L45.5063 16.1854L45.536 15.9731L45.6191 15.7912L45.807 15.672L46.1967 15.6841L46.2877 15.5123L46.3926 15.3485L46.4124 15.1262L46.6517 15.0554L46.8337 14.9483L46.6656 14.5865L47.0336 14.6168L46.994 14.3439L46.8041 13.9477L47.2255 14.0306L47.2393 13.7901L47.6152 13.8507L47.5301 13.5232L47.7794 13.4808L47.7833 13.2241L48.088 13.2382L48.2364 13.1129L47.9159 12.5429L48.4144 12.7491L48.5292 12.5894L48.7745 12.5591L48.9426 12.2619L48.6083 12.0113L48.6973 11.7849L48.2581 11.6575L48.6795 11.3907L48.6261 11.1987L48.3946 11.0026L48.5213 10.8005L48.6222 10.6084L48.6024 10.4063L48.452 10L48.8833 10.4285L48.9426 10.3497Z" fill="#FCEE21"></path> <path d="M49.8031 13.21L50.0049 13.0988L49.989 13.1109L50.1532 12.9816C50.2779 12.9108 50.3471 13.0806 50.2957 13.1392L50.1434 13.2827L50.1374 13.2888L50.1295 13.2928L49.9693 13.402L49.9257 13.5233L49.9851 13.7355L50.0068 13.8123L49.9396 13.8548L49.7813 13.9559L49.7635 14.1075L49.7615 14.1196L49.7576 14.1297L49.7022 14.3015V14.4935V14.5057L49.7002 14.5178L49.6606 14.7098L49.6527 14.7503L49.6211 14.7745L49.4509 14.9019L49.3243 15.2253L49.3263 15.4011L49.354 15.5891L49.443 15.7953L49.4767 15.8741L49.4094 15.9247L49.2768 16.0257L49.3619 16.1632L49.4094 16.24L49.3421 16.3006L49.2096 16.4199L49.2689 16.5574L49.2986 16.6281L49.2432 16.6786L49.0889 16.8222L49.0988 16.9434L49.2116 17.1254L49.2531 17.1921L49.2017 17.2527L49.077 17.4003L49.1206 17.5397L49.1898 17.7338L49.1938 17.7419L49.1957 17.752L49.2313 17.946L49.2353 17.9642L49.2333 17.9824L49.2056 18.1765L49.1918 18.3463L49.259 18.512L49.2808 18.5646L49.2511 18.6111L49.1483 18.7708L49.2254 18.8941L49.2412 18.9203V18.9507L49.2393 19.1103L49.3639 19.2498L49.3975 19.2882L49.3896 19.3388L49.3599 19.5247L49.3995 19.6763L49.5004 19.836L49.5241 19.8744L49.5142 19.9189L49.4786 20.0867L49.5795 20.21L49.5835 20.216L49.5874 20.2221L49.6943 20.3919L49.7002 20.4L49.7042 20.4101L49.7734 20.592L49.7853 20.6223L49.7774 20.6547L49.7437 20.8063L49.8941 20.8851L49.9277 20.9013L49.9416 20.9356C49.9811 21.0266 50.0247 21.1155 50.0583 21.2106C50.0939 21.3015 50.1236 21.3905 50.1532 21.4794L50.2462 21.6371L50.27 21.6755L50.2581 21.7199L50.2166 21.8736L50.3986 21.9019L50.4361 21.9079L50.4619 21.9382L50.5865 22.0878L50.6241 22.1323L50.6063 22.1889L50.537 22.4052L50.6518 22.4678L50.6676 22.4759L50.6795 22.4901L50.8081 22.6316L50.9505 22.7609L50.9841 22.7913V22.8378L50.9861 22.9974L51.1543 23.0197L51.1958 23.0257L51.2215 23.0601L51.3402 23.2137L51.358 23.238L51.362 23.2683L51.3818 23.4482L51.5203 23.5048L51.542 23.5149L51.5579 23.5331L51.6647 23.6544L51.8487 23.6948L51.8704 23.6989L51.8882 23.711L52.0425 23.8262L52.0643 23.8424L52.0762 23.8666L52.1494 24.0263L52.2938 24.093L52.3373 24.1132L52.3512 24.1597L52.4145 24.3679L52.5253 24.4892C52.6281 24.5559 52.731 24.6246 52.8319 24.6954L53.008 24.7661L53.1821 24.847L53.366 24.8996L53.3779 24.9036L53.3878 24.9097L53.5362 24.9925L53.7202 25.0026L53.7538 25.0047L53.7795 25.0249L53.9338 25.1502L53.9516 25.1643L53.9615 25.1866L54.0229 25.316L54.2009 25.2088L54.2523 25.1785L54.3038 25.2088L54.4719 25.3038L54.4937 25.316L54.5075 25.3362L54.6282 25.5181L54.743 25.5868L54.919 25.5423L54.9883 25.5242L55.0298 25.5828L55.1208 25.7101L55.2712 25.6212L55.3325 25.5848L55.3879 25.6293L55.5481 25.7566L55.6668 25.8193L55.835 25.7162L55.9082 25.6697L55.9656 25.7344L56.1317 25.9224C56.1891 25.987 56.0783 26.1467 55.9774 26.0659L55.8765 25.9668L55.742 26.0639L55.6846 26.1063L55.6016 26.0699C55.5402 26.0416 55.4769 26.0153 55.4156 25.987L55.4116 25.985L55.3938 25.9729L55.3187 25.9203L55.1802 26.0133L55.0496 26.1002L54.9388 25.9608L54.8735 25.8759L54.7746 25.9062L54.7034 25.9284L54.6163 25.8819L54.4403 25.7869L54.4086 25.7687L54.371 25.7202L54.2701 25.5848L54.1099 25.6939L53.8844 25.8476L53.7419 25.5828L53.6549 25.419L53.6173 25.3907L53.4867 25.3887H53.4333L53.3641 25.3544L53.2315 25.2877L53.0594 25.2452L53.0475 25.2432L53.0139 25.229L52.8398 25.1563L52.6618 25.0936L52.636 25.0855L52.5985 25.0613C52.4916 24.9905 52.3828 24.9218 52.274 24.8551L52.2483 24.8389L52.2127 24.8025L52.0722 24.659L52.0247 24.6105L51.997 24.5256L51.9733 24.4569L51.9238 24.4367L51.8131 24.3902L51.7498 24.2628L51.7003 24.1638L51.6805 24.1496L51.5242 24.1193L51.4174 24.0991L51.3303 24.0041L51.2631 23.9293L51.1385 23.8808L50.9367 23.8019L50.907 23.5695L50.8971 23.4927L50.8239 23.4846L50.4995 23.4462L50.4896 23.0985L50.4876 23.0298L50.4638 23.0096L50.4539 23.0015L50.4361 22.9833L50.3531 22.8964L50.2126 22.8236L49.9158 22.67L50.0049 22.3728L49.5617 22.3061L49.6784 21.8533L49.7022 21.7604L49.6923 21.7442L49.6705 21.7078L49.6547 21.6633L49.6092 21.5299C49.5934 21.4834 49.5776 21.445 49.5617 21.4046C49.5479 21.3682 49.534 21.3298 49.5162 21.2934L49.4193 21.2429L49.1324 21.0953L49.2036 20.7699L49.2254 20.6668L49.2175 20.6446L49.1463 20.5314L49.0315 20.3899L48.899 20.2261L48.9425 20.026L48.9544 19.9755L48.9405 19.9533L48.9029 19.8946L48.8871 19.834L48.8377 19.644L48.8139 19.5551L48.8278 19.4702L48.8297 19.458L48.8119 19.4378L48.7031 19.3145L48.7051 19.1548L48.7071 19.0699L48.6596 18.9891L48.5251 18.7607L48.6655 18.5484L48.6932 18.506L48.6616 18.4251L48.6695 18.3362L48.6893 18.1239L48.715 17.9703L48.6992 17.8733L48.6438 17.7075L48.5824 17.4993L48.5211 17.2851L48.6458 17.1436L48.6181 17.0971L48.6141 17.0182L48.6042 16.8181L48.5943 16.6261L48.719 16.519L48.7368 16.5028L48.6557 16.2926L48.8218 16.1511L48.6833 15.9085L48.9188 15.7427L48.9425 15.7266L48.9326 15.6983L48.9306 15.672L48.9109 15.4618L48.9069 15.4274V15.4213L48.9148 15.2152L48.9168 15.1444L48.9346 15.106L49.0988 14.7401L49.1364 14.6593L49.1858 14.627L49.3243 14.536L49.3441 14.4612L49.354 14.2934L49.358 14.2429L49.3659 14.2227L49.4371 14.0468L49.4668 13.8811L49.4865 13.776L49.5558 13.7375L49.6606 13.681L49.6389 13.5738L49.627 13.5132L49.6428 13.4748C49.6686 13.4141 49.6962 13.3535 49.7239 13.2928L49.7497 13.2362L49.8031 13.21Z" fill="#ABA000"></path> <path d="M62.7359 29.6639L62.7478 29.8579L62.7517 29.9166L62.7062 29.9509L62.5638 30.0581L62.548 30.2097L62.5361 30.4098V30.4179L62.5341 30.4239L62.4965 30.6159L62.4946 30.6281L62.4886 30.6402L62.4075 30.8161L62.3422 30.9778L62.3363 31.1577L62.3343 31.2021L62.3027 31.2325L62.1741 31.3558L62.1859 31.5094L62.1879 31.5337L62.18 31.5559L62.1226 31.7095L62.1622 31.8874L62.1701 31.9258L62.1523 31.9602L62.0672 32.1239L62.0395 32.2856L62.0514 32.4736L62.0534 32.508L62.0356 32.5362L61.9485 32.6818L61.9743 32.8435V32.8475V32.8516L61.9881 33.0477V33.0537V33.0598L61.9762 33.2518L61.9743 33.274L61.9644 33.2943L61.905 33.4095L61.9525 33.4479L62.0831 33.4742C62.2018 33.4863 62.3205 33.4984 62.4392 33.5065L62.6172 33.4883L62.6528 33.4843L62.6825 33.5045L62.8091 33.5874L62.9219 33.46L62.9436 33.4337L62.9753 33.4257L63.1593 33.3832L63.2147 33.3711L63.2562 33.4115L63.3907 33.5429L63.4283 33.5793L63.4224 33.6318L63.4085 33.7511V33.7592L63.4066 33.7673L63.3571 33.9532L63.3195 34.1432L63.3116 34.1796L63.2839 34.2039L63.1632 34.307L63.2068 34.4687L63.2167 34.503L63.2048 34.5354L63.1355 34.7173L63.1276 34.7395L63.1098 34.7557L62.9832 34.877L62.9852 35.0367V35.0569L62.9793 35.0751L62.9219 35.2348L62.9456 35.4207L62.9476 35.4389L62.9436 35.4571L62.9041 35.6492L62.9001 35.6694L62.8883 35.6876L62.7893 35.8331L62.7794 36.0029L62.7775 36.0413L62.7517 36.0696L62.6192 36.2192L62.5598 36.3769C62.5381 36.5002 62.5143 36.6235 62.4906 36.7468C62.4886 36.8741 62.4847 36.9994 62.4768 37.1268L62.4866 37.238L62.5836 37.2561L62.7656 37.2177L62.7874 37.2137L62.8091 37.2198L63.003 37.2663L63.0208 37.2703L63.0366 37.2804L63.1632 37.3633L63.2978 37.2258L63.3314 37.1915L63.3789 37.1935L63.5747 37.2056L63.5945 37.2076L63.6123 37.2157L63.8003 37.3026L63.9506 37.3148L64.1109 37.2218L64.1564 37.1955L64.2038 37.2177L64.3522 37.2844L64.4788 37.1632L64.5164 37.1268L64.5679 37.1369L64.7657 37.1733L64.918 37.1814L65.0585 37.05L65.106 37.0055L65.1653 37.0277L65.3434 37.0944L65.4086 37.0682L65.5372 37.0156L65.5511 37.1551L65.5649 37.2844L65.5709 37.333L65.5372 37.3693L65.4027 37.5129L65.3077 37.6523L65.288 37.814L65.3295 38.0142L65.3374 38.0566L65.3137 38.093L65.3077 38.1011H65.3275L65.3453 38.1092L65.4878 38.1678L65.648 38.1132L65.6955 38.097L65.737 38.1253L65.8973 38.2304L66.0516 38.2507L66.2297 38.2304L66.2534 38.2284L66.2752 38.2365L66.4314 38.2911L66.5818 38.2325L66.7717 38.1678L66.7875 38.1617H66.8034C66.9181 38.1617 67.0329 38.1577 67.1476 38.1557L67.29 38.0465L67.3316 38.0142L67.381 38.0283L67.5532 38.0768L67.7075 38.0344L67.7213 38.0303H67.7371L67.9073 38.0344L68.0557 37.9636L68.2199 37.8666L68.2357 37.8585L68.2535 37.8545L68.4375 37.8181C68.5285 37.8322 68.6076 37.9616 68.477 38.0283L68.3227 38.0708L68.1704 38.1738L68.1605 38.1799L67.9904 38.2729L67.9686 38.285L67.929 38.287L67.7629 38.2911C67.7075 38.3093 67.6521 38.3295 67.5967 38.3457L67.5591 38.3558L67.5136 38.3436L67.3949 38.3153L67.2881 38.4023L67.2505 38.4326L67.1891 38.4366C67.0744 38.4447 66.9577 38.4508 66.8429 38.4548L66.6827 38.5155C66.6233 38.5417 66.564 38.566 66.5027 38.5902L66.4394 38.6165L66.3701 38.5943L66.2217 38.5438L66.0734 38.5619L66.0516 38.564L66.0259 38.5599L65.836 38.5377L65.7944 38.5316L65.7549 38.5054L65.6579 38.4427L65.5511 38.4811L65.4818 38.5054L65.4086 38.475L65.2682 38.4184H65.1159L64.7241 38.4205L64.9418 38.089C64.9655 38.0526 64.9912 38.0162 65.0169 37.9778C65.013 37.9353 65.007 37.8949 65.0051 37.8524L65.0031 37.7938L65.0545 37.5937L65.0684 37.5371L65.0802 37.525L65.2148 37.3714L65.2266 37.3552C65.2484 37.339 65.2682 37.3208 65.288 37.3026L65.1574 37.2602C65.1178 37.3006 65.0763 37.341 65.0387 37.3835L65.009 37.4158L64.9497 37.4179L64.7459 37.4219L64.7281 37.4199L64.6094 37.4057L64.4907 37.5432L64.4254 37.62L64.3008 37.5775L64.192 37.5412L64.0792 37.622L64.0416 37.6483L63.9565 37.6503L63.7548 37.6523H63.733L63.6756 37.6321L63.5273 37.5796H63.4976C63.46 37.6261 63.4204 37.6725 63.3809 37.717L63.2325 37.8787L63.0228 37.7574L62.8764 37.6725C62.8487 37.6665 62.821 37.6624 62.7933 37.6564L62.6508 37.6887L62.5955 37.7008L62.5322 37.6887C62.4669 37.6766 62.4016 37.6665 62.3383 37.6544L62.1029 37.6079L62.0831 37.3714L62.0672 37.1733L62.0653 37.145L62.0672 37.1268L62.0791 36.9327C62.0831 36.868 62.0831 36.8034 62.087 36.7387L62.091 36.6942L62.093 36.6841C62.1246 36.5588 62.1543 36.4314 62.182 36.3061L62.1899 36.2677L62.1958 36.2535C62.2216 36.1929 62.2492 36.1323 62.2789 36.0736L62.3106 36.0069L62.3323 35.9867L62.4411 35.8836L62.453 35.7967L62.4649 35.7098L62.4946 35.6714L62.6053 35.5319L62.637 35.4228L62.6291 35.2611L62.6251 35.1984L62.639 35.1681L62.7102 35.0064L62.7201 34.8467L62.726 34.7598L62.7735 34.7213L62.9278 34.596C62.9436 34.5617 62.9595 34.5273 62.9753 34.4929L62.9357 34.313L62.9179 34.2302L62.9753 34.1837C63.0248 34.1453 63.0742 34.1069 63.1237 34.0684L63.1573 33.9168L63.2087 33.7309L63.2167 33.6743C63.1988 33.6581 63.183 33.6419 63.1652 33.6258C63.1395 33.6339 63.1138 33.6419 63.09 33.652C63.0703 33.6803 63.0505 33.7107 63.0327 33.741L62.9634 33.8542L62.908 33.9472L62.7478 33.8865L62.6311 33.8421C62.5796 33.8582 62.5262 33.8764 62.4748 33.8906H62.4273C62.364 33.8966 62.3007 33.9047 62.2374 33.9047C62.1741 33.9047 62.1108 33.9088 62.0475 33.9047L62.0178 33.9007C61.9644 33.8946 61.911 33.8845 61.8575 33.8744L61.7903 33.8623L61.7289 33.8138C61.6834 33.7774 61.6379 33.741 61.5924 33.7046L61.3847 33.5388L61.5074 33.3044L61.5786 33.1669L61.5865 33.0638L61.5766 32.9021L61.5489 32.7182L61.5311 32.6009L61.5905 32.5019C61.6102 32.4675 61.632 32.4352 61.6538 32.4008L61.6498 32.3058L61.6478 32.2613L61.6538 32.233L61.6914 32.041L61.7013 31.9864L61.721 31.9521L61.7705 31.8611C61.7646 31.8288 61.7586 31.7964 61.7527 31.7641L61.7369 31.6671L61.7646 31.6024L61.8219 31.4669L61.818 31.3356L61.814 31.1961L61.9011 31.1213L62.0059 31.0303C62.0079 31.0041 62.0099 30.9758 62.0138 30.9495L62.0198 30.8909L62.0316 30.8646L62.1187 30.6827L62.2077 30.5149C62.2196 30.4664 62.2334 30.4158 62.2473 30.3673L62.2433 30.3936L62.273 30.1894L62.3106 29.9853L62.3264 29.8963L62.3778 29.864L62.5124 29.7791C62.5143 29.7367 62.5143 29.6942 62.5163 29.6518L62.5203 29.6032L62.5282 29.5891L62.633 29.4112C62.7221 29.294 62.8606 29.4153 62.823 29.5002L62.7359 29.6639Z" fill="#ABA000"></path> <path d="M66.3798 23.3733C65.5133 22.2233 65.7234 20.5734 66.8489 19.6881C67.9744 18.8028 69.5892 19.0174 70.4556 20.1674C71.322 21.3174 71.112 22.9673 69.9865 23.8526C68.861 24.7379 67.2462 24.5233 66.3798 23.3733Z" fill="#31332A"></path> <path d="M68.846 19.8704C68.5591 20.1554 68.6778 20.7537 69.1091 21.2105C69.5404 21.6653 70.124 21.8048 70.4108 21.5218C70.6977 21.2368 70.579 20.6385 70.1477 20.1816C69.7164 19.7248 69.1328 19.5874 68.846 19.8704Z" fill="#636A78"></path> <path d="M78.6981 27.7092L78.5913 27.8669L78.799 28.1135L78.6645 28.2813L78.8999 28.5461L78.439 28.6209L78.9909 28.9908L78.8465 29.1565L78.6526 29.3021L78.6704 29.5204L78.7694 29.769L78.6902 29.955L78.435 30.0682L77.9978 30.0924L78.0611 30.3309L78.3025 30.6604L78.1778 30.8221L78.1422 31.0263L77.6219 30.9717L77.8791 31.3356L77.4775 31.3295L77.8 31.752L77.7228 31.94L77.2164 31.849L77.4736 32.2573L77.1155 32.2472L76.8425 32.2876L76.9612 32.5221C77.7189 32.6292 78.5161 32.3927 79.1077 31.8065C80.1285 30.7959 80.1522 29.1323 79.165 28.0913C79.0206 27.9457 78.8643 27.8164 78.6981 27.7092Z" fill="#31332A"></path> <path d="M79.0475 29.556C78.9775 29.2094 79.0681 28.8974 79.25 28.859C79.4319 28.8206 79.6362 29.0705 79.7062 29.417C79.7762 29.7636 79.6856 30.0757 79.5037 30.114C79.3218 30.1524 79.1175 29.9026 79.0475 29.556Z" fill="#636A78"></path> <path d="M71.3914 27.1857C71.3756 27.2039 71.3538 27.2342 71.3281 27.2746C71.1184 27.5899 70.6278 28.5137 71.0571 29.1363C71.4983 29.7771 74.2244 30.9393 74.8852 30.9535C74.9465 30.9555 74.992 30.9454 75.0138 30.9252C75.0335 30.905 75.0434 30.8625 75.0474 30.8019C75.083 30.2036 74.448 27.8103 74.2343 27.0219C74.1868 26.8461 74.0622 26.7086 73.896 26.646C72.8673 26.268 71.7851 26.8683 71.4706 27.1129C71.433 27.1452 71.4053 27.1695 71.3914 27.1857Z" fill="#FC8B2D"></path> <path d="M71.3919 27.1856C71.376 27.2038 71.3543 27.2341 71.3286 27.2746C71.5897 27.6162 71.8726 27.9396 72.1595 28.259C72.4523 28.5804 72.751 28.8957 73.0556 29.205C73.3583 29.5163 73.6669 29.8195 73.9815 30.1206C74.2783 30.4036 74.577 30.6866 74.8876 30.9555C74.9489 30.9575 74.9944 30.9474 75.0162 30.9272C75.036 30.907 75.0458 30.8645 75.0498 30.8039C74.7867 30.4804 74.5157 30.1712 74.2387 29.8639C73.9479 29.5425 73.6531 29.2232 73.3524 28.9098C73.0537 28.5945 72.749 28.2852 72.4384 27.9841C72.1258 27.6849 71.8093 27.3898 71.473 27.1149C71.4334 27.1452 71.4057 27.1694 71.3919 27.1856Z" fill="#D13301"></path> <path d="M74.0116 27.8406C73.9206 27.8831 73.8988 28.0509 73.9602 28.2166C74.0215 28.3824 74.1461 28.4794 74.2371 28.4369C74.3281 28.3945 74.3499 28.2267 74.2886 28.061C74.2253 27.8972 74.1026 27.7982 74.0116 27.8406Z" fill="#D13301"></path> <path d="M48.7991 43.3243H51.0464L50.8961 36.4658C50.8961 36.4557 50.8961 36.4456 50.8961 36.4375C50.906 36.1707 51.1256 35.9645 51.3847 35.9746C51.6459 35.9847 51.8477 36.2091 51.8378 36.4739L51.5865 43.296L57.6283 42.6835C57.7728 42.6694 57.9014 42.7765 57.9152 42.9241C57.9291 43.0716 57.8242 43.203 57.6798 43.2172L53.1989 43.672L58.4335 44.6422C58.576 44.6685 58.6709 44.808 58.6452 44.9535C58.6215 45.0829 58.5127 45.1739 58.388 45.1739C58.3722 45.1739 58.3564 45.1718 58.3405 45.1698L52.6311 44.1106L56.3761 46.4716C56.4987 46.5484 56.5383 46.7141 56.4611 46.8395C56.386 46.9648 56.2237 47.0052 56.1011 46.9264L51.2364 43.86L48.7971 43.862C48.6527 43.862 48.5359 43.7427 48.5359 43.5952C48.5379 43.4436 48.6546 43.3243 48.7991 43.3243Z" fill="#FC8B2D"></path> <path d="M59.0153 43.5587C59.0153 43.6841 59.1142 43.7851 59.2369 43.7851L61.3023 43.7831L65.4212 46.3806C65.524 46.4473 65.6605 46.4129 65.7258 46.3058C65.7911 46.2007 65.7575 46.0612 65.6526 45.9945L62.4814 43.9953L67.3144 44.8908C67.3283 44.8928 67.3421 44.8928 67.354 44.8928C67.4608 44.8928 67.5538 44.816 67.5716 44.7069C67.5934 44.5836 67.5142 44.4663 67.3935 44.4441L62.9601 43.6214L66.7526 43.2373C66.8732 43.2252 66.9623 43.114 66.9524 42.9887C66.9405 42.8654 66.8317 42.7744 66.709 42.7845L61.5951 43.304L61.6683 41.3413L61.603 41.5192L61.4091 41.4363L61.2172 41.3534L61.0827 40.8501L61.1361 43.3303H59.2349C59.1142 43.3323 59.0153 43.4334 59.0153 43.5587Z" fill="#FC8B2D"></path> </svg> 