<?xml version="1.0" encoding="UTF-8"?> <svg xmlns="http://www.w3.org/2000/svg" width="102" height="84" viewBox="0 0 102 84" fill="none"> <rect width="84" height="84" rx="42" fill="white"></rect> <path d="M26.1334 59.3402C26.0003 56.5774 36.7969 53.8259 50.2482 53.1945C63.6995 52.563 74.7119 54.2909 74.845 57.0537C74.978 59.8165 64.1815 62.568 50.7302 63.1994C37.2789 63.8308 26.2665 62.103 26.1334 59.3402Z" fill="#E3E3E3"></path> <g clip-path="url(#clip0)"> <path d="M27.125 23.5959H39.6249V60.346L27.125 57.2835V23.5959Z" fill="#EDBC7C"></path> <path d="M69.3126 23.5959H39.625V60.346L69.3126 58.8147V23.5959Z" fill="#D4A263"></path> <path d="M74 35.8459H42.75L39.625 23.5959H69.3126L74 35.8459Z" fill="#F4D0A1"></path> <path d="M63.0635 23.5959H32.2119C32.6776 21.3351 34.7212 19.6292 37.1705 19.6292C38.3541 19.6292 39.4369 20.0457 40.2971 20.7202C40.7323 18.4095 42.7869 16.6539 45.2651 16.6539C47.5417 16.6539 49.4542 18.1416 50.0815 20.1743C52.2238 19.1239 54.5542 19.6621 56.0526 21.2255C58.733 19.7992 61.901 21.0265 63.0635 23.5959Z" fill="white"></path> <path d="M60.118 38.6077L57.0898 42.1571L58.6156 42.1862V50.9044L61.6015 50.837V42.2429L63.0633 42.272L60.118 38.6077Z" fill="#A97A45"></path> <path d="M50.7516 38.2646L47.4375 41.9711L49.1071 42.0032V51.121L52.3704 51.0467V42.0659L53.9665 42.0966L50.7516 38.2646Z" fill="#A97A45"></path> <path d="M61.6011 53.7004L49.1074 54.1599V52.6409L61.6011 52.2695V53.7004Z" fill="#A97A45"></path> <path d="M27.125 23.5959H39.625L36.5001 35.8459L24 35.0803L27.125 23.5959Z" fill="#F8E1C2"></path> </g> <path d="M60.818 67.8469C60.6838 65.0849 69.5695 62.4273 80.6647 61.9109C91.7599 61.3945 100.863 63.2149 100.997 65.9768C101.131 68.7388 92.2458 71.3964 81.1506 71.9128C70.0554 72.4292 60.9522 70.6088 60.818 67.8469Z" fill="#E3E3E3"></path> <path d="M52.7783 38.3165L52.964 38.0757L53.3017 38.2683L53.3956 37.7605L53.711 37.8962L53.8072 37.3643L54.1158 37.4825L54.467 37.7386L54.6481 37.4628L54.9143 37.4562L55.0597 37.0446L55.252 36.7885L55.5316 36.8236L55.9722 37.4299L56.0415 36.7316L56.3211 36.7776L56.6275 36.9242L56.8266 36.6791L57.1889 37.0315L57.4663 37.0753L57.5602 36.4383L57.766 36.2172L58.1596 36.6878L58.3922 36.5652L58.5085 36.0223L58.8955 36.4645L59.0252 35.9698L59.2891 35.9611L59.5195 35.8428L59.8483 36.0617L60.0854 35.9567L60.4544 36.3091L60.488 35.5123L60.8749 35.9173L61.1903 36.0683L61.2484 35.3919L61.4989 35.3415L61.7405 35.2584L62.0022 35.2387L62.4092 35.6393L62.6664 35.5933L62.8543 35.3503L63.1093 35.2999L63.3575 35.2277L63.3643 34.5272L63.8764 35.1358V34.4418L64.1471 34.4353L64.279 34.0916L64.666 34.3543L65.1155 34.733L65.1849 34.2601L65.3325 33.9712L65.4443 33.6143L66.046 34.2645L66.1869 33.969L66.1936 33.4195L66.7237 33.8814L66.8914 33.645L67.0569 33.413L67.417 33.529L67.4841 33.1262L67.6206 32.8547L67.8263 32.7037L68.2155 32.8482L68.5532 32.9029L68.6427 32.5614H68.9514L68.7724 31.8346L69.2175 32.0382L69.3025 31.712L69.7096 31.8456L69.761 31.48L70.1591 31.5084L70.0562 31.1888L70.4633 31.0071L70.4723 30.7576L70.3291 30.473L70.4723 30.2497L70.5349 30.0067L70.0272 29.6083L70.7026 29.5361L70.7943 29.304L70.7093 29.0151L70.4767 28.6648L70.5617 28.4218L70.6624 28.1854L71.4452 28.227L70.8525 27.706L71.1701 27.5659L71.6845 27.5265L71.3647 27.0952L71.1835 26.7165L71.4541 26.5655L71.7874 26.456L71.5839 26.0423L71.9238 25.9438L71.8992 25.6264L72.1274 25.4622L72.2437 25.2301L72.6664 25.2104L72.7357 24.9456L73.1719 24.9587L73.1294 24.6063L73.5633 24.6325L73.3284 24.1071L73.8719 24.2429L73.778 23.8204L73.6706 23.3694L74.0643 23.3891L74.5608 23.5248L74.7912 23.4066L74.5205 22.7433L75.0819 22.9841L75.0394 22.5485L75.498 22.7017L75.3302 22.0866L75.5047 21.8852L75.9319 22.0275L75.914 21.5569L76.2226 21.5459L76.6207 21.6794L77.0233 21.8458L76.9182 21.1891L77.3186 21.362L77.4125 21.0118L77.8554 21.2985L77.7771 20.5893L77.9739 20.3988L78.3854 20.6637L78.4637 20.204L78.6717 20.0245L79.175 20.5761L79.3248 20.2609L79.5284 20.0727L79.752 19.9216L80.1412 20.2959L80.2843 19.8975L80.4342 19.4707L80.8659 20.0945L81.0045 19.5845L81.3378 19.8975L81.6039 19.9501L81.8455 19.8647L82.0021 19.2627L82.342 19.7968L82.5903 19.753L82.7804 19.1379L83.0622 19.3459L83.3284 19.4531L83.6035 19.8669L83.8271 19.0219L84.0978 19.7662L84.3505 19.3546L84.5988 19.7574L84.8806 19L85.102 19.7202L85.3905 19.2474L85.5918 19.8734L85.9072 19.3043L86.1443 19.4969L86.4239 19.3634L86.6431 19.6239L86.9584 19.324L87.0904 19.9873L87.3789 19.8406L87.6093 19.9763L87.947 19.683L88.0767 20.1755L88.4346 19.8559L88.5912 20.2193L89.0318 19.7027L89.0005 20.574L89.412 20.1909L89.4657 20.7513L89.8235 20.5389L90.2418 20.2215L90.2574 20.8126L90.6153 20.6571L90.9038 20.655L90.9262 21.1716L91.3422 20.9373L91.3467 21.4496L91.709 21.3314L91.7291 21.7845L92.0736 21.7123L92.597 21.3773L92.749 21.6225L92.9772 21.7495L93.1897 21.9005L92.9906 22.5879L93.4804 22.3712L93.7824 22.4084L94.0463 22.5004L94.1984 22.7214L94.3371 22.9535L94.3728 23.2906L94.4399 23.5861L94.8157 23.5686L95.1221 23.6277L94.9611 24.129L95.6007 23.8904L95.1333 24.6435L95.9474 24.2823L95.4598 25.0112L96.1867 24.7551L96.1935 25.0747L95.9586 25.5607L96.6028 25.4096L96.2628 25.9504L96.3165 26.2109L96.7347 26.2349L96.7683 26.5108L97.2312 26.5239L96.8779 27.0186L97.7278 26.8326L97.7501 27.1149L97.7076 27.4236L97.9246 27.6009L98.2489 27.7279L98.3473 27.9643L98.2176 28.2992L97.8374 28.7283L98.1192 28.8794L98.647 28.9472L98.6828 29.2033L98.8394 29.4179L98.3115 29.8535L98.8863 29.9367L98.5106 30.3044L99.1995 30.3745L99.3024 30.6131L98.7522 31.0028L99.3695 31.1232L99.0295 31.4472L98.8192 31.7361L99.3627 31.8981L99.5529 32.128L99.2263 32.4235L98.9467 32.7037L99.4634 32.9029L99.157 33.1765L99.5954 33.402L98.9154 33.6778L99.7676 33.9077L98.902 34.1594L99.0765 34.4046L99.5998 34.6717L99.5909 34.9234L99.0362 35.1358L99.5842 35.4335L99.6356 35.6962L98.8774 35.8538L99.2062 36.1493L99.28 36.4142L98.6202 36.6134L98.94 36.8936L98.9132 37.1453L99.4164 37.3533L99.3091 37.6138L99.2017 37.8743L99.5596 38.1064L99.2375 38.3734L99.4142 38.6186L99.4545 38.8703L98.9087 39.1287L99.1122 39.376L99.5998 39.6278L99.2353 39.8751L99.4052 40.1313L99.1592 40.3743L98.9467 40.6129L99.5685 40.8996L98.9378 41.1076L98.7812 41.3418L99.1592 41.6264L98.9467 41.8563L99.2129 42.1387L99.1637 42.386L99.0071 42.6181L99.0295 42.8742L99.0854 43.1391L98.7589 43.3361L98.8125 43.5988L98.7186 43.8352L98.9423 44.1417L98.6112 44.3234L98.6202 44.5839L98.7566 44.8772L98.6873 45.1224L98.2825 45.2691L98.6068 45.6281L98.4726 45.8513L98.4927 46.1272L98.2601 46.3154L97.6763 46.3745L98.2534 46.854L98.0431 47.0466L98.1102 47.3487L97.4527 47.3509L97.862 47.8018L97.7278 48.0207L96.8958 47.9113L97.068 48.2681L96.7727 48.3994L96.775 48.6796L96.7101 48.927L96.6274 49.1678L96.4126 49.332L96.813 49.8574L96.69 50.085L96.5133 50.2777L95.802 50.1266L96.0011 50.5557L95.9608 50.8359L95.565 50.8687L95.0662 50.8184L95.2049 51.2299L94.8224 51.2518L94.8313 51.5714L94.6524 51.7488L94.932 52.3048L94.7352 52.4733L94.2565 52.3989L94.1939 52.6791L94.0776 52.9155L93.9367 53.1344L93.2791 52.8542L93.6191 53.5372L93.0331 53.3074L93.3731 54.021L93.1203 54.1261L92.8654 54.2312L92.2033 53.8744L92.5567 54.6559L92.0199 54.4238L91.6173 54.3319L91.633 54.7434L91.5368 55.028L91.3087 55.1462L90.8882 55.0127L90.8188 55.3389L90.4274 55.225L90.5348 55.8095L90.3044 55.9233L89.9063 55.7876L89.5954 55.7679L89.7654 56.4991L89.2778 56.1992L89.1526 56.4794L88.8104 56.3962L88.6918 56.6939L88.6672 57.1646L88.4033 57.2171L88.2467 57.4688L87.7435 57.0639L87.531 57.1996L87.3968 57.4951L87.2581 57.795L86.9495 57.7447L86.5268 57.4294L86.2964 57.5258L86.2539 58.0621L85.82 57.6856L85.612 57.8388L85.5046 58.2481L85.3257 58.4933L85.0349 58.4408L84.8582 58.7035L84.5965 58.7298L84.1805 58.3007L84.1112 58.8961L83.7399 58.5721L83.4559 58.5065L83.315 58.9136L83.1181 59.1457L82.7715 58.8501L82.6619 59.4281L82.3443 59.2179L82.096 59.2705L81.9081 59.5901L81.6353 59.5507L81.3109 59.2508L81.0828 59.4062L80.9397 59.995L80.6265 59.7324L80.3783 59.7936L80.0651 59.4784L79.8437 59.6886L79.6089 59.8462L79.4053 60.2512L79.1168 60.041L78.8015 59.5594L78.5867 59.9228L78.3228 59.8374L78.0611 59.7718L77.7927 59.5835L77.5624 59.9184L77.3275 60.2577L77.0658 60.1899L76.7907 59.7477L76.5514 60.1592L76.2964 60.2752L76.0392 60.3146L75.782 59.7455L75.5293 59.6098L75.2653 60.3475L75.0126 60.1264L74.7666 59.8922L74.525 59.6163L74.2768 59.5507L73.9905 60.0651L73.7489 59.8615L73.4716 60.1133L73.1987 60.2687L72.9795 59.8878L72.7715 59.4806L72.4942 59.6535L72.19 60.0169L71.9775 59.6951L71.6666 60.0213L71.4116 59.9819L71.1969 59.7258L70.8771 60.0323L70.7585 59.3099L70.3604 59.9666L70.1904 59.5353L69.978 59.3252L69.7767 59.0822L69.3495 59.7214L69.1325 59.531L68.9692 59.1544L68.7925 58.8545L68.5331 58.8414L68.3586 58.5568L68.1216 58.478L67.6049 59.2157L67.5758 58.5218L67.1263 59.0143L66.8847 58.918L66.9272 58.1037L66.6454 58.1321L66.4844 57.8651L66.1131 58.0949L65.952 57.8344L65.7888 57.5914L65.3593 57.9132L65.1267 57.8081L65.0507 57.3966L64.5631 57.7863L64.5765 57.2171L64.0845 57.587L64.0688 57.0945L64.0017 56.7136L63.5029 57.0551L63.4068 56.7267L63.3374 56.3655L63.0467 56.359L62.6128 56.5494L62.7268 55.9409L62.4987 55.8336L62.3354 55.6344L61.9843 55.6869L61.3938 56.035L61.6532 55.2994L61.0874 55.5928L60.9308 55.3804L60.8637 55.0674L60.5707 55.0149L60.4969 54.7193L60.4276 54.426L60.1592 54.3428L60.2151 53.9313L59.6448 54.1414L59.7163 53.7233L59.6201 53.4738L59.2332 53.4847L59.3875 53.0184L58.7277 53.2527L58.3945 53.1957L58.8731 52.4865L58.3788 52.5565L58.0702 52.4733L57.9136 52.2719L58.05 51.8648L57.4394 51.9786L57.8241 51.416L57.3723 51.4094L57.4685 51.0526L57.312 50.8534L56.8848 50.814L57.2695 50.304L56.679 50.3477L56.8624 49.9625L56.4978 49.8705L56.1713 49.7501L56.6253 49.2488L56.0348 49.251L56.4799 48.7716L56.0684 48.6818L55.8559 48.5001L56.0393 48.1543L55.7284 48.0098L55.554 47.8062L55.3258 47.6201L55.7597 47.2042L55.7329 46.9525L55.4757 46.7773L55.0351 46.6504L54.8673 46.4358L54.7756 46.1972L54.836 45.9192L55.205 45.5668L55.1312 45.3303L55.0753 45.0874L54.8874 44.875L55.0418 44.5904L55.1066 44.3256L54.6168 44.1636L54.9836 43.8483L54.6951 43.6447L54.1516 43.4718L54.6168 43.1544L54.4043 42.9289L54.8069 42.6334L54.4245 42.4232L54.6168 42.1562L54.382 41.9263L54.6727 41.6549L54.6951 41.4075L53.8698 41.2017L54.5206 40.9193L54.4759 40.6742L54.675 40.4202L54.552 39.9999L54.0129 40.0919L53.8832 39.8073L53.3621 40.105L53.5007 39.4767L53.2748 39.3585L52.8812 39.4001L52.8074 39.1046L52.7224 38.8419L52.5166 38.6821L52 38.4632L52.7962 38.4413L52.7783 38.3165Z" fill="#FCEE21"></path> <path d="M56.224 40.0372L56.3068 39.7526L56.3045 39.7788L56.3358 39.5118C56.385 39.3345 56.6065 39.4176 56.6132 39.5183L56.6065 39.7854V39.7964L56.6042 39.8073L56.5573 40.0525L56.6311 40.1991L56.8816 40.3305L56.9733 40.3787L56.9509 40.4772L56.8995 40.7136L57.0247 40.8624L57.0337 40.8734L57.0404 40.8865L57.1477 41.0879L57.3267 41.2565L57.3378 41.2674L57.3468 41.2784L57.4877 41.4863L57.5168 41.5279L57.5101 41.5783L57.472 41.8475L57.6555 42.2503L57.821 42.4058L58.02 42.5459L58.2929 42.6444L58.3958 42.6816L58.3824 42.7888L58.3555 43.0012L58.5613 43.0428L58.6754 43.0669L58.6709 43.1807L58.6619 43.4084L58.8431 43.4762L58.9348 43.5112L58.9326 43.6076L58.9236 43.8768L59.0466 43.9753L59.3195 44.0301L59.4202 44.0498L59.4291 44.1505L59.4515 44.3956L59.6214 44.481L59.8652 44.5861L59.8764 44.5905L59.8854 44.597L60.0978 44.7371L60.1157 44.7503L60.1292 44.7678L60.2835 44.9648L60.4289 45.1268L60.6436 45.21L60.7107 45.2362L60.7263 45.3063L60.78 45.5427L60.9657 45.5843L61.0037 45.5931L61.0328 45.6193L61.1804 45.7616L61.4242 45.7682L61.4913 45.7704L61.5315 45.8229L61.6769 46.0134L61.8558 46.1097L62.0974 46.1557L62.1533 46.1666L62.1846 46.2148L62.3076 46.3965L62.5156 46.4118H62.5246L62.5335 46.414L62.7885 46.4643L62.8019 46.4665L62.8153 46.4709L63.048 46.5672L63.0882 46.5825L63.1106 46.6176L63.2202 46.7839L63.4304 46.7139L63.4774 46.6986L63.5221 46.7139C63.6429 46.7577 63.7637 46.7949 63.8845 46.8474C64.0008 46.8934 64.1104 46.9459 64.2222 46.9963L64.4548 47.0488L64.5129 47.0619L64.5443 47.1123L64.6494 47.2852L64.844 47.1407L64.8842 47.1101L64.9357 47.1123L65.1884 47.1276L65.2645 47.132L65.3002 47.1977L65.4389 47.4516L65.6022 47.3991L65.6245 47.3925H65.6492L65.8997 47.3991L66.1502 47.3815L66.2105 47.3772L66.2553 47.4188L66.4051 47.5589L66.5818 47.4231L66.6266 47.3903L66.6825 47.3969L66.9352 47.421L66.9732 47.4253L67.0045 47.4494L67.1924 47.5895L67.3736 47.5107L67.4027 47.4976L67.434 47.4998L67.6442 47.5085L67.8522 47.3728L67.8768 47.3575L67.9059 47.3531L68.1542 47.3093L68.19 47.3027L68.2235 47.3137L68.4382 47.3859L68.6328 47.3093L68.691 47.2874L68.7469 47.3159L68.9974 47.4407L69.2121 47.445C69.3687 47.4078 69.5275 47.3728 69.6863 47.3421L69.9144 47.2414L70.1492 47.1517L70.3662 47.0269L70.3796 47.0182L70.3953 47.0138L70.6078 46.9481L70.7867 46.7861L70.818 46.7577L70.8627 46.7511L71.1199 46.7183L71.1513 46.7139L71.1803 46.7226L71.357 46.7774L71.4219 46.5169L71.4398 46.4424L71.5158 46.4205L71.7574 46.3483L71.7887 46.3395L71.8222 46.3461L72.1018 46.3943L72.2718 46.3483L72.3926 46.1447L72.4395 46.0659L72.5313 46.079L72.7325 46.1075L72.7885 45.8886L72.8108 45.801L72.9025 45.7879L73.1687 45.7507L73.3364 45.696L73.3946 45.4486L73.4192 45.3391L73.5333 45.3435L73.862 45.3545C73.9739 45.3588 74.0208 45.6018 73.8531 45.6259L73.6697 45.6325L73.6361 45.8426L73.6227 45.9324L73.5131 45.9762C73.4304 46.009 73.3476 46.044 73.2649 46.0747L73.2582 46.0769L73.2291 46.0834L73.1105 46.1053L73.068 46.3155L73.03 46.5125L72.7996 46.4906L72.661 46.4775L72.5983 46.5957L72.5536 46.681L72.4306 46.7204L72.1801 46.8014L72.1331 46.8168L72.0526 46.808L71.8334 46.7839L71.7865 47.0291L71.7216 47.375L71.3436 47.2721L71.1132 47.2086L71.0528 47.2196L70.9298 47.34L70.8806 47.3881L70.7844 47.421L70.601 47.4844L70.4042 47.607L70.3908 47.6158L70.3461 47.6355L70.1179 47.7318L69.8965 47.8413L69.8652 47.8566L69.807 47.8697C69.6438 47.9069 69.4805 47.9463 69.3172 47.9901L69.2792 48.0011H69.2121L68.9504 48.0033L68.8609 48.0054L68.7558 47.9573L68.6708 47.9179L68.6082 47.9441L68.4628 48.0054L68.2861 47.9507L68.1497 47.9091L68.1184 47.9157L67.9484 48.0339L67.8299 48.1149L67.6599 48.1127L67.5279 48.1105L67.3691 48.1828L67.1097 48.301L66.8659 48.1236L66.7854 48.0645L66.7093 48.1236L66.3738 48.3907L66.0406 48.093L65.9735 48.0339L65.9332 48.0383L65.9175 48.0405H65.884H65.7274L65.5306 48.1061L65.1168 48.2462L64.9245 47.9026L64.4548 48.255L64.1417 47.7471L64.0768 47.642L64.0522 47.6377L63.9985 47.6267L63.9426 47.6005L63.7771 47.526C63.7212 47.4998 63.6697 47.4801 63.6161 47.4582C63.5669 47.4385 63.5221 47.4188 63.4707 47.4013L63.3365 47.4472L62.9339 47.5851L62.6968 47.2327L62.623 47.121L62.5939 47.1101L62.4239 47.0751L62.1869 47.0576L61.914 47.0357L61.7686 46.8168L61.7328 46.762L61.6993 46.7555L61.612 46.738L61.5405 46.6986L61.319 46.576L61.2139 46.519L61.1468 46.4315L61.1379 46.4183L61.1043 46.4162L60.8896 46.4074L60.742 46.2629L60.6637 46.1863L60.5452 46.16L60.2074 46.0834L60.1403 45.7638L60.1269 45.7003L60.024 45.6587L59.9502 45.5734L59.7735 45.3676L59.6528 45.21L59.5476 45.1377L59.3419 45.0436L59.0936 44.9166L58.8386 44.7853L58.8207 44.5445L58.7514 44.5292L58.6731 44.4635L58.4763 44.2949L58.2907 44.1351L58.3041 43.925L58.3063 43.8943L58.0379 43.7849L58.0603 43.5047L57.7069 43.4193L57.7718 43.0537L57.7785 43.0165L57.7427 43.0012L57.7158 42.9793L57.5011 42.8129L57.4653 42.7845L57.4609 42.7779L57.2775 42.5896L57.2148 42.5262L57.1947 42.4758L57.0068 42.0008L56.9643 41.8935L56.98 41.8169L57.0225 41.6089L56.9733 41.5235L56.8279 41.3659L56.7832 41.3178L56.772 41.2937L56.6736 41.0726L56.5461 40.8975L56.4656 40.7858L56.4946 40.6873L56.5371 40.5406L56.4186 40.4684L56.3493 40.4268L56.3291 40.3787C56.2956 40.302 56.2643 40.221 56.2352 40.1422L56.2061 40.07L56.224 40.0372Z" fill="#ABA000"></path> <path d="M83.4019 42.5218L83.5943 42.6838L83.6502 42.732L83.6412 42.8042L83.6099 43.0319L83.7374 43.1807L83.9119 43.3668L83.9186 43.3734L83.9231 43.38L84.0662 43.5835L84.0751 43.5967L84.0819 43.612L84.1691 43.8418L84.2585 44.0454L84.4196 44.2096L84.4598 44.249V44.3059L84.4554 44.5358L84.6075 44.6606L84.6321 44.6803L84.6455 44.7065L84.7372 44.8948L84.9385 45.0152L84.981 45.0415L84.9966 45.0896L85.0704 45.3129L85.1957 45.4815L85.3813 45.6347L85.4149 45.6632L85.4238 45.707L85.4775 45.9171L85.652 46.0353L85.6564 46.0397L85.6609 46.0441L85.8555 46.2039L85.8622 46.2104L85.8689 46.217L86.0367 46.3965L86.0568 46.4184L86.0657 46.4469L86.1194 46.6045L86.1999 46.5935L86.3431 46.4972C86.4639 46.3987 86.5824 46.298 86.7009 46.1973L86.8486 46.0156L86.8776 45.9784L86.9246 45.9675L87.117 45.9237L87.1013 45.707L87.0991 45.6632L87.1214 45.626L87.2512 45.418L87.2892 45.3567L87.363 45.3545L87.609 45.3458L87.6783 45.3436L87.7208 45.3961L87.8193 45.5143L87.826 45.5231L87.8304 45.5318L87.9579 45.742L88.0988 45.9434L88.1257 45.9828L88.1212 46.0309L88.1055 46.2323L88.2957 46.3352L88.3359 46.3571L88.356 46.3965L88.4634 46.622L88.4768 46.6504V46.6811L88.4724 46.9044L88.6222 47.0423L88.6401 47.0598L88.6513 47.0817L88.7475 47.2765L88.942 47.4188L88.9599 47.432L88.9734 47.4517L89.1143 47.6574L89.1299 47.6793L89.1344 47.7056L89.1791 47.9245L89.3267 48.0821L89.3603 48.1171L89.3625 48.1653L89.3782 48.4214L89.4699 48.6162C89.5638 48.7454 89.6578 48.8746 89.7495 49.0059C89.8658 49.1197 89.9798 49.2358 90.0894 49.354L90.2035 49.4415L90.3086 49.3671L90.4406 49.1657L90.4562 49.1416L90.4808 49.1263L90.7023 48.9862L90.7224 48.9731L90.7448 48.9687L90.9371 48.9227L90.9326 48.6754V48.6141L90.9774 48.5725L91.1697 48.3995L91.1876 48.382L91.2122 48.3733L91.465 48.2748L91.6148 48.1456L91.6752 47.9157L91.6931 47.8501L91.758 47.8238L91.9548 47.745L91.957 47.5217V47.4538L92.0129 47.4144L92.2299 47.2634L92.3775 47.1299L92.3842 46.8825L92.3864 46.7993L92.4625 46.7643L92.6884 46.657L92.7242 46.5716L92.7935 46.4075L92.9367 46.5169L93.0686 46.6198L93.1178 46.6592L93.1201 46.7205L93.1312 46.9722L93.176 47.1824L93.3079 47.3422L93.5316 47.4801L93.5786 47.5108L93.592 47.5655L93.5942 47.5786L93.6121 47.5611L93.6367 47.5502L93.8224 47.4714L93.9185 47.2743L93.9476 47.2152L94.0125 47.1999L94.2563 47.143L94.4173 47.0182L94.5604 46.8343L94.5783 46.8103L94.6052 46.7971L94.7998 46.6986L94.8848 46.506L94.9988 46.2739L95.0078 46.2542L95.0234 46.2389C95.1286 46.1316 95.2314 46.0222 95.3343 45.9127L95.3634 45.6829L95.3723 45.6172L95.4305 45.5844L95.634 45.4662L95.7369 45.2845L95.7459 45.2669L95.7593 45.2538L95.9203 45.1006L95.9919 44.9014L96.0523 44.6628L96.059 44.6409L96.0724 44.6212L96.2066 44.4176C96.3028 44.3453 96.4951 44.3847 96.4392 44.5642L96.3363 44.7459L96.2916 44.9802L96.2871 44.9955L96.2156 45.2363L96.2066 45.2669L96.1708 45.3042L96.0232 45.4618C95.9897 45.5296 95.9561 45.5975 95.9203 45.6632L95.8957 45.707L95.8443 45.7398L95.7078 45.8252L95.6899 46.0025L95.6832 46.066L95.6318 46.1251C95.5334 46.2389 95.4327 46.3505 95.3298 46.4622L95.2381 46.6658C95.2068 46.7446 95.1755 46.8212 95.142 46.8978L95.1084 46.9788L95.0234 47.0226L94.84 47.1167L94.7215 47.27L94.7036 47.2919L94.6768 47.3137L94.4799 47.4692L94.4352 47.5042L94.3748 47.5195L94.2294 47.5545L94.1668 47.6859L94.1265 47.7735L94.0326 47.815L93.8514 47.896L93.7128 48.0383L93.3549 48.4039L93.2475 47.9092C93.2364 47.8544 93.2252 47.7975 93.214 47.7428C93.1715 47.71 93.129 47.6771 93.0865 47.6421L93.0284 47.5918L92.8897 47.3663L92.8494 47.3028L92.8472 47.2809L92.8293 47.0204L92.8271 46.9941C92.8315 46.9591 92.8338 46.9241 92.836 46.8891L92.675 46.9722C92.675 47.0445 92.6772 47.1189 92.6794 47.1912L92.6817 47.2481L92.628 47.305L92.4446 47.4976L92.4267 47.5129L92.3059 47.6115L92.3238 47.8413L92.335 47.9683L92.1807 48.0471L92.0465 48.1149L92.0174 48.2901L92.0085 48.3492L91.9324 48.428L91.749 48.6184L91.7289 48.6381L91.6573 48.6732L91.4717 48.7629L91.4448 48.7914C91.4538 48.868 91.4605 48.9446 91.465 49.0212L91.4784 49.3036L91.172 49.3912L90.9572 49.4525C90.9259 49.4744 90.8946 49.4941 90.8633 49.516L90.7627 49.678L90.7246 49.7393L90.6553 49.7874C90.586 49.8378 90.5166 49.8903 90.4451 49.9385L90.1856 50.1158L89.9485 49.9253L89.7495 49.7655L89.7204 49.7414L89.7047 49.7239L89.537 49.5422C89.4788 49.4831 89.4207 49.4262 89.3648 49.3649L89.3267 49.3211L89.32 49.3102C89.2328 49.1701 89.1433 49.03 89.0516 48.8943L89.0248 48.8527L89.0159 48.833C88.9823 48.7564 88.9532 48.6775 88.9241 48.5987L88.8906 48.5112V48.474L88.8928 48.2813L88.8235 48.1938L88.7542 48.1062L88.7475 48.0449L88.7206 47.8194L88.649 47.6946L88.4925 47.5589L88.4299 47.5064L88.4142 47.467L88.3314 47.2568L88.1928 47.108L88.1167 47.027L88.1257 46.9504L88.1525 46.6964C88.1346 46.6504 88.1167 46.6067 88.0988 46.5629L87.8953 46.4403L87.8014 46.3834L87.8125 46.2892C87.8215 46.2083 87.8327 46.1294 87.8416 46.0484L87.7298 45.8843L87.6045 45.6719L87.5598 45.615C87.5285 45.6172 87.4994 45.6194 87.4681 45.6216C87.4524 45.6522 87.4368 45.6829 87.4211 45.7135C87.4301 45.7573 87.439 45.8011 87.4502 45.8449L87.4927 46.009L87.5263 46.1426L87.3205 46.2367L87.1706 46.3068C87.1393 46.3702 87.108 46.4337 87.0722 46.495L87.0297 46.5388C86.976 46.6023 86.9268 46.6702 86.8687 46.7271C86.8105 46.7862 86.7569 46.8497 86.6965 46.9044L86.6652 46.9285C86.6092 46.9722 86.5511 47.0138 86.4929 47.0532L86.4191 47.1058L86.3185 47.1211C86.2424 47.132 86.1664 47.1408 86.0926 47.1518L85.7459 47.1977L85.6408 46.8781L85.5804 46.6899L85.4909 46.5913L85.3321 46.4578L85.1353 46.3221L85.0101 46.2367L84.9743 46.0944C84.9608 46.0463 84.9519 45.9959 84.9407 45.9456L84.849 45.8668L84.8065 45.8295L84.7864 45.8011L84.6432 45.5975L84.603 45.5384L84.5896 45.4902L84.5515 45.3633C84.5158 45.3414 84.48 45.3173 84.4464 45.2954L84.3413 45.2254L84.3055 45.1422L84.2317 44.9692L84.1065 44.8576L83.9723 44.7394L83.9812 44.5927L83.9924 44.4154C83.97 44.3891 83.9454 44.3629 83.9231 44.3366L83.8738 44.2797L83.8604 44.2446L83.771 44.0038L83.6972 43.774C83.6636 43.7193 83.6278 43.6645 83.5965 43.6076L83.6189 43.6339L83.4556 43.4259L83.3013 43.2114L83.2342 43.1173L83.2521 43.0428L83.2968 42.8436C83.2588 42.8042 83.2208 42.767 83.1827 42.7276L83.1402 42.6816L83.1358 42.6619L83.0664 42.408C83.0373 42.2219 83.2811 42.2 83.3236 42.3095L83.4019 42.5218Z" fill="#ABA000"></path> <path d="M78.8965 32.642C77.5698 31.3435 77.5698 29.2381 78.8965 27.9395C80.2233 26.6409 82.3744 26.6409 83.7012 27.9395C85.028 29.2381 85.028 31.3435 83.7012 32.642C82.3744 33.9406 80.2233 33.9406 78.8965 32.642Z" fill="#31332A"></path> <path d="M79.9292 28.2183C79.9292 28.7349 80.5934 29.1531 81.4143 29.1531C82.2351 29.1531 82.8994 28.7349 82.8994 28.2183C82.8994 27.7017 82.2351 27.2836 81.4143 27.2836C80.5934 27.2814 79.9292 27.7017 79.9292 28.2183Z" fill="#636A78"></path> <path d="M96.2671 25.9745L96.3163 26.2131L96.7346 26.2372L96.7681 26.5108L97.2311 26.5262L96.8777 27.0209L97.7299 26.8348L97.75 27.1172L97.7075 27.4281L97.9267 27.6032L98.2488 27.7323L98.3472 27.9688L98.2175 28.3037L97.8372 28.7306L98.1168 28.8816L98.6469 28.9473L98.6805 29.2056L98.837 29.4201L98.3069 29.8558L98.8818 29.9389L98.506 30.3067L99.1949 30.379L99.2978 30.6154L98.7476 31.005L99.3649 31.1254L99.0271 31.4494L98.8147 31.7384L99.1434 31.8325C99.9419 31.2239 100.454 30.2761 100.454 29.21C100.454 27.3733 98.9332 25.8826 97.0544 25.8826C96.7838 25.8826 96.5199 25.9154 96.2671 25.9745Z" fill="#31332A"></path> <path d="M97.8412 26.4736C97.7092 26.6772 97.915 27.0362 98.3019 27.277C98.6889 27.5178 99.1094 27.5485 99.2413 27.3449C99.3733 27.1413 99.1675 26.7823 98.7806 26.5415C98.3936 26.3007 97.9732 26.27 97.8412 26.4736Z" fill="#636A78"></path> <path d="M89.0631 32.2987C89.0676 32.3294 89.0743 32.3776 89.0877 32.4367C89.1883 32.9095 89.5954 34.177 90.5683 34.328C91.5703 34.4813 95.1579 32.9752 95.7774 32.3754C95.8356 32.3206 95.8691 32.2703 95.8691 32.2309C95.8691 32.1959 95.8401 32.1477 95.7841 32.0908C95.263 31.5304 92.4538 30.0111 91.5256 29.5142C91.3176 29.4026 91.0761 29.396 90.8658 29.4989C89.5686 30.1206 89.1302 31.6552 89.0698 32.163C89.0631 32.2243 89.0609 32.2703 89.0631 32.2987Z" fill="#FC8B2D"></path> <path d="M89.0631 32.2988C89.0676 32.3294 89.0743 32.3776 89.0877 32.4367C89.6468 32.4958 90.206 32.5155 90.7652 32.533C91.3333 32.5461 91.9014 32.5439 92.4672 32.533C93.0353 32.5242 93.6012 32.5067 94.1693 32.4805C94.7061 32.4542 95.2429 32.4257 95.7774 32.3754C95.8356 32.3207 95.8691 32.2703 95.8691 32.2309C95.8691 32.1959 95.8401 32.1477 95.7841 32.0908C95.2429 32.0492 94.7039 32.0295 94.1648 32.0164C93.5967 32.0032 93.0309 31.9945 92.4628 31.9967C91.8947 31.9967 91.3288 32.0076 90.7629 32.0295C90.1993 32.0558 89.6334 32.0908 89.0676 32.1609C89.0631 32.2243 89.0609 32.2703 89.0631 32.2988Z" fill="#D13301"></path> <path d="M92.0071 30.4096C91.9646 30.5322 92.0988 30.7008 92.309 30.7883C92.5193 30.8759 92.725 30.8474 92.7675 30.7248C92.81 30.6022 92.6758 30.4337 92.4656 30.3461C92.2554 30.2607 92.0496 30.287 92.0071 30.4096Z" fill="#D13301"></path> <path d="M66.7053 65.0715H69.6688L69.4698 56.4093C69.4698 56.3983 69.4698 56.3852 69.4698 56.372C69.4832 56.0349 69.7717 55.7744 70.1139 55.7854C70.4584 55.7985 70.7245 56.0809 70.7133 56.4158L70.3823 65.0321L78.3514 64.2593C78.5415 64.2418 78.7115 64.3775 78.7294 64.5614C78.7473 64.7475 78.6086 64.9139 78.4185 64.9314L72.5116 65.5049L79.4138 66.7308C79.6017 66.7636 79.7269 66.941 79.6912 67.1248C79.6598 67.289 79.5145 67.4029 79.3512 67.4029C79.3311 67.4029 79.3109 67.4007 79.2886 67.3985L71.7601 66.0609L76.6986 69.0447C76.8618 69.1432 76.911 69.3511 76.8104 69.511C76.7097 69.6708 76.4973 69.7189 76.334 69.6204L69.9193 65.7457L66.7031 65.7479C66.513 65.7479 66.3586 65.5969 66.3586 65.4108C66.3586 65.2247 66.513 65.0715 66.7053 65.0715Z" fill="#FC8B2D"></path> <path d="M79.8564 64.3623C79.8564 64.5483 80.0107 64.6994 80.2008 64.6994L83.4171 64.6972L89.8317 68.5719C89.995 68.6682 90.2075 68.62 90.3081 68.4602C90.4088 68.3026 90.3573 68.0946 90.1963 67.9939L85.2556 65.0102L92.7863 66.3478C92.8064 66.3521 92.8288 66.3521 92.8489 66.3521C93.0122 66.3521 93.1576 66.2361 93.1889 66.0741C93.2225 65.8902 93.0972 65.7151 92.9093 65.6801L86.0071 64.4542L91.914 63.8807C92.1041 63.861 92.2428 63.6968 92.2227 63.5107C92.2048 63.3246 92.0348 63.1911 91.8447 63.2086L83.8756 63.9814L84.0724 58.8589L83.7369 58.5656L83.4529 58.4999L83.312 58.907L83.1129 59.1391L83.048 59.0844L83.1621 64.0186H80.1986C80.0085 64.0251 79.8564 64.1762 79.8564 64.3623Z" fill="#FC8B2D"></path> <defs> <clipPath id="clip0"> <rect width="50" height="49" fill="white" transform="translate(24 14)"></rect> </clipPath> </defs> </svg> 