<?xml version="1.0" encoding="UTF-8"?> <svg xmlns="http://www.w3.org/2000/svg" width="180" height="99" viewBox="0 0 180 99" fill="none"> <g clip-path="url(#clip0)"> <path d="M165.783 82.9485C165.999 78.2584 151.673 73.7454 133.785 72.8685C115.897 71.9917 101.22 75.0829 101.004 79.773C100.788 84.4631 115.114 88.976 133.002 89.8529C150.89 90.7298 165.566 87.6385 165.783 82.9485Z" fill="#F3F3F3"></path> <path d="M178.746 32.8026L178.446 32.3937L177.902 32.7208L177.75 31.8584L177.242 32.0889L177.087 31.1856L176.589 31.3863L176.023 31.8212L175.731 31.3528L175.302 31.3417L175.067 30.6428L174.757 30.2079L174.307 30.2674L173.596 31.2971L173.484 30.1113L173.034 30.1893L172.54 30.4384L172.219 30.022L171.634 30.6205L171.187 30.6949L171.036 29.6131L170.704 29.2377L170.069 30.0369L169.694 29.8287L169.507 28.9068L168.883 29.6577L168.674 28.8176L168.248 28.8028L167.877 28.602L167.347 28.9738L166.965 28.7953L166.37 29.3938L166.316 28.0407L165.692 28.7284L165.183 28.9849L165.09 27.8363L164.686 27.7508L164.296 27.6095L163.874 27.576L163.218 28.2563L162.803 28.1783L162.501 27.7656L162.089 27.6801L161.689 27.5575L161.678 26.3679L160.853 27.4013V26.2229L160.416 26.2118L160.204 25.6282L159.58 26.0742L158.855 26.7173L158.743 25.9144L158.505 25.4237L158.325 24.8178L157.355 25.9218L157.128 25.42L157.117 24.487L156.262 25.2713L155.992 24.8698L155.725 24.4758L155.144 24.6728L155.036 23.9888L154.816 23.5279L154.484 23.2714L153.857 23.5167L153.312 23.6097L153.168 23.0298H152.671L152.959 21.7956L152.241 22.1413L152.104 21.5874L151.448 21.8142L151.365 21.1934L150.723 21.2417L150.889 20.699L150.233 20.3905L150.219 19.9667L150.449 19.4834L150.219 19.1043L150.118 18.6917L150.936 18.0151L149.847 17.8924L149.699 17.4984L149.836 17.0077L150.211 16.4129L150.074 16.0003L149.912 15.5988L148.65 15.6695L149.606 14.7848L149.093 14.5468L148.264 14.4799L148.78 13.7476L149.072 13.1045L148.636 12.848L148.098 12.6622L148.426 11.9596L147.878 11.7923L147.918 11.2533L147.55 10.9745L147.363 10.5805L146.681 10.547L146.569 10.0972L145.866 10.1195L145.935 9.52103L145.235 9.56564L145.614 8.67348L144.737 8.90395L144.889 8.18651L145.062 7.42074L144.427 7.4542L143.627 7.68467L143.255 7.48394L143.692 6.35759L142.787 6.7665L142.855 6.02675L142.116 6.28696L142.386 5.2424L142.105 4.9004L141.416 5.14203L141.445 4.3428L140.948 4.32422L140.306 4.55097L139.657 4.83349L139.826 3.7183L139.181 4.01196L139.029 3.41719L138.315 3.90416L138.441 2.69975L138.124 2.37634L137.461 2.82614L137.334 2.0455L136.999 1.74068L136.188 2.67745L135.946 2.14215L135.618 1.82246L135.257 1.56597L134.63 2.20163L134.399 1.52508L134.157 0.8002L133.462 1.85964L133.238 0.993501L132.701 1.52508L132.272 1.61429L131.882 1.46932L131.63 0.447055L131.082 1.35408L130.681 1.27973L130.375 0.235168L129.92 0.588313L129.491 0.770461L129.048 1.47303L128.687 0.0381497L128.251 1.30204L127.843 0.603182L127.443 1.28717L126.989 0.000976562L126.632 1.22397L126.167 0.421034L125.842 1.48419L125.334 0.517684L124.951 0.844808L124.501 0.618051L124.147 1.06041L123.639 0.55114L123.426 1.67749L122.961 1.42843L122.589 1.6589L122.045 1.16078L121.836 1.99718L121.259 1.45445L121.006 2.07152L120.296 1.19424L120.347 2.67373L119.683 2.0232L119.596 2.97483L119.02 2.61425L118.345 2.07524L118.32 3.07892L117.743 2.81499L117.278 2.81127L117.242 3.68856L116.571 3.2908L116.564 4.16066L115.98 3.95992L115.947 4.72941L115.392 4.60673L114.548 4.03798L114.303 4.45432L113.935 4.66993L113.593 4.92642L113.913 6.09366L113.124 5.72565L112.637 5.78884L112.211 5.94497L111.966 6.32042L111.743 6.71445L111.685 7.28692L111.577 7.78876L110.971 7.75902L110.477 7.85939L110.737 8.71065L109.705 8.30547L110.459 9.58422L109.146 8.97087L109.932 10.2087L108.76 9.77381L108.75 10.3165L109.128 11.1418L108.09 10.8853L108.638 11.8035L108.551 12.2458L107.877 12.2867L107.823 12.7551L107.076 12.7774L107.646 13.6175L106.276 13.3015L106.24 13.7811L106.308 14.3052L105.959 14.6063L105.436 14.8219L105.277 15.2234L105.486 15.7921L106.099 16.5207L105.645 16.7772L104.794 16.8925L104.736 17.3274L104.484 17.6917L105.335 18.4314L104.408 18.5727L105.014 19.1972L103.903 19.3162L103.737 19.7214L104.624 20.383L103.629 20.5875L104.177 21.1376L104.516 21.6283L103.64 21.9034L103.333 22.2937L103.86 22.7956L104.311 23.2714L103.478 23.6097L103.972 24.0743L103.265 24.4572L104.361 24.9256L102.987 25.3159L104.383 25.7434L104.102 26.1597L103.258 26.6133L103.272 27.0408L104.166 27.4013L103.283 27.9069L103.2 28.353L104.422 28.6206L103.892 29.1224L103.773 29.5722L104.837 29.9105L104.322 30.3863L104.365 30.8138L103.553 31.167L103.727 31.6093L103.9 32.0517L103.323 32.4457L103.842 32.8992L103.557 33.3156L103.492 33.7431L104.372 34.1817L104.044 34.6018L103.258 35.0293L103.846 35.4493L103.571 35.8843L103.968 36.2969L104.311 36.7021L103.308 37.189L104.325 37.5422L104.578 37.9399L103.968 38.4232L104.311 38.8135L103.882 39.293L103.961 39.7131L104.213 40.1071L104.177 40.542L104.087 40.9918L104.614 41.3264L104.527 41.7725L104.679 42.174L104.318 42.6944L104.852 43.0029L104.837 43.4453L104.617 43.9434L104.729 44.3597L105.382 44.6088L104.859 45.2184L105.075 45.5976L105.043 46.066L105.418 46.3857L106.359 46.486L105.429 47.3001L105.768 47.6273L105.659 48.1403L106.72 48.144L106.06 48.9097L106.276 49.2815L107.617 49.0956L107.34 49.7015L107.816 49.9246L107.812 50.4004L107.917 50.8204L108.05 51.2293L108.396 51.5081L107.751 52.4003L107.949 52.7869L108.234 53.114L109.381 52.8575L109.06 53.5861L109.125 54.0619L109.763 54.1177L110.567 54.0322L110.344 54.7311L110.96 54.7682L110.946 55.311L111.234 55.6121L110.783 56.5563L111.101 56.8425L111.872 56.7161L111.973 57.1919L112.161 57.5934L112.388 57.9651L113.448 57.4893L112.9 58.6491L113.845 58.2588L113.297 59.4706L113.704 59.6491L114.115 59.8275L115.183 59.2216L114.613 60.5487L115.478 60.1546L116.128 59.9985L116.102 60.6974L116.257 61.1806L116.625 61.3813L117.303 61.1546L117.415 61.7085L118.046 61.5152L117.873 62.5077L118.244 62.701L118.886 62.4705L119.387 62.4371L119.113 63.6786L119.899 63.1694L120.101 63.6452L120.653 63.5039L120.844 64.0095L120.884 64.8087L121.309 64.8979L121.562 65.3254L122.373 64.6377L122.716 64.8682L122.932 65.37L123.156 65.8793L123.653 65.7938L124.335 65.2585L124.706 65.4221L124.775 66.3328L125.474 65.6934L125.81 65.9536L125.983 66.6488L126.271 67.0651L126.74 66.9759L127.025 67.422L127.447 67.4666L128.117 66.738L128.229 67.7491L128.828 67.1989L129.286 67.0874L129.513 67.7788L129.83 68.1729L130.389 67.671L130.566 68.6524L131.078 68.2956L131.478 68.3848L131.781 68.9275L132.221 68.8606L132.744 68.3513L133.112 68.6152L133.343 69.6152L133.847 69.1691L134.248 69.2732L134.752 68.7379L135.109 69.0948L135.488 69.3624L135.816 70.0501L136.281 69.6933L136.79 68.8755L137.136 69.4925L137.562 69.3476L137.983 69.236L138.416 68.9163L138.788 69.4851L139.166 70.0613L139.588 69.946L140.032 69.1951L140.417 69.894L140.829 70.091L141.243 70.1579L141.658 69.1914L142.065 68.961L142.491 70.2137L142.898 69.8382L143.295 69.4405L143.684 68.9721L144.085 68.8606L144.546 69.7342L144.936 69.3884L145.383 69.8159L145.823 70.0799L146.176 69.4331L146.512 68.7416L146.959 69.0353L147.449 69.6524L147.792 69.1059L148.293 69.6598L148.704 69.5929L149.05 69.158L149.566 69.6784L149.757 68.4517L150.399 69.5669L150.673 68.8346L151.015 68.4777L151.34 68.0651L152.029 69.1505L152.379 68.8271L152.642 68.1877L152.927 67.6785L153.345 67.6562L153.626 67.1729L154.008 67.0391L154.841 68.2918L154.888 67.1134L155.613 67.9498L156.003 67.7863L155.934 66.4034L156.388 66.4518L156.648 65.9982L157.247 66.3886L157.506 65.9462L157.769 65.5336L158.462 66.08L158.837 65.9016L158.959 65.2027L159.746 65.8644L159.724 64.8979L160.517 65.5262L160.542 64.6898L160.651 64.0429L161.455 64.6228L161.61 64.0652L161.722 63.4519L162.19 63.4407L162.89 63.7641L162.706 62.7307L163.074 62.5486L163.337 62.2103L163.903 62.2995L164.855 62.8906L164.437 61.6416L165.349 62.1397L165.602 61.7791L165.71 61.2475L166.182 61.1583L166.301 60.6565L166.413 60.1583L166.846 60.0171L166.756 59.3182L167.675 59.6751L167.56 58.9651L167.715 58.5413L168.339 58.5599L168.09 57.7681L169.154 58.1659L169.691 58.0692L168.919 56.8648L169.716 56.9837L170.214 56.8425L170.466 56.5005L170.246 55.8091L171.231 56.0024L170.61 55.047L171.339 55.0359L171.184 54.43L171.436 54.0917L172.125 54.0248L171.505 53.1586L172.457 53.233L172.161 52.5787L172.749 52.4226L173.275 52.2182L172.543 51.3669L173.495 51.3706L172.778 50.5565L173.441 50.4041L173.784 50.0956L173.488 49.5082L173.989 49.2629L174.27 48.9172L174.638 48.6012L173.939 47.8949L173.982 47.4674L174.397 47.17L175.107 46.9544L175.378 46.5901L175.525 46.1849L175.428 45.7128L174.833 45.1144L174.952 44.7129L175.042 44.3003L175.345 43.9397L175.096 43.4564L174.992 43.0066L175.781 42.7316L175.19 42.1963L175.655 41.8505L176.531 41.5569L175.781 41.0179L176.124 40.635L175.475 40.1331L176.091 39.7763L175.781 39.3228L176.16 38.9325L175.691 38.4715L175.655 38.0514L176.986 37.702L175.936 37.2225L176.009 36.8061L175.688 36.3749L175.886 35.6612L176.755 35.8173L176.964 35.3341L177.804 35.8396L177.581 34.7728L177.945 34.572L178.58 34.6427L178.699 34.1408L178.836 33.6948L179.167 33.4234L180 33.0517L178.717 33.0145L178.746 32.8026Z" fill="#FDEE21"></path> <path d="M173.188 35.7243L173.055 35.241L173.058 35.2856L173.008 34.8321C172.929 34.531 172.572 34.6723 172.561 34.8433L172.572 35.2968V35.3154L172.575 35.334L172.651 35.7503L172.532 35.9994L172.128 36.2224L171.98 36.3042L172.016 36.4715L172.099 36.8729L171.897 37.1257L171.883 37.1443L171.872 37.1666L171.699 37.5086L171.411 37.7948L171.392 37.8134L171.378 37.832L171.151 38.1852L171.104 38.2558L171.115 38.3413L171.176 38.7985L170.88 39.4825L170.614 39.7464L170.293 39.9843L169.853 40.1516L169.687 40.2148L169.708 40.397L169.752 40.7575L169.42 40.8282L169.236 40.8691L169.243 41.0624L169.258 41.449L168.966 41.5642L168.818 41.6237L168.821 41.7872L168.836 42.2445L168.638 42.4117L168.198 42.5047L168.035 42.5381L168.021 42.7091L167.985 43.1255L167.711 43.2704L167.318 43.4489L167.3 43.4563L167.285 43.4675L166.943 43.7054L166.914 43.7277L166.892 43.7574L166.643 44.092L166.409 44.3671L166.063 44.5083L165.955 44.5529L165.929 44.6719L165.843 45.0733L165.544 45.144L165.482 45.1588L165.435 45.2034L165.197 45.4451L164.804 45.4562L164.696 45.4599L164.631 45.5492L164.397 45.8726L164.108 46.0361L163.719 46.1142L163.629 46.1328L163.578 46.2146L163.38 46.5231L163.045 46.5491H163.03L163.016 46.5528L162.605 46.6383L162.583 46.6421L162.561 46.6495L162.186 46.813L162.122 46.8391L162.085 46.8985L161.909 47.1811L161.57 47.0621L161.494 47.0361L161.422 47.0621C161.227 47.1365 161.032 47.1996 160.838 47.2889C160.65 47.3669 160.474 47.4561 160.293 47.5416L159.918 47.6309L159.824 47.6532L159.774 47.7387L159.605 48.0323L159.291 47.787L159.226 47.7349L159.143 47.7387L158.735 47.7647L158.613 47.7721L158.555 47.8836L158.332 48.3148L158.068 48.2256L158.032 48.2145H157.993L157.589 48.2256L157.185 48.1959L157.088 48.1885L157.015 48.2591L156.774 48.497L156.489 48.2665L156.417 48.2108L156.327 48.2219L155.919 48.2628L155.858 48.2702L155.807 48.3111L155.505 48.549L155.212 48.4152L155.166 48.3929L155.115 48.3966L154.776 48.4115L154.441 48.181L154.401 48.155L154.354 48.1476L153.954 48.0732L153.896 48.0621L153.842 48.0807L153.496 48.2033L153.182 48.0732L153.089 48.036L152.998 48.0844L152.594 48.2963L152.248 48.3037C151.996 48.2405 151.74 48.181 151.484 48.129L151.116 47.958L150.737 47.8056L150.388 47.5937L150.366 47.5788L150.341 47.5714L149.998 47.4599L149.71 47.1848L149.659 47.1365L149.587 47.1253L149.172 47.0695L149.122 47.0621L149.075 47.077L148.79 47.1699L148.686 46.7275L148.657 46.6012L148.534 46.564L148.145 46.4413L148.094 46.4264L148.04 46.4376L147.589 46.5194L147.315 46.4413L147.121 46.0956L147.045 45.9618L146.897 45.9841L146.572 46.0324L146.482 45.6607L146.446 45.512L146.298 45.4897L145.869 45.4265L145.599 45.3336L145.505 44.9135L145.465 44.7276L145.282 44.7351L144.751 44.7537C144.571 44.7611 144.495 45.1737 144.766 45.2146L145.062 45.2258L145.116 45.5826L145.137 45.735L145.314 45.8094C145.447 45.8651 145.581 45.9246 145.714 45.9767L145.725 45.9804L145.772 45.9915L145.963 46.0287L146.032 46.3856L146.093 46.7201L146.464 46.6829L146.688 46.6606L146.789 46.8614L146.861 47.0063L147.059 47.0733L147.463 47.2108L147.539 47.2368L147.669 47.222L148.022 47.1811L148.098 47.5974L148.202 48.1847L148.812 48.01L149.183 47.9022L149.281 47.9208L149.479 48.1253L149.558 48.207L149.713 48.2628L150.009 48.3706L150.326 48.5788L150.348 48.5936L150.42 48.6271L150.788 48.7907L151.145 48.9765L151.195 49.0026L151.289 49.0249C151.552 49.088 151.816 49.155 152.079 49.2293L152.14 49.2479H152.248L152.67 49.2516L152.814 49.2553L152.984 49.1735L153.121 49.1066L153.222 49.1512L153.456 49.2553L153.741 49.1624L153.961 49.0918L154.012 49.1029L154.286 49.3037L154.477 49.4412L154.751 49.4375L154.964 49.4338L155.22 49.5564L155.638 49.7572L156.031 49.4561L156.161 49.3557L156.283 49.4561L156.824 49.9096L157.362 49.404L157.47 49.3037L157.535 49.3111L157.56 49.3148H157.614H157.866L158.184 49.4263L158.851 49.6642L159.161 49.0806L159.918 49.6791L160.423 48.8167L160.528 48.6382L160.567 48.6308L160.654 48.6122L160.744 48.5676L161.011 48.4412C161.101 48.3966 161.184 48.3632 161.27 48.326C161.35 48.2925 161.422 48.2591 161.505 48.2293L161.721 48.3074L162.37 48.5416L162.753 47.9431L162.872 47.7535L162.918 47.7349L163.192 47.6755L163.575 47.6457L164.015 47.6086L164.249 47.2368L164.307 47.1439L164.361 47.1327L164.501 47.103L164.617 47.0361L164.974 46.8279L165.143 46.7313L165.251 46.5826L165.266 46.5603L165.32 46.5566L165.666 46.5417L165.904 46.2963L166.03 46.1662L166.222 46.1216L166.766 45.9915L166.874 45.4488L166.896 45.341L167.062 45.2704L167.181 45.1254L167.466 44.776L167.66 44.5083L167.83 44.3856L168.162 44.2258L168.562 44.0102L168.973 43.7872L169.002 43.3782L169.114 43.3522L169.24 43.2407L169.557 42.9545L169.856 42.6831L169.835 42.3262L169.831 42.2742L170.264 42.0883L170.228 41.6125L170.798 41.4675L170.693 40.8467L170.682 40.7836L170.74 40.7575L170.783 40.7204L171.129 40.4378L171.187 40.3895L171.194 40.3784L171.49 40.0587L171.591 39.9509L171.623 39.8654L171.926 39.0587L171.995 38.8766L171.969 38.7465L171.901 38.3933L171.98 38.2483L172.215 37.9807L172.287 37.8989L172.305 37.858L172.463 37.4826L172.669 37.1852L172.799 36.9956L172.752 36.8283L172.683 36.5793L172.875 36.4566L172.986 36.386L173.019 36.3042C173.073 36.1741 173.123 36.0365 173.17 35.9027L173.217 35.78L173.188 35.7243Z" fill="#ABA000"></path> <path d="M129.372 39.9437L129.062 40.2188L128.972 40.3006L128.987 40.4232L129.037 40.8098L128.831 41.0626L128.55 41.3786L128.539 41.3897L128.532 41.4009L128.301 41.7466L128.287 41.7689L128.276 41.7949L128.135 42.1852L127.991 42.531L127.732 42.8098L127.667 42.8767V42.9733L127.674 43.3636L127.429 43.5755L127.389 43.609L127.367 43.6536L127.22 43.9733L126.895 44.1777L126.827 44.2223L126.801 44.3041L126.682 44.6833L126.48 44.9695L126.181 45.2297L126.127 45.2781L126.113 45.3524L126.026 45.7093L125.745 45.91L125.738 45.9174L125.73 45.9249L125.417 46.1962L125.406 46.2074L125.395 46.2185L125.124 46.5234L125.092 46.5605L125.078 46.6089L124.991 46.8765L124.861 46.8579L124.63 46.6944C124.436 46.5271 124.245 46.3561 124.054 46.1851L123.816 45.8765L123.769 45.8133L123.693 45.7948L123.383 45.7204L123.408 45.3524L123.412 45.2781L123.376 45.2149L123.166 44.8617L123.105 44.7576L122.986 44.7539L122.589 44.739L122.478 44.7353L122.409 44.8245L122.251 45.0253L122.24 45.0401L122.232 45.055L122.027 45.4119L121.8 45.7539L121.757 45.8208L121.764 45.9026L121.789 46.2446L121.482 46.4193L121.418 46.4564L121.385 46.5234L121.212 46.9062L121.19 46.9546V47.0066L121.198 47.3858L120.956 47.62L120.927 47.6497L120.909 47.6869L120.754 48.0177L120.44 48.2593L120.411 48.2816L120.39 48.3151L120.163 48.6645L120.137 48.7017L120.13 48.7463L120.058 49.118L119.82 49.3857L119.766 49.4452L119.762 49.5269L119.737 49.9619L119.589 50.2927C119.438 50.512 119.286 50.7314 119.139 50.9544C118.951 51.1477 118.767 51.3447 118.59 51.5455L118.407 51.6941L118.237 51.5678L118.024 51.2258L117.999 51.1849L117.959 51.1589L117.602 50.9209L117.57 50.8986L117.534 50.8912L117.224 50.8131L117.231 50.3931V50.289L117.159 50.2184L116.849 49.9247L116.82 49.895L116.78 49.8801L116.373 49.7128L116.131 49.4935L116.034 49.1032L116.005 48.9917L115.9 48.947L115.583 48.8132L115.579 48.4341V48.3188L115.489 48.2519L115.14 47.9954L114.902 47.7687L114.891 47.3486L114.887 47.2073L114.764 47.1479L114.4 46.9657L114.343 46.8207L114.231 46.5419L114 46.7278L113.787 46.9025L113.708 46.9694L113.704 47.0735L113.686 47.501L113.614 47.8579L113.401 48.1292L113.041 48.3634L112.965 48.4155L112.943 48.5084L112.94 48.5307L112.911 48.501L112.871 48.4824L112.572 48.3486L112.417 48.014L112.37 47.9136L112.266 47.8876L111.872 47.791L111.613 47.5791L111.382 47.2668L111.353 47.2259L111.31 47.2036L110.996 47.0363L110.859 46.7092L110.675 46.3152L110.661 46.2817L110.636 46.2557C110.466 46.0736 110.3 45.8877 110.134 45.7018L110.088 45.3115L110.073 45.2L109.979 45.1442L109.651 44.9435L109.485 44.635L109.471 44.6052L109.449 44.5829L109.19 44.3227L109.074 43.9844L108.977 43.5792L108.966 43.5421L108.944 43.5086L108.728 43.1629C108.573 43.0402 108.263 43.1071 108.353 43.412L108.519 43.7205L108.591 44.1183L108.598 44.1443L108.714 44.5532L108.728 44.6052L108.786 44.6684L109.024 44.9361C109.078 45.0513 109.132 45.1665 109.19 45.2781L109.229 45.3524L109.312 45.4082L109.532 45.5531L109.561 45.8542L109.572 45.962L109.655 46.0624C109.813 46.2557 109.976 46.4453 110.142 46.6349L110.289 46.9806C110.34 47.1144 110.39 47.2445 110.445 47.3746L110.499 47.5122L110.636 47.5865L110.931 47.7464L111.122 48.0066L111.151 48.0437L111.195 48.0809L111.512 48.3448L111.584 48.4043L111.681 48.4303L111.916 48.4898L112.017 48.7129L112.082 48.8616L112.233 48.9322L112.525 49.0697L112.749 49.3113L113.326 49.9321L113.499 49.092C113.517 48.9991 113.535 48.9024 113.553 48.8095C113.621 48.7537 113.69 48.698 113.758 48.6385L113.852 48.553L114.076 48.1701L114.141 48.0623L114.144 48.0252L114.173 47.5828L114.177 47.5382C114.17 47.4787 114.166 47.4192 114.162 47.3598L114.422 47.501C114.422 47.6237 114.418 47.7501 114.415 47.8727L114.411 47.9694L114.498 48.066L114.793 48.3932L114.822 48.4192L115.017 48.5865L114.988 48.9768L114.97 49.1924L115.219 49.3262L115.435 49.4415L115.482 49.7388L115.497 49.8392L115.619 49.973L115.915 50.2964L115.947 50.3299L116.063 50.3894L116.362 50.5418L116.405 50.5901C116.391 50.7202 116.38 50.8503 116.373 50.9804L116.351 51.46L116.845 51.6086L117.191 51.7127C117.242 51.7499 117.292 51.7834 117.343 51.8205L117.505 52.0956L117.566 52.1997L117.678 52.2815C117.79 52.367 117.902 52.4562 118.017 52.538L118.435 52.8391L118.818 52.5157L119.139 52.2443L119.185 52.2034L119.211 52.1737L119.481 51.8651C119.575 51.7648 119.669 51.6681 119.759 51.564L119.82 51.4897L119.831 51.4711C119.972 51.2332 120.116 50.9953 120.264 50.7648L120.307 50.6942L120.321 50.6607C120.375 50.5306 120.422 50.3968 120.469 50.263L120.523 50.1143V50.0511L120.52 49.724L120.631 49.5753L120.743 49.4266L120.754 49.3225L120.797 48.9396L120.913 48.7277L121.165 48.4973L121.266 48.408L121.291 48.3411L121.425 47.9843L121.648 47.7315L121.771 47.5939L121.757 47.4638L121.713 47.0326C121.742 46.9546 121.771 46.8802 121.8 46.8059L122.128 46.5977L122.279 46.5011L122.261 46.3412C122.247 46.2037 122.229 46.0698 122.214 45.9323L122.395 45.6535L122.597 45.2929L122.669 45.1963C122.719 45.2 122.766 45.2037 122.817 45.2074C122.842 45.2595 122.867 45.3115 122.892 45.3636C122.878 45.4379 122.864 45.5122 122.846 45.5866L122.777 45.8654L122.723 46.0921L123.055 46.252L123.296 46.3709C123.347 46.4787 123.397 46.5866 123.455 46.6906L123.523 46.765C123.61 46.8728 123.689 46.988 123.783 47.0847C123.877 47.185 123.963 47.2928 124.061 47.3858L124.111 47.4267C124.201 47.501 124.295 47.5716 124.389 47.6385L124.508 47.7278L124.67 47.7538C124.793 47.7724 124.915 47.7872 125.034 47.8058L125.593 47.8839L125.763 47.3412L125.86 47.0215L126.004 46.8542L126.26 46.6274L126.578 46.397L126.78 46.252L126.837 46.0104C126.859 45.9286 126.873 45.8431 126.891 45.7576L127.039 45.6238L127.108 45.5606L127.14 45.5122L127.371 45.1665L127.436 45.0662L127.458 44.9844L127.519 44.7688C127.577 44.7316 127.634 44.6907 127.688 44.6535L127.858 44.5346L127.916 44.3933L128.035 44.0997L128.236 43.9101L128.453 43.7093L128.438 43.4603L128.42 43.1592C128.456 43.1146 128.496 43.07 128.532 43.0254L128.611 42.9287L128.633 42.8692L128.777 42.4603L128.896 42.07C128.95 41.9771 129.008 41.8841 129.059 41.7875L129.023 41.8321L129.286 41.479L129.535 41.1147L129.643 40.9548L129.614 40.8284L129.542 40.4901C129.603 40.4232 129.664 40.36 129.726 40.2931L129.794 40.2151L129.801 40.1816L129.913 39.7504C129.96 39.4344 129.567 39.3973 129.499 39.5831L129.372 39.9437Z" fill="#ABA000"></path> <path d="M136.637 23.1665C138.776 20.9614 138.776 17.3862 136.637 15.1811C134.498 12.976 131.03 12.976 128.891 15.1811C126.752 17.3862 126.752 20.9614 128.891 23.1665C131.03 25.3717 134.498 25.3717 136.637 23.1665Z" fill="#31332A"></path> <path d="M134.971 15.6547C134.971 16.532 133.9 17.242 132.577 17.242C131.254 17.242 130.183 16.532 130.183 15.6547C130.183 14.7774 131.254 14.0674 132.577 14.0674C133.9 14.0637 134.971 14.7774 134.971 15.6547Z" fill="#636A78"></path> <path d="M108.63 11.8441L108.551 12.2493L107.877 12.2902L107.823 12.7549L107.076 12.7809L107.646 13.621L106.272 13.305L106.24 13.7846L106.308 14.3124L105.955 14.6098L105.435 14.8291L105.277 15.2306L105.486 15.7993L106.099 16.5242L105.648 16.7807L104.794 16.8922L104.739 17.3309L104.487 17.6952L105.342 18.4349L104.415 18.5762L105.021 19.2007L103.91 19.3234L103.744 19.7248L104.631 20.3865L103.636 20.591L104.181 21.1411L104.523 21.6318L103.993 21.7917C102.706 20.7582 101.88 19.1486 101.88 17.3383C101.88 14.2195 104.332 11.688 107.361 11.688C107.797 11.688 108.223 11.7437 108.63 11.8441Z" fill="#31332A"></path> <path d="M106.092 12.6917C106.305 13.0374 105.973 13.6471 105.349 14.056C104.726 14.4649 104.048 14.5169 103.835 14.1712C103.622 13.8255 103.954 13.2159 104.578 12.807C105.202 12.3981 105.879 12.346 106.092 12.6917Z" fill="#636A78"></path> <path d="M120.245 22.5835C120.237 22.6355 120.226 22.7173 120.205 22.8177C120.043 23.6206 119.386 25.7729 117.818 26.0294C116.202 26.2897 110.418 23.7321 109.419 22.7136C109.326 22.6207 109.271 22.5352 109.271 22.4683C109.271 22.4088 109.318 22.327 109.409 22.2303C110.249 21.2787 114.778 18.6989 116.274 17.8551C116.61 17.6655 116.999 17.6543 117.338 17.829C119.43 18.8848 120.136 21.4906 120.234 22.353C120.245 22.4571 120.248 22.5352 120.245 22.5835Z" fill="#FC8B2D"></path> <path d="M120.245 22.5834C120.237 22.6354 120.226 22.7172 120.205 22.8176C119.303 22.9179 118.402 22.9514 117.5 22.9811C116.584 23.0034 115.669 22.9997 114.756 22.9811C113.84 22.9663 112.928 22.9365 112.012 22.8919C111.147 22.8473 110.281 22.799 109.419 22.7135C109.326 22.6206 109.271 22.5351 109.271 22.4681C109.271 22.4087 109.318 22.3269 109.409 22.2302C110.281 22.1596 111.15 22.1262 112.019 22.1038C112.935 22.0815 113.847 22.0667 114.763 22.0704C115.679 22.0704 116.592 22.089 117.504 22.1262C118.413 22.1708 119.325 22.2302 120.237 22.3492C120.245 22.457 120.248 22.5351 120.245 22.5834Z" fill="#D13301"></path> <path d="M115.499 19.3756C115.568 19.5837 115.352 19.87 115.013 20.0187C114.674 20.1674 114.342 20.119 114.273 19.9109C114.205 19.7027 114.421 19.4165 114.76 19.2678C115.099 19.1228 115.431 19.1674 115.499 19.3756Z" fill="#D13301"></path> <path d="M156.29 78.2357H151.512L151.833 63.5263C151.833 63.5077 151.833 63.4854 151.833 63.4631C151.811 62.8907 151.346 62.4483 150.794 62.4669C150.239 62.4892 149.81 62.9687 149.828 63.5375L150.362 78.1688L137.514 76.8566C137.207 76.8269 136.933 77.0574 136.904 77.3696C136.875 77.6856 137.099 77.9681 137.405 77.9978L146.929 78.9718L135.801 81.0535C135.498 81.1092 135.296 81.4103 135.354 81.7226C135.404 82.0014 135.638 82.1947 135.902 82.1947C135.934 82.1947 135.967 82.191 136.003 82.1872L148.14 79.916L140.178 84.9827C139.915 85.15 139.836 85.5031 139.998 85.7745C140.16 86.0458 140.503 86.1276 140.766 85.9603L151.108 79.3807L156.294 79.3844C156.6 79.3844 156.849 79.1279 156.849 78.8119C156.849 78.496 156.6 78.2357 156.29 78.2357Z" fill="#FC8B2D"></path> <path d="M135.087 77.0311C135.087 77.3471 134.838 77.6036 134.532 77.6036L129.346 77.5999L119.004 84.1795C118.741 84.3431 118.399 84.2613 118.236 83.99C118.074 83.7223 118.157 83.3692 118.417 83.1982L126.382 78.1315L114.241 80.4027C114.208 80.4102 114.172 80.4102 114.14 80.4102C113.877 80.4102 113.642 80.2132 113.592 79.9381C113.538 79.6258 113.74 79.3284 114.043 79.269L125.171 77.1873L115.647 76.2133C115.341 76.1799 115.117 75.9011 115.15 75.5851C115.178 75.2691 115.452 75.0424 115.759 75.0721L128.607 76.3843L128.29 67.6858L128.831 67.1877L129.289 67.0762L129.516 67.7676L129.837 68.1616L129.941 68.0687L129.757 76.4475H134.535C134.842 76.4587 135.087 76.7152 135.087 77.0311Z" fill="#FC8B2D"></path> </g> <g clip-path="url(#clip1)"> <path d="M13.3175 91.4196C13.1148 87.0422 26.534 82.8301 43.29 82.0117C60.046 81.1932 73.7937 84.0784 73.9963 88.4558C74.199 92.8332 60.7799 97.0453 44.0239 97.8637C27.2678 98.6822 13.5201 95.797 13.3175 91.4196Z" fill="#F3F3F3"></path> <path d="M1.17529 44.6168L1.45565 44.2352L1.96569 44.5405L2.10756 43.7355L2.58382 43.9507L2.72906 43.1076L3.1952 43.2949L3.7255 43.7008L3.9991 43.2637L4.40105 43.2533L4.62061 42.601L4.9111 42.1951L5.33332 42.2506L5.99873 43.2117L6.10345 42.1049L6.52567 42.1777L6.98843 42.4102L7.28904 42.0216L7.83624 42.5802L8.25508 42.6496L8.39695 41.64L8.7077 41.2895L9.30219 42.0355L9.65348 41.8412L9.82912 40.9808L10.4135 41.6816L10.6094 40.8975L11.008 40.8836L11.3559 40.6963L11.8524 41.0432L12.2104 40.8767L12.7678 41.4353L12.8184 40.1724L13.4028 40.8142L13.8791 41.0536L13.9669 39.9815L14.3452 39.9018L14.71 39.7699L15.1052 39.7387L15.7199 40.3736L16.1084 40.3007L16.3921 39.9156L16.7772 39.8358L17.1521 39.7213L17.1622 38.6111L17.9357 39.5756V38.4758L18.3445 38.4654L18.5437 37.9207L19.1281 38.337L19.807 38.9372L19.9117 38.1878L20.1347 37.7298L20.3036 37.1643L21.2122 38.1948L21.425 37.7264L21.4351 36.8555L22.2356 37.5876L22.489 37.2129L22.7389 36.8451L23.2827 37.029L23.3841 36.3906L23.5901 35.9604L23.9009 35.721L24.4886 35.95L24.9986 36.0367L25.1338 35.4955H25.5999L25.3297 34.3436L26.0018 34.6663L26.1302 34.1493L26.7449 34.361L26.8226 33.7816L27.4239 33.8267L27.2685 33.3201L27.8833 33.0321L27.8968 32.6366L27.6806 32.1856L27.8968 31.8317L27.9913 31.4466L27.2246 30.8151L28.2447 30.7006L28.3832 30.3329L28.2548 29.8749L27.9035 29.3198L28.0319 28.9347L28.1839 28.56L29.3661 28.6259L28.471 27.8001L28.9506 27.5781L29.7275 27.5156L29.2445 26.8322L28.9709 26.2319L29.3796 25.9925L29.8829 25.8191L29.5755 25.1633L30.0889 25.0072L30.0518 24.5041L30.3963 24.2439L30.5719 23.8761L31.2103 23.8449L31.3151 23.4251L31.9737 23.4459L31.9095 22.8873L32.5648 22.929L32.2102 22.0963L33.031 22.3114L32.8891 21.6418L32.727 20.9271L33.3214 20.9583L34.0713 21.1734L34.4192 20.9861L34.0105 19.9348L34.8583 20.3164L34.7942 19.626L35.4866 19.8689L35.2333 18.8939L35.4967 18.5748L36.1419 18.8003L36.1149 18.0543L36.581 18.037L37.1822 18.2486L37.7902 18.5123L37.6315 17.4715L38.2361 17.7455L38.378 17.1904L39.0467 17.6449L38.9285 16.5208L39.2258 16.219L39.8473 16.6388L39.9655 15.9102L40.2796 15.6257L41.0396 16.5L41.2659 16.0004L41.5733 15.702L41.9111 15.4626L42.4988 16.0559L42.715 15.4244L42.9413 14.7479L43.5932 15.7367L43.8026 14.9283L44.3059 15.4244L44.7079 15.5077L45.0727 15.3724L45.3091 14.4183L45.8225 15.2649L46.1975 15.1955L46.4846 14.2205L46.9102 14.5501L47.3121 14.7201L47.7276 15.3759L48.0654 14.0366L48.4741 15.2163L48.8558 14.564L49.2307 15.2024L49.6563 14.002L49.9907 15.1434L50.4264 14.394L50.7304 15.3863L51.2067 14.4842L51.5647 14.7895L51.987 14.5779L52.318 14.9908L52.7942 14.5154L52.9935 15.5667L53.4293 15.3342L53.7772 15.5493L54.2872 15.0844L54.4831 15.8651L55.0236 15.3585L55.26 15.9345L55.9254 15.1157L55.8781 16.4965L56.4996 15.8894L56.5807 16.7776L57.1211 16.441L57.7528 15.9379L57.7764 16.8747L58.3169 16.6284L58.7526 16.6249L58.7864 17.4437L59.4146 17.0725L59.4214 17.8843L59.9686 17.697L59.999 18.4152L60.5192 18.3007L61.3096 17.7698L61.5393 18.1584L61.8838 18.3596L62.2047 18.599L61.9041 19.6885L62.6438 19.345L63.0998 19.404L63.4984 19.5497L63.728 19.9001L63.9375 20.2679L63.9915 20.8022L64.0928 21.2706L64.6603 21.2428L65.1231 21.3365L64.8799 22.131L65.8459 21.7528L65.14 22.9463L66.3695 22.3738L65.6331 23.5292L66.7309 23.1233L66.741 23.6298L66.3863 24.4L67.3591 24.1606L66.8457 25.0176L66.9268 25.4305L67.5584 25.4686L67.6091 25.9058L68.3083 25.9266L67.7746 26.7107L69.0582 26.4158L69.0919 26.8634L69.0278 27.3526L69.3554 27.6336L69.8452 27.8348L69.9938 28.2095L69.7979 28.7404L69.2237 29.4204L69.6493 29.6598L70.4464 29.7673L70.5005 30.1733L70.7369 30.5133L69.9397 31.2037L70.8078 31.3356L70.2404 31.9184L71.2807 32.0295L71.4361 32.4076L70.6052 33.0252L71.5374 33.216L71.024 33.7295L70.7065 34.1875L71.5273 34.4442L71.8144 34.8085L71.3213 35.2769L70.899 35.721L71.6793 36.0367L71.2165 36.4704L71.8786 36.8278L70.8517 37.2649L72.1387 37.6292L70.8315 38.0282L71.0949 38.4168L71.8853 38.8401L71.8718 39.2391L71.0341 39.5756L71.8617 40.0475L71.9394 40.4638L70.7943 40.7136L71.2909 41.182L71.4023 41.6018L70.4059 41.9175L70.8889 42.3616L70.8484 42.7606L71.6084 43.0902L71.4462 43.5031L71.2841 43.916L71.8245 44.2837L71.3381 44.707L71.605 45.0956L71.6658 45.4946L70.8416 45.904L71.149 46.296L71.8853 46.695L71.3348 47.0871L71.5915 47.493L71.2199 47.8781L70.899 48.2563L71.8381 48.7108L70.8855 49.0404L70.6491 49.4116L71.2199 49.8627L70.899 50.227L71.301 50.6745L71.2267 51.0666L70.9902 51.4344L71.024 51.8403L71.1085 52.2601L70.6153 52.5724L70.6964 52.9887L70.5545 53.3634L70.8923 53.8491L70.3924 54.1371L70.4059 54.55L70.6119 55.0149L70.5072 55.4035L69.8958 55.6359L70.3856 56.2049L70.1829 56.5588L70.2133 56.996L69.8621 57.2943L68.9805 57.388L69.8519 58.1478L69.5344 58.4532L69.6358 58.9319L68.6427 58.9354L69.2608 59.6501L69.0582 59.9971L67.8016 59.8236L68.0617 60.3891L67.6159 60.5973L67.6192 61.0414L67.5213 61.4335L67.3963 61.8151L67.072 62.0753L67.6767 62.908L67.4909 63.2688L67.224 63.5741L66.1499 63.3347L66.4505 64.0148L66.3897 64.4589L65.7919 64.5109L65.0386 64.4311L65.248 65.0834L64.6704 65.1181L64.684 65.6246L64.4137 65.9056L64.836 66.7869L64.5387 67.054L63.8159 66.9361L63.7213 67.3802L63.5456 67.7549L63.3328 68.1018L62.3398 67.6577L62.8532 68.7402L61.9682 68.3759L62.4817 69.507L62.1 69.6735L61.7149 69.84L60.7151 69.2745L61.2488 70.5131L60.4381 70.1454L59.8301 69.9996L59.8538 70.6519L59.7085 71.1029L59.364 71.2903L58.729 71.0787L58.6243 71.5956L58.0331 71.4152L58.1953 72.3415L57.8474 72.522L57.2461 72.3069L56.7766 72.2756L57.0333 73.4344L56.297 72.9591L56.1078 73.4032L55.591 73.2714L55.412 73.7432L55.3748 74.4892L54.9763 74.5724L54.7398 74.9714L53.9798 74.3296L53.6589 74.5447L53.4563 75.0131L53.2469 75.4884L52.7807 75.4086L52.1423 74.909L51.7944 75.0616L51.7302 75.9117L51.075 75.3149L50.7608 75.5578L50.5987 76.2066L50.3285 76.5952L49.8894 76.5119L49.6225 76.9282L49.2273 76.9699L48.5991 76.2898L48.4943 77.2335L47.9336 76.7201L47.5047 76.616L47.2919 77.2613L46.9946 77.6291L46.4711 77.1607L46.3056 78.0766L45.8259 77.7436L45.451 77.8268L45.1673 78.3334L44.7552 78.2709L44.2654 77.7956L43.9209 78.0419L43.7047 78.9752L43.2318 78.5589L42.8569 78.656L42.384 78.1564L42.0496 78.4895L41.6949 78.7393L41.3875 79.3812L40.9518 79.0481L40.4755 78.2848L40.1513 78.8607L39.7527 78.7254L39.3575 78.6213L38.9522 78.323L38.6043 78.8538L38.2496 79.3916L37.8544 79.284L37.4389 78.5832L37.0775 79.2354L36.6925 79.4193L36.304 79.4818L35.9156 78.5797L35.5339 78.3646L35.1353 79.5338L34.7536 79.1834L34.3821 78.8122L34.0173 78.375L33.6423 78.2709L33.21 79.0863L32.8452 78.7636L32.4263 79.1626L32.0143 79.4089L31.6832 78.8052L31.3691 78.1599L30.9503 78.434L30.4909 79.0099L30.17 78.4999L29.7005 79.0169L29.3154 78.9544L28.9912 78.5485L28.5081 79.0342L28.3291 77.8893L27.7279 78.9301L27.4712 78.2466L27.1503 77.9136L26.8463 77.5285L26.2011 78.5415L25.8735 78.2397L25.6269 77.6429L25.3601 77.1676L24.9682 77.1468L24.7048 76.6958L24.3467 76.5709L23.5665 77.7401L23.5226 76.6403L22.8436 77.4209L22.4788 77.2682L22.543 75.9776L22.1174 76.0227L21.8742 75.5994L21.3135 75.9637L21.0703 75.5508L20.8237 75.1657L20.1752 75.6757L19.8239 75.5092L19.7091 74.8569L18.9727 75.4745L18.993 74.5724L18.2499 75.1588L18.2262 74.3781L18.1249 73.7745L17.3717 74.3157L17.2264 73.7953L17.1217 73.2228L16.6826 73.2124L16.0273 73.5142L16.1996 72.5497L15.855 72.3797L15.6085 72.064L15.0782 72.1473L14.1864 72.6989L14.5783 71.5332L13.7237 71.9981L13.4872 71.6615L13.3859 71.1654L12.9434 71.0821L12.832 70.6137L12.7272 70.1488L12.3219 70.017L12.4063 69.3647L11.545 69.6978L11.6531 69.0351L11.5079 68.6396L10.9235 68.6569L11.1566 67.9179L10.1601 68.2892L9.65685 68.199L10.3797 67.0749L9.63321 67.1859L9.16708 67.054L8.93063 66.7348L9.13668 66.0895L8.21455 66.2699L8.79553 65.3783L8.11322 65.3679L8.25846 64.8023L8.02202 64.4866L7.37686 64.4242L7.95784 63.6158L7.06611 63.6852L7.34309 63.0745L6.79251 62.9288L6.29936 62.738L6.98505 61.9435L6.09332 61.9469L6.76549 61.1871L6.14398 61.0449L5.8231 60.7569L6.10007 60.2087L5.63056 59.9797L5.3671 59.6571L5.02256 59.3622L5.67785 58.703L5.63732 58.304L5.24888 58.0264L4.58346 57.8252L4.33012 57.4852L4.19164 57.107L4.28284 56.6664L4.84016 56.1078L4.7287 55.7331L4.64426 55.3479L4.36053 55.0114L4.59359 54.5604L4.69154 54.1406L3.95181 53.8838L4.50577 53.3842L4.07004 53.0616L3.24924 52.7875L3.95181 52.2844L3.63093 51.927L4.23892 51.4586L3.66132 51.1256L3.95181 50.7023L3.59715 50.338L4.03625 49.9078L4.07004 49.5157L2.82365 49.1896L3.80657 48.742L3.73902 48.3534L4.03964 47.951L3.85386 47.2848L3.03982 47.4306L2.84391 46.9795L2.05689 47.4514L2.26631 46.4556L1.92516 46.2683L1.33067 46.3342L1.21921 45.8658L1.09085 45.4495L0.780098 45.1962L-0.000167847 44.8493L1.20232 44.8146L1.17529 44.6168Z" fill="#FDEE21"></path> <path d="M6.3806 47.344L6.50558 46.893L6.5022 46.9346L6.54949 46.5113C6.6238 46.2303 6.9582 46.3621 6.96834 46.5217L6.9582 46.945V46.9624L6.95482 46.9797L6.88389 47.3683L6.99536 47.6007L7.37367 47.8089L7.51216 47.8852L7.47838 48.0414L7.40069 48.4161L7.58984 48.652L7.60335 48.6693L7.61349 48.6902L7.77562 49.0094L8.04584 49.2765L8.06273 49.2939L8.07624 49.3112L8.28904 49.6408L8.33295 49.7067L8.32282 49.7865L8.26539 50.2133L8.54237 50.8517L8.79232 51.098L9.09295 51.32L9.50503 51.4762L9.66041 51.5352L9.64015 51.7052L9.59961 52.0417L9.91036 52.1076L10.0826 52.1458L10.0759 52.3262L10.0624 52.687L10.336 52.7946L10.4744 52.8501L10.4711 53.0028L10.4576 53.4295L10.6433 53.5856L11.0554 53.6724L11.2074 53.7036L11.2209 53.8632L11.2547 54.2518L11.5114 54.3871L11.8796 54.5536L11.8965 54.5606L11.91 54.571L12.2309 54.793L12.2579 54.8138L12.2782 54.8416L12.5112 55.1538L12.7308 55.4106L13.0551 55.5424L13.1564 55.5841L13.18 55.6951L13.2611 56.0698L13.5415 56.1357L13.5989 56.1496L13.6428 56.1912L13.8657 56.4167L14.2339 56.4271L14.3352 56.4306L14.396 56.5139L14.6156 56.8157L14.8858 56.9684L15.2506 57.0412L15.3351 57.0586L15.3823 57.1349L15.5681 57.4229L15.8822 57.4472H15.8958L15.9093 57.4506L16.2943 57.5304L16.3146 57.5339L16.3349 57.5409L16.6862 57.6935L16.747 57.7178L16.7807 57.7733L16.9462 58.037L17.2637 57.926L17.3347 57.9017L17.4022 57.926C17.5846 57.9954 17.767 58.0543 17.9494 58.1376C18.1251 58.2105 18.2906 58.2937 18.4595 58.3735L18.8108 58.4568L18.8986 58.4776L18.9459 58.5574L19.1046 58.8315L19.3985 58.6025L19.4593 58.5539L19.537 58.5574L19.9187 58.5817L20.0335 58.5886L20.0876 58.6927L20.297 59.0952L20.5436 59.0119L20.5773 59.0015H20.6145L20.9928 59.0119L21.3711 58.9842L21.4623 58.9772L21.5299 59.0431L21.7562 59.2652L22.023 59.0501L22.0906 58.998L22.175 59.0085L22.5567 59.0466L22.6141 59.0536L22.6614 59.0917L22.9451 59.3138L23.2187 59.1889L23.2626 59.168L23.3099 59.1715L23.6274 59.1854L23.9416 58.9703L23.9787 58.946L24.0226 58.9391L24.3976 58.8697L24.4516 58.8593L24.5023 58.8766L24.8266 58.9911L25.1204 58.8697L25.2082 58.835L25.2927 58.8801L25.671 59.0778L25.9953 59.0848C26.2317 59.0258 26.4715 58.9703 26.7113 58.9217L27.0559 58.7621L27.4105 58.6199L27.7382 58.4221L27.7585 58.4082L27.7821 58.4013L28.103 58.2972L28.3732 58.0405L28.4205 57.9954L28.488 57.9849L28.8765 57.9329L28.9238 57.926L28.9677 57.9398L29.2345 58.0266L29.3325 57.6137L29.3595 57.4958L29.4743 57.4611L29.8391 57.3466L29.8864 57.3327L29.9371 57.3431L30.3593 57.4194L30.616 57.3466L30.7984 57.0239L30.8694 56.899L31.0079 56.9198L31.3119 56.9649L31.3963 56.618L31.4301 56.4792L31.5686 56.4584L31.9705 56.3994L32.2238 56.3127L32.3117 55.9206L32.3488 55.7471L32.5211 55.7541L33.0176 55.7714C33.1865 55.7783 33.2574 56.1635 33.0041 56.2016L32.7271 56.212L32.6765 56.5451L32.6562 56.6874L32.4907 56.7568C32.3657 56.8088 32.2407 56.8643 32.1158 56.9129L32.1056 56.9163L32.0617 56.9268L31.8827 56.9614L31.8185 57.2945L31.7611 57.6068L31.4132 57.5721L31.2038 57.5513L31.1092 57.7386L31.0416 57.8739L30.8559 57.9364L30.4775 58.0647L30.4066 58.089L30.285 58.0752L29.954 58.037L29.8831 58.4256L29.7851 58.9738L29.2143 58.8107L28.8664 58.7101L28.7752 58.7274L28.5894 58.9182L28.5151 58.9946L28.3698 59.0466L28.0928 59.1472L27.7956 59.3415L27.7753 59.3554L27.7078 59.3866L27.3632 59.5393L27.0289 59.7128L26.9816 59.737L26.8937 59.7579C26.6472 59.8168 26.4006 59.8793 26.154 59.9487L26.0966 59.966H25.9953L25.6001 59.9695L25.4649 59.973L25.3062 59.8966L25.1778 59.8342L25.0833 59.8758L24.8637 59.973L24.5969 59.8862L24.3908 59.8203L24.3435 59.8307L24.0868 60.0181L23.9078 60.1464L23.6511 60.143L23.4518 60.1395L23.212 60.254L22.8202 60.4414L22.452 60.1603L22.3304 60.0667L22.2155 60.1603L21.7089 60.5836L21.2056 60.1118L21.1043 60.0181L21.0435 60.025L21.0198 60.0285H20.9692H20.7327L20.4355 60.1326L19.8106 60.3546L19.5201 59.8099L18.8108 60.3685L18.3379 59.5636L18.2399 59.397L18.2028 59.3901L18.1217 59.3728L18.0373 59.3311L17.7873 59.2132C17.7029 59.1715 17.6252 59.1403 17.5441 59.1056C17.4698 59.0744 17.4022 59.0431 17.3246 59.0154L17.1219 59.0882L16.5139 59.3068L16.1558 58.7482L16.0444 58.5713L16.0005 58.5539L15.7438 58.4984L15.3857 58.4707L14.9736 58.436L14.7541 58.089L14.7 58.0023L14.6494 57.9919L14.5176 57.9641L14.4095 57.9017L14.0751 57.7074L13.9164 57.6172L13.8151 57.4784L13.8015 57.4576L13.7509 57.4541L13.4266 57.4402L13.2037 57.2113L13.0855 57.0898L12.9064 57.0482L12.3964 56.9268L12.2951 56.4202L12.2748 56.3196L12.1194 56.2537L12.008 56.1184L11.7411 55.7922L11.5587 55.5424L11.4 55.4279L11.0892 55.2787L10.7143 55.0775L10.3292 54.8693L10.3022 54.4877L10.1975 54.4634L10.0793 54.3593L9.78201 54.0922L9.50166 53.8389L9.52192 53.5058L9.5253 53.4573L9.11997 53.2838L9.15375 52.8397L8.62006 52.7044L8.71801 52.125L8.72815 52.066L8.67411 52.0417L8.63357 52.007L8.30931 51.7433L8.25526 51.6982L8.2485 51.6878L7.97153 51.3894L7.87696 51.2888L7.84655 51.209L7.56282 50.4561L7.49864 50.2861L7.52229 50.1647L7.58647 49.8351L7.51216 49.6998L7.2926 49.45L7.22504 49.3737L7.20815 49.3355L7.05954 48.9851L6.867 48.7075L6.7454 48.5306L6.78931 48.3744L6.85349 48.142L6.67447 48.0275L6.56976 47.9616L6.53936 47.8852C6.48869 47.7638 6.4414 47.6354 6.39749 47.5105L6.35358 47.396L6.3806 47.344Z" fill="#ABA000"></path> <path d="M47.4238 51.2818L47.7143 51.5385L47.7988 51.6149L47.7853 51.7294L47.738 52.0902L47.9305 52.3261L48.194 52.621L48.2041 52.6314L48.2109 52.6418L48.427 52.9645L48.4406 52.9853L48.4507 53.0096L48.5824 53.3739L48.7175 53.6966L48.9607 53.9568L49.0215 54.0192V54.1094L49.0148 54.4737L49.2445 54.6715L49.2816 54.7027L49.3019 54.7444L49.4404 55.0427L49.7444 55.2336L49.8085 55.2752L49.8322 55.3515L49.9437 55.7054L50.1328 55.9726L50.4132 56.2154L50.4638 56.2605L50.4773 56.3299L50.5584 56.663L50.8219 56.8503L50.8286 56.8573L50.8354 56.8642L51.1293 57.1175L51.1394 57.1279L51.1495 57.1383L51.4029 57.4228L51.4333 57.4575L51.4468 57.5026L51.5278 57.7524L51.6494 57.7351L51.8656 57.5824C52.048 57.4263 52.227 57.2667 52.406 57.1071L52.629 56.8191L52.6729 56.7601L52.7438 56.7428L53.0343 56.6734L53.0107 56.3299L53.0073 56.2605L53.0411 56.2015L53.237 55.8719L53.2944 55.7748L53.4059 55.7713L53.7774 55.7574L53.8821 55.754L53.9463 55.8372L54.0949 56.0246L54.1051 56.0385L54.1118 56.0524L54.3043 56.3854L54.5171 56.7046L54.5577 56.7671L54.5509 56.8434L54.5273 57.1626L54.8144 57.3257L54.8752 57.3604L54.9056 57.4228L55.0677 57.7802L55.088 57.8253V57.8738L55.0812 58.2277L55.3075 58.4463L55.3346 58.4741L55.3515 58.5088L55.4967 58.8175L55.7906 59.0431L55.8176 59.0639L55.8379 59.0951L56.0507 59.4212L56.0743 59.4559L56.0811 59.4976L56.1486 59.8445L56.3715 60.0943L56.4222 60.1498L56.4256 60.2262L56.4492 60.6321L56.5877 60.9409C56.7296 61.1456 56.8714 61.3503 57.0099 61.5584C57.1856 61.7389 57.3578 61.9227 57.5234 62.1101L57.6956 62.2489L57.8544 62.1309L58.0537 61.8117L58.0773 61.7736L58.1145 61.7493L58.4489 61.5272L58.4793 61.5064L58.513 61.4995L58.8035 61.4266L58.7968 61.0346V60.9374L58.8643 60.8715L59.1548 60.5974L59.1818 60.5696L59.219 60.5558L59.6007 60.3996L59.827 60.1949L59.9182 59.8306L59.9452 59.7266L60.0432 59.6849L60.3404 59.56L60.3438 59.2061V59.0986L60.4282 59.0361L60.7559 58.7967L60.9788 58.5851L60.9889 58.193L60.9923 58.0612L61.1072 58.0057L61.4483 57.8357L61.5024 57.7004L61.6071 57.4402L61.8232 57.6136L62.0225 57.7767L62.0968 57.8391L62.1002 57.9363L62.1171 58.3353L62.1847 58.6684L62.384 58.9216L62.7217 59.1402L62.7927 59.1888L62.8129 59.2755L62.8163 59.2963L62.8433 59.2686L62.8805 59.2512L63.1608 59.1263L63.3061 58.8141L63.35 58.7204L63.4479 58.6961L63.8161 58.6059L64.0593 58.4081L64.2755 58.1167L64.3025 58.0785L64.3431 58.0577L64.6369 57.9016L64.7653 57.5963L64.9375 57.2285L64.9511 57.1973L64.9747 57.173C65.1335 57.003 65.2888 56.8295 65.4442 56.656L65.4881 56.2918L65.5016 56.1877L65.5894 56.1356L65.8968 55.9483L66.0522 55.6603L66.0657 55.6325L66.086 55.6117L66.3292 55.3689L66.4373 55.0531L66.5285 54.675L66.5386 54.6403L66.5589 54.609L66.7615 54.2864C66.9068 54.1719 67.1973 54.2343 67.1128 54.5188L66.9574 54.8068L66.8899 55.178L66.8831 55.2023L66.775 55.584L66.7615 55.6325L66.7075 55.6915L66.4846 55.9413C66.4339 56.0489 66.3832 56.1564 66.3292 56.2605L66.292 56.3299L66.2143 56.382L66.0083 56.5173L65.9813 56.7983L65.9711 56.8989L65.8934 56.9926C65.7448 57.173 65.5928 57.3499 65.4374 57.5269L65.299 57.8496C65.2517 57.9745 65.2044 58.0959 65.1537 58.2173L65.1031 58.3457L64.9747 58.4151L64.6977 58.5643L64.5187 58.8071L64.4917 58.8418L64.4511 58.8765L64.1539 59.1229L64.0863 59.1784L63.9951 59.2027L63.7756 59.2582L63.681 59.4663L63.6202 59.6051L63.4783 59.671L63.2047 59.7994L62.9953 60.0249L62.4549 60.6043L62.2928 59.8202C62.2759 59.7335 62.259 59.6433 62.2421 59.5565C62.1779 59.5045 62.1137 59.4525 62.0496 59.3969L61.9617 59.3172L61.7523 58.9598L61.6915 58.8592L61.6881 58.8245L61.6611 58.4116L61.6577 58.37C61.6645 58.3145 61.6679 58.259 61.6712 58.2034L61.428 58.3353C61.428 58.4498 61.4314 58.5677 61.4348 58.6822L61.4382 58.7724L61.3571 58.8626L61.0801 59.168L61.0531 59.1923L60.8707 59.3484L60.8977 59.7127L60.9146 59.9139L60.6816 60.0388L60.4789 60.1464L60.435 60.4239L60.4215 60.5176L60.3066 60.6425L60.0297 60.9443L59.9993 60.9756L59.8912 61.0311L59.6108 61.1733L59.5703 61.2184C59.5838 61.3399 59.5939 61.4613 59.6007 61.5827L59.6209 62.0303L59.1582 62.1691L58.8339 62.2662C58.7866 62.3009 58.7393 62.3321 58.6921 62.3668L58.5401 62.6236L58.4826 62.7207L58.3779 62.7971C58.2732 62.8769 58.1685 62.9601 58.0604 63.0365L57.6686 63.3175L57.3106 63.0156L57.0099 62.7624L56.966 62.7242L56.9424 62.6964L56.689 62.4085C56.6012 62.3148 56.5134 62.2246 56.429 62.1274L56.3715 62.0581L56.3614 62.0407C56.2297 61.8187 56.0946 61.5966 55.9561 61.3815L55.9155 61.3156L55.902 61.2844C55.8514 61.1629 55.8075 61.038 55.7635 60.9131L55.7129 60.7743V60.7154L55.7163 60.41L55.6115 60.2713L55.5068 60.1325L55.4967 60.0353L55.4562 59.678L55.3481 59.4802L55.1116 59.2651L55.0171 59.1818L54.9934 59.1194L54.8684 58.7863L54.659 58.5504L54.5442 58.422L54.5577 58.3006L54.5982 57.8981C54.5712 57.8253 54.5442 57.7559 54.5171 57.6865L54.2098 57.4922L54.0679 57.402L54.0848 57.2528C54.0983 57.1244 54.1152 56.9995 54.1287 56.8712L53.9598 56.6109L53.7707 56.2744L53.7031 56.1842C53.6558 56.1877 53.6119 56.1911 53.5646 56.1946C53.541 56.2432 53.5173 56.2917 53.4937 56.3403C53.5072 56.4097 53.5207 56.4791 53.5376 56.5485L53.6018 56.8087L53.6524 57.0203L53.3417 57.1695L53.1154 57.2806C53.0681 57.3812 53.0208 57.4818 52.9668 57.5789L52.9026 57.6483C52.8215 57.7489 52.7472 57.8565 52.6594 57.9467C52.5716 58.0404 52.4905 58.141 52.3993 58.2277L52.352 58.2659C52.2676 58.3353 52.1797 58.4012 52.0919 58.4637L51.9804 58.5469L51.8284 58.5712C51.7136 58.5886 51.5988 58.6024 51.4873 58.6198L50.9637 58.6926L50.805 58.1861L50.7138 57.8877L50.5787 57.7316L50.3389 57.52L50.0416 57.3048L49.8525 57.1695L49.7984 56.944C49.7781 56.8677 49.7646 56.7879 49.7477 56.7081L49.6093 56.5832L49.5451 56.5242L49.5147 56.4791L49.2985 56.1564L49.2377 56.0628L49.2174 55.9864L49.16 55.7852C49.106 55.7505 49.0519 55.7123 49.0013 55.6777L48.8425 55.5666L48.7885 55.4348L48.677 55.1607L48.4878 54.9838L48.2852 54.7964L48.2987 54.5639L48.3156 54.2829C48.2818 54.2413 48.2446 54.1996 48.2109 54.158L48.1366 54.0678L48.1163 54.0123L47.9812 53.6306L47.8697 53.2663C47.819 53.1796 47.765 53.0929 47.7177 53.0027L47.7515 53.0443L47.5049 52.7147L47.2719 52.3747L47.1705 52.2255L47.1975 52.1075L47.2651 51.7918C47.2077 51.7294 47.1502 51.6704 47.0928 51.6079L47.0287 51.5351L47.0219 51.5038L46.9172 51.1014C46.8733 50.8065 47.2414 50.7718 47.3056 50.9453L47.4238 51.2818Z" fill="#ABA000"></path> <path d="M40.6179 35.6235C38.6143 33.5654 38.6143 30.2285 40.6179 28.1704C42.6216 26.1123 45.8703 26.1123 47.874 28.1704C49.8776 30.2285 49.8776 33.5654 47.8739 35.6235C45.8703 37.6816 42.6216 37.6816 40.6179 35.6235Z" fill="#31332A"></path> <path d="M42.1774 28.6123C42.1774 29.4311 43.1806 30.0938 44.4203 30.0938C45.6599 30.0938 46.6631 29.4311 46.6631 28.6123C46.6631 27.7935 45.6599 27.1309 44.4203 27.1309C43.1806 27.1274 42.1774 27.7935 42.1774 28.6123Z" fill="#636A78"></path> <path d="M66.8526 25.0559L66.9269 25.4341L67.5586 25.4722L67.6092 25.9059L68.3084 25.9302L67.7747 26.7143L69.0617 26.4194L69.0921 26.867L69.0279 27.3596L69.3589 27.6372L69.8453 27.8419L69.9939 28.2166L69.798 28.7474L69.2238 29.424L69.646 29.6634L70.4466 29.7675L70.4972 30.1769L70.7337 30.5169L69.9331 31.2073L70.8012 31.3391L70.2338 31.922L71.2741 32.0365L71.4295 32.4112L70.5985 33.0288L71.5308 33.2196L71.0208 33.7331L70.6999 34.1911L71.1964 34.3402C72.4023 33.3757 73.1758 31.8734 73.1758 30.1838C73.1758 27.2729 70.8789 24.9102 68.0416 24.9102C67.6329 24.9102 67.2343 24.9622 66.8526 25.0559Z" fill="#31332A"></path> <path d="M69.2305 25.8469C69.0312 26.1695 69.342 26.7385 69.9263 27.1202C70.5107 27.5018 71.1457 27.5504 71.345 27.2277C71.5443 26.9051 71.2335 26.3361 70.6492 25.9544C70.0648 25.5728 69.4298 25.5242 69.2305 25.8469Z" fill="#636A78"></path> <path d="M55.9734 35.0791C55.9802 35.1276 55.9903 35.204 56.0106 35.2976C56.1626 36.0471 56.7773 38.0559 58.2467 38.2953C59.7599 38.5382 65.1778 36.1511 66.1135 35.2005C66.2013 35.1138 66.252 35.034 66.252 34.9715C66.252 34.916 66.208 34.8397 66.1236 34.7495C65.3366 33.8613 61.0941 31.4534 59.6923 30.6659C59.3782 30.4889 59.0134 30.4785 58.6959 30.6416C56.7368 31.6269 56.0748 34.059 55.9836 34.864C55.9734 34.9611 55.97 35.034 55.9734 35.0791Z" fill="#FC8B2D"></path> <path d="M55.9734 35.0789C55.9802 35.1275 55.9903 35.2038 56.0106 35.2975C56.855 35.3912 57.6995 35.4224 58.5439 35.4502C59.4019 35.471 60.2598 35.4675 61.1144 35.4502C61.9723 35.4363 62.8269 35.4085 63.6849 35.3669C64.4955 35.3253 65.3062 35.2802 66.1135 35.2004C66.2013 35.1136 66.252 35.0338 66.252 34.9714C66.252 34.9159 66.208 34.8395 66.1236 34.7493C65.3062 34.6834 64.4921 34.6522 63.6781 34.6314C62.8201 34.6105 61.9656 34.5967 61.1076 34.6001C60.2497 34.6001 59.3951 34.6175 58.5405 34.6522C57.6893 34.6938 56.8348 34.7493 55.9802 34.8604C55.9734 34.961 55.97 35.0338 55.9734 35.0789Z" fill="#D13301"></path> <path d="M60.4188 32.0849C60.3546 32.2792 60.5573 32.5464 60.8748 32.6851C61.1923 32.8239 61.5031 32.7788 61.5672 32.5845C61.6314 32.3902 61.4288 32.1231 61.1112 31.9843C60.7937 31.849 60.483 31.8906 60.4188 32.0849Z" fill="#D13301"></path> <path d="M22.2086 87.0209H26.6841L26.3835 73.2921C26.3835 73.2747 26.3835 73.2539 26.3835 73.2331C26.4038 72.6988 26.8395 72.2859 27.3563 72.3033C27.8765 72.3241 28.2784 72.7716 28.2615 73.3025L27.7616 86.9584L39.7966 85.7337C40.0837 85.7059 40.3404 85.921 40.3674 86.2125C40.3945 86.5074 40.185 86.7711 39.8979 86.7988L30.9773 87.7078L41.401 89.6508C41.6848 89.7028 41.8739 89.9838 41.8199 90.2753C41.7726 90.5355 41.553 90.7159 41.3065 90.7159C41.2761 90.7159 41.2457 90.7124 41.2119 90.7089L29.8423 88.5891L37.3004 93.318C37.547 93.4741 37.6213 93.8037 37.4693 94.057C37.3173 94.3103 36.9964 94.3866 36.7499 94.2305L27.0624 88.0895L22.2052 88.0929C21.9181 88.0929 21.6851 87.8536 21.6851 87.5586C21.6851 87.2637 21.9181 87.0209 22.2086 87.0209Z" fill="#FC8B2D"></path> <path d="M42.0698 85.8968C42.0698 86.1917 42.3029 86.4311 42.59 86.4311L47.4472 86.4276L57.1347 92.5686C57.3812 92.7213 57.7021 92.6449 57.8541 92.3917C58.0061 92.1419 57.9284 91.8123 57.6852 91.6527L50.2238 86.9237L61.5967 89.0436C61.6271 89.0505 61.6609 89.0505 61.6913 89.0505C61.9378 89.0505 62.1574 88.8667 62.2047 88.6099C62.2553 88.3185 62.0662 88.0409 61.7825 87.9854L51.3587 86.0425L60.2794 85.1335C60.5665 85.1023 60.7759 84.842 60.7455 84.5471C60.7185 84.2522 60.4618 84.0406 60.1746 84.0684L48.1397 85.2931L48.4369 77.1745L47.9303 76.7096L47.5013 76.6055L47.2885 77.2508L46.9879 77.6186L46.8899 77.5318L47.0622 85.3521H42.5866C42.2995 85.3625 42.0698 85.6019 42.0698 85.8968Z" fill="#FC8B2D"></path> </g> <defs> <clipPath id="clip0"> <rect width="79" height="90" fill="white" transform="translate(101 0.000976562)"></rect> </clipPath> <clipPath id="clip1"> <rect width="74" height="84" fill="white" transform="matrix(-1 0 0 1 74 14.002)"></rect> </clipPath> </defs> </svg> 