<?xml version="1.0" encoding="UTF-8"?> <svg xmlns="http://www.w3.org/2000/svg" width="70" height="62" viewBox="0 0 70 62" fill="none"> <path d="M17.1972 3.40864C17.1083 3.78471 17.3414 4.16325 17.7173 4.25124C17.9008 4.29425 36.1914 8.78539 45.6785 24.2262C51.3052 33.3844 52.7478 44.5378 49.9977 57.3925L49.0433 54.9317C48.9029 54.572 48.4988 54.3925 48.137 54.5322C47.7765 54.6712 47.5973 55.0773 47.7373 55.4376L49.9086 61.0352L54.4271 56.9815C54.715 56.7241 54.7388 56.2811 54.4805 55.9934C54.4441 55.9526 54.4038 55.9175 54.3602 55.887C54.0998 55.7047 53.7389 55.7187 53.4919 55.9397L51.3209 57.8874C54.2077 44.5849 52.7227 33.0172 46.871 23.4931C43.4873 17.9858 39.0218 13.8309 34.6171 10.7474C26.2803 4.91125 18.1632 2.91853 18.0394 2.8891C17.6643 2.79997 17.2872 3.03239 17.1972 3.40864Z" fill="black"></path> </svg> 