<?xml version="1.0" encoding="UTF-8"?> <svg xmlns="http://www.w3.org/2000/svg" width="101" height="101" viewBox="0 0 101 101" fill="none"> <path fill-rule="evenodd" clip-rule="evenodd" d="M60.0269 80.9043L60.7751 82.8409L61.3992 82.5965L62.656 85.8505L66.4579 84.3615L65.9443 82.8629C65.7526 82.2861 65.649 81.8244 65.6331 81.4773C65.6173 81.1303 65.7433 80.9009 66.0116 80.79L66.1899 80.7201L65.4417 78.7835L64.2664 79.2439L64.6222 80.1648L61.5578 81.3648L61.2026 80.4442L60.0269 80.9043ZM64.4624 82.1187C64.5145 82.4148 64.6163 82.783 64.7677 83.2233L64.9549 83.7804L63.5283 84.3392L62.6637 82.1011L64.5039 81.3806C64.4185 81.5783 64.4047 81.8245 64.4624 82.1187Z" fill="black"></path> <path fill-rule="evenodd" clip-rule="evenodd" d="M55.7036 87.0214C56.0892 87.1876 56.4926 87.2413 56.9139 87.1837C57.5379 87.0983 57.9701 86.8201 58.2104 86.3497L58.3242 86.9153L59.5801 86.7434L58.2364 80.062L56.9209 80.2421L57.3821 82.5334C56.9708 82.1832 56.4756 82.0476 55.8967 82.127C55.4754 82.1846 55.1142 82.3407 54.8127 82.5945C54.5071 82.8551 54.2939 83.1877 54.173 83.5919C54.0537 84.0022 54.0447 84.4601 54.1461 84.965C54.2481 85.4702 54.4348 85.8979 54.7077 86.248C54.9814 86.6045 55.3132 86.8624 55.7036 87.0214ZM55.607 83.7426C55.7714 83.4701 56.0223 83.3106 56.3595 83.2643C56.6968 83.2179 56.9992 83.3015 57.2678 83.5152C57.5314 83.735 57.7048 84.052 57.7881 84.466C57.8713 84.8796 57.8308 85.2228 57.666 85.4955C57.4971 85.775 57.2439 85.9382 56.9068 85.984C56.5695 86.0304 56.2693 85.9436 56.0054 85.7233C55.7371 85.51 55.5616 85.1962 55.4782 84.7823C55.395 84.3687 55.4377 84.0223 55.607 83.7426Z" fill="black"></path> <path d="M47.4872 87.6015L49.8295 82.3703C50.0682 81.8018 50.3586 81.4055 50.7013 81.1807C51.0372 80.9557 51.4417 80.851 51.9146 80.8657C52.1724 80.8739 52.4269 80.922 52.6771 81.0104C52.9273 81.0988 53.1307 81.2168 53.2876 81.3637L52.742 82.3783C52.6336 82.2757 52.5091 82.1943 52.369 82.1339C52.2228 82.0735 52.079 82.0412 51.9376 82.0369C51.7412 82.0309 51.5805 82.0756 51.4557 82.1706C51.3314 82.2596 51.2177 82.4137 51.1149 82.6339L51.0955 82.6798L53.143 87.7788L51.6601 87.7326L50.3355 84.3002L48.8688 87.6451L47.4872 87.6015Z" fill="black"></path> <path d="M41.4832 85.28L43.9599 85.8493L44.5553 82.0534L45.9463 82.3732L45.1647 87.3546L41.2974 86.4652L41.4832 85.28Z" fill="black"></path> <path fill-rule="evenodd" clip-rule="evenodd" d="M36.7438 84.1358C36.9882 84.5989 37.4439 84.9607 38.1102 85.2216C38.4566 85.3568 38.8111 85.4438 39.1737 85.481C39.5307 85.5167 39.8559 85.4971 40.1483 85.4216L40.008 84.3654C39.8101 84.429 39.5894 84.4527 39.3465 84.4373C39.0963 84.4251 38.8566 84.3742 38.6274 84.2847C38.2968 84.1556 38.0754 83.9832 37.9627 83.7676C37.8481 83.5575 37.8386 83.3148 37.9346 83.04L38.9261 83.4277C39.5551 83.6738 40.062 83.7405 40.4468 83.6277C40.826 83.5124 41.0861 83.2529 41.2271 82.8488C41.3152 82.5956 41.33 82.344 41.2719 82.0947C41.2132 81.8453 41.0838 81.6172 40.8834 81.41C40.6776 81.2007 40.4093 81.0316 40.0787 80.9026C39.439 80.6522 38.9315 80.6834 38.5559 80.9958L38.7448 80.4541L37.5772 79.9977L36.7124 82.4791C36.4868 83.1258 36.4973 83.6782 36.7438 84.1358ZM38.8529 81.5527C39.0517 81.5205 39.258 81.5457 39.471 81.6293C39.6897 81.7149 39.8471 81.8283 39.943 81.9701C40.0319 82.1149 40.0482 82.2683 39.9918 82.4299C39.8736 82.7695 39.5583 82.839 39.0467 82.639L38.1908 82.3042L38.3456 81.8596C38.4829 81.6927 38.6517 81.5905 38.8529 81.5527Z" fill="black"></path> <path d="M34.1019 84.0127L32.8568 83.2621L33.8799 81.5753L31.9997 80.4419L30.9767 82.1288L29.7236 81.3729L32.3448 77.0517L33.5983 77.8074L32.6185 79.4218L34.4987 80.5551L35.4781 78.941L36.7232 79.6915L34.1019 84.0127Z" fill="black"></path> <path fill-rule="evenodd" clip-rule="evenodd" d="M25.2796 69.4284L23.6469 70.8588L24.0909 71.3398L21.347 73.7427L24.0518 76.6725L25.3367 75.6261C25.833 75.2287 26.2471 74.9564 26.5793 74.8091C26.9108 74.6615 27.1751 74.6899 27.3719 74.8943L27.4986 75.0318L29.1313 73.6014L28.2951 72.6956L27.5192 73.3757L25.3393 71.0141L26.1158 70.3342L25.2796 69.4284ZM25.5687 73.9769C25.2984 74.1384 24.9746 74.3727 24.5973 74.681L24.1182 75.0667L23.1036 73.9671L24.9905 72.3141L26.2996 73.7323C26.0787 73.7294 25.8354 73.8111 25.5687 73.9769Z" fill="black"></path> <path fill-rule="evenodd" clip-rule="evenodd" d="M17.577 67.9855C17.5629 68.3843 17.6622 68.7623 17.8746 69.1201C18.1885 69.6497 18.6142 69.945 19.1519 70.0062L18.6559 70.2923L19.2884 71.3586L25.1442 67.9796L24.4817 66.8635L22.4741 68.022C22.6539 67.5405 22.5979 67.0541 22.3061 66.5629C22.0938 66.2052 21.811 65.9331 21.4569 65.7468C21.0946 65.5588 20.6987 65.4767 20.2691 65.5005C19.8343 65.5273 19.3951 65.6687 18.9528 65.9239C18.5101 66.1793 18.1728 66.486 17.9413 66.8437C17.7042 67.2046 17.5829 67.5851 17.577 67.9855ZM20.661 66.8303C20.982 66.8884 21.2273 67.0606 21.397 67.3469C21.5667 67.6331 21.6002 67.9308 21.4974 68.2398C21.386 68.5473 21.1491 68.8057 20.7865 69.0149C20.4239 69.2242 20.0823 69.2996 19.7613 69.2415C19.4322 69.1817 19.1828 69.0086 19.0131 68.7224C18.843 68.4364 18.8141 68.1394 18.925 67.832C19.0278 67.523 19.2607 67.2637 19.6233 67.0545C19.9858 66.8453 20.3319 66.7705 20.661 66.8303Z" fill="black"></path> <path d="M14.3006 60.4324L19.93 60.6046C20.5364 60.6094 20.9999 60.7205 21.3205 60.9376C21.639 61.1495 21.8685 61.4632 22.0085 61.8789C22.0851 62.1055 22.1225 62.3433 22.1218 62.5919C22.1212 62.8404 22.0777 63.059 21.9914 63.2477L20.8707 63.1351C20.9304 63.0045 20.9657 62.8676 20.9764 62.7244C20.9845 62.5762 20.968 62.4398 20.9261 62.3157C20.8681 62.1428 20.7745 62.0191 20.6452 61.9448C20.5219 61.8682 20.3412 61.8246 20.1033 61.8137L20.0543 61.8133L15.9759 65.4044L15.5366 64.1006L18.2994 61.7301L14.71 61.647L14.3006 60.4324Z" fill="black"></path> <path d="M14.3862 55.1514L14.7777 57.5381L18.3778 56.9026L18.598 58.2428L13.8739 59.0767L13.2622 55.3498L14.3862 55.1514Z" fill="black"></path> <path fill-rule="evenodd" clip-rule="evenodd" d="M14.2512 49.3553C13.8799 49.7556 13.6862 50.3218 13.6701 51.0538C13.6614 51.4346 13.7047 51.8053 13.7995 52.1661C13.8944 52.521 14.0329 52.8252 14.2146 53.0787L15.214 52.565C15.0787 52.3982 14.9744 52.1957 14.9013 51.9572C14.8218 51.7132 14.785 51.4653 14.7904 51.2135C14.7984 50.8504 14.8892 50.5762 15.0624 50.3909C15.2295 50.2059 15.4673 50.1099 15.7756 50.1031L15.7521 51.1921C15.7368 51.8832 15.8555 52.3928 16.1081 52.7208C16.3612 53.0429 16.714 53.1991 17.1678 53.1889C17.4518 53.1827 17.7074 53.1068 17.9339 52.9614C18.1608 52.8159 18.3409 52.6099 18.4734 52.3437C18.6064 52.0715 18.6767 51.7539 18.6846 51.3909C18.7002 50.6881 18.4838 50.213 18.036 49.9653L18.644 49.9518L18.6719 48.6694L15.8875 48.731C15.1619 48.747 14.6164 48.9551 14.2512 49.3553ZM17.5904 50.4492C17.6951 50.6284 17.7453 50.8349 17.7401 51.0692C17.7348 51.3093 17.6791 51.5008 17.5733 51.6436C17.4615 51.7807 17.3148 51.8513 17.1336 51.8552C16.7525 51.8637 16.5682 51.5868 16.5807 51.0246L16.601 50.0849L17.1001 50.0737C17.3161 50.145 17.4796 50.2702 17.5904 50.4492Z" fill="black"></path> <path d="M13.0439 46.4344L13.3153 45.033L15.2155 45.3977L15.6253 43.282L13.7251 42.9172L13.9981 41.5068L18.8657 42.4415L18.5927 43.8519L16.7739 43.5028L16.3646 45.6183L18.1829 45.9677L17.9116 47.3691L13.0439 46.4344Z" fill="black"></path> <path fill-rule="evenodd" clip-rule="evenodd" d="M24.3526 33.3847L22.3047 32.3885L21.9464 33.0285L18.5054 31.3545L16.3254 35.252L17.854 36.0695C18.4375 36.3883 18.8616 36.6795 19.1275 36.9425C19.3934 37.2056 19.4511 37.4772 19.3021 37.7568L19.1997 37.9397L21.2476 38.9359L21.9216 37.7309L20.948 37.2573L22.7049 34.1161L23.6785 34.5897L24.3526 33.3847ZM19.6661 35.5978C19.4061 35.4009 19.0513 35.1825 18.6016 34.9427L18.0367 34.6359L18.8547 33.1734L21.2214 34.3249L20.1665 36.2111C20.096 35.9936 19.9292 35.7892 19.6661 35.5978Z" fill="black"></path> <path fill-rule="evenodd" clip-rule="evenodd" d="M22.5769 25.9286C22.1848 26.0748 21.8509 26.3272 21.5756 26.6857C21.1681 27.2162 21.026 27.7655 21.1497 28.3334L20.7026 27.9472L19.882 29.0156L25.16 33.5752L26.0192 32.4566L24.2094 30.8932C24.7384 30.8811 25.192 30.6289 25.5703 30.1365C25.8457 29.778 26.0139 29.3822 26.0743 28.9495C26.1336 28.5079 26.0785 28.0746 25.9091 27.6498C25.7346 27.2209 25.448 26.8341 25.0491 26.4894C24.6502 26.1447 24.2372 25.9275 23.8107 25.8372C23.3793 25.743 22.9683 25.7733 22.5769 25.9286ZM24.7502 28.5809C24.8028 28.9287 24.7191 29.2459 24.4988 29.5327C24.2785 29.8195 24.0004 29.9731 23.6649 29.9935C23.3283 30.0048 22.9965 29.8694 22.6699 29.5869C22.3428 29.3046 22.1528 28.9897 22.1002 28.6418C22.0462 28.2852 22.1295 27.9634 22.3498 27.6766C22.5701 27.3898 22.8485 27.2407 23.1855 27.2292C23.5206 27.209 23.8521 27.3399 24.1787 27.6224C24.5058 27.9047 24.6961 28.2242 24.7502 28.5809Z" fill="black"></path> <path d="M28.5117 19.5215L30.3548 25.1766C30.5658 25.781 30.6307 26.281 30.5498 26.6766C30.4726 27.0687 30.273 27.408 29.9498 27.6952C29.7737 27.8518 29.574 27.9739 29.3511 28.0615C29.1278 28.1492 28.9167 28.1837 28.717 28.1652L28.4201 27.0113C28.5585 27.0245 28.6939 27.0107 28.8255 26.9702C28.9618 26.9258 29.0781 26.8608 29.1745 26.775C29.3087 26.6558 29.3864 26.5186 29.4073 26.3638C29.4318 26.2142 29.4069 26.0191 29.3323 25.7789L29.3154 25.7301L24.6494 22.9548L25.6621 22.0545L28.7674 23.9565L27.5684 20.3601L28.5117 19.5215Z" fill="black"></path> <path d="M34.3745 17.8108L32.1954 19.0805L34.0417 22.2266L32.818 22.9396L30.3951 18.8114L33.7981 16.8286L34.3745 17.8108Z" fill="black"></path> <path fill-rule="evenodd" clip-rule="evenodd" d="M39.1227 14.9366C38.6093 14.7613 37.985 14.8155 37.25 15.0992C36.8678 15.2467 36.5112 15.4373 36.1805 15.6708C35.8556 15.902 35.5947 16.1521 35.3977 16.4212L36.217 17.1226C36.3418 16.9313 36.5118 16.7537 36.727 16.5897C36.9461 16.4179 37.1821 16.2833 37.435 16.1857C37.7995 16.0449 38.1008 16.0158 38.3389 16.0982C38.5749 16.1752 38.7437 16.3528 38.8452 16.6311L37.7514 17.0533C37.0575 17.3211 36.5858 17.6371 36.3362 18.0011C36.0925 18.3628 36.0452 18.7483 36.1945 19.1576C36.2881 19.414 36.4423 19.616 36.657 19.7634C36.8718 19.9108 37.1324 19.9908 37.4388 20.0032C37.7511 20.0134 38.0896 19.9481 38.4541 19.8074C39.1598 19.535 39.5673 19.1442 39.6768 18.6351L39.8769 19.1835L41.1646 18.6864L40.2481 16.1736C40.0093 15.5188 39.6341 15.1065 39.1227 14.9366ZM39.0572 18.4261C38.9107 18.5946 38.7199 18.7244 38.4847 18.8152C38.2435 18.9082 38.0355 18.9356 37.8605 18.8973C37.6895 18.8513 37.5741 18.7465 37.5144 18.5828C37.389 18.239 37.6085 17.9581 38.1731 17.7402L39.1169 17.3759L39.2811 17.8261C39.2763 18.052 39.2017 18.252 39.0572 18.4261Z" fill="black"></path> <path fill-rule="evenodd" clip-rule="evenodd" d="M45.3703 13.5024C44.8934 13.1879 44.2816 13.0904 43.535 13.21C43.1467 13.2722 42.7783 13.3866 42.4297 13.5532C42.0871 13.7189 41.8042 13.9206 41.5811 14.1583L42.292 15.1098C42.4358 14.9369 42.6218 14.7898 42.8501 14.6685C43.0831 14.54 43.3279 14.4551 43.5848 14.414C43.9551 14.3546 44.2508 14.3985 44.4718 14.5456C44.6915 14.6863 44.834 14.9176 44.8992 15.2394L43.7882 15.4174C43.0834 15.5303 42.5883 15.7497 42.3028 16.0756C42.0234 16.4006 41.9316 16.7997 42.0276 17.2731C42.0877 17.5697 42.2131 17.8232 42.4038 18.0338C42.5945 18.2443 42.8377 18.3943 43.1333 18.4838C43.435 18.5723 43.7709 18.5868 44.1413 18.5275C44.858 18.4127 45.2999 18.0976 45.4667 17.5822L45.5953 18.2164L46.9034 18.0068L46.3142 15.1007C46.1607 14.3434 45.846 13.8106 45.3703 13.5024ZM44.8908 17.2053C44.7286 17.3486 44.5281 17.4393 44.2892 17.4776C44.0443 17.5168 43.8393 17.4943 43.6742 17.41C43.5138 17.3184 43.4144 17.1779 43.376 16.9886C43.2954 16.591 43.5418 16.3463 44.1152 16.2544L45.0739 16.1009L45.1794 16.6215C45.1478 16.8612 45.0516 17.0557 44.8908 17.2053Z" fill="black"></path> <path fill-rule="evenodd" clip-rule="evenodd" d="M51.956 12.9066C51.5556 12.5352 50.9894 12.3415 50.2574 12.3254C49.8768 12.3171 49.5061 12.3603 49.1453 12.4551C48.7904 12.55 48.4862 12.6884 48.2326 12.8702L48.7464 13.8696C48.9131 13.7343 49.1157 13.63 49.354 13.5566C49.5981 13.4774 49.846 13.4405 50.0978 13.4461C50.4609 13.454 50.7351 13.5447 50.9203 13.718C51.1055 13.8852 51.2015 14.123 51.2083 14.4314L50.1191 14.4074C49.4281 14.3923 48.9186 14.511 48.5906 14.7637C48.2684 15.0165 48.1123 15.3697 48.1223 15.8231C48.1286 16.1074 48.2045 16.3628 48.35 16.5896C48.4955 16.8165 48.7014 16.9962 48.9677 17.129C49.2399 17.2619 49.5575 17.3323 49.9206 17.3403C50.6233 17.3557 51.0984 17.1395 51.3461 16.6917L51.3595 17.2994L52.6419 17.3275L52.5804 14.5431C52.5643 13.8175 52.3562 13.272 51.956 12.9066ZM50.8621 16.2459C50.683 16.3508 50.4763 16.4006 50.2421 16.3955C50.002 16.3902 49.8105 16.3347 49.6677 16.2288C49.5306 16.117 49.4601 15.9704 49.4561 15.789C49.4476 15.408 49.7245 15.2237 50.2867 15.2361L51.2266 15.2567L51.2376 15.7556C51.1662 15.9716 51.0411 16.135 50.8621 16.2459Z" fill="black"></path> <path d="M54.4399 13.0446L55.8412 13.316L55.4764 15.216L57.5921 15.6257L57.9569 13.7257L59.3674 13.9988L58.4327 18.8664L57.0222 18.5933L57.3714 16.7747L55.2558 16.3651L54.9066 18.1836L53.5051 17.9123L54.4399 13.0446Z" fill="black"></path> <path fill-rule="evenodd" clip-rule="evenodd" d="M67.4899 24.3527L68.486 22.3047L67.8462 21.9468L69.52 18.5054L65.6226 16.3255L64.8051 17.8541C64.4862 18.4374 64.1951 18.8618 63.932 19.1275C63.6689 19.3932 63.3975 19.4514 63.1177 19.302L62.9349 19.1998L61.9388 21.2478L63.1437 21.9218L63.6173 20.9481L66.7585 22.7051L66.2849 23.6787L67.4899 24.3527ZM65.2768 19.6661C65.4737 19.4062 65.6921 19.0514 65.9319 18.6018L66.2385 18.0366L67.7011 18.8547L66.5498 21.2216L64.6634 20.1666C64.881 20.0961 65.0854 19.9292 65.2768 19.6661Z" fill="black"></path> <path fill-rule="evenodd" clip-rule="evenodd" d="M74.9463 22.5769C74.8001 22.1847 74.5477 21.8509 74.1892 21.5755C73.6586 21.168 73.1093 21.0259 72.5414 21.1495L72.9276 20.7024L71.8592 19.8818L67.2997 25.16L68.4183 26.0192L69.9817 24.2093C69.9938 24.7384 70.246 25.1921 70.7384 25.5702C71.0969 25.8456 71.4925 26.0136 71.9253 26.0741C72.367 26.1335 72.8003 26.0784 73.225 25.9089C73.6539 25.7346 74.0407 25.4479 74.3854 25.0489C74.7301 24.6499 74.9474 24.2372 75.0376 23.8106C75.1319 23.3792 75.1015 22.968 74.9463 22.5769ZM72.2939 24.7499C71.9462 24.8027 71.6289 24.7189 71.3421 24.4986C71.0553 24.2783 70.9017 24.0004 70.8814 23.6649C70.87 23.3283 71.0055 22.9965 71.2878 22.6696C71.5702 22.3428 71.8853 22.1529 72.233 22.1002C72.5897 22.0463 72.9115 22.1295 73.1983 22.3498C73.4851 22.5701 73.6342 22.8485 73.6456 23.1852C73.6659 23.5206 73.5349 23.8518 73.2525 24.1787C72.9701 24.5056 72.6506 24.696 72.2939 24.7499Z" fill="black"></path> <path d="M80.8989 27.621L75.2437 29.464C74.6392 29.675 74.1392 29.7399 73.7435 29.6589C73.3516 29.582 73.0122 29.3821 72.7251 29.0592C72.5685 28.883 72.4465 28.6834 72.3588 28.4603C72.2712 28.2372 72.2366 28.0259 72.2551 27.8263L73.409 27.5294C73.3958 27.6679 73.4096 27.8031 73.4502 27.935C73.4945 28.071 73.5595 28.1873 73.6453 28.2837C73.7645 28.4179 73.9016 28.4955 74.0564 28.5164C74.2062 28.5412 74.4012 28.5163 74.6415 28.4417L74.6902 28.4248L77.4656 23.7588L78.3658 24.7715L76.4638 27.8766L80.0601 26.6775L80.8989 27.621Z" fill="black"></path> <path d="M82.6097 33.4834L81.3399 31.3042L78.1938 33.1505L77.4807 31.9267L81.609 29.504L83.5919 32.907L82.6097 33.4834Z" fill="black"></path> <path fill-rule="evenodd" clip-rule="evenodd" d="M85.4841 38.2318C85.6596 37.7186 85.6052 37.0941 85.3216 36.3593C85.174 35.977 84.9835 35.6205 84.75 35.2898C84.5188 34.9649 84.2687 34.704 83.9997 34.5069L83.2981 35.3263C83.4895 35.4511 83.6671 35.6211 83.8312 35.8363C84.0029 36.0554 84.1375 36.2914 84.2352 36.5443C84.3759 36.9088 84.4051 37.2102 84.3226 37.4482C84.2457 37.6844 84.068 37.853 83.7897 37.9544L83.3675 36.8607C83.0997 36.1668 82.7838 35.6951 82.4197 35.4455C82.058 35.2018 81.6725 35.1546 81.2632 35.3038C81.0068 35.3974 80.8048 35.5515 80.6574 35.7663C80.51 35.9811 80.4301 36.2417 80.4176 36.5481C80.4074 36.8604 80.4727 37.1988 80.6134 37.5634C80.8858 38.2691 81.2765 38.6766 81.7856 38.786L81.2373 38.9862L81.7345 40.2741L84.2473 39.3575C84.902 39.1185 85.3143 38.7432 85.4841 38.2318ZM81.9947 38.1665C81.8261 38.02 81.6964 37.8291 81.6056 37.5939C81.5126 37.3529 81.4852 37.1448 81.5235 36.9699C81.5695 36.7988 81.6744 36.6834 81.838 36.6237C82.1818 36.4983 82.4627 36.7178 82.6805 37.2824L83.0449 38.2261L82.5946 38.3902C82.3688 38.3858 82.1687 38.3109 81.9947 38.1665Z" fill="black"></path> <path fill-rule="evenodd" clip-rule="evenodd" d="M86.9184 44.4797C87.233 44.0028 87.3305 43.3911 87.2108 42.6442C87.1486 42.2561 87.0342 41.8875 86.8675 41.5389C86.7019 41.1963 86.5003 40.9136 86.2625 40.6903L85.311 41.4012C85.484 41.5452 85.6311 41.7313 85.7523 41.9594C85.8809 42.1923 85.9658 42.4374 86.0069 42.6941C86.0663 43.0645 86.0223 43.3601 85.8753 43.5812C85.7347 43.801 85.5033 43.9432 85.1815 44.0086L85.0034 42.8974C84.8905 42.1926 84.671 41.6974 84.3452 41.4122C84.0202 41.1326 83.6212 41.0411 83.1479 41.137C82.8513 41.1971 82.5976 41.3223 82.3871 41.5131C82.1766 41.7038 82.0266 41.9471 81.9371 42.2426C81.8485 42.5442 81.834 42.8804 81.8934 43.2508C82.0081 43.9673 82.3232 44.4092 82.8387 44.576L82.2044 44.7045L82.4141 46.013L85.3202 45.4236C86.0774 45.2699 86.6102 44.9554 86.9184 44.4797ZM83.2156 44.0001C83.0722 43.8379 82.9814 43.6373 82.9433 43.3987C82.9041 43.1537 82.9265 42.9485 83.0109 42.7836C83.1025 42.6231 83.2429 42.5237 83.4323 42.4854C83.8299 42.4047 84.0747 42.6513 84.1665 43.2247L84.3201 44.1834L83.7994 44.2888C83.5597 44.2572 83.3652 44.1611 83.2156 44.0001Z" fill="black"></path> <path fill-rule="evenodd" clip-rule="evenodd" d="M87.5137 51.0654C87.8852 50.6651 88.079 50.099 88.0949 49.3667C88.1034 48.9862 88.0601 48.6155 87.9652 48.2545C87.8703 47.8998 87.732 47.5956 87.55 47.3418L86.5508 47.8558C86.686 48.0223 86.7904 48.225 86.8638 48.4634C86.9431 48.7076 86.9799 48.9554 86.9743 49.2072C86.9664 49.5704 86.8758 49.8446 86.7025 50.0299C86.5353 50.215 86.2974 50.3109 85.9889 50.3175L86.0128 49.2283C86.028 48.5374 85.9093 48.0278 85.6567 47.6998C85.4039 47.3779 85.0507 47.2216 84.5971 47.2315C84.313 47.2378 84.0576 47.3139 83.8307 47.4592C83.6038 47.6046 83.4241 47.8106 83.2914 48.0771C83.1584 48.349 83.0879 48.6666 83.08 49.0298C83.0646 49.7325 83.2808 50.2076 83.7287 50.4555L83.121 50.4689L83.0928 51.7512L85.8772 51.6896C86.6029 51.6737 87.1483 51.4655 87.5137 51.0654ZM84.1745 49.9716C84.0695 49.7921 84.0197 49.5856 84.0249 49.3514C84.0302 49.1114 84.0857 48.9199 84.1917 48.7772C84.3033 48.6399 84.4501 48.5695 84.6314 48.5653C85.0123 48.5569 85.1966 48.8338 85.1843 49.3961L85.1637 50.3359L84.6648 50.3469C84.4488 50.2757 84.2853 50.1505 84.1745 49.9716Z" fill="black"></path> <path d="M87.8296 54.4406L87.5581 55.8418L85.6581 55.4769L85.2486 57.5929L87.1485 57.9574L86.8754 59.3681L82.0077 58.4333L82.2809 57.023L84.0995 57.3722L84.5092 55.2565L82.6905 54.907L82.962 53.5058L87.8296 54.4406Z" fill="black"></path> </svg> 