<?xml version="1.0" encoding="UTF-8"?> <svg xmlns="http://www.w3.org/2000/svg" width="97" height="74" viewBox="0 0 97 74" fill="none"> <path d="M2.68802 57.5845C2.52036 54.1041 16.1212 50.6378 33.0664 49.8424C50.0116 49.047 63.8842 51.2236 64.0519 54.704C64.2196 58.1844 50.6187 61.6507 33.6735 62.4461C16.7284 63.2415 2.85568 61.0649 2.68802 57.5845Z" fill="#E3E3E3"></path> <g clip-path="url(#clip0)"> <path d="M3.9375 12.1421H19.6874V58.6422L3.9375 54.7671V12.1421Z" fill="#EDBC7C"></path> <path d="M57.0938 12.1421H19.6875V58.6422L57.0938 56.7046V12.1421Z" fill="#D4A263"></path> <path d="M63 27.642H23.625L19.6875 12.1421H57.0938L63 27.642Z" fill="#F4D0A1"></path> <path d="M49.2197 12.1417H10.3467C10.9334 9.281 13.5084 7.12257 16.5945 7.12257C18.0858 7.12257 19.4502 7.64957 20.534 8.50298C21.0823 5.57926 23.6712 3.35791 26.7937 3.35791C29.6622 3.35791 32.072 5.24024 32.8624 7.8122C35.5616 6.48312 38.498 7.16412 40.3859 9.14231C43.7633 7.33769 47.755 8.89051 49.2197 12.1417Z" fill="white"></path> <path d="M45.5088 31.1362L41.6934 35.6273L43.6159 35.6642V46.6953L47.3781 46.61V35.7359L49.2199 35.7727L45.5088 31.1362Z" fill="#A97A45"></path> <path d="M33.707 30.7021L29.5312 35.3919L31.635 35.4325V46.9694L35.7467 46.8754V35.5119L37.7578 35.5508L33.707 30.7021Z" fill="#A97A45"></path> <path d="M47.3768 50.2334L31.6348 50.8147V48.8927L47.3768 48.4229V50.2334Z" fill="#A97A45"></path> <path d="M3.93755 12.1421H19.6875L15.7501 27.642L0 26.6733L3.93755 12.1421Z" fill="#F8E1C2"></path> </g> <g clip-path="url(#clip1)"> <path d="M46.1572 68.75C45.9875 65.2585 57.2305 61.8989 71.2693 61.2461C85.3081 60.5933 96.8265 62.8946 96.9963 66.3861C97.1661 69.8776 85.923 73.2372 71.8842 73.89C57.8454 74.5428 46.327 72.2415 46.1572 68.75Z" fill="#E3E3E3"></path> <path d="M35.9837 31.419L36.2185 31.1146L36.6459 31.3581L36.7647 30.7161L37.1638 30.8877L37.2855 30.2152L37.676 30.3646L38.1203 30.6884L38.3495 30.3397L38.6863 30.3314L38.8703 29.8112L39.1137 29.4874L39.4674 29.5317L40.0249 30.2982L40.1126 29.4154L40.4664 29.4735L40.8541 29.659L41.106 29.349L41.5644 29.7946L41.9154 29.8499L42.0342 29.0446L42.2946 28.7651L42.7927 29.3601L43.087 29.2051L43.2342 28.5188L43.7237 29.0778L43.8879 28.4524L44.2218 28.4413L44.5133 28.2919L44.9293 28.5686L45.2293 28.4358L45.6963 28.8813L45.7387 27.874L46.2283 28.386L46.6273 28.5769L46.7009 27.7218L47.0179 27.6582L47.3235 27.553L47.6546 27.5281L48.1697 28.0345L48.4952 27.9764L48.7329 27.6692L49.0555 27.6056L49.3696 27.5143L49.3781 26.6287L50.0262 27.398V26.5208L50.3686 26.5125L50.5356 26.078L51.0252 26.4101L51.594 26.8889L51.6817 26.2911L51.8685 25.9258L52.01 25.4747L52.7713 26.2966L52.9496 25.9231L52.9581 25.2285L53.6288 25.8124L53.841 25.5135L54.0505 25.2201L54.5061 25.3668L54.591 24.8576L54.7636 24.5145L55.024 24.3235L55.5164 24.5062L55.9437 24.5754L56.057 24.1437H56.4475L56.2211 23.2249L56.7843 23.4823L56.8918 23.0699L57.4069 23.2387L57.472 22.7766L57.9757 22.8126L57.8455 22.4085L58.3606 22.1788L58.3719 21.8634L58.1908 21.5036L58.3719 21.2213L58.4511 20.9142L57.8087 20.4105L58.6634 20.3192L58.7794 20.0259L58.6719 19.6606L58.3776 19.2178L58.4851 18.9106L58.6125 18.6117L59.603 18.6643L58.853 18.0057L59.2549 17.8286L59.9058 17.7788L59.5011 17.2336L59.2719 16.7549L59.6143 16.5639L60.036 16.4256L59.7784 15.9025L60.2086 15.778L60.1775 15.3767L60.4661 15.1692L60.6133 14.8758L61.1482 14.8509L61.2359 14.5161L61.7877 14.5327L61.734 14.0872L62.283 14.1204L61.9858 13.4562L62.6735 13.6278L62.5547 13.0937L62.4188 12.5236L62.9169 12.5485L63.5452 12.7201L63.8367 12.5706L63.4942 11.7321L64.2046 12.0366L64.1508 11.4859L64.731 11.6796L64.5187 10.9019L64.7394 10.6474L65.28 10.8272L65.2573 10.2322L65.6479 10.2184L66.1516 10.3872L66.661 10.5975L66.528 9.76734L67.0346 9.98596L67.1534 9.54318L67.7138 9.9057L67.6147 9.00909L67.8638 8.76833L68.3845 9.10318L68.4836 8.52204L68.7467 8.29511L69.3835 8.99248L69.5731 8.59399L69.8306 8.356L70.1136 8.16505L70.6061 8.63826L70.7872 8.13461L70.9768 7.59498L71.523 8.38367L71.6985 7.73888L72.1201 8.13461L72.4569 8.20102L72.7625 8.0931L72.9606 7.33208L73.3908 8.00731L73.7049 7.95196L73.9455 7.17434L74.3021 7.43724L74.6388 7.57284L74.9869 8.09587L75.2699 7.02767L75.6124 7.96857L75.9322 7.44831L76.2463 7.9575L76.6029 7L76.883 7.91045L77.2481 7.31271L77.5028 8.10417L77.9018 7.38466L78.2018 7.62819L78.5556 7.45938L78.8329 7.78869L79.232 7.40957L79.3989 8.24807L79.764 8.06266L80.0555 8.23423L80.4828 7.86341L80.647 8.48606L81.0998 8.08203L81.2979 8.54141L81.8554 7.88832L81.8158 8.98972L82.3365 8.50543L82.4044 9.21387L82.8572 8.94544L83.3864 8.54417L83.4062 9.29136L83.859 9.09487L84.2241 9.09211L84.2524 9.7452L84.7788 9.44909L84.7844 10.0967L85.2429 9.94721L85.2684 10.5201L85.7042 10.4287L86.3664 10.0053L86.5589 10.3153L86.8475 10.4758L87.1164 10.6667L86.8645 11.5357L87.4843 11.2617L87.8663 11.3087L88.2003 11.425L88.3927 11.7045L88.5682 11.9978L88.6135 12.424L88.6984 12.7976L89.1738 12.7754L89.5615 12.8502L89.3577 13.4839L90.1671 13.1822L89.5757 14.1342L90.6058 13.6776L89.9888 14.5991L90.9086 14.2753L90.9171 14.6794L90.6199 15.2937L91.435 15.1028L91.0048 15.7863L91.0727 16.1156L91.602 16.146L91.6444 16.4947L92.2302 16.5113L91.7831 17.1368L92.8585 16.9015L92.8868 17.2585L92.833 17.6487L93.1075 17.8729L93.5179 18.0334L93.6424 18.3322L93.4783 18.7556L92.9971 19.298L93.3537 19.489L94.0216 19.5748L94.0669 19.8986L94.265 20.1698L93.5971 20.7205L94.3244 20.8256L93.849 21.2905L94.7206 21.3791L94.8508 21.6807L94.1546 22.1733L94.9357 22.3255L94.5055 22.7351L94.2395 23.1004L94.9272 23.3052L95.1678 23.5957L94.7546 23.9693L94.4008 24.3235L95.0546 24.5754L94.6669 24.9213L95.2215 25.2063L94.3612 25.555L95.4395 25.8456L94.3442 26.1638L94.565 26.4738L95.2272 26.8114L95.2159 27.1296L94.514 27.398L95.2074 27.7744L95.2725 28.1065L94.3131 28.3057L94.7291 28.6793L94.8225 29.0142L93.9877 29.266L94.3923 29.6202L94.3584 29.9385L94.9951 30.2014L94.8593 30.5307L94.7235 30.86L95.1763 31.1533L94.7687 31.4909L94.9923 31.8009L95.0433 32.1191L94.3527 32.4457L94.6103 32.7584L95.2272 33.0766L94.7659 33.3893L94.981 33.7131L94.6697 34.0203L94.4008 34.3219L95.1876 34.6844L94.3895 34.9473L94.1914 35.2434L94.6697 35.6032L94.4008 35.8938L94.7376 36.2508L94.6753 36.5635L94.4772 36.8568L94.5055 37.1806L94.5763 37.5154L94.1631 37.7645L94.231 38.0966L94.1122 38.3954L94.3952 38.7829L93.9763 39.0126L93.9877 39.3419L94.1603 39.7127L94.0726 40.0226L93.5603 40.208L93.9707 40.6619L93.8009 40.9442L93.8263 41.2928L93.532 41.5308L92.7934 41.6056L93.5235 42.2116L93.2575 42.4551L93.3424 42.837L92.5104 42.8398L93.0283 43.4099L92.8585 43.6866L91.8057 43.5482L92.0236 43.9993L91.6501 44.1653L91.6529 44.5196L91.5708 44.8323L91.4661 45.1367L91.1944 45.3442L91.701 46.0084L91.5454 46.2962L91.3218 46.5397L90.4218 46.3488L90.6737 46.8912L90.6228 47.2454L90.1219 47.2869L89.4908 47.2232L89.6662 47.7435L89.1823 47.7712L89.1936 48.1752L88.9672 48.3994L89.321 49.1023L89.0719 49.3154L88.4663 49.2213L88.3871 49.5755L88.2399 49.8744L88.0616 50.1511L87.2296 49.7969L87.6597 50.6603L86.9183 50.3697L87.3484 51.2719L87.0286 51.4047L86.706 51.5375L85.8683 51.0864L86.3155 52.0744L85.6363 51.7811L85.1269 51.6648L85.1467 52.1851L85.025 52.5448L84.7363 52.6943L84.2043 52.5255L84.1166 52.9378L83.6213 52.7939L83.7571 53.5328L83.4657 53.6767L82.9619 53.5051L82.5685 53.4802L82.7836 54.4045L82.1667 54.0254L82.0082 54.3796L81.5752 54.2744L81.4252 54.6508L81.3941 55.2458L81.0601 55.3122L80.862 55.6304L80.2253 55.1185L79.9564 55.29L79.7866 55.6636L79.6112 56.0428L79.2206 55.9791L78.6858 55.5806L78.3943 55.7024L78.3405 56.3804L77.7915 55.9044L77.5283 56.0981L77.3924 56.6156L77.166 56.9255L76.7981 56.8591L76.5746 57.1912L76.2435 57.2244L75.7171 56.682L75.6293 57.4347L75.1596 57.0252L74.8001 56.9421L74.6219 57.4569L74.3728 57.7502L73.9342 57.3766L73.7955 58.1072L73.3936 57.8415L73.0795 57.9079L72.8418 58.312L72.4965 58.2622L72.0862 57.883L71.7975 58.0795L71.6164 58.8239L71.2202 58.4918L70.906 58.5693L70.5098 58.1708L70.2297 58.4365L69.9325 58.6357L69.675 59.1477L69.3099 58.882L68.9109 58.2732L68.6392 58.7326L68.3053 58.6247L67.9742 58.5417L67.6345 58.3037L67.3431 58.7271L67.0459 59.156L66.7148 59.0702L66.3667 58.5112L66.0639 59.0315L65.7413 59.1781L65.4158 59.228L65.0904 58.5084L64.7706 58.3369L64.4366 59.2695L64.1168 58.99L63.8055 58.6939L63.4999 58.3452L63.1858 58.2622L62.8235 58.9125L62.5179 58.6551L62.167 58.9734L61.8217 59.1698L61.5444 58.6883L61.2812 58.1736L60.9302 58.3922L60.5454 58.8516L60.2765 58.4448L59.8831 58.8571L59.5605 58.8073L59.2888 58.4835L58.8841 58.871L58.7341 57.9577L58.2304 58.7879L58.0153 58.2428L57.7465 57.9771L57.4918 57.6699L56.9512 58.478L56.6767 58.2372L56.4701 57.7613L56.2466 57.3821L55.9183 57.3655L55.6975 57.0058L55.3976 56.9062L54.7438 57.8388L54.707 56.9615L54.1382 57.5842L53.8326 57.4624L53.8863 56.4329L53.5297 56.4689L53.326 56.1313L52.8562 56.4219L52.6524 56.0926L52.4459 55.7854L51.9025 56.1922L51.6082 56.0594L51.5119 55.5391L50.895 56.0317L50.912 55.3122L50.2894 55.7799L50.2696 55.1572L50.1847 54.6757L49.5536 55.1074L49.4319 54.6923L49.3442 54.2357L48.9763 54.2274L48.4272 54.4681L48.5716 53.6988L48.2829 53.5632L48.0763 53.3114L47.632 53.3778L46.8849 53.8178L47.2132 52.888L46.4972 53.2588L46.2991 52.9904L46.2142 52.5946L45.8434 52.5282L45.75 52.1546L45.6623 51.7838L45.3227 51.6787L45.3935 51.1584L44.6718 51.4241L44.7624 50.8955L44.6407 50.58L44.1511 50.5939L44.3463 50.0044L43.5115 50.3005L43.0898 50.2286L43.6954 49.332L43.07 49.4205L42.6795 49.3154L42.4814 49.0608L42.654 48.546L41.8814 48.6899L42.3682 47.9787L41.7965 47.9704L41.9182 47.5194L41.7201 47.2675L41.1796 47.2177L41.6663 46.5729L40.9192 46.6283L41.1513 46.1412L40.69 46.025L40.2768 45.8728L40.8513 45.2391L40.1042 45.2418L40.6673 44.6358L40.1466 44.5223L39.8778 44.2926L40.1098 43.8554L39.7164 43.6728L39.4957 43.4154L39.207 43.1802L39.7561 42.6544L39.7221 42.3361L39.3967 42.1147L38.8391 41.9542L38.6269 41.683L38.5109 41.3814L38.5873 41.0299L39.0542 40.5844L38.9608 40.2855L38.8901 39.9784L38.6524 39.7099L38.8476 39.3502L38.9297 39.0153L38.3099 38.8105L38.774 38.412L38.409 38.1547L37.7213 37.9361L38.3099 37.5348L38.0411 37.2498L38.5505 36.8762L38.0665 36.6105L38.3099 36.2729L38.0128 35.9823L38.3807 35.6392L38.409 35.3265L37.3647 35.0663L38.1882 34.7093L38.1316 34.3994L38.3835 34.0784L38.2279 33.5471L37.5458 33.6633L37.3817 33.3035L36.7223 33.6799L36.8977 32.8857L36.6119 32.7362L36.1138 32.7888L36.0204 32.4152L35.9129 32.0831L35.6525 31.8811L34.9988 31.6044L36.0063 31.5767L35.9837 31.419Z" fill="#FCEE21"></path> <path d="M40.3439 33.5939L40.4487 33.2342L40.4458 33.2674L40.4854 32.9298C40.5477 32.7056 40.8279 32.8108 40.8364 32.9381L40.8279 33.2757V33.2895L40.8251 33.3034L40.7656 33.6133L40.859 33.7987L41.176 33.9647L41.292 34.0256L41.2637 34.1502L41.1986 34.449L41.3571 34.6372L41.3684 34.651L41.3769 34.6676L41.5127 34.9222L41.7391 35.1353L41.7533 35.1492L41.7646 35.163L41.9429 35.4259L41.9797 35.4785L41.9712 35.5421L41.9231 35.8825L42.1552 36.3917L42.3646 36.5882L42.6165 36.7653L42.9617 36.8898L43.0919 36.9369L43.0749 37.0725L43.041 37.3409L43.3013 37.3935L43.4456 37.4239L43.44 37.5678L43.4287 37.8556L43.6579 37.9414L43.7739 37.9857L43.7711 38.1074L43.7598 38.4478L43.9154 38.5724L44.2607 38.6415L44.388 38.6664L44.3994 38.7937L44.4277 39.1037L44.6427 39.2116L44.9512 39.3444L44.9654 39.35L44.9767 39.3583L45.2455 39.5354L45.2682 39.552L45.2852 39.5741L45.4804 39.8232L45.6644 40.028L45.9361 40.1331L46.021 40.1663L46.0408 40.2549L46.1087 40.5538L46.3436 40.6064L46.3917 40.6174L46.4285 40.6506L46.6153 40.8305L46.9237 40.8388L47.0086 40.8416L47.0596 40.908L47.2435 41.1488L47.4699 41.2705L47.7756 41.3286L47.8463 41.3425L47.8859 41.4033L48.0416 41.633L48.3048 41.6524H48.3161L48.3274 41.6552L48.65 41.7188L48.667 41.7216L48.684 41.7271L48.9783 41.8489L49.0293 41.8683L49.0576 41.9125L49.1962 42.1229L49.4623 42.0343L49.5217 42.0149L49.5783 42.0343C49.7311 42.0896 49.8839 42.1367 50.0368 42.2031C50.1839 42.2612 50.3226 42.3276 50.4641 42.3913L50.7584 42.4577L50.832 42.4743L50.8716 42.538L51.0046 42.7566L51.2508 42.5739L51.3018 42.5352L51.3669 42.538L51.6867 42.5573L51.7829 42.5629L51.8282 42.6459L52.0036 42.9669L52.2102 42.9005L52.2385 42.8922H52.2696L52.5866 42.9005L52.9036 42.8783L52.98 42.8728L53.0366 42.9254L53.2262 43.1025L53.4498 42.9309L53.5064 42.8894L53.5771 42.8977L53.8969 42.9281L53.945 42.9337L53.9846 42.9641L54.2224 43.1412L54.4516 43.0416L54.4884 43.025L54.528 43.0278L54.794 43.0388L55.0572 42.8673L55.0883 42.8479L55.1251 42.8424L55.4393 42.787L55.4845 42.7787L55.527 42.7925L55.7987 42.8839L56.0449 42.787L56.1185 42.7593L56.1892 42.7953L56.5062 42.9531L56.7779 42.9586C56.976 42.9115 57.1769 42.8673 57.3778 42.8285L57.6665 42.7012L57.9636 42.5878L58.2381 42.43L58.2551 42.419L58.2749 42.4134L58.5438 42.3304L58.7702 42.1256L58.8098 42.0896L58.8664 42.0813L59.1919 42.0398L59.2315 42.0343L59.2683 42.0454L59.4918 42.1146L59.5739 41.7852L59.5966 41.6911L59.6928 41.6635L59.9984 41.5722L60.038 41.5611L60.0805 41.5694L60.4342 41.6303L60.6493 41.5722L60.8021 41.3148L60.8616 41.2152L60.9776 41.2318L61.2323 41.2677L61.3031 40.991L61.3314 40.8803L61.4474 40.8637L61.7842 40.8167L61.9964 40.7475L62.07 40.4348L62.1011 40.2964L62.2454 40.3019L62.6615 40.3158C62.803 40.3213 62.8624 40.6285 62.6501 40.6589L62.4181 40.6672L62.3756 40.9329L62.3586 41.0464L62.22 41.1017C62.1153 41.1432 62.0106 41.1875 61.9058 41.2262L61.8974 41.229L61.8606 41.2373L61.7106 41.265L61.6568 41.5306L61.6087 41.7797L61.3172 41.752L61.1417 41.7354L61.0625 41.8849L61.0059 41.9928L60.8502 42.0426L60.5333 42.145L60.4739 42.1644L60.372 42.1533L60.0946 42.1229L60.0352 42.4328L59.9531 42.87L59.4749 42.74L59.1834 42.6597L59.107 42.6736L58.9513 42.8258L58.889 42.8866L58.7674 42.9281L58.5353 43.0084L58.2863 43.1634L58.2693 43.1744L58.2127 43.1993L57.924 43.3211L57.6438 43.4595L57.6042 43.4789L57.5306 43.4955C57.324 43.5425 57.1175 43.5923 56.9109 43.6477L56.8628 43.6615H56.7779L56.4467 43.6643L56.3335 43.667L56.2005 43.6061L56.093 43.5563L56.0137 43.5895L55.8298 43.667L55.6062 43.5978L55.4336 43.5453L55.394 43.5536L55.1789 43.703L55.0289 43.8054L54.8138 43.8026L54.6469 43.7999L54.4459 43.8912L54.1176 44.0406L53.8092 43.8165L53.7073 43.7417L53.6111 43.8165L53.1866 44.1541L52.7649 43.7777L52.68 43.703L52.6291 43.7085L52.6092 43.7113H52.5668H52.3687L52.1196 43.7943L51.5961 43.9714L51.3527 43.537L50.7584 43.9825L50.3622 43.3405L50.2801 43.2076L50.249 43.2021L50.1811 43.1883L50.1103 43.1551L49.9009 43.061C49.8302 43.0278 49.7651 43.0029 49.6972 42.9752C49.6349 42.9503 49.5783 42.9254 49.5132 42.9032L49.3434 42.9614L48.834 43.1357L48.534 42.6902L48.4406 42.549L48.4038 42.5352L48.1888 42.4909L47.8888 42.4688L47.5435 42.4411L47.3596 42.1644L47.3143 42.0952L47.2718 42.0869L47.1615 42.0647L47.0709 42.0149L46.7907 41.86L46.6577 41.788L46.5728 41.6773L46.5615 41.6607L46.519 41.6579L46.2474 41.6469L46.0606 41.4642L45.9615 41.3674L45.8115 41.3342L45.3842 41.2373L45.2993 40.8333L45.2823 40.753L45.1521 40.7004L45.0588 40.5925L44.8352 40.3324L44.6824 40.1331L44.5494 40.0418L44.289 39.9228L43.9749 39.7623L43.6522 39.5963L43.6296 39.2919L43.5419 39.2725L43.4428 39.1895L43.1938 38.9764L42.9589 38.7744L42.9759 38.5087L42.9787 38.47L42.6391 38.3316L42.6674 37.9774L42.2203 37.8695L42.3023 37.4073L42.3108 37.3603L42.2655 37.3409L42.2316 37.3132L41.9599 37.1029L41.9146 37.0669L41.9089 37.0586L41.6769 36.8206L41.5976 36.7404L41.5722 36.6767L41.3345 36.0762L41.2807 35.9406L41.3005 35.8438L41.3543 35.5809L41.292 35.4729L41.1081 35.2737L41.0515 35.2128L41.0373 35.1824L40.9128 34.9029L40.7515 34.6815L40.6496 34.5403L40.6864 34.4158L40.7402 34.2304L40.5902 34.1391L40.5024 34.0865L40.477 34.0256C40.4345 33.9288 40.3949 33.8264 40.3581 33.7268L40.3213 33.6354L40.3439 33.5939Z" fill="#ABA000"></path> <path d="M74.7324 36.7349L74.9758 36.9397L75.0465 37.0006L75.0352 37.0919L74.9956 37.3797L75.1569 37.5679L75.3776 37.8031L75.3861 37.8114L75.3918 37.8197L75.5729 38.0771L75.5842 38.0937L75.5927 38.1131L75.7031 38.4036L75.8163 38.661L76.02 38.8686L76.071 38.9184V38.9903L76.0653 39.2809L76.2578 39.4386L76.2889 39.4635L76.3059 39.4967L76.4219 39.7347L76.6766 39.8869L76.7304 39.9201L76.7502 39.981L76.8436 40.2633L77.0021 40.4764L77.2369 40.6701L77.2794 40.7061L77.2907 40.7614L77.3586 41.0271L77.5794 41.1765L77.585 41.182L77.5907 41.1876L77.8369 41.3896L77.8454 41.3979L77.8539 41.4062L78.0661 41.6331L78.0916 41.6608L78.1029 41.6968L78.1709 41.896L78.2727 41.8822L78.4539 41.7604C78.6067 41.6359 78.7567 41.5086 78.9067 41.3813L79.0934 41.1516L79.1302 41.1046L79.1897 41.0907L79.433 41.0354L79.4132 40.7614L79.4104 40.7061L79.4387 40.659L79.6028 40.3961L79.651 40.3186L79.7443 40.3159L80.0556 40.3048L80.1434 40.302L80.1971 40.3684L80.3217 40.5179L80.3302 40.529L80.3358 40.54L80.4971 40.8057L80.6754 41.0603L80.7094 41.1101L80.7037 41.171L80.6839 41.4256L80.9245 41.5556L80.9754 41.5833L81.0009 41.6331L81.1367 41.9182L81.1537 41.9541V41.9929L81.148 42.2751L81.3376 42.4495L81.3603 42.4716L81.3744 42.4993L81.4961 42.7456L81.7423 42.9255L81.765 42.9421L81.782 42.967L81.9602 43.2271L81.9801 43.2548L81.9857 43.288L82.0423 43.5647L82.2291 43.764L82.2715 43.8082L82.2744 43.8691L82.2942 44.1929L82.4102 44.4392C82.5291 44.6025 82.6479 44.7657 82.764 44.9318C82.9111 45.0757 83.0555 45.2224 83.1941 45.3718L83.3385 45.4825L83.4715 45.3884L83.6384 45.1338L83.6583 45.1034L83.6894 45.084L83.9696 44.9069L83.995 44.8903L84.0233 44.8847L84.2667 44.8266L84.261 44.5139V44.4364L84.3176 44.3839L84.561 44.1652L84.5837 44.1431L84.6148 44.132L84.9346 44.0075L85.1242 43.8442L85.2006 43.5537L85.2233 43.4706L85.3053 43.4374L85.5544 43.3378L85.5572 43.0555V42.9697L85.6279 42.9199L85.9025 42.729L86.0892 42.5602L86.0977 42.2475L86.1006 42.1423L86.1968 42.098L86.4826 41.9624L86.5279 41.8545L86.6156 41.647L86.7967 41.7853L86.9637 41.9154L87.026 41.9652L87.0288 42.0427L87.043 42.3609L87.0996 42.6266L87.2665 42.8286L87.5495 43.003L87.609 43.0417L87.6259 43.1109L87.6288 43.1275L87.6514 43.1053L87.6825 43.0915L87.9174 42.9919L88.0391 42.7428L88.0759 42.6681L88.158 42.6487L88.4665 42.5768L88.6702 42.419L88.8513 42.1866L88.874 42.1561L88.9079 42.1395L89.1541 42.015L89.2617 41.7715L89.406 41.4781L89.4173 41.4532L89.4372 41.4339C89.5702 41.2983 89.7003 41.1599 89.8305 41.0215L89.8673 40.731L89.8786 40.6479L89.9522 40.6064L90.2097 40.457L90.3399 40.2273L90.3512 40.2052L90.3682 40.1886L90.572 39.9949L90.6625 39.743L90.739 39.4414L90.7474 39.4137L90.7644 39.3888L90.9342 39.1314C91.0559 39.0401 91.2993 39.0899 91.2286 39.3169L91.0984 39.5465L91.0418 39.8427L91.0361 39.862L90.9455 40.1664L90.9342 40.2052L90.8889 40.2522L90.7022 40.4515C90.6597 40.5373 90.6173 40.623 90.572 40.7061L90.5409 40.7614L90.4758 40.8029L90.3031 40.9108L90.2805 41.135L90.272 41.2153L90.2069 41.29C90.0824 41.4339 89.955 41.575 89.8249 41.7161L89.7088 41.9735C89.6692 42.0731 89.6296 42.17 89.5871 42.2668L89.5447 42.3692L89.4372 42.4246L89.2051 42.5436L89.0551 42.7373L89.0325 42.765L88.9985 42.7926L88.7495 42.9891L88.6929 43.0334L88.6164 43.0528L88.4325 43.097L88.3533 43.2631L88.3023 43.3738L88.1835 43.4264L87.9542 43.5287L87.7788 43.7086L87.326 44.1708L87.1901 43.5454C87.176 43.4762 87.1618 43.4042 87.1477 43.335C87.0939 43.2935 87.0401 43.252 86.9864 43.2077L86.9128 43.1441L86.7373 42.8591L86.6864 42.7788L86.6835 42.7511L86.6609 42.4218L86.6581 42.3886C86.6637 42.3443 86.6666 42.3 86.6694 42.2558L86.4656 42.3609C86.4656 42.4523 86.4685 42.5463 86.4713 42.6377L86.4741 42.7096L86.4062 42.7816L86.1741 43.0251L86.1515 43.0445L85.9987 43.169L86.0213 43.4596L86.0355 43.6201L85.8402 43.7197L85.6704 43.8055L85.6336 44.0269L85.6223 44.1016L85.5261 44.2012L85.294 44.442L85.2685 44.4669L85.178 44.5112L84.9431 44.6246L84.9091 44.6606C84.9204 44.7574 84.9289 44.8543 84.9346 44.9512L84.9516 45.3081L84.5639 45.4188L84.2922 45.4963C84.2526 45.524 84.2129 45.5489 84.1733 45.5766L84.046 45.7814L83.9979 45.8588L83.9101 45.9197C83.8224 45.9834 83.7347 46.0498 83.6441 46.1107L83.3158 46.3348L83.0158 46.0941L82.764 45.8921L82.7272 45.8616L82.7074 45.8395L82.4951 45.6098C82.4215 45.5351 82.348 45.4631 82.2772 45.3856L82.2291 45.3303L82.2206 45.3164C82.1102 45.1393 81.997 44.9622 81.881 44.7907L81.847 44.7381L81.8357 44.7132C81.7933 44.6163 81.7565 44.5167 81.7197 44.4171L81.6772 44.3064V44.2593L81.6801 44.0158L81.5923 43.9051L81.5046 43.7944L81.4961 43.7169L81.4622 43.4319L81.3716 43.2742L81.1735 43.1026L81.0943 43.0362L81.0745 42.9863L80.9697 42.7207L80.7943 42.5325L80.6981 42.4301L80.7094 42.3333L80.7433 42.0122C80.7207 41.9541 80.6981 41.8988 80.6754 41.8434L80.4179 41.6885L80.299 41.6165L80.3132 41.4975C80.3245 41.3951 80.3386 41.2955 80.35 41.1931L80.2085 40.9856L80.05 40.7171L79.9934 40.6452C79.9538 40.6479 79.917 40.6507 79.8774 40.6535C79.8575 40.6922 79.8377 40.731 79.8179 40.7697C79.8292 40.8251 79.8406 40.8804 79.8547 40.9358L79.9085 41.1433L79.9509 41.3121L79.6906 41.4311L79.501 41.5197C79.4613 41.5999 79.4217 41.6802 79.3764 41.7577L79.3227 41.813C79.2548 41.8933 79.1925 41.979 79.1189 42.051C79.0453 42.1257 78.9774 42.206 78.901 42.2751L78.8614 42.3056C78.7906 42.3609 78.717 42.4135 78.6435 42.4633L78.5501 42.5297L78.4227 42.5491C78.3265 42.5629 78.2303 42.574 78.1369 42.5879L77.6982 42.646L77.5652 42.2419L77.4888 42.0039L77.3756 41.8794L77.1747 41.7106L76.9256 41.539L76.7672 41.4311L76.7219 41.2512C76.7049 41.1903 76.6936 41.1267 76.6794 41.063L76.5634 40.9634L76.5096 40.9164L76.4842 40.8804L76.303 40.623L76.2521 40.5483L76.2351 40.4874L76.187 40.3269C76.1417 40.2993 76.0965 40.2688 76.054 40.2412L75.921 40.1526L75.8757 40.0474L75.7823 39.8288L75.6238 39.6877L75.454 39.5382L75.4654 39.3528L75.4795 39.1287C75.4512 39.0955 75.4201 39.0623 75.3918 39.0291L75.3295 38.9571L75.3125 38.9128L75.1993 38.6084L75.1059 38.3178C75.0635 38.2487 75.0182 38.1795 74.9786 38.1075L75.0069 38.1407L74.8003 37.8778L74.605 37.6066L74.5201 37.4876L74.5428 37.3936L74.5994 37.1417C74.5513 37.0919 74.5032 37.0449 74.455 36.9951L74.4013 36.9369L74.3956 36.912L74.3079 36.591C74.2711 36.3558 74.5796 36.3281 74.6333 36.4665L74.7324 36.7349Z" fill="#ABA000"></path> <path d="M69.0314 24.2458C67.3526 22.6042 67.3526 19.9427 69.0314 18.3011C70.7101 16.6595 73.4319 16.6595 75.1107 18.3011C76.7895 19.9427 76.7895 22.6042 75.1107 24.2458C73.4319 25.8874 70.7101 25.8874 69.0314 24.2458Z" fill="#31332A"></path> <path d="M70.3384 18.6533C70.3384 19.3064 71.1789 19.835 72.2175 19.835C73.2562 19.835 74.0967 19.3064 74.0967 18.6533C74.0967 18.0003 73.2562 17.4717 72.2175 17.4717C71.1789 17.4689 70.3384 18.0003 70.3384 18.6533Z" fill="#636A78"></path> <path d="M91.0108 15.8169L91.0731 16.1186L91.6023 16.149L91.6447 16.4949L92.2305 16.5143L91.7834 17.1397L92.8616 16.9045L92.8871 17.2615L92.8333 17.6544L93.1107 17.8758L93.5182 18.0391L93.6427 18.338L93.4786 18.7614L92.9975 19.301L93.3512 19.4919L94.0219 19.575L94.0644 19.9015L94.2625 20.1727L93.5918 20.7234L94.3191 20.8286L93.8436 21.2935L94.7153 21.3848L94.8455 21.6837L94.1493 22.1763L94.9304 22.3285L94.503 22.738L94.2342 23.1033L94.6502 23.2223C95.6605 22.453 96.3086 21.2547 96.3086 19.907C96.3086 17.5852 94.3842 15.7007 92.007 15.7007C91.6645 15.7007 91.3306 15.7422 91.0108 15.8169Z" fill="#31332A"></path> <path d="M93.0031 16.4477C92.8361 16.7051 93.0965 17.1589 93.5861 17.4633C94.0757 17.7677 94.6077 17.8065 94.7747 17.5491C94.9416 17.2917 94.6813 16.8379 94.1917 16.5335C93.7021 16.2291 93.1701 16.1903 93.0031 16.4477Z" fill="#636A78"></path> <path d="M81.8951 23.8114C81.9008 23.8501 81.9092 23.911 81.9262 23.9857C82.0536 24.5835 82.5686 26.1858 83.7997 26.3767C85.0675 26.5704 89.6069 24.6665 90.3908 23.9082C90.4644 23.8391 90.5068 23.7754 90.5068 23.7256C90.5068 23.6813 90.47 23.6204 90.3993 23.5485C89.7399 22.8401 86.1854 20.9195 85.0109 20.2913C84.7478 20.1502 84.4421 20.1419 84.1761 20.272C82.5347 21.0579 81.98 22.9978 81.9036 23.6398C81.8951 23.7173 81.8923 23.7754 81.8951 23.8114Z" fill="#FC8B2D"></path> <path d="M81.8951 23.8115C81.9008 23.8503 81.9092 23.9111 81.9262 23.9859C82.6337 24.0606 83.3412 24.0855 84.0487 24.1076C84.7676 24.1242 85.4864 24.1215 86.2024 24.1076C86.9212 24.0966 87.6372 24.0744 88.356 24.0412C89.0352 24.008 89.7144 23.972 90.3908 23.9084C90.4644 23.8392 90.5068 23.7755 90.5068 23.7257C90.5068 23.6815 90.47 23.6206 90.3993 23.5486C89.7144 23.496 89.0324 23.4711 88.3504 23.4545C87.6315 23.4379 86.9155 23.4269 86.1967 23.4296C85.4779 23.4296 84.7619 23.4435 84.0459 23.4711C83.3327 23.5043 82.6167 23.5486 81.9008 23.6372C81.8951 23.7174 81.8923 23.7755 81.8951 23.8115Z" fill="#D13301"></path> <path d="M85.6197 21.4231C85.5659 21.578 85.7357 21.7911 86.0017 21.9018C86.2677 22.0125 86.5281 21.9765 86.5819 21.8216C86.6356 21.6666 86.4658 21.4535 86.1998 21.3428C85.9338 21.2349 85.6734 21.2681 85.6197 21.4231Z" fill="#D13301"></path> <path d="M53.6071 65.2414H57.3569L57.105 54.2911C57.105 54.2772 57.105 54.2606 57.105 54.244C57.122 53.8179 57.4871 53.4885 57.92 53.5024C58.3559 53.519 58.6926 53.876 58.6785 54.2994L58.2596 65.1916L68.343 64.2147C68.5835 64.1926 68.7986 64.3642 68.8213 64.5966C68.8439 64.8319 68.6684 65.0422 68.4279 65.0643L60.9538 65.7894L69.6872 67.3391C69.925 67.3806 70.0835 67.6047 70.0382 67.8372C69.9986 68.0447 69.8146 68.1886 69.608 68.1886C69.5825 68.1886 69.5571 68.1859 69.5288 68.1831L60.0029 66.4923L66.2516 70.2641C66.4582 70.3887 66.5205 70.6516 66.3931 70.8536C66.2658 71.0556 65.9969 71.1165 65.7903 70.992L57.6738 66.0938L53.6043 66.0965C53.3637 66.0965 53.1684 65.9056 53.1684 65.6704C53.1684 65.4351 53.3637 65.2414 53.6071 65.2414Z" fill="#FC8B2D"></path> <path d="M70.2464 64.3445C70.2464 64.5797 70.4417 64.7707 70.6823 64.7707L74.7518 64.7679L82.8683 69.6661C83.0749 69.7879 83.3438 69.727 83.4711 69.525C83.5985 69.3257 83.5334 69.0628 83.3296 68.9355L77.0781 65.1637L86.6068 66.8545C86.6322 66.86 86.6605 66.86 86.686 66.86C86.8926 66.86 87.0765 66.7134 87.1162 66.5086C87.1586 66.2761 87.0001 66.0547 86.7624 66.0105L78.029 64.4608L85.5031 63.7357C85.7436 63.7108 85.9191 63.5033 85.8936 63.268C85.871 63.0328 85.6559 62.864 85.4153 62.8861L75.332 63.863L75.581 57.3874L75.1565 57.0166L74.7971 56.9336L74.6188 57.4483L74.3669 57.7417L74.2849 57.6725L74.4292 63.91H70.6794C70.4389 63.9184 70.2464 64.1093 70.2464 64.3445Z" fill="#FC8B2D"></path> </g> <defs> <clipPath id="clip0"> <rect width="63" height="62" fill="white"></rect> </clipPath> <clipPath id="clip1"> <rect width="62" height="67" fill="white" transform="matrix(-1 0 0 1 97 7)"></rect> </clipPath> </defs> </svg> 