<?xml version="1.0" encoding="UTF-8"?> <svg xmlns="http://www.w3.org/2000/svg" width="75" height="85" viewBox="0 0 75 85" fill="none"> <g clip-path="url(#clip0)"> <path d="M11.3313 78.5816C11.1949 74.535 23.9709 70.8197 39.8671 70.2832C55.7634 69.7467 68.7604 72.5922 68.8967 76.6387C69.033 80.6852 56.2571 84.4005 40.3608 84.937C24.4646 85.4735 11.4676 82.6281 11.3313 78.5816Z" fill="#F3F3F3"></path> <path d="M0.000297546 15.111L0.0119858 15.189L0.023674 15.267V15.3333C0.0197754 15.6297 0.0275726 15.9221 0.0392609 16.2146L0.097702 16.6319L0.101593 16.6826L0.105492 16.7255L0.113281 17.0686L0.175621 17.248L0.436661 17.5522L0.931465 18.1293L0.608093 18.4725L0.954842 18.6948L0.686012 19.3538L0.565231 19.6385L0.744453 19.8179L1.17303 20.2546L0.892502 20.7928L0.841858 20.8942L0.845749 20.8981L1.11459 21.3036L0.927574 21.6858L0.939262 21.6936L0.982117 21.7443L1.31718 22.142L1.699 22.5944L1.4029 23.0896L1.38731 23.1208L1.41068 23.1481L1.70679 23.5537L1.78861 23.6668L1.82758 23.7838L1.96394 24.2088L2.12367 24.6105L2.19381 24.7821L2.18212 24.9537L2.15095 25.4528L2.14316 25.5464L2.12367 25.6166L2.1003 25.7024L2.13536 25.7336L2.27173 25.8545L2.33796 26.0066L2.50549 26.3965C2.64964 26.6539 2.8016 26.9074 2.95744 27.1569L3.16004 27.4728L3.03536 27.816L3.01199 27.8823L3.44835 28.202L3.2964 28.6349L3.98601 28.8923L3.68991 29.5786L3.55354 29.8945L3.82237 30.0739L4.25484 30.3624L4.11458 30.8382L4.04446 31.08L4.43407 31.2048L4.71848 31.2944L4.83926 31.544L5.03796 31.9691L5.05744 32.012L5.06913 32.0432C5.17432 32.3473 5.27172 32.6554 5.36134 32.9635L5.40419 33.1156L5.38472 33.2404L5.36523 33.3807L5.47042 33.4314L5.7003 33.5484L5.77822 33.7668L5.93406 34.2114L5.97303 34.3166L5.97692 34.3985L5.98471 34.8665L6.07822 35.2019L6.17562 35.389L6.52238 35.5411L6.78342 35.6542L6.81848 35.9116L6.8964 36.2275L7.13406 36.4302L7.36393 36.6252L7.32497 36.8982L7.30939 37.0191L7.51588 37.0581L7.90939 37.1283L7.93277 37.4987L7.96394 38.0135L8.02628 38.345L8.22887 38.5555L8.6029 38.8051L8.85614 38.9767L8.7977 39.2536L8.73925 39.5148L8.96523 39.5655L9.06653 39.5889L9.12887 39.6396L9.51458 39.9438L9.66264 40.0608L9.67043 40.2285L9.68212 40.673L9.8964 40.9265L9.91588 40.9499L9.91978 40.9538L10.1769 41.3438L10.2003 41.375L10.2042 41.3906L10.3873 41.7961L10.6522 42.0925C10.8899 42.2914 11.1315 42.4824 11.3769 42.6696L11.4626 42.7359L10.9172 42.693L10.7847 42.8997L10.7146 43.0128L10.3912 43.2156L10.5938 43.9409L9.78341 43.6523L10.0367 44.4362L9.83406 44.7598L8.9964 44.4401L8.899 44.8729L9.24965 45.7581L8.87173 45.9024L8.15874 45.7113L8.08861 46.1676L7.59381 46.2027L7.20809 46.347L7.63667 47.2907L6.63926 46.8305L6.26134 46.9865L6.20679 47.4545L6.32757 48.0862L5.9964 48.2851L5.97303 48.7686L5.34575 48.6945L4.87043 48.7647L5.14315 49.5135L4.64835 49.5681L4.9016 50.2856L4.33666 50.2817L4.28601 50.7223L4.399 50.8705L3.42107 51.475L4.22757 51.3814L4.6016 51.4399L4.90549 51.7167L5.21329 52.0443L5.67693 51.705L6.04705 51.6933L6.33536 52.5981L6.77173 51.8415L7.14186 52.1106L7.74965 51.6076L8.21329 52.056L8.15095 52.524L8.38472 52.8086L7.77692 53.6393L8.96523 53.3078L9.12108 53.6432L8.95354 54.1969L9.41718 54.3217L9.37432 54.8013L10.0094 54.7935L9.72498 55.4643L10.1535 55.6008L9.80289 56.3456L10.6133 56.1701L11.1276 56.2247L10.8977 56.8954L11.6341 56.7473L11.747 57.1333L11.7626 57.6091L12.1522 57.7495L12.4016 58.0185L12.6704 58.2681L12.4639 58.9856L12.5964 59.3834L12.8847 59.6252L13.2548 59.7773L13.8977 59.6252L14.3496 59.6681L14.5678 59.9683L14.3302 60.8146L14.7548 60.8886L15.125 61.0251L15.6198 60.9861L15.6432 61.5633L16.0444 61.6413L16.625 61.4619L16.4185 62.3978L17.1587 61.9688L16.9561 62.9398L17.4548 62.858L17.9808 62.7098L18.0354 63.3337L18.7445 62.854L18.6393 63.7861L19.2042 63.5287L19.5432 63.6691L19.6873 64.1955L20.2561 63.8797L20.1899 64.878L20.8717 64.2891L21.0042 64.9131L21.347 65.0573L21.799 64.9404L22.3678 64.4958L22.2899 65.7515L22.7496 65.5799L23.4042 64.8078L23.5561 65.5175L24.0315 65.2211L24.3354 65.4707L24.5496 66.0595L25.1107 65.3771L25.3445 65.9464L25.7419 65.8607L26.0457 66.1843L26.3535 66.508L26.7587 66.3676L27.0743 66.7186L27.425 66.8785L27.9198 66.0946L28.138 67.2216L28.6211 66.352L29.0224 66.0283L29.373 66.1687L29.7393 66.1414L30.0432 67.0033L30.4445 66.4495L30.8185 66.2467L31.1691 66.6601L31.5315 67.011L31.9016 66.2116L32.2678 66.6523L32.6496 67.2684L32.9925 66.4417L33.3938 67.1787L33.7172 66.3286L34.1146 66.8005L34.4808 66.7654L34.7847 66.0439L35.1704 66.2389L35.56 66.4573L35.8561 65.8958L36.2535 66.1258L36.5847 65.8841L37.1341 66.9565L37.5042 66.9058L37.7068 65.9503L38.2561 66.82L38.3613 65.5019L38.7159 65.4317L39.1445 65.6696L39.4795 65.5019L39.9237 65.7593L40.4029 66.1219L40.8159 66.2116L40.8782 65.0846L41.3107 65.2523L41.7315 65.3654L42.2613 65.7983L42.2769 64.6674L42.9587 65.5097L43.1341 64.8858L43.5938 65.0612L43.9406 64.9248L44.0886 64.2852L44.5912 64.5465L44.7081 63.8602L44.9263 63.439L45.4873 63.8095L46.0445 64.1409L46.2743 63.7432L46.4341 63.2206L46.886 63.3103L46.8665 62.4407L47.225 62.3471L47.7315 62.5265L48.2107 62.6474L48.6899 62.7449L48.4795 61.6101L48.8925 61.6023L49.6367 62.1443L49.9289 61.9064L50.1626 61.575V60.8769L50.8289 61.2435L51.2068 61.1421L51.2496 60.5377L51.2886 59.941L51.7678 59.9917L52.1419 59.8864L52.5393 59.8084V59.1845L53.2873 59.5745L53.8055 59.6408L53.7626 58.97L53.9419 58.5996L54.0665 58.1667L54.6899 58.3461L54.9587 58.0887L55.5432 58.2018L55.2899 57.3439L55.4574 56.9812L56.0886 57.1294L56.4587 56.9812L56.4548 56.4353L56.7315 56.1896L57.2847 56.2286L56.9964 55.4136L57.647 55.5384L57.725 55.0977L57.6003 54.4738L58.0055 54.3529L58.7107 54.5011L58.36 53.6899L59.1938 53.9395L59.5055 53.7172L59.5289 53.2532L59.9341 53.1089L59.9769 52.6644L59.8094 52.0599L59.9574 51.7167L60.7834 51.8844L60.4406 51.1669L60.6587 50.8744L61.4224 50.9719L61.8431 50.8159L61.7964 50.3324L61.7457 49.8527L61.9133 49.5252L62.8406 49.6811L62.8522 49.2483L63.1406 48.9909L62.825 48.367L62.7548 47.9029L63.2419 47.7586L63.1951 47.3141L64.0289 47.3453L63.2769 46.5303L63.6821 46.3314L64.2782 46.2183L64.4847 45.9102L63.9159 45.2356L64.4925 45.0991L64.3367 44.6311L64.9639 44.5025L65.1626 44.1866L65.073 43.7537L64.7496 43.239L65.3224 43.0635L66.1678 42.9738L65.1509 42.229L66.2419 42.2056L66.4834 41.8897L66.725 41.5699L65.7743 40.9031L66.6782 40.7744L65.747 40.1427L66.7795 40.0257L66.7951 39.6474L66.7678 39.2614L66.6393 38.8558L67.3016 38.6062L67.4224 38.2475L66.6626 37.7405L66.7561 37.3817L66.5068 36.9762L66.9704 36.672L66.4912 36.247L67.1535 35.9506L67.625 35.6191L67.4691 35.2331L66.9042 34.8275L67.9094 34.5116L67.9873 34.1334L67.9717 33.7551L67.0834 33.369L67.2315 33.0025L67.1613 32.6359L67.06 32.2732L66.8535 31.9145L67.1263 31.5323L66.647 31.2009L67.773 30.7407L67.7808 30.3624L66.9354 30.0778L67.7574 29.602L67.4535 29.2666L67.5743 28.8689L66.4951 28.67L67.1847 28.1747L67.3367 27.7614L67.1068 27.426L67.1107 27.04L66.4406 26.8138L66.838 26.3341L66.7444 25.9715L66.3548 25.6907L66.1522 25.3631L66.4328 24.8913L65.9263 24.6612L65.8717 24.2907L65.6107 23.9905L65.8717 23.503L65.6107 23.2027L65.3925 22.8908L65.4159 22.4813L65.2951 22.1264L64.7535 21.9588L64.8509 21.5142L64.1691 21.4206L64.1925 21.0072L64.8276 20.2858L63.838 20.3638L63.9315 19.9037L64.06 19.4162L63.6587 19.2134L63.9354 18.6324L63.1406 18.6597L62.7042 18.4881L63.1951 17.7628L62.9613 17.4703L62.56 17.2831L62.7665 16.706L62.147 16.667L62.0925 16.2536L62.0341 15.8403L61.2509 15.9377L61.099 15.5946L60.4912 15.4659L61.1691 14.7406L60.8808 14.452L60.2496 14.3116L61.0834 13.5629L60.8224 13.2665L59.9185 13.2782L60.4561 12.6075L60.2808 12.276L59.4276 12.315L59.0302 12.1278L59.9263 11.1802L58.6912 11.5L59.3419 10.6577L58.625 10.685L58.8081 10.1156L58.0133 10.2326L58.1613 9.67106L58.3522 9.05492L57.947 8.89893L57.1444 9.08611L57.1951 8.55967L57.3821 7.90063L56.5211 8.1892L56.9263 7.29229L56.6224 7.06221L55.7068 7.46777L55.9094 6.72295L55.1302 7.03491L55.473 6.09511L55.1146 5.93522L54.8808 5.63105L54.1678 5.92742L53.7042 5.93522L53.8639 5.1124L53.7782 4.58985L53.4821 4.35978L52.9834 4.42607L52.5782 4.35978L52.4029 3.93082L52.1691 3.58765L51.2419 4.43777L51.3198 3.54866L50.7276 3.86452L50.486 3.53306L49.9445 3.80603L49.6834 3.50966L49.7107 2.57375L49.0172 3.23279L48.9509 2.44116L48.7016 2.0278L47.9808 2.88182L48.0509 1.59105L47.299 2.64394L47.3302 1.34147L46.7029 2.1097L46.5354 1.35317L46.1107 1.49746L45.6509 1.79383L45.3509 1.46236L45.0548 1.0529L44.712 0.854019L44.3574 0.682436L43.96 0.756528L43.5548 0.924212L43.1029 1.55595L42.8457 0.530351L42.4678 0.491354L42.0899 0.495254L41.7198 0.288574L41.3068 1.0958L40.9289 1.43896L40.5704 0.873517L40.2042 1.28688L39.8185 0.631741L39.4717 1.23228L39.0626 0.584945L38.7003 0.795525L38.3691 1.25178L37.9133 0.506953L37.625 1.21668L37.3289 1.74703L36.8496 1.0685L36.6159 1.85622L36.012 0.713633L35.8367 1.69634L35.3769 1.34537L35.1626 2.01221L34.6367 1.47796L34.4302 2.0941L34.0444 2.0863L33.7873 2.48406L33.1367 1.72363L32.9613 2.33977L32.4938 2.16039L32.2406 2.53475L31.8003 2.45676L31.8237 3.41217L31.1107 2.75313L31.0951 3.56815L30.2886 2.80383L30.4912 3.97761L29.8834 3.63835L29.8717 4.34808L28.9834 3.59155L29.3263 4.83553L28.6756 4.50406L28.2626 4.55866L27.7561 4.49236L27.9743 5.41657L27.6977 5.65055L26.8756 5.20989L27.1211 6.09511L26.8834 6.37588L26.5094 6.50457L25.8587 6.34468L26.0652 7.09731L25.06 6.60986L25.1886 7.26499L25.3016 7.87723L24.5341 7.67835L24.3665 8.02932L24.2496 8.41928L24.2925 8.93403L23.2561 8.59086L23.1276 8.97303L23.3691 9.61646L22.66 9.57357L22.5548 9.95963L23.1821 10.8253L22.4146 10.7785L22.5548 11.2972L21.9276 11.3635L22.5393 12.1278L21.9159 12.2058L21.3198 12.3189L20.9419 12.5568L21.312 13.1456L20.6691 13.2704L20.599 13.6526L21.2613 14.3233L20.5717 14.4559L20.9496 14.9823L20.0691 15.0759L20.8951 15.7311L20.6925 16.0508L19.9756 16.2302L19.4652 16.4915L19.9328 16.9945L20.3613 17.4664L19.5821 17.6848L20.26 18.1839L19.699 18.4647L19.8159 18.6207L20.0107 18.882L19.4535 19.1822L19.4886 19.307L19.2782 19.2212L19.2626 19.2173L19.2198 19.1939L18.8185 18.9521L18.6782 18.8664L18.6393 18.6714L18.538 18.1605L18.5107 18.1449L18.012 18.3828L17.5289 18.609L17.3496 18.0669L17.2444 17.7472L17.1081 17.7238L16.6094 17.7199H16.5899L16.5315 17.7082L16.0522 17.638L15.7756 17.5951L15.6393 17.3104L15.573 17.1739L15.4328 17.1973L15.199 17.2402L14.9769 17.0725L14.5912 16.784L14.5289 16.7372L14.4626 16.6436L14.4042 16.5578L14.2367 16.5968L13.9795 16.6592L13.738 16.4954L13.3406 16.2341L13.3094 16.2107L13.2587 16.1678L13.0639 15.9884L12.799 15.9572L12.3276 15.9299L11.9146 15.9065L11.7432 15.4932L11.638 15.2475L11.3535 15.3606L10.8237 15.5673L10.5393 15.1422L10.5081 15.1539L9.88471 15.4776L9.52238 14.8458L9.35874 14.5651L9.24575 14.6236L8.899 14.8069L8.52887 14.6197L8.24055 14.4715L7.8977 14.4286L7.62498 14.3974L7.42238 14.1829L7.20809 13.9606L6.95874 13.8904L6.85354 13.8631L6.74056 13.793L6.5964 13.6994L6.38991 13.7345L6.23796 13.7618L6.06654 13.7228L5.67302 13.6292L5.24446 13.5863L4.94835 13.5551L4.73017 13.3289L4.55484 13.1456L4.4925 13.1417L4.0951 13.2002L3.97432 13.2158L3.84965 13.2002L3.38211 13.1339L3.23016 13.1105L3.0899 13.0325L2.88342 12.9155L2.87173 12.9194L2.53666 13.1339L2.34965 13.2548L2.11978 13.2665L1.65225 13.2938L1.36394 13.3094L1.11848 13.1378L0.982117 13.0442L0.919777 13.0598L0.588608 13.169L0.300301 13.2626L0.206795 13.2275C0.202896 13.2509 0.198997 13.2743 0.195107 13.2977L0.30809 13.5122L0.436661 13.7657L0.393806 14.0386L0.323677 14.5027L0.284714 14.7445L0.132767 14.9277L0.000297546 15.111Z" fill="#FDEE21"></path> <path d="M45.3085 35.4942L45.5929 35.6814L45.6786 35.736L45.6708 35.853L45.6475 36.2196L45.8384 36.4068L46.0994 36.6407L46.1072 36.6485L46.115 36.6563L46.3332 36.9254L46.3488 36.9449L46.3604 36.9683L46.5046 37.2959L46.6488 37.5805L46.8903 37.7833L46.9488 37.834V37.9276L46.9604 38.2864L47.1864 38.4307L47.2215 38.4501L47.241 38.4891L47.3851 38.7543L47.6773 38.8752L47.7397 38.9025L47.7669 38.9727L47.8877 39.2964L48.0786 39.5186L48.3514 39.6941L48.402 39.7253L48.4215 39.7877L48.515 40.0958L48.7682 40.2206L48.776 40.2245L48.7838 40.2284L49.0721 40.4117L49.0838 40.4195L49.0916 40.4273L49.341 40.6495L49.3721 40.6768L49.3877 40.7158L49.4773 40.9459L49.5903 40.903L49.7851 40.7041C49.9449 40.5091 50.1046 40.3103 50.2643 40.1114L50.4553 39.776L50.4942 39.7097L50.5604 39.6785L50.8254 39.542L50.7864 39.2106L50.7786 39.1443L50.8059 39.078L50.9695 38.7075L51.0202 38.5983L51.1254 38.5671L51.4721 38.4696L51.5695 38.4424L51.6358 38.5086L51.7838 38.6607L51.7955 38.6724L51.8033 38.6841L52.002 38.9688L52.2163 39.2379L52.2592 39.2886V39.3627L52.2553 39.6824L52.5202 39.776L52.5786 39.7955L52.6098 39.854L52.7773 40.1699L52.8007 40.2089V40.2596L52.8124 40.6105L53.0345 40.7743L53.0617 40.7938L53.0773 40.825L53.2293 41.0941L53.5137 41.2501L53.541 41.2657L53.5604 41.2891L53.7786 41.562L53.802 41.5932L53.8137 41.6322L53.8955 41.9598L54.1176 42.1587L54.1682 42.2016L54.176 42.2757L54.2228 42.6695L54.3669 42.9425C54.5111 43.1102 54.6514 43.2818 54.7916 43.4573C54.963 43.5937 55.1345 43.738 55.2981 43.8862L55.4656 43.9837L55.6098 43.8316L55.7773 43.4729L55.7968 43.43L55.8319 43.3949L56.1319 43.1024L56.1592 43.0751L56.1903 43.0595L56.4553 42.923L56.428 42.537L56.4202 42.4434L56.4825 42.3654L56.7358 42.03L56.7592 41.9988L56.7903 41.9754L57.1371 41.7375L57.3358 41.4841L57.402 41.1019L57.4215 40.9927L57.5111 40.9303L57.7799 40.7392L57.7643 40.3883L57.7604 40.283L57.8384 40.2011L58.1306 39.893L58.3254 39.6317L58.3137 39.2457L58.3098 39.117L58.415 39.0351L58.7228 38.7894L58.7656 38.6451L58.8514 38.3644L59.0617 38.4891L59.2566 38.6022L59.3306 38.6451L59.3384 38.7426L59.3734 39.1326L59.4514 39.4485L59.6501 39.6512L59.9773 39.7916L60.0475 39.8228L60.0708 39.9047L60.0747 39.9242L60.0981 39.8891L60.1332 39.8657L60.3864 39.6785L60.5033 39.3393L60.5384 39.2379L60.628 39.1911L60.9669 39.0195L61.1812 38.7699L61.3643 38.4346L61.3877 38.3917L61.4267 38.3605L61.6916 38.1421L61.7929 37.8145L61.9332 37.4129L61.9449 37.3778L61.9643 37.3505C62.1046 37.1477 62.2371 36.941 62.3734 36.7343L62.3968 36.3639L62.4046 36.2586L62.4825 36.1845L62.7591 35.931L62.8877 35.6151L62.8994 35.5839L62.9228 35.5605L63.1371 35.2642L63.2189 34.9288L63.2851 34.5349L63.2929 34.4998L63.3085 34.4647L63.4799 34.1021C63.6124 33.9227 63.8812 34.0553 63.8189 34.2542L63.6903 34.5739L63.6475 34.9522L63.6436 34.9756L63.5656 35.3734L63.554 35.424L63.5072 35.4942L63.3124 35.7906C63.2695 35.9076 63.2306 36.0246 63.1838 36.1416L63.1527 36.2196L63.0825 36.2898L62.8994 36.4691L62.8916 36.7499L62.8877 36.8513L62.8215 36.9605C62.6929 37.1711 62.5604 37.3817 62.428 37.5883L62.3189 37.9354C62.2838 38.068 62.241 38.2006 62.202 38.3293L62.1592 38.4696L62.0423 38.5671L61.7929 38.7777L61.641 39.0585L61.6176 39.1014L61.5825 39.1443L61.3215 39.4524L61.263 39.5225L61.1812 39.5654L60.9786 39.6707L60.9007 39.8969L60.8501 40.0451L60.7215 40.1426L60.4721 40.3298L60.289 40.5988L59.8176 41.293L59.6228 40.5559C59.5994 40.4741 59.5799 40.3922 59.5604 40.3064C59.4981 40.2713 59.4358 40.2323 59.3734 40.1933L59.2877 40.1348L59.0734 39.8306L59.0111 39.7448L59.0072 39.7136L58.9566 39.312L58.9488 39.273C58.9527 39.2184 58.9527 39.1638 58.9527 39.1053L58.7345 39.2886C58.7423 39.4017 58.7501 39.5147 58.7579 39.6278L58.7656 39.7175L58.6955 39.8228L58.454 40.1855L58.4306 40.2167L58.2669 40.4117L58.3137 40.7626L58.341 40.9576L58.1306 41.1331L57.9475 41.2852L57.9202 41.5698L57.9124 41.6673L57.8111 41.8194L57.5695 42.1782L57.5462 42.2172L57.4488 42.2952L57.1955 42.498L57.1604 42.5525C57.1799 42.6695 57.1955 42.7865 57.2072 42.9074L57.2501 43.3442L56.8254 43.5859L56.5293 43.7536C56.4864 43.7965 56.4475 43.8394 56.4046 43.8823L56.276 44.1709L56.2254 44.2801L56.1319 44.3815C56.0384 44.4829 55.9449 44.5881 55.8475 44.6895L55.4968 45.0561L55.1462 44.8377L54.8501 44.6544L54.8072 44.6271L54.7838 44.6037L54.5345 44.3776C54.4488 44.3035 54.3592 44.2333 54.2773 44.1553L54.2189 44.1007L54.2072 44.0851C54.0708 43.894 53.9345 43.7107 53.7942 43.5236L53.7514 43.469L53.7397 43.4417C53.6851 43.3325 53.6384 43.2194 53.5916 43.1063L53.5371 42.9815L53.5332 42.923L53.5215 42.6227L53.4163 42.5097L53.3111 42.3966L53.2955 42.303L53.2371 41.9598L53.1241 41.7921L52.8903 41.6361L52.8007 41.5737L52.7773 41.5191L52.641 41.2228L52.4345 41.0356L52.3215 40.9342L52.3254 40.8133L52.341 40.4078C52.3137 40.3415 52.2825 40.2791 52.2553 40.2167L51.9592 40.0958L51.8228 40.0412L51.8306 39.8891C51.8384 39.7604 51.8462 39.6317 51.8501 39.503L51.6786 39.2808L51.4877 38.9922L51.4176 38.922C51.3747 38.9337 51.3319 38.9493 51.289 38.961C51.2695 39.0156 51.2501 39.0663 51.2306 39.1209C51.2462 39.1872 51.2617 39.2535 51.2812 39.3159L51.3553 39.5576L51.4137 39.7526L51.1332 39.971L50.9306 40.1309C50.8916 40.2401 50.8527 40.3532 50.8098 40.4585L50.7553 40.5403C50.6851 40.6573 50.6189 40.7782 50.5449 40.8913C50.4669 41.0044 50.3968 41.1175 50.315 41.2267L50.2721 41.2735C50.1981 41.3632 50.1202 41.4451 50.0423 41.5269L49.941 41.6322L49.8007 41.6907C49.6955 41.7336 49.5903 41.7726 49.4851 41.8155L49.002 42.0066L48.8267 41.5425L48.7254 41.2696L48.5929 41.1487L48.3592 40.9966L48.0708 40.8484L47.8877 40.7548L47.8254 40.5442C47.802 40.4702 47.7825 40.3961 47.763 40.3259L47.6267 40.2323L47.5643 40.1894L47.5332 40.1504L47.315 39.8813L47.2527 39.8033L47.2293 39.7331L47.1669 39.5498C47.1163 39.5264 47.0618 39.503 47.0111 39.4796L46.8591 39.4056L46.8046 39.2886L46.6877 39.0429L46.5007 38.9103L46.302 38.7699V38.5359V38.2552C46.2669 38.2201 46.2319 38.1889 46.2007 38.1577L46.1267 38.0875L46.1072 38.0368L45.963 37.6897L45.8423 37.3544C45.7877 37.2803 45.7371 37.2062 45.6864 37.1282L45.7215 37.1633L45.476 36.8942L45.2423 36.6095L45.141 36.4886L45.1605 36.3639L45.2072 36.0363C45.1488 35.9895 45.0942 35.9427 45.0397 35.892L44.9773 35.8374L44.9695 35.8101L44.8488 35.4396C44.7825 35.1199 45.1137 35.0185 45.2033 35.1979L45.3085 35.4942Z" fill="#ABA000"></path> <path d="M65.4935 24.0489L65.7507 24.3492L65.8481 24.7391L66.4636 24.8795L66.1987 25.367L66.3 25.7452L66.7987 25.9324L66.826 26.3263L66.4987 26.7903L67.1104 27.036L67.0597 27.4338L67.4766 27.7457L67.1883 28.1747L66.5377 28.6426L67.6169 28.7908L67.4416 29.2666L67.6597 29.5395L67.0558 30.0738L67.687 30.4755L67.6909 30.6626L67.1766 30.8888L66.6117 31.193L66.9857 31.5752L66.9545 31.9222L67.1766 32.2225L67.1416 32.6397L67.0792 32.9829L67.0987 33.3573L68.0221 33.7043L68.0571 34.1372L67.913 34.5077L66.7987 34.7572L67.3675 35.3305L67.7455 35.6698L67.1221 35.8803L66.6156 36.2742L66.8377 36.6759L66.4247 36.9488L66.7325 37.3856L66.7714 37.6547L67.3948 38.2669L67.3636 38.6881L66.6974 38.9142L66.7519 39.0156L67.2039 38.5204L67.7494 38.0368L68.2481 37.5026L68.8831 37.0814L69.4286 36.5706L69.8143 35.9349L70.313 35.3812L70.6831 34.7377L70.9558 34.0319L71.4 33.4392L71.7156 32.7684L72.0662 32.1211L72.6 31.5673L72.9701 30.9239L73.0714 30.1479L73.6208 29.5902L73.7455 28.8337L74.0377 28.1552L74.3221 27.4766L74.5519 26.7747L74.7 26.0533L75 25.3592L74.9727 24.6104L74.926 23.8305L74.2286 23.499L73.6013 23.1247L72.8844 22.9336L72.1442 23.1364L71.4195 22.9609L70.6909 23.0584L69.9701 23.1598L69.2532 23.2807L68.5286 23.3704L67.7844 23.3158L67.0948 23.6082L66.3662 23.6823L65.7234 23.9865L65.4935 24.0489Z" fill="#E3D507"></path> <path d="M19.8117 18.6323L19.9987 18.7259L20.3806 18.8858L20.852 18.8975L20.9065 18.9014L20.9299 18.9053L21.4091 19.034L21.5104 19.0613L21.5611 19.1198L21.8416 19.4356L22.2234 19.5643L22.3987 19.6228L22.4026 19.7827L22.426 20.3911L22.7572 20.4573L22.8078 20.4651L22.8312 20.4807C23.0884 20.6601 23.3416 20.8434 23.591 21.0306C23.6221 21.054 23.6416 21.093 23.6416 21.132C23.6416 21.1515 23.6338 21.171 23.626 21.1905C23.591 21.249 23.513 21.2685 23.4546 21.2373C23.1974 21.0891 22.9403 20.9487 22.6832 20.8044L22.1961 20.7693L22.0442 20.7576L22.0169 20.5782L21.9312 20.005L21.6078 19.9309L21.5494 19.9192L21.4832 19.8607L21.2065 19.5994L20.8442 19.5409L20.3143 19.5799L20.2637 19.5838L20.1858 19.5604L19.7221 19.4161L19.4806 19.3226L19.4455 19.1978L20.0026 18.8975L19.8117 18.6323Z" fill="#ABA000"></path> <path d="M10.9517 43.0244C10.8933 42.9854 10.8348 42.9464 10.7764 42.9074L10.9088 42.7007L11.4543 42.7436L11.4933 42.7748L11.4777 42.9113L11.4231 43.426L11.7348 43.5664L11.7855 43.5898L11.8088 43.621L12.0932 43.9564L12.5023 44.1513L12.5686 44.1825L12.592 44.2332L12.7868 44.709L13.1023 45.1145C13.1413 45.1652 13.1374 45.2393 13.0907 45.2822C13.04 45.329 12.9621 45.3251 12.9153 45.2783L12.5452 44.8806L12.5335 44.8689L12.5218 44.8455L12.3153 44.4399L11.9023 44.2878L11.8712 44.2761L11.8361 44.241L11.54 43.9525L11.0803 43.7926L10.9244 43.7419L10.9283 43.5586L10.9517 43.0244Z" fill="#ABA000"></path> <path d="M32.1373 18.0188C29.5175 17.3116 27.9666 14.6126 28.6731 11.9905C29.3797 9.36837 32.0762 7.81602 34.696 8.52321C37.3157 9.23041 38.8667 11.9294 38.1601 14.5515C37.4536 17.1736 34.757 18.726 32.1373 18.0188Z" fill="#31332A"></path> <path d="M30.1694 11.5978C29.7885 10.935 30.313 9.91808 31.3408 9.3264C32.3686 8.73472 33.5106 8.79237 33.8914 9.45517C34.2723 10.118 33.7478 11.1349 32.72 11.7266C31.6922 12.3183 30.5503 12.2606 30.1694 11.5978Z" fill="#636A78"></path> <path d="M45.0823 1.08797L45.3511 1.46233L45.6511 1.7938L46.1108 1.49743L46.5355 1.35314L46.703 2.10967L47.3303 1.34145L47.2991 2.64392L48.0511 1.59102L47.981 2.8818L48.7017 2.02778L48.9433 2.43334L49.0134 3.22496L49.7069 2.56593L49.6797 3.50183L49.9407 3.79821L50.4823 3.52523L50.7238 3.8606L51.316 3.54473L51.2381 4.43384L52.1654 3.58373L52.3991 3.92689L52.5745 4.35585L52.9797 4.42214L53.0459 4.41045C52.9797 3.74751 52.7732 3.08458 52.4186 2.46844C51.0667 0.113066 48.0628 -0.698055 45.7095 0.655113C45.4875 0.7838 45.2771 0.928086 45.0823 1.08797Z" fill="#31332A"></path> <path d="M47.2207 0.760431C47.2207 1.0373 47.6375 1.25958 48.1518 1.25958C48.6661 1.25958 49.083 1.0373 49.083 0.760431C49.083 0.483558 48.6661 0.26128 48.1518 0.26128C47.6337 0.257381 47.2207 0.483558 47.2207 0.760431Z" fill="#636A78"></path> <path d="M47.6535 3.85278C47.6535 3.85278 44.9574 9.03148 45.0509 9.62032C45.1444 10.2092 46.4769 12.9077 48.8613 13.3718C51.2457 13.8358 54.4678 9.65152 54.4678 9.65152C54.4678 9.65152 49.2626 10.4587 48.5223 9.99078C47.7743 9.52673 47.4976 4.7185 47.6535 3.85278Z" fill="#FA7100"></path> <path d="M48.5165 9.99078C49.2606 10.4548 54.4619 9.65152 54.4619 9.65152C54.4619 9.65152 50.8385 9.43314 49.4749 8.96518C48.6061 5.95858 47.6476 3.85278 47.6476 3.85278C47.4957 4.7185 47.7723 9.52673 48.5165 9.99078Z" fill="#D13301"></path> <path d="M46.1609 7.83829C46.0362 8.17756 46.044 8.49343 46.1804 8.54412C46.3168 8.59482 46.531 8.36084 46.6557 8.02157C46.7804 7.68231 46.7726 7.36644 46.6362 7.31574C46.4999 7.26505 46.2856 7.49902 46.1609 7.83829Z" fill="#D13301"></path> <path d="M18.5612 75.6682H22.5547L22.2859 63.7315C22.2859 63.7159 22.2859 63.6964 22.2859 63.6808C22.3014 63.2167 22.691 62.8579 23.1547 62.8735C23.6183 62.8891 23.9768 63.2791 23.9612 63.7432L23.5131 75.6175L34.2508 74.5529C34.5079 74.5295 34.7339 74.7128 34.7612 74.9702C34.7885 75.2275 34.6014 75.4537 34.3443 75.481L26.3846 76.2726L35.6846 77.9612C35.9378 78.008 36.1053 78.2497 36.0586 78.5032C36.0196 78.7294 35.8209 78.8854 35.6027 78.8854C35.5755 78.8854 35.5482 78.8815 35.5209 78.8776L25.3755 77.0331L32.03 81.1433C32.2482 81.2797 32.3183 81.5644 32.182 81.7828C32.0456 82.0012 31.7612 82.0714 31.543 81.9349L22.8975 76.5963L18.5651 76.6002C18.3079 76.6002 18.0975 76.3896 18.0975 76.1322C18.0936 75.8788 18.304 75.6682 18.5612 75.6682Z" fill="#FA7100"></path> <path d="M41.6337 74.0265C41.6337 74.2839 41.8441 74.4945 42.1013 74.4945L46.4376 74.4906L55.0792 79.8292C55.3013 79.9617 55.5857 79.8954 55.7221 79.6771C55.8584 79.4548 55.7883 79.1701 55.5701 79.0336L48.9156 74.9234L59.061 76.768C59.0922 76.7718 59.1195 76.7758 59.1467 76.7758C59.3688 76.7758 59.5636 76.6159 59.6065 76.3897C59.6493 76.1362 59.4857 75.8944 59.2324 75.8476L49.9324 74.1591L57.8922 73.3675C58.1493 73.3441 58.3363 73.114 58.3091 72.8605C58.2857 72.6032 58.0558 72.416 57.7987 72.4433L47.061 73.5079L47.4779 62.4291L47.2363 62.3433L46.8779 62.4369L46.8974 63.3065L46.4454 63.2168L46.2857 63.7393L46.0558 64.1371L45.8883 64.0357L46.1026 73.5586H42.1091C41.8441 73.5586 41.6337 73.7691 41.6337 74.0265Z" fill="#FA7100"></path> </g> <defs> <clipPath id="clip0"> <rect width="75" height="85" fill="white" transform="matrix(-1 0 0 1 75 0)"></rect> </clipPath> </defs> </svg> 