<?xml version="1.0" encoding="UTF-8"?> <svg xmlns="http://www.w3.org/2000/svg" width="122" height="122" viewBox="0 0 122 122" fill="none"> <g clip-path="url(#clip0)"> <path d="M86.9699 92.4702C82.0245 93.6831 77.8182 97.3217 76.0819 102.396C75.8976 102.935 76.2054 103.518 76.7551 103.665L81.9255 105.05L92.7803 104.392L96.8314 100.912L100.545 97.0617C100.941 96.6513 100.902 95.9935 100.466 95.626C98.8644 94.2759 96.9622 93.2359 94.8277 92.6242L86.9699 92.4702Z" fill="#FED402"></path> <path d="M69.0944 91.8792L73.9941 93.1921L60.4491 99.9787L23.9452 90.1975L16.8408 77.8779L69.0944 91.8792Z" fill="#E5E1E5"></path> <path d="M96.9998 27.7153L96.9154 31.7508L94.8203 75.0897L93.4451 82.213L89.6849 82.331L88.676 74.7927L90.8353 30.1216L91.4958 26.589L96.9998 27.7153Z" fill="#EFEDEF"></path> <path d="M10.0864 83.0462L4.69663 81.602C4.20939 81.4715 3.97908 80.9189 4.22092 80.4765C7.5372 74.4109 14.6879 71.1468 21.655 73.0136C28.9514 74.9687 33.6086 81.8981 32.9669 89.177L10.0864 83.0462Z" fill="#FEE97D"></path> <path d="M90.6365 34.2262L90.8349 30.1215L91.4954 26.5888L96.9994 27.7152L96.915 31.7506L96.7165 35.8553L90.6365 34.2262Z" fill="#E5E1E5"></path> <path d="M101.887 33.0826L89.1211 29.662C88.3817 29.4639 87.9428 28.7037 88.1409 27.9643L88.6226 26.1666C89.1084 24.3536 90.8365 23.1598 92.7041 23.3471L103.729 24.4522C105.458 24.6255 106.62 26.3072 106.17 27.9856L105.338 31.0898C104.935 32.5933 103.39 33.4854 101.887 33.0826Z" fill="#FEE45A"></path> <path d="M95.1244 28.723C98.0566 29.5087 101.07 27.7687 101.856 24.8365L101.995 24.3192C101.998 24.3059 102 24.2925 102.003 24.2791L103.729 24.4522C105.458 24.6254 106.62 26.3071 106.17 27.9855L105.338 31.0897C104.935 32.593 103.39 33.4851 101.887 33.0823L89.1211 29.6618C88.3817 29.4637 87.9428 28.7035 88.1409 27.9641L88.419 26.9261L95.1245 28.7228L95.1244 28.723Z" fill="#FEDF30"></path> <path d="M59.0529 96.1669L87.513 84.1935L91.8037 82.2647L91.9661 90.6663L86.9689 92.47L70.3452 99.1928L57.8333 103.675L54.9611 96.9598L59.0529 96.1669Z" fill="#FEE97D"></path> <path d="M88.216 116.259C83.3511 114.956 80.4641 109.955 81.7677 105.091C83.0712 100.226 88.0717 97.3387 92.9365 98.6422C97.8014 99.9458 100.688 104.946 99.3849 109.811C98.0813 114.676 93.0809 117.563 88.216 116.259Z" fill="#736572"></path> <path d="M88.3465 81.5494L93.8661 81.969L95.2163 84.5791L94.191 105.801C94.1302 107.044 93.0731 108.002 91.8315 107.942L88.4839 107.781C87.2404 107.72 86.282 106.665 86.3429 105.421L87.3699 84.1856L88.3465 81.5494Z" fill="#FEE45A"></path> <path d="M15.4228 96.6187C10.5853 95.3225 7.71449 90.3501 9.0107 85.5126C10.3069 80.675 15.2793 77.8042 20.1168 79.1004C24.9544 80.3967 27.8252 85.369 26.529 90.2066C25.2328 95.0441 20.2604 97.9149 15.4228 96.6187Z" fill="#736572"></path> <path d="M69.7087 100.876L62.8736 104.822C62.3937 105.099 61.8233 105.174 61.2879 105.031L22.4343 94.62L16.6954 90.3684C15.9483 89.815 15.6156 88.861 15.8562 87.9629L16.1128 87.0053C16.4364 85.7975 17.678 85.0805 18.886 85.4042L70.3447 99.1925L69.9964 100.5C69.9542 100.659 69.8506 100.794 69.7087 100.876Z" fill="#EFEDEF"></path> <path d="M52.9398 100.275C55.1404 100.864 57.485 100.555 59.4579 99.4164L63.1738 97.271L70.3447 99.1925L69.9964 100.5C69.9542 100.659 69.8506 100.794 69.7087 100.876L62.8738 104.822C62.3937 105.099 61.8235 105.174 61.2882 105.031L22.4346 94.6197L17.1073 90.6731L52.9399 100.274L52.9398 100.275Z" fill="#E5E1E5"></path> <path d="M94.8208 75.0897L93.4455 82.213L89.6854 82.331L88.6764 74.7927L88.8568 71.0605L95.0013 71.3573L94.8208 75.0897Z" fill="#E5E1E5"></path> <path d="M87.9493 104.837C89.1909 104.898 90.2479 103.94 90.3088 102.696L91.3195 81.7753L93.8661 81.9689L95.2163 84.579L94.191 105.8C94.1302 107.044 93.0731 108.002 91.8315 107.941L88.4839 107.78C87.2404 107.72 86.282 106.664 86.3429 105.421L86.3747 104.761L87.9493 104.837Z" fill="#FEDF30"></path> <path d="M88.3838 75.0584C88.0674 75.0443 87.7983 75.2882 87.7842 75.6046L87.3686 84.1852L87.5121 84.1925L95.215 84.5787L95.6304 75.9835C95.6445 75.6671 95.4006 75.3981 95.0848 75.382L88.3838 75.0584Z" fill="#D7D0D6"></path> <path d="M91.3326 81.4746L91.6351 75.2155L95.0848 75.3821C95.4006 75.3981 95.6445 75.6672 95.6304 75.9836L95.215 84.5788L91.1925 84.3772L91.3326 81.4746Z" fill="#B8B2B8"></path> </g> <path fill-rule="evenodd" clip-rule="evenodd" d="M22.0754 51.3267L22.3378 51.0786L22.6882 51.3759L22.9032 50.7929L23.2397 51.0176L23.4607 50.4082L23.7935 50.6117L24.1443 50.9853L24.4125 50.6959L24.7215 50.7432L24.9749 50.2848L25.2522 50.0209L25.5672 50.1187L25.9491 50.9278L26.1749 50.1126L26.4888 50.2255L26.8127 50.4598L27.0943 50.2108L27.4384 50.7026L27.7495 50.8117L27.991 50.0737L28.2756 49.8555L28.6302 50.4934L28.9245 50.3943L29.1749 49.7732L29.528 50.3771L29.7819 49.8182L30.0872 49.8605L30.3803 49.7666L30.7127 50.0934L31.0078 50.017L31.3609 50.5106L31.5657 49.574L31.9289 50.1312L32.2614 50.3758L32.4704 49.585L32.7713 49.577L33.0667 49.5272L33.3732 49.5566L33.759 50.1157L34.0658 50.1119L34.3338 49.8614L34.6396 49.8537L34.9422 49.8196L35.0967 48.9913L35.5607 49.8173L35.7041 48.9932L36.0195 49.0416L36.2419 48.6615L36.636 49.0508L37.0751 49.5903L37.2545 49.044L37.4855 48.7315L37.6886 48.3332L38.247 49.2262L38.4724 48.9031L38.5954 48.2552L39.1116 48.9085L39.3547 48.6645L39.5955 48.4233L39.9875 48.6326L40.1482 48.1699L40.3625 47.8761L40.6312 47.7367L41.0501 47.988L41.4302 48.1217L41.6047 47.7363L41.9602 47.7993L41.9073 46.9012L42.3779 47.2317L42.5443 46.8634L42.9851 47.1041L43.1225 46.6817L43.5758 46.7957L43.5241 46.3953L44.0314 46.2637L44.094 45.9694L43.9898 45.6024L44.2023 45.3669L44.3252 45.0934L43.8211 44.5161L44.6163 44.5694L44.772 44.3134L44.7345 43.9517L44.5363 43.4897L44.6865 43.2197L44.8531 42.9592L45.7476 43.1683L45.1717 42.4288L45.5683 42.3281L46.1704 42.3871L45.8914 41.8091L45.7617 41.3222L46.1053 41.1985L46.5132 41.1366L46.3638 40.6058L46.7787 40.5588L46.8174 40.176L47.113 40.0288L47.298 39.7772L47.7899 39.8401L47.9238 39.5402L48.4274 39.6437L48.4511 39.2181L48.9454 39.3366L48.7844 38.6679L49.3837 38.9389L49.3633 38.4188L49.3347 37.8615L49.7862 37.9649L50.329 38.2273L50.6203 38.1331L50.447 37.292L51.0443 37.6938L51.0861 37.1668L51.5837 37.4424L51.5186 36.6784L51.7626 36.476L52.2284 36.7324L52.305 36.1711L52.6644 36.2192L53.0962 36.4602L53.5263 36.7373L53.543 35.9401L53.9672 36.2255L54.15 35.8277L54.6026 36.2588L54.6599 35.4033L54.9275 35.2168L55.3474 35.6141L55.5322 35.0858L55.8113 34.9143L56.2776 35.6719L56.5163 35.3276L56.7922 35.1456L57.0797 35.0121L57.4522 35.5365L57.7016 35.0934L57.9631 34.6183L58.3318 35.4465L58.597 34.8684L58.917 35.3083L59.2155 35.4241L59.51 35.3719L59.8189 34.6913L60.1 35.3935L60.3955 35.3921L60.7429 34.6998L61.0242 35.0055L61.3089 35.1857L61.5417 35.7331L61.9753 34.7771L62.1344 35.7156L62.5123 35.2778L62.7142 35.8057L63.1986 34.9653L63.3032 35.8636L63.7362 35.3614L63.8363 36.1457L64.3206 35.534L64.5534 35.8111L64.9045 35.7097L65.1029 36.0642L65.5316 35.7724L65.5431 36.5866L65.9094 36.47L66.1454 36.6773L66.5967 36.3996L66.6443 37.0104L67.1254 36.7042L67.2293 37.1652L67.848 36.6433L67.6287 37.6691L68.1833 37.2999L68.1286 37.9753L68.5874 37.7969L69.1359 37.5056L69.0321 38.2091L69.4756 38.0964L69.8103 38.1533L69.7277 38.7714L70.2572 38.5773L70.1561 39.1873L70.5986 39.1205L70.5287 39.6624L70.9399 39.645L71.6161 39.3559L71.7392 39.6762L71.9772 39.8737L72.1911 40.0963L71.8173 40.8714L72.4281 40.7145L72.7686 40.8206L73.0544 40.9807L73.1847 41.2739L73.2971 41.5779L73.2672 41.9864L73.2829 42.3501L73.7196 42.4046L74.061 42.5382L73.7725 43.0988L74.5605 42.9479L73.8621 43.7432L74.8787 43.4809L74.1627 44.2476L75.0555 44.0919L74.9961 44.4711L74.6243 45.0004L75.3995 44.9511L74.8946 45.5241L74.9008 45.8442L75.3804 45.9585L75.3603 46.29L75.8934 46.4019L75.3812 46.9153L76.403 46.8693L76.3688 47.2069L76.2544 47.5654L76.4705 47.8189L76.8168 48.037L76.8823 48.3376L76.6612 48.708L76.1329 49.1383L76.426 49.3757L77.0236 49.5613L77.0098 49.8739L77.1471 50.1601L76.4441 50.5692L77.0916 50.7834L76.5798 51.1441L77.3619 51.3684L77.4313 51.6713L76.7142 52.0198L77.4018 52.2888L76.9424 52.6054L76.637 52.9051L77.233 53.2074L77.4045 53.5175L76.966 53.8025L76.5823 54.0764L77.1384 54.419L76.7273 54.6807L77.1867 55.0366L76.3444 55.2247L77.2802 55.6709L76.2277 55.7942L76.3768 56.1199L76.9271 56.5423L76.8629 56.8412L76.1776 56.9791L76.7481 57.4439L76.7535 57.7654L75.8459 57.7981L76.1634 58.2153L76.1921 58.5452L75.3895 58.6456L75.701 59.0428L75.6154 59.3365L76.1542 59.6852L75.9752 59.9732L75.7973 60.2584L76.162 60.6061L75.7337 60.8581L75.8872 61.1843L75.8795 61.4904L75.197 61.6867L75.3801 62.0203L75.8899 62.42L75.4171 62.6385L75.5605 62.9764L75.2249 63.2132L74.9298 63.4528L75.5872 63.9204L74.8164 64.0384L74.5872 64.2851L74.9622 64.6986L74.6694 64.9266L74.9185 65.3165L74.8089 65.5998L74.5808 65.843L74.5537 66.1524L74.5613 66.4765L74.1447 66.6438L74.1504 66.9679L73.9924 67.2282L74.1871 67.6364L73.7659 67.7845L73.7217 68.094L73.8174 68.4716L73.688 68.7472L73.1904 68.839L73.4879 69.3295L73.2862 69.5683L73.2529 69.8977L72.9438 70.0747L72.258 70.0252L72.8241 70.7124L72.542 70.8984L72.555 71.2689L71.7968 71.1371L72.1754 71.7551L71.9735 71.9887L71.0339 71.6895L71.1587 72.148L70.7912 72.2437L70.7356 72.5757L70.6087 72.8557L70.4628 73.123L70.1792 73.2745L70.5323 73.9798L70.3435 74.2237L70.0987 74.4171L69.3095 74.0914L69.449 74.6416L69.3436 74.9647L68.8791 74.9246L68.3129 74.7629L68.3889 75.2781L67.9417 75.2276L67.8843 75.609L67.6406 75.7822L67.8476 76.4971L67.5846 76.6586L67.0483 76.4712L66.9177 76.7923L66.7331 77.0488L66.5254 77.2779L65.824 76.8119L66.0746 77.6921L65.4448 77.3003L65.6892 78.2139L65.373 78.2882L65.0585 78.3599L64.3676 77.8027L64.6131 78.8018L64.0415 78.4163L63.5947 78.2259L63.5258 78.7163L63.3557 79.034L63.0667 79.1289L62.6103 78.883L62.4626 79.2568L62.0328 79.041L62.0353 79.7581L61.7441 79.8443L61.3145 79.6034L60.9583 79.5173L61.0024 80.4181L60.5009 79.9639L60.2986 80.2686L59.9205 80.1026L59.7215 80.4288L59.594 80.9825L59.2775 80.9914L59.0442 81.257L58.5497 80.6758L58.2742 80.792L58.0568 81.1171L57.8345 81.444L57.4899 81.3206L57.0664 80.8608L56.7793 80.9282L56.62 81.5566L56.1963 81.0208L55.9246 81.1607L55.7144 81.623L55.4575 81.8788L55.1303 81.7566L54.8726 82.0325L54.5636 82.0091L54.1729 81.4162L53.9697 82.108L53.6083 81.648L53.2944 81.5134L53.0464 81.9666L52.7691 82.2006L52.4309 81.781L52.1851 82.4425L51.8607 82.1292L51.5616 82.1405L51.2791 82.4813L50.9727 82.3789L50.6586 81.9585L50.3649 82.0964L50.0745 82.7643L49.7695 82.3896L49.4685 82.4104L49.1743 81.9743L48.872 82.1789L48.5681 82.3159L48.2485 82.7565L47.96 82.4468L47.6975 81.8124L47.3728 82.2004L47.0845 82.0449L46.7967 81.9142L46.5255 81.6346L46.1902 81.9873L45.8475 82.3417L45.56 82.2059L45.335 81.6275L44.9712 82.0654L44.6533 82.1504L44.3479 82.1463L44.1687 81.4171L43.9068 81.2058L43.4464 82.0261L43.2012 81.714L42.9644 81.3861L42.7437 81.009L42.4708 80.8809L42.0327 81.4333L41.7972 81.1413L41.4237 81.3847L41.0759 81.5121L40.9025 81.0148L40.7461 80.4903L40.3913 80.64L39.9616 81.0095L39.7842 80.5832L39.3585 80.9066L39.0716 80.8097L38.8756 80.4615L38.4429 80.7596L38.4569 79.8777L37.8594 80.577L37.7543 80.0294L37.5509 79.7385L37.3692 79.4073L36.7438 80.0803L36.5328 79.8084L36.4234 79.3302L36.281 78.9385L35.9842 78.869L35.8419 78.4958L35.5831 78.3559L34.8327 79.1246L34.944 78.2954L34.3217 78.7875L34.0639 78.6238L34.2829 77.6675L33.9506 77.6453L33.8215 77.2955L33.3444 77.4916L33.2126 77.151L33.0741 76.8292L32.5107 77.1219L32.2644 76.9503L32.2621 76.4468L31.6178 76.8096L31.753 76.1395L31.1073 76.476L31.1917 75.8904L31.1935 75.4235L30.5451 75.7285L30.5032 75.3197L30.5001 74.8776L30.1636 74.8081L29.6238 74.9458L29.8819 74.2484L29.6408 74.0742L29.4957 73.8051L29.0784 73.7963L28.3236 74.0879L28.7768 73.2692L28.0618 73.5012L27.925 73.218L27.913 72.8343L27.5862 72.7114L27.5631 72.3455L27.5419 71.9851L27.2496 71.8313L27.4012 71.3552L26.6974 71.4864L26.8692 71.0059L26.8095 70.6903L26.3608 70.6256L26.6359 70.1047L25.8259 70.246L25.4507 70.1116L26.1529 69.3687L25.5682 69.3502L25.2274 69.1887L25.0898 68.9177L25.3321 68.4624L24.6017 68.4749L25.1643 67.8845L24.644 67.7866L24.8301 67.3805L24.6913 67.1147L24.2058 66.9809L24.7561 66.4539L24.065 66.3848L24.3587 65.9656L23.9554 65.7823L23.6032 65.5739L24.2326 65.0718L23.5493 64.9534L24.1655 64.4774L23.7082 64.2865L23.5006 64.0267L23.7843 63.6553L23.4554 63.419L23.2968 63.1428L23.0722 62.8754L23.661 62.4705L23.6805 62.1681L23.4205 61.9063L22.9396 61.666L22.7891 61.3773L22.7333 61.0763L22.861 60.7584L23.362 60.4159L23.3256 60.1205L23.3109 59.8233L23.1401 59.532L23.3771 59.2256L23.5082 58.9268L22.9753 58.6337L23.4661 58.3357L23.1754 58.0351L22.5821 57.7193L23.186 57.4375L22.989 57.128L23.5159 56.858L23.1172 56.5324L23.3943 56.2532L23.1715 55.9329L23.5655 55.6717L23.6423 55.3812L22.7314 54.9704L23.5412 54.7688L23.5436 54.4676L23.8253 54.2074L23.7711 53.6851L23.1299 53.6836L23.0396 53.3209L22.374 53.5659L22.6658 52.8509L22.4294 52.6623L21.9651 52.6332L21.9431 52.2686L21.8992 51.9392L21.6962 51.7059L21.1449 51.3438L22.0683 51.4782L22.0754 51.3267Z" fill="#FDEE21"></path> <path fill-rule="evenodd" clip-rule="evenodd" d="M26.0085 54.4418L26.1625 54.1245L26.154 54.1544L26.2448 53.8475C26.3393 53.6477 26.5759 53.7914 26.562 53.9114L26.4989 54.2239L26.4964 54.2368L26.4918 54.2492L26.3863 54.5278L26.4401 54.7157L26.7024 54.9218L26.7978 54.9971L26.7519 55.1095L26.6433 55.3777L26.757 55.5796L26.7653 55.5941L26.7704 55.6104L26.8521 55.8704L27.0221 56.1041L27.0324 56.1181L27.0395 56.134L27.1601 56.4064L27.185 56.4626L27.1663 56.5209L27.0675 56.8306L27.1959 57.3427L27.3541 57.5578L27.5546 57.7633L27.8494 57.9343L27.9611 57.9988L27.9229 58.1217L27.8475 58.3657L28.0758 58.4569L28.2037 58.5079L28.1742 58.6418L28.1153 58.9082L28.3105 59.0235L28.4098 59.0822L28.3867 59.1955L28.3214 59.5114L28.4421 59.6514L28.7454 59.7713L28.8574 59.8154L28.8472 59.9353L28.8225 60.2272L29.001 60.3588L29.2602 60.5328L29.2719 60.5404L29.2821 60.5504L29.498 60.7571L29.5171 60.7754L29.5294 60.7991L29.6665 61.0614L29.801 61.2814L30.0321 61.4233L30.1045 61.4677L30.1089 61.5529L30.123 61.8421L30.3296 61.9288L30.3719 61.9466L30.3987 61.9842L30.5387 62.1804L30.8175 62.2386L30.8934 62.2544L30.9287 62.3236L31.0577 62.5776L31.243 62.7279L31.5112 62.8312L31.5739 62.8555L31.601 62.9174L31.7053 63.1562L31.9414 63.2151L31.9514 63.2177L31.9608 63.2214L32.245 63.3321L32.2601 63.3382L32.2737 63.3467L32.5221 63.5068L32.5639 63.5336L32.5837 63.5796L32.6756 63.7968L32.9337 63.7568L32.99 63.7481L33.0385 63.776C33.169 63.8511 33.3012 63.9212 33.4277 64.0069C33.5524 64.0847 33.6675 64.169 33.7858 64.2514L34.0428 64.3594L34.1064 64.3863L34.1311 64.4509L34.217 64.6764L34.4702 64.5471L34.5239 64.5197L34.582 64.5339L34.8702 64.6036L34.9581 64.6249L34.9861 64.7105L35.0926 65.0376L35.2918 65.0093L35.3191 65.0056L35.3463 65.0109L35.6329 65.0684L35.9258 65.0985L35.9962 65.1059L36.0385 65.1627L36.1831 65.3571L36.4135 65.2333L36.4713 65.2024L36.5343 65.2201L36.8195 65.3007L36.8638 65.3133L36.8946 65.3469L37.0809 65.5497L37.3052 65.4939L37.3419 65.4847L37.3788 65.4925L37.6201 65.5451L37.8874 65.4287L37.9185 65.4151L37.952 65.4151L38.2478 65.415L38.2895 65.4146L38.3261 65.4349L38.5585 65.5635L38.7993 65.5133L38.8711 65.4981L38.9297 65.5424L39.1922 65.7398L39.4378 65.7873C39.627 65.7753 39.816 65.7674 40.0051 65.7633L40.2874 65.6915L40.5772 65.6348L40.8532 65.5326L40.8703 65.5261L40.8888 65.524L41.1479 65.4906L41.3884 65.3352L41.4318 65.3073L41.4832 65.3097L41.7872 65.3232L41.8233 65.3248L41.8554 65.3418L42.0475 65.4429L42.175 65.1505L42.212 65.0661L42.3035 65.0549L42.5976 65.0186L42.6362 65.014L42.6724 65.027L42.9845 65.1394L43.1891 65.1208L43.3705 64.9059L43.4411 64.8222L43.5452 64.857L43.7719 64.9323L43.9262 64.5872L44.0348 64.5907L44.3489 64.6012L44.5542 64.5715L44.6724 64.2918L44.7245 64.1693L44.8547 64.1967L45.2314 64.2764C45.3596 64.3044 45.3628 64.5997 45.1645 64.5926L44.951 64.5637L44.8695 64.804L44.8349 64.9068L44.6988 64.9359C44.5967 64.9577 44.4948 64.9822 44.3922 65.0021L44.3842 65.0039L44.3498 65.0044L44.2097 65.0079L44.1178 65.2474L44.032 65.4718L43.7702 65.4001L43.613 65.3573L43.5172 65.4843L43.4482 65.576L43.2992 65.598L42.9946 65.6426L42.9384 65.6507L42.8481 65.6236L42.6009 65.55L42.4968 65.8288L42.3505 66.2215L41.9375 66.0247L41.684 65.9038L41.6121 65.9033L41.4465 66.0199L41.3787 66.068L41.2619 66.0874L41.0372 66.1256L40.7669 66.2381L40.7111 66.2514L40.4287 66.3187L40.1117 66.4139L40.0431 66.4174C39.8463 66.4271 39.6502 66.4408 39.4543 66.4597L39.4078 66.4637L39.3293 66.4509L39.0266 66.4018L38.9225 66.3847L38.8122 66.3064L38.7222 66.2427L38.6434 66.2617L38.4634 66.3046L38.1225 66.1284L38.0845 66.1297L37.8634 66.2339L37.7105 66.3057L37.5162 66.268L37.3655 66.2385L37.1677 66.2917L36.8447 66.3785L36.6001 66.1216L36.5192 66.0364L36.4202 66.092L35.9788 66.3392L35.6572 65.9224L35.5925 65.8387L35.5459 65.8348L35.5278 65.8334L35.4889 65.8263L35.3074 65.7933L35.0677 65.8312L34.5611 65.9121L34.4104 65.4681L33.7954 65.7866L33.5398 65.1268L33.4868 64.99L33.4606 64.9793L33.4009 64.9544L33.3417 64.9134L33.167 64.7921C33.1078 64.7495 33.0526 64.7164 32.9965 64.6802C32.9447 64.6483 32.8956 64.6152 32.8399 64.5844L32.675 64.6111L32.1835 64.6904L31.9839 64.2263L31.9207 64.08L31.8904 64.0609L31.7014 63.9856L31.4328 63.9165L31.1227 63.8363L31 63.5502L30.9697 63.4792L30.932 63.4641L30.8338 63.4255L30.7595 63.3647L30.5288 63.175L30.421 63.0862L30.3622 62.969L30.3535 62.9516L30.3147 62.9431L30.0684 62.8902L29.929 62.6908L29.8551 62.5854L29.7248 62.53L29.3527 62.3712L29.3402 61.9821L29.3381 61.9053L29.2276 61.8343L29.1599 61.718L28.9977 61.44L28.8924 61.2292L28.7867 61.1238L28.5698 60.9716L28.3091 60.7716L28.0416 60.5662L28.0718 60.2807L27.995 60.2473L27.9198 60.1539L27.7292 59.9163L27.5473 59.6899L27.6067 59.4449L27.6158 59.4082L27.3288 59.2249L27.4123 58.9002L27.0235 58.7292L27.1726 58.3128L27.1881 58.2704L27.1499 58.2459L27.1227 58.2148L26.9099 57.9747L26.8751 57.9353L26.8701 57.9276L26.6981 57.6689L26.6396 57.5805L26.5083 56.9222L26.4819 56.7887L26.5156 56.703L26.6088 56.4667L26.5688 56.3574L26.4332 56.1423L26.3917 56.0766L26.3842 56.045L26.3164 55.7654L26.2059 55.5345L26.1358 55.3878L26.1896 55.2775L26.2692 55.1136L26.147 55.0034L26.0766 54.94L26.0626 54.878C26.0406 54.7796 26.0214 54.6807 26.0024 54.5817L25.9852 54.4897L26.0085 54.4418Z" fill="#ABA000"></path> <path fill-rule="evenodd" clip-rule="evenodd" d="M56.882 62.4442L57.0716 62.6807L57.1279 62.751L57.1003 62.838L57.0146 63.11L57.1311 63.3179L57.2953 63.5824L57.3012 63.5919L57.431 63.8796L57.4395 63.8985L57.443 63.9187L57.4973 64.2179L57.5584 64.4844L57.7124 64.7189L57.7498 64.7766L57.7365 64.8445L57.6822 65.1232L57.8346 65.3073L57.8582 65.3357L57.8678 65.3719L57.9332 65.6215L58.1427 65.8112L58.1882 65.8521L58.1963 65.9134L58.234 66.2024L58.3449 66.4347L58.5283 66.6606L58.5619 66.7016L58.5657 66.7555L58.5836 67.0229L58.7623 67.2033L58.7679 67.2087L58.7727 67.2148L58.9662 67.4509L58.9734 67.4596L58.9793 67.4689L59.1367 67.7228L59.1554 67.7531L59.1602 67.7885L59.1884 67.9918L59.2847 67.9944L59.4744 67.9056C59.6369 67.8099 59.7983 67.7118 59.9588 67.6121L60.1708 67.4214L60.2136 67.3828L60.2701 67.3793L60.5055 67.3642L60.5338 67.0964L60.5391 67.043L60.574 67.0029L60.7707 66.775L60.8294 66.7072L60.9168 66.7191L61.2074 66.7582L61.2884 66.7692L61.3283 66.8418L61.4192 67.0068L61.4253 67.0181L61.4295 67.0299L61.5336 67.313L61.6546 67.5892L61.6782 67.6422L61.6636 67.6992L61.6021 67.9424L61.845 68.1405L61.8588 68.1937L61.9348 68.4906L61.9447 68.5282L61.9371 68.5666L61.8825 68.8394L62.0284 69.0392L62.0467 69.0639L62.0546 69.094L62.1251 69.3506L62.322 69.5643L62.341 69.585L62.3522 69.6104L62.4742 69.8901L62.4877 69.9209L62.4882 69.9547L62.4939 70.2323L62.6328 70.4562L62.6635 70.5058L62.6569 70.5647L62.621 70.8803L62.686 71.137C62.769 71.3141 62.8498 71.4919 62.9282 71.6712C63.0401 71.8338 63.148 71.9987 63.2523 72.1661L63.3665 72.2971L63.5064 72.2285L63.7043 72.0091L63.7288 71.9817L63.7619 71.9674L64.0506 71.8426L64.0766 71.8318L64.1048 71.8298L64.3399 71.8145L64.3888 71.5111L64.4007 71.4371L64.724 71.2252L64.7499 71.2085L64.7798 71.2019L65.0962 71.1344L65.2988 71.0063L65.4195 70.7371L65.4541 70.6602L65.5349 70.6422L65.7828 70.5866L65.8347 70.3133L65.8506 70.2298L65.9257 70.1931L66.2118 70.0527L66.4123 69.9189L66.4722 69.6192L66.4924 69.5185L66.5893 69.4903L66.8776 69.4063L66.938 69.3102L67.0552 69.1237L67.1992 69.2879L67.3325 69.4396L67.3828 69.4973L67.3726 69.5738L67.3304 69.8833L67.3364 70.1503L67.4564 70.3722L67.6887 70.5873L67.7387 70.6336L67.742 70.7023L67.7427 70.7192L67.7673 70.7012L67.7984 70.6932L68.0337 70.6343L68.1887 70.4139L68.2345 70.3486L68.3133 70.3435L68.6114 70.3252L68.8259 70.206L69.0335 70.0123L69.0607 69.9868L69.0962 69.9754L69.3458 69.8967L69.4857 69.6792L69.6688 69.4182L69.684 69.3964L69.7048 69.3807C69.8509 69.2711 69.9958 69.1593 70.1397 69.0464L70.2241 68.7717L70.2485 68.6933L70.3239 68.6641L70.5883 68.562L70.7486 68.3625L70.7639 68.3436L70.7836 68.33L71.0046 68.1754L71.1308 67.9455L71.2651 67.6404L71.2839 67.6197L71.486 67.3991C71.6137 67.3312 71.8312 67.42 71.7261 67.6271L71.5664 67.8279L71.4629 68.1034L71.4548 68.1201L71.3203 68.399L71.3025 68.4356L71.2523 68.475L71.0442 68.6372C70.9896 68.7125 70.9364 68.7892 70.8798 68.8631L70.8426 68.9117L70.774 68.9404L70.597 69.0156L70.5183 69.3038L70.4444 69.3661C70.3035 69.4844 70.1615 69.6006 70.0181 69.716L69.8683 69.9452C69.8161 70.0342 69.7602 70.1212 69.7057 70.2084L69.6478 70.3005L69.5391 70.3362L69.3033 70.4135L69.1314 70.5774L69.1058 70.6018L69.0694 70.6225L68.8066 70.7722L68.7476 70.806L68.674 70.8112L68.495 70.8243L68.3263 71.0698L68.2067 71.1014L67.9769 71.1616L67.2844 71.6788L67.2648 71.0528C67.2625 70.9827 67.2619 70.9128 67.2608 70.8425C67.2169 70.794 67.1739 70.745 67.1333 70.6932L67.0769 70.6206L67.0763 70.6194L66.9618 70.3159L66.9294 70.2297L66.9661 69.8806L66.968 69.8481C66.9803 69.8062 66.9904 69.7641 67 69.7222L66.7941 69.791C66.7794 69.8802 66.764 69.9694 66.7517 70.059L66.7417 70.1293L66.6661 70.1874L66.4099 70.3836L66.3849 70.3982L66.2211 70.4931L66.1933 70.7779L66.1776 70.9359L65.9807 70.9997L65.8073 71.0562L65.736 71.2641L65.7117 71.3342L65.6047 71.4155L65.3223 71.6302L65.2303 71.6581L64.9938 71.7309L64.9565 71.7596C64.9496 71.8555 64.942 71.951 64.9299 72.0456L64.8849 72.3927L64.5064 72.4366L64.2413 72.4671C64.2007 72.4872 64.1598 72.5059 64.1187 72.5249L63.9648 72.7016L63.9059 72.7692L63.8145 72.8152C63.7212 72.8619 63.6293 72.9111 63.5351 72.956L63.1917 73.1194L62.9546 72.8379L62.7554 72.6009L62.7263 72.5668L62.7112 72.5418L62.5538 72.2848C62.4998 72.2003 62.4427 72.1182 62.3915 72.0314L62.3554 71.971L62.3501 71.9568C62.2775 71.7677 62.2023 71.5793 62.1248 71.3919L62.1017 71.336L62.0963 71.3116C62.0745 71.2101 62.0568 71.1077 62.0393 71.0047L62.0199 70.8912L62.0284 70.8461L62.0731 70.6121L62.0102 70.4907L61.9482 70.3703L61.9682 70.0136L61.9103 69.8467L61.7548 69.6494L61.6939 69.5719L61.6844 69.5214L61.6317 69.2487L61.5009 69.0372L61.4301 68.9224L61.4561 68.8302L61.5411 68.5258C61.5309 68.4671 61.5198 68.4089 61.5076 68.3508L61.2951 68.1599L61.1961 68.0713L61.2293 67.9583C61.2578 67.8624 61.2874 67.7666 61.3153 67.67L61.221 67.4457L61.1213 67.1606L61.0797 67.0826C61.0437 67.078 61.0076 67.0743 60.9713 67.0704C60.9463 67.1049 60.9216 67.1394 60.8975 67.1746C60.8978 67.2299 60.8982 67.2854 60.9035 67.3415L60.9181 67.5498L60.9299 67.719L60.6688 67.793L60.4793 67.8465C60.4277 67.9173 60.3774 67.9893 60.3227 68.0572L60.2636 68.1013C60.1875 68.1679 60.1139 68.2391 60.0333 68.2991C59.953 68.3591 59.8755 68.4246 59.7921 68.4794L59.7492 68.5022C59.6744 68.5444 59.5975 68.5824 59.5203 68.6199L59.4219 68.6679L59.2995 68.6659C59.2087 68.6642 59.1183 68.6593 59.0275 68.6563L58.6122 68.6421L58.5582 68.229L58.5268 67.9874L58.4432 67.8499L58.2863 67.6548L58.0845 67.4474L57.9566 67.3159L57.9444 67.1353C57.94 67.0727 57.9384 67.0098 57.9357 66.947L57.8465 66.8306L57.8045 66.7763L57.7868 66.7368L57.6634 66.4588L57.6278 66.3791L57.6217 66.3171L57.6047 66.1546C57.5679 66.1195 57.531 66.0848 57.4952 66.049L57.3873 65.9406L57.364 65.8322L57.315 65.6057L57.0603 65.2692L57.1029 65.0917L57.1547 64.8779C57.1336 64.8411 57.1122 64.8048 57.0911 64.768L57.0457 64.6885L57.0382 64.6434L56.9853 64.3306L56.9494 64.0341C56.9214 63.96 56.893 63.8854 56.8671 63.8097L56.887 63.8471L56.7405 63.5593L56.6062 63.265L56.5478 63.1378L56.6807 62.8145C56.6442 62.7598 56.6073 62.7055 56.5725 62.6495L56.5338 62.5856L56.5317 62.5609L56.505 62.2374C56.5121 62.005 56.8006 62.0277 56.8276 62.1687L56.882 62.4442Z" fill="#ABA000"></path> <path fill-rule="evenodd" clip-rule="evenodd" d="M52.8103 47.0085C52.4358 49.1321 53.8363 51.1537 55.9382 51.5243C58.0399 51.8949 60.0473 50.4742 60.4217 48.3506C60.7961 46.2271 59.3957 44.2055 57.294 43.8349C55.1921 43.4643 53.1847 44.885 52.8103 47.0085Z" fill="#31332A"></path> <path fill-rule="evenodd" clip-rule="evenodd" d="M55.6129 45.0248C55.5193 45.5557 56.1885 46.1175 57.1081 46.2796C58.028 46.4418 58.8492 46.1429 58.9429 45.612C59.0365 45.0811 58.3669 44.5195 57.4471 44.3573C56.5275 44.1952 55.7065 44.4939 55.6129 45.0248Z" fill="#636A78"></path> <path fill-rule="evenodd" clip-rule="evenodd" d="M75.1308 45.6066L75.1348 45.9048L75.6053 46.0184L75.5848 46.3561L76.1076 46.4669L75.6001 46.9943L76.6072 46.9403L76.5705 47.2852L76.4558 47.6519L76.6677 47.9092L77.0062 48.1294L77.0688 48.436L76.8497 48.8166L76.3263 49.2584L76.6126 49.4982L77.2003 49.6844L77.1842 50.0045L77.3174 50.2952L76.6231 50.717L77.2588 50.9322L76.7528 51.3026L77.5212 51.5275L77.5885 51.8353L76.8802 52.1969L77.555 52.4666L77.1007 52.7918L76.7972 53.1L77.1472 53.2818C78.1835 52.704 78.9688 51.6578 79.1965 50.3662C79.589 48.1404 78.1779 46.0306 76.0452 45.6546C75.7374 45.6003 75.4308 45.5854 75.1308 45.6066Z" fill="#31332A"></path> <path fill-rule="evenodd" clip-rule="evenodd" d="M76.5012 46.4064C76.3286 46.6411 76.4473 47.1308 76.7664 47.5007C77.0859 47.8704 77.4845 47.98 77.6573 47.7454C77.8299 47.5107 77.7112 47.021 77.392 46.6511C77.0726 46.2814 76.674 46.1718 76.5012 46.4064Z" fill="#636A78"></path> <path fill-rule="evenodd" clip-rule="evenodd" d="M65.7069 51.7683C65.705 51.8056 65.7035 51.8625 65.7066 51.9352C65.7209 52.5108 65.9129 54.0792 66.9704 54.4472C68.0576 54.8257 72.381 53.7639 73.1984 53.1809C73.2758 53.1275 73.3227 53.0751 73.3306 53.0304C73.3379 52.9892 73.3139 52.9275 73.2657 52.8488C72.7982 52.0883 69.9734 49.7514 69.0369 48.9851C68.8283 48.8139 68.5591 48.7585 68.3025 48.836C66.7235 49.3093 65.9148 51.0253 65.7425 51.6092C65.7213 51.6807 65.7085 51.7357 65.7069 51.7683Z" fill="#FA7100"></path> <path fill-rule="evenodd" clip-rule="evenodd" d="M65.6997 51.813C65.6945 51.8686 65.688 51.9535 65.685 52.0613C66.2911 52.2738 66.9113 52.4229 67.5305 52.5612C68.1606 52.6946 68.7965 52.8043 69.4339 52.8968C70.0703 52.9947 70.7104 53.0729 71.3523 53.1395C71.9605 53.1997 72.5697 53.2558 73.1832 53.2703C73.2664 53.1842 73.3186 53.1022 73.3304 53.035C73.3413 52.9732 73.3223 52.8834 73.2801 52.7704C72.6883 52.592 72.0915 52.4497 71.4924 52.3198C70.8627 52.1841 70.2313 52.058 69.5962 51.9512C68.9623 51.8394 68.325 51.7466 67.6854 51.6756C67.0455 51.6118 66.4025 51.5601 65.7494 51.5732C65.7218 51.6815 65.7041 51.7644 65.6997 51.813Z" fill="#D13301"></path> <path fill-rule="evenodd" clip-rule="evenodd" d="M69.0445 49.583C68.9533 49.7898 69.0654 50.1191 69.2956 50.3182C69.5257 50.5181 69.7861 50.5125 69.8775 50.3062C69.9687 50.0998 69.8566 49.7702 69.6264 49.5706C69.3964 49.3707 69.136 49.3763 69.0445 49.583Z" fill="#D13301"></path> <path fill-rule="evenodd" clip-rule="evenodd" d="M32.6321 85.9357L36.1205 86.5508L37.6829 76.3151C37.6851 76.3014 37.6881 76.2858 37.691 76.2722C37.776 75.8795 38.1703 75.6305 38.572 75.7167C38.9735 75.8029 39.2301 76.1914 39.1454 76.5842L36.9676 86.6558L46.5062 87.3992C46.7337 87.4176 46.9043 87.6118 46.8879 87.8344C46.8717 88.0571 46.6741 88.223 46.4468 88.2055L39.3746 87.6542L47.2445 90.5299C47.4587 90.608 47.5688 90.841 47.4907 91.0503C47.421 91.2362 47.2261 91.3407 47.0332 91.3067C47.0092 91.3025 46.9851 91.2959 46.9611 91.2874L38.377 88.1508L43.5712 92.686C43.7419 92.8351 43.7579 93.0908 43.607 93.2571C43.4563 93.4233 43.1955 93.4371 43.0245 93.288L36.2777 87.3974L32.4917 86.7317C32.2669 86.692 32.1164 86.4817 32.1552 86.262C32.194 86.042 32.4072 85.896 32.6321 85.9357Z" fill="#FA7100"></path> <path fill-rule="evenodd" clip-rule="evenodd" d="M48.0313 88.023C47.9922 88.2444 48.1411 88.4562 48.3672 88.496L52.1529 89.1619L58.892 95.0942C59.0632 95.2436 59.3243 95.2299 59.4746 95.061C59.6265 94.894 59.6101 94.6359 59.4405 94.4851L54.2508 89.9178L62.8335 93.0691C62.8571 93.0784 62.881 93.0845 62.9055 93.0888C63.0974 93.1226 63.294 93.0163 63.3638 92.8297C63.4415 92.6183 63.3319 92.3837 63.1177 92.3044L55.2498 89.4164L62.323 89.9613C62.5514 89.9785 62.7487 89.8112 62.7652 89.5852C62.7826 89.3615 62.6109 89.1656 62.3843 89.1471L52.8439 88.4127L54.1494 82.3698L53.8154 81.9515L53.4955 81.8157L53.2441 82.2699L52.9616 82.5034L52.8967 82.4239L51.9965 88.3077L48.5088 87.6928C48.2827 87.6529 48.0704 87.801 48.0313 88.023Z" fill="#FA7100"></path> <defs> <clipPath id="clip0"> <rect width="99.5359" height="99.5359" fill="white" transform="matrix(-0.965926 -0.258819 -0.258819 0.965926 121.906 25.7617)"></rect> </clipPath> </defs> </svg> 