<?xml version="1.0" encoding="UTF-8"?> <svg xmlns="http://www.w3.org/2000/svg" width="88" height="88" viewBox="0 0 88 88" fill="none"> <g clip-path="url(#clip0)"> <path d="M73.4299 64.9614C69.4842 67.1288 66.7247 71.1986 66.403 75.9292C66.3689 76.4313 66.7652 76.8588 67.2683 76.8588H72.0007L81.1198 73.8127L83.7831 69.9138L86.0733 65.7762C86.3174 65.3352 86.1336 64.7823 85.6772 64.5682C84.0007 63.7817 82.1384 63.3288 80.1755 63.2949L73.4299 64.9614Z" fill="#FED402"></path> <path d="M58.0289 68.5479H62.5137L52.4994 77.4429H19.0877L10.2017 68.5479H58.0289Z" fill="#E5E1E5"></path> <path d="M67.1777 7.36719L68.029 10.8327L76.1567 48.3225L76.6123 54.7204L73.4282 55.6816L70.8417 49.4749L62.464 10.8327L62.2197 7.66474L67.1777 7.36719Z" fill="#EFEDEF"></path> <path d="M5.61725 74.5067H0.684055C0.238085 74.5067 -0.0850277 74.0876 0.0202522 73.6544C1.46433 67.7156 6.82396 63.292 13.2009 63.292C19.8792 63.292 25.442 68.1439 26.5596 74.5067H5.61725Z" fill="#FEE97D"></path> <path d="M63.2338 14.3834L62.464 10.8327L62.2197 7.66474L67.1777 7.36719L68.029 10.8327L68.7988 14.3834H63.2338Z" fill="#E5E1E5"></path> <path d="M72.579 10.8327H60.8946C60.2179 10.8327 59.6691 10.2839 59.6691 9.60715V7.96175C59.6691 6.30232 60.8717 4.88736 62.5095 4.61999L72.1774 3.04099C73.6935 2.79333 75.0703 3.96364 75.0703 5.49986V8.34114C75.0705 9.71722 73.955 10.8327 72.579 10.8327Z" fill="#FEE45A"></path> <path d="M65.8065 8.65716C68.4903 8.65716 70.6658 6.48163 70.6658 3.79783V3.32434C70.6658 3.31209 70.6641 3.30037 70.6639 3.28812L72.1774 3.04099C73.6935 2.79333 75.0703 3.96364 75.0703 5.49986V8.34114C75.0703 9.71704 73.9549 10.8325 72.579 10.8325H60.8946C60.2179 10.8325 59.6691 10.2837 59.6691 9.60697V8.65698H65.8065V8.65716Z" fill="#FEDF30"></path> <path d="M50.4347 74.5069L71.9992 57.7696L75.222 55.1406L77.2832 62.2783L73.4284 64.9621L60.7704 74.5071L51.1112 81.1979L47.1218 76.1204L50.4347 74.5069Z" fill="#FEE97D"></path> <path d="M79.9376 84.9921C75.4848 84.9921 71.8751 81.3824 71.8751 76.9296C71.8751 72.4769 75.4848 68.8672 79.9376 68.8672C84.3903 68.8672 88 72.4769 88 76.9296C88 81.3824 84.3903 84.9921 79.9376 84.9921Z" fill="#736572"></path> <path d="M72.1067 55.3207L76.9163 54.416L78.6666 56.3361L82.647 74.6933C82.8795 75.7691 82.196 76.829 81.1219 77.0616L78.2263 77.6901C77.1505 77.9226 76.0906 77.2409 75.858 76.165L71.8759 57.7954L72.1067 55.3207Z" fill="#FEE45A"></path> <path d="M13.2797 84.8761C8.85197 84.8761 5.26257 81.2867 5.26257 76.859C5.26257 72.4312 8.85197 68.8418 13.2797 68.8418C17.7075 68.8418 21.2969 72.4312 21.2969 76.859C21.2969 81.2867 17.7075 84.8761 13.2797 84.8761Z" fill="#736572"></path> <path d="M60.6127 76.0897L55.6786 81.0238C55.3322 81.3702 54.8623 81.5649 54.3723 81.5649H18.81L12.9362 79.2474C12.1715 78.9458 11.6691 78.2072 11.6691 77.3852V76.5087C11.6691 75.4032 12.5653 74.5068 13.671 74.5068H60.7707L60.7725 75.7034C60.7726 75.8483 60.7151 75.9873 60.6127 76.0897Z" fill="#EFEDEF"></path> <path d="M46.1549 79.4136C48.169 79.4136 50.1006 78.6134 51.5248 77.1892L54.2072 74.5068H60.7707L60.7725 75.7034C60.7726 75.8483 60.7151 75.9873 60.6127 76.0897L55.6788 81.0236C55.3322 81.3702 54.8625 81.5648 54.3725 81.5648H18.8101L13.3576 79.4134H46.1549V79.4136Z" fill="#E5E1E5"></path> <path d="M76.1567 48.3224L76.6123 54.7203L73.4282 55.6815L70.8417 49.4748L70.1417 46.2463L75.4569 45.0938L76.1567 48.3224Z" fill="#E5E1E5"></path> <path d="M77.0963 75.2992C78.1704 75.0666 78.8539 74.0067 78.6213 72.9309L74.6973 54.8334L76.9163 54.416L78.6666 56.3361L82.647 74.6933C82.8795 75.7691 82.196 76.829 81.1219 77.0616L78.2263 77.6901C77.1505 77.9226 76.0906 77.2409 75.858 76.165L75.7343 75.5946L77.0963 75.2992Z" fill="#FEDF30"></path> <path d="M70.6538 49.7693C70.3804 49.8296 70.2064 50.0995 70.2668 50.3729L71.8753 57.7957L71.9996 57.769L78.666 56.3363L77.054 48.9011C76.9936 48.6277 76.7238 48.4537 76.4504 48.5123L70.6538 49.7693Z" fill="#D7D0D6"></path> <path d="M74.6402 54.5738L73.4663 49.1594L76.4504 48.5123C76.7238 48.4537 76.9936 48.6277 77.054 48.9011L78.666 56.3363L75.1847 57.0846L74.6402 54.5738Z" fill="#B8B2B8"></path> </g> <g clip-path="url(#clip1)"> <path d="M22.5231 51.214L22.6481 51.0368L22.8756 51.1786L22.9389 50.8049L23.1512 50.9048L23.216 50.5133L23.4239 50.6003L23.6604 50.7888L23.7824 50.5858L23.9616 50.581L24.0595 50.2781L24.1891 50.0897L24.3774 50.1154L24.6741 50.5616L24.7208 50.0478L24.9091 50.0816L25.1155 50.1895L25.2495 50.0091L25.4935 50.2685L25.6803 50.3007L25.7436 49.8319L25.8822 49.6692L26.1473 50.0156L26.3039 49.9254L26.3823 49.5259L26.6428 49.8513L26.7302 49.4872L26.908 49.4808L27.0631 49.3938L27.2845 49.5549L27.4442 49.4776L27.6927 49.7369L27.7153 49.1506L27.9759 49.4486L28.1883 49.5597L28.2275 49.062L28.3962 49.0249L28.5589 48.9637L28.7351 48.9492L29.0092 49.244L29.1825 49.2102L29.309 49.0314L29.4807 48.9943L29.6479 48.9411L29.6524 48.4257L29.9974 48.8735V48.3629L30.1796 48.358L30.2685 48.1051L30.5291 48.2984L30.8319 48.5771L30.8786 48.2292L30.978 48.0165L31.0533 47.754L31.4585 48.2324L31.5534 48.0149L31.5579 47.6106L31.9149 47.9505L32.0279 47.7765L32.1393 47.6058L32.3818 47.6911L32.427 47.3947L32.5189 47.195L32.6575 47.0838L32.9196 47.1902L33.147 47.2304L33.2073 46.9791H33.4152L33.2947 46.4443L33.5944 46.5942L33.6517 46.3541L33.9258 46.4524L33.9604 46.1834L34.2286 46.2043L34.1593 45.9691L34.4334 45.8354L34.4394 45.6518L34.343 45.4424L34.4394 45.2781L34.4816 45.0993L34.1397 44.8061L34.5946 44.753L34.6564 44.5822L34.5991 44.3696L34.4425 44.1119L34.4997 43.933L34.5675 43.7591L35.0947 43.7897L34.6955 43.4063L34.9094 43.3032L35.2559 43.2742L35.0405 42.9569L34.9184 42.6782L35.1007 42.5671L35.3251 42.4865L35.1881 42.1821L35.417 42.1096L35.4005 41.876L35.5541 41.7552L35.6324 41.5844L35.9171 41.5699L35.9638 41.375L36.2575 41.3847L36.2289 41.1254L36.5212 41.1447L36.363 40.7581L36.729 40.858L36.6658 40.5471L36.5935 40.2152L36.8586 40.2297L37.193 40.3296L37.3481 40.2426L37.1658 39.7545L37.5439 39.9317L37.5153 39.6112L37.8241 39.7239L37.7111 39.2713L37.8286 39.1231L38.1163 39.2278L38.1043 38.8815L38.3121 38.8734L38.5803 38.9717L38.8514 39.0941L38.7806 38.6108L39.0502 38.7381L39.1135 38.4804L39.4117 38.6914L39.359 38.1695L39.4916 38.0293L39.7687 38.2242L39.8215 37.886L39.9615 37.7539L40.3005 38.1598L40.4014 37.9278L40.5384 37.7893L40.6891 37.6782L40.9512 37.9536L41.0476 37.6604L41.1485 37.3463L41.4392 37.8054L41.5326 37.4301L41.757 37.6604L41.9363 37.6991L42.099 37.6363L42.2044 37.1933L42.4334 37.5863L42.6006 37.5541L42.7286 37.1015L42.9184 37.2545L43.0977 37.3334L43.2829 37.6379L43.4336 37.0161L43.6158 37.5638L43.786 37.261L43.9532 37.5574L44.143 37L44.2921 37.53L44.4865 37.182L44.622 37.6427L44.8344 37.2239L44.9941 37.3657L45.1824 37.2674L45.33 37.4591L45.5424 37.2384L45.6312 37.7265L45.8256 37.6186L45.9807 37.7184L46.2082 37.5026L46.2955 37.865L46.5365 37.6298L46.642 37.8972L46.9387 37.5171L46.9176 38.1582L47.1948 37.8763L47.2309 38.2887L47.4719 38.1324L47.7536 37.8988L47.7642 38.3338L48.0052 38.2194L48.1995 38.2178L48.2145 38.598L48.4947 38.4256L48.4977 38.8025L48.7418 38.7155L48.7553 39.049L48.9873 38.9958L49.3398 38.7494L49.4422 38.9298L49.5958 39.0232L49.7389 39.1344L49.6049 39.6402L49.9347 39.4807L50.1381 39.5081L50.3158 39.5757L50.4183 39.7384L50.5117 39.9092L50.5358 40.1572L50.5809 40.3747L50.834 40.3618L51.0404 40.4053L50.9319 40.7742L51.3627 40.5986L51.0479 41.1527L51.5962 40.887L51.2678 41.4234L51.7574 41.2349L51.7619 41.4701L51.6037 41.8277L52.0375 41.7165L51.8086 42.1144L51.8447 42.3061L52.1264 42.3238L52.149 42.5268L52.4608 42.5365L52.2228 42.9005L52.7952 42.7636L52.8103 42.9714L52.7816 43.1985L52.9278 43.329L53.1462 43.4224L53.2124 43.5964L53.1251 43.8428L52.869 44.1586L53.0588 44.2697L53.4143 44.3196L53.4384 44.5081L53.5438 44.666L53.1883 44.9865L53.5755 45.0477L53.3224 45.3184L53.7863 45.3699L53.8556 45.5455L53.4851 45.8322L53.9008 45.9208L53.6719 46.1592L53.5303 46.3719L53.8963 46.4911L54.0243 46.6602L53.8044 46.8777L53.6161 47.0838L53.9641 47.2304L53.7577 47.4318L54.053 47.5977L53.595 47.8007L54.1689 47.9698L53.586 48.1551L53.7035 48.3355L54.056 48.532L54.0499 48.7172L53.6764 48.8735L54.0454 49.0926L54.0801 49.2859L53.5694 49.4018L53.7909 49.6193L53.8406 49.8142L53.3962 49.9608L53.6116 50.167L53.5935 50.3522L53.9325 50.5053L53.8602 50.697L53.7879 50.8886L54.0289 51.0594L53.812 51.2559L53.931 51.4363L53.9581 51.6216L53.5905 51.8117L53.7276 51.9937L54.056 52.1789L53.8104 52.361L53.9249 52.5494L53.7592 52.7282L53.6161 52.9038L54.0349 53.1148L53.6101 53.2679L53.5047 53.4402L53.7592 53.6496L53.6161 53.8188L53.7954 54.0266L53.7622 54.2086L53.6568 54.3793L53.6719 54.5678L53.7095 54.7627L53.4896 54.9077L53.5258 55.101L53.4625 55.275L53.6131 55.5005L53.3902 55.6342L53.3962 55.8259L53.4881 56.0417L53.4414 56.2221L53.1688 56.3301L53.3872 56.5942L53.2968 56.7585L53.3104 56.9615L53.1537 57.1L52.7606 57.1435L53.1492 57.4963L53.0076 57.6381L53.0528 57.8604L52.6099 57.862L52.8856 58.1938L52.7952 58.3549L52.2349 58.2743L52.3508 58.5369L52.152 58.6336L52.1535 58.8397L52.1098 59.0218L52.0541 59.199L51.9095 59.3198L52.1791 59.7064L52.0963 59.8739L51.9773 60.0157L51.4983 59.9045L51.6323 60.2202L51.6052 60.4264L51.3386 60.4506L51.0027 60.4135L51.0961 60.7164L50.8385 60.7325L50.8445 60.9677L50.724 61.0981L50.9123 61.5073L50.7798 61.6313L50.4574 61.5766L50.4152 61.7827L50.3369 61.9567L50.242 62.1178L49.7992 61.9116L50.0281 62.4142L49.6335 62.2451L49.8624 62.7702L49.6922 62.8475L49.5205 62.9248L49.0746 62.6623L49.3126 63.2373L48.9511 63.0666L48.68 62.9989L48.6905 63.3018L48.6258 63.5112L48.4721 63.5982L48.1889 63.4999L48.1422 63.7399L47.8786 63.6561L47.9509 64.0862L47.7958 64.17L47.5277 64.0701L47.3183 64.0556L47.4328 64.5937L47.1044 64.373L47.0201 64.5792L46.7896 64.5179L46.7098 64.737L46.6932 65.0834L46.5154 65.122L46.41 65.3073L46.0711 65.0093L45.928 65.1091L45.8376 65.3266L45.7442 65.5473L45.5363 65.5102L45.2517 65.2783L45.0965 65.3491L45.0679 65.7438L44.7757 65.4667L44.6356 65.5795L44.5633 65.8807L44.4428 66.0611L44.247 66.0225L44.128 66.2158L43.9517 66.2351L43.6716 65.9194L43.6249 66.3575L43.3748 66.1191L43.1835 66.0708L43.0886 66.3704L42.9561 66.5412L42.7226 66.3237L42.6488 66.749L42.4349 66.5943L42.2677 66.633L42.1412 66.8682L41.9574 66.8392L41.739 66.6185L41.5853 66.7329L41.4889 67.1662L41.278 66.9729L41.1108 67.018L40.9 66.786L40.7508 66.9406L40.5927 67.0566L40.4556 67.3546L40.2613 67.2L40.0489 66.8456L39.9043 67.113L39.7266 67.0502L39.5503 67.0019L39.3696 66.8633L39.2144 67.1098L39.0563 67.3595L38.88 67.3095L38.6947 66.9841L38.5336 67.287L38.3618 67.3724L38.1886 67.4013L38.0154 66.9825L37.8452 66.8827L37.6674 67.4255L37.4972 67.2628L37.3315 67.0905L37.1689 66.8875L37.0017 66.8392L36.8089 67.2177L36.6462 67.0679L36.4594 67.2532L36.2756 67.3675L36.128 67.0872L35.9879 66.7876L35.8011 66.9149L35.5963 67.1823L35.4532 66.9455L35.2438 67.1855L35.0721 67.1565L34.9275 66.968L34.7121 67.1936L34.6322 66.662L34.3641 67.1452L34.2497 66.8279L34.1066 66.6733L33.971 66.4944L33.6833 66.9648L33.5372 66.8247L33.4272 66.5476L33.3082 66.3269L33.1335 66.3173L33.016 66.1078L32.8563 66.0499L32.5084 66.5927L32.4888 66.0821L32.186 66.4445L32.0233 66.3736L32.052 65.7744L31.8622 65.7953L31.7537 65.5988L31.5037 65.768L31.3952 65.5763L31.2853 65.3975L30.996 65.6343L30.8394 65.5569L30.7882 65.2541L30.4598 65.5408L30.4688 65.122L30.1375 65.3942L30.1269 65.0318L30.0817 64.7515L29.7458 65.0028L29.681 64.7612L29.6344 64.4954L29.4385 64.4906L29.1463 64.6307L29.2231 64.1829L29.0695 64.104L28.9595 63.9574L28.723 63.996L28.3254 64.2522L28.5001 63.7109L28.119 63.9268L28.0136 63.7705L27.9684 63.5402L27.7711 63.5015L27.7214 63.284L27.6747 63.0682L27.4939 63.007L27.5316 62.7041L27.1475 62.8588L27.1957 62.5511L27.1309 62.3675L26.8703 62.3755L26.9742 62.0324L26.5299 62.2048L26.3054 62.1629L26.6278 61.641L26.2949 61.6925L26.087 61.6313L25.9816 61.4831L26.0735 61.1835L25.6622 61.2673L25.9213 60.8533L25.6171 60.8485L25.6818 60.5859L25.5764 60.4393L25.2887 60.4103L25.5478 60.035L25.1501 60.0672L25.2736 59.7837L25.0281 59.716L24.8082 59.6274L25.114 59.2586L24.7163 59.2602L25.016 58.9074L24.7389 58.8414L24.5958 58.7077L24.7193 58.4531L24.5099 58.3468L24.3924 58.197L24.2388 58.0601L24.531 57.754L24.5129 57.5688L24.3397 57.4399L24.043 57.3465L23.93 57.1886L23.8682 57.0131L23.9089 56.8085L24.1574 56.5491L24.1077 56.3752L24.0701 56.1964L23.9436 56.0401L24.0475 55.8307L24.0912 55.6358L23.7613 55.5166L24.0083 55.2846L23.814 55.1348L23.448 55.0076L23.7613 54.774L23.6182 54.6081L23.8893 54.3906L23.6318 54.236L23.7613 54.0394L23.6031 53.8703L23.799 53.6706L23.814 53.4885L23.2582 53.3371L23.6965 53.1293L23.6664 52.9489L23.8005 52.7621L23.7176 52.4528L23.3546 52.5204L23.2672 52.311L22.9163 52.5301L23.0097 52.0678L22.8575 51.9808L22.5924 52.0114L22.5427 51.7939L22.4855 51.6006L22.3469 51.483L21.9989 51.322L22.5352 51.3059L22.5231 51.214Z" fill="#FCEE21"></path> <path d="M24.8444 52.4804L24.9002 52.271L24.8986 52.2903L24.9197 52.0938C24.9529 51.9633 25.102 52.0245 25.1065 52.0986L25.102 52.2951V52.3032L25.1005 52.3113L25.0689 52.4917L25.1186 52.5996L25.2873 52.6962L25.349 52.7317L25.334 52.8042L25.2993 52.9781L25.3837 53.0877L25.3897 53.0957L25.3942 53.1054L25.4665 53.2536L25.587 53.3776L25.5946 53.3857L25.6006 53.3937L25.6955 53.5468L25.7151 53.5774L25.7105 53.6144L25.6849 53.8126L25.8085 54.1089L25.9199 54.2233L26.054 54.3264L26.2377 54.3989L26.307 54.4263L26.298 54.5052L26.2799 54.6615L26.4185 54.6921L26.4953 54.7098L26.4923 54.7936L26.4863 54.9611L26.6083 55.011L26.6701 55.0368L26.6685 55.1077L26.6625 55.3058L26.7454 55.3783L26.9291 55.4186L26.9969 55.4331L27.0029 55.5072L27.018 55.6876L27.1325 55.7504L27.2967 55.8277L27.3042 55.8309L27.3102 55.8358L27.4533 55.9389L27.4654 55.9485L27.4744 55.9614L27.5784 56.1064L27.6763 56.2256L27.8209 56.2868L27.8661 56.3061L27.8766 56.3577L27.9128 56.5316L28.0378 56.5623L28.0634 56.5687L28.083 56.588L28.1824 56.6927L28.3466 56.6976L28.3918 56.6992L28.4189 56.7378L28.5168 56.878L28.6373 56.9489L28.8 56.9827L28.8376 56.9907L28.8587 57.0262L28.9416 57.1599L29.0816 57.1711H29.0877L29.0937 57.1728L29.2654 57.2098L29.2744 57.2114L29.2835 57.2146L29.4401 57.2855L29.4673 57.2968L29.4823 57.3226L29.5561 57.445L29.6977 57.3934L29.7294 57.3822L29.7595 57.3934C29.8408 57.4257 29.9222 57.453 30.0035 57.4917C30.0818 57.5255 30.1556 57.5642 30.2309 57.6012L30.3876 57.6399L30.4268 57.6496L30.4479 57.6866L30.5187 57.8139L30.6497 57.7076L30.6768 57.685L30.7115 57.6866L30.8817 57.6979L30.9329 57.7011L30.957 57.7494L31.0504 57.9363L31.1603 57.8976L31.1754 57.8928H31.192L31.3607 57.8976L31.5294 57.8847L31.57 57.8815L31.6002 57.9121L31.7011 58.0152L31.8201 57.9154L31.8502 57.8912L31.8879 57.896L32.0581 57.9137L32.0837 57.917L32.1048 57.9347L32.2313 58.0378L32.3533 57.9798L32.3729 57.9701L32.394 57.9717L32.5356 57.9782L32.6757 57.8783L32.6922 57.867L32.7118 57.8638L32.879 57.8316L32.9031 57.8268L32.9257 57.8348L33.0703 57.888L33.2014 57.8316L33.2405 57.8155L33.2782 57.8364L33.4469 57.9282L33.5915 57.9315C33.6969 57.9041 33.8039 57.8783 33.9108 57.8558L34.0645 57.7817L34.2226 57.7156L34.3688 57.6238L34.3778 57.6174L34.3883 57.6141L34.5314 57.5658L34.6519 57.4466L34.673 57.4257L34.7031 57.4208L34.8764 57.3967L34.8975 57.3934L34.917 57.3999L35.036 57.4402L35.0797 57.2485L35.0918 57.1937L35.143 57.1776L35.3057 57.1244L35.3268 57.118L35.3494 57.1228L35.5376 57.1583L35.6521 57.1244L35.7335 56.9746L35.7651 56.9166L35.8269 56.9263L35.9624 56.9472L36.0001 56.7862L36.0151 56.7217L36.0769 56.7121L36.2561 56.6847L36.3691 56.6444L36.4083 56.4624L36.4249 56.3818L36.5017 56.3851L36.7231 56.3931C36.7984 56.3963 36.83 56.5751 36.7171 56.5929L36.5936 56.5977L36.571 56.7523L36.5619 56.8184L36.4881 56.8506C36.4324 56.8748 36.3766 56.9005 36.3209 56.9231L36.3164 56.9247L36.2968 56.9295L36.217 56.9456L36.1884 57.1003L36.1628 57.2452L36.0076 57.2291L35.9142 57.2195L35.872 57.3065L35.8419 57.3693L35.7591 57.3983L35.5904 57.4579L35.5587 57.4692L35.5045 57.4627L35.3569 57.445L35.3253 57.6254L35.2816 57.8799L35.027 57.8042L34.8719 57.7575L34.8312 57.7655L34.7483 57.8541L34.7152 57.8896L34.6504 57.9137L34.5269 57.9605L34.3944 58.0507L34.3853 58.0571L34.3552 58.0716L34.2016 58.1425L34.0524 58.223L34.0313 58.2343L33.9922 58.244C33.8822 58.2714 33.7723 58.3003 33.6623 58.3326L33.6367 58.3406H33.5915L33.4153 58.3422L33.355 58.3438L33.2842 58.3084L33.227 58.2794L33.1848 58.2987L33.0869 58.3438L32.9679 58.3036L32.876 58.273L32.8549 58.2778L32.7404 58.3648L32.6606 58.4244L32.5461 58.4228L32.4573 58.4212L32.3503 58.4743L32.1756 58.5613L32.0114 58.4308L31.9572 58.3873L31.906 58.4308L31.68 58.6273L31.4556 58.4083L31.4104 58.3648L31.3833 58.368L31.3727 58.3696H31.3501H31.2447L31.1121 58.4179L30.8335 58.521L30.7039 58.2681L30.3876 58.5275L30.1767 58.1538L30.133 58.0764L30.1165 58.0732L30.0803 58.0652L30.0427 58.0458L29.9312 57.9911C29.8935 57.9717 29.8589 57.9572 29.8227 57.9411C29.7896 57.9266 29.7595 57.9121 29.7248 57.8992L29.6345 57.9331L29.3633 58.0346L29.2037 57.7752L29.1539 57.6931L29.1344 57.685L29.0199 57.6592L28.8602 57.6463L28.6764 57.6302L28.5785 57.4692L28.5544 57.4289L28.5318 57.4241L28.4731 57.4112L28.4249 57.3822L28.2758 57.292L28.205 57.2501L28.1598 57.1856L28.1538 57.176L28.1312 57.1744L27.9866 57.1679L27.8871 57.0616L27.8344 57.0052L27.7546 56.9859L27.5271 56.9295L27.482 56.6943L27.4729 56.6476L27.4036 56.617L27.3539 56.5542L27.2349 56.4028L27.1536 56.2868L27.0828 56.2336L26.9442 56.1644L26.777 56.0709L26.6053 55.9743L26.5932 55.7971L26.5465 55.7858L26.4938 55.7375L26.3613 55.6135L26.2362 55.4959L26.2453 55.3412L26.2468 55.3187L26.066 55.2381L26.0811 55.032L25.8431 54.9691L25.8868 54.7001L25.8913 54.6727L25.8672 54.6615L25.8491 54.6454L25.7045 54.5229L25.6804 54.502L25.6774 54.4972L25.5539 54.3586L25.5117 54.3119L25.4982 54.2749L25.3716 53.9253L25.343 53.8464L25.3535 53.79L25.3822 53.637L25.349 53.5742L25.2511 53.4582L25.221 53.4227L25.2135 53.405L25.1472 53.2423L25.0613 53.1135L25.0071 53.0313L25.0267 52.9588L25.0553 52.8509L24.9755 52.7977L24.9288 52.7671L24.9152 52.7317C24.8926 52.6753 24.8715 52.6157 24.852 52.5577L24.8324 52.5046L24.8444 52.4804Z" fill="#ABA000"></path> <path d="M43.1476 54.3085L43.2772 54.4277L43.3148 54.4631L43.3088 54.5163L43.2877 54.6838L43.3736 54.7933L43.4911 54.9303L43.4956 54.9351L43.4986 54.9399L43.595 55.0897L43.601 55.0994L43.6055 55.1107L43.6643 55.2798L43.7245 55.4296L43.833 55.5504L43.8601 55.5794V55.6213L43.8571 55.7905L43.9595 55.8823L43.9761 55.8968L43.9851 55.9161L44.0469 56.0546L44.1824 56.1432L44.2111 56.1626L44.2216 56.198L44.2713 56.3623L44.3557 56.4863L44.4807 56.5991L44.5033 56.62L44.5093 56.6523L44.5455 56.8069L44.663 56.8939L44.666 56.8971L44.669 56.9003L44.8 57.0179L44.8045 57.0227L44.8091 57.0276L44.922 57.1597L44.9356 57.1758L44.9416 57.1967L44.9778 57.3127L45.032 57.3046L45.1284 57.2338C45.2097 57.1613 45.2896 57.0872 45.3694 57.0131L45.4688 56.8794L45.4884 56.852L45.52 56.8439L45.6496 56.8117L45.639 56.6523L45.6375 56.62L45.6526 56.5927L45.74 56.4396L45.7656 56.3945L45.8153 56.3929L45.981 56.3865L46.0277 56.3849L46.0563 56.4235L46.1226 56.5105L46.1271 56.5169L46.1301 56.5234L46.2159 56.678L46.3108 56.8262L46.3289 56.8552L46.3259 56.8907L46.3154 57.0389L46.4434 57.1146L46.4705 57.1307L46.4841 57.1597L46.5564 57.3256L46.5654 57.3465V57.3691L46.5624 57.5334L46.6633 57.6349L46.6754 57.6477L46.6829 57.6639L46.7477 57.8072L46.8787 57.9119L46.8908 57.9216L46.8998 57.9361L46.9947 58.0875L47.0052 58.1036L47.0083 58.1229L47.0384 58.284L47.1378 58.4L47.1604 58.4258L47.1619 58.4612L47.1724 58.6497L47.2342 58.7931C47.2975 58.8881 47.3607 58.9831 47.4225 59.0798C47.5008 59.1636 47.5776 59.2489 47.6514 59.3359L47.7283 59.4003L47.7991 59.3456L47.8879 59.1974L47.8985 59.1797L47.9151 59.1684L48.0642 59.0653L48.0777 59.0556L48.0928 59.0524L48.2223 59.0186L48.2193 58.8365V58.7914L48.2494 58.7608L48.379 58.6336L48.391 58.6207L48.4076 58.6143L48.5778 58.5418L48.6787 58.4467L48.7194 58.2776L48.7315 58.2293L48.7751 58.2099L48.9077 58.1519L48.9092 57.9876V57.9377L48.9469 57.9087L49.093 57.7976L49.1924 57.6993L49.1969 57.5173L49.1984 57.4561L49.2496 57.4303L49.4018 57.3514L49.4259 57.2885L49.4726 57.1677L49.569 57.2483L49.6578 57.324L49.691 57.353L49.6925 57.3981L49.7 57.5833L49.7301 57.738L49.819 57.8555L49.9696 57.957L50.0013 57.9796L50.0103 58.0199L50.0118 58.0295L50.0239 58.0166L50.0404 58.0086L50.1655 57.9506L50.2302 57.8056L50.2498 57.7621L50.2935 57.7508L50.4577 57.709L50.5661 57.6171L50.6625 57.4818L50.6746 57.4641L50.6927 57.4545L50.8237 57.382L50.881 57.2402L50.9578 57.0695L50.9638 57.055L50.9743 57.0437C51.0451 56.9648 51.1144 56.8842 51.1837 56.8037L51.2033 56.6345L51.2093 56.5862L51.2485 56.562L51.3856 56.4751L51.4549 56.3414L51.4609 56.3285L51.4699 56.3188L51.5784 56.206L51.6266 56.0595L51.6672 55.8839L51.6718 55.8678L51.6808 55.8533L51.7712 55.7035C51.8359 55.6503 51.9655 55.6793 51.9278 55.8114L51.8585 55.9451L51.8284 56.1175L51.8254 56.1287L51.7772 56.3059L51.7712 56.3285L51.7471 56.3559L51.6477 56.4718C51.6251 56.5218 51.6025 56.5717 51.5784 56.62L51.5618 56.6523L51.5272 56.6764L51.4353 56.7392L51.4232 56.8697L51.4187 56.9164L51.3841 56.9599C51.3178 57.0437 51.25 57.1258 51.1807 57.208L51.1189 57.3578C51.0979 57.4158 51.0768 57.4722 51.0542 57.5285L51.0316 57.5881L50.9743 57.6204L50.8508 57.6896L50.771 57.8024L50.7589 57.8185L50.7409 57.8346L50.6083 57.949L50.5782 57.9748L50.5375 57.986L50.4396 58.0118L50.3974 58.1084L50.3703 58.1729L50.3071 58.2035L50.185 58.2631L50.0917 58.3678L49.8506 58.6368L49.7783 58.2728C49.7708 58.2325 49.7633 58.1906 49.7557 58.1503C49.7271 58.1262 49.6985 58.102 49.6699 58.0762L49.6307 58.0392L49.5373 57.8733L49.5102 57.8266L49.5087 57.8104L49.4967 57.6188L49.4952 57.5994C49.4982 57.5737 49.4997 57.5479 49.5012 57.5221L49.3927 57.5833C49.3927 57.6365 49.3942 57.6912 49.3957 57.7444L49.3972 57.7863L49.3611 57.8282L49.2376 57.9699L49.2255 57.9812L49.1442 58.0537L49.1562 58.2228L49.1638 58.3162L49.0598 58.3742L48.9695 58.4242L48.9499 58.553L48.9439 58.5965L48.8926 58.6545L48.7691 58.7947L48.7556 58.8092L48.7074 58.8349L48.5823 58.901L48.5643 58.9219C48.5703 58.9783 48.5748 59.0347 48.5778 59.0911L48.5869 59.2989L48.3805 59.3633L48.2359 59.4084C48.2148 59.4245 48.1937 59.439 48.1726 59.4551L48.1048 59.5743L48.0792 59.6194L48.0325 59.6549C47.9858 59.6919 47.9392 59.7306 47.891 59.766L47.7162 59.8965L47.5566 59.7563L47.4225 59.6387L47.4029 59.621L47.3924 59.6081L47.2794 59.4744C47.2402 59.4309 47.2011 59.3891 47.1634 59.344L47.1378 59.3117L47.1333 59.3037C47.0745 59.2006 47.0143 59.0975 46.9525 58.9976L46.9345 58.967L46.9284 58.9525C46.9058 58.8962 46.8862 58.8382 46.8667 58.7802L46.8441 58.7157V58.6884L46.8456 58.5466L46.7989 58.4822L46.7522 58.4177L46.7477 58.3726L46.7296 58.2067L46.6814 58.1149L46.576 58.015L46.5338 57.9764L46.5232 57.9474L46.4675 57.7927L46.3741 57.6832L46.3229 57.6236L46.3289 57.5672L46.347 57.3804C46.3349 57.3465 46.3229 57.3143 46.3108 57.2821L46.1738 57.1919L46.1105 57.15L46.118 57.0807C46.1241 57.0211 46.1316 56.9631 46.1376 56.9035L46.0623 56.7827L45.978 56.6265L45.9478 56.5846C45.9267 56.5862 45.9072 56.5878 45.8861 56.5894C45.8755 56.612 45.865 56.6345 45.8544 56.6571C45.8605 56.6893 45.8665 56.7215 45.874 56.7537L45.9026 56.8745L45.9252 56.9728L45.7867 57.0421L45.6857 57.0936C45.6646 57.1403 45.6436 57.1871 45.6195 57.2322L45.5908 57.2644C45.5547 57.3111 45.5215 57.361 45.4824 57.4029C45.4432 57.4464 45.4071 57.4931 45.3664 57.5334L45.3453 57.5511C45.3076 57.5833 45.2685 57.6139 45.2293 57.6429L45.1796 57.6816L45.1118 57.6929C45.0606 57.7009 45.0094 57.7074 44.9597 57.7154L44.7262 57.7492L44.6554 57.5141L44.6147 57.3755L44.5545 57.303L44.4476 57.2048L44.315 57.1049L44.2306 57.0421L44.2065 56.9374C44.1975 56.9019 44.1915 56.8649 44.1839 56.8278L44.1222 56.7698L44.0936 56.7425L44.08 56.7215L43.9836 56.5717L43.9565 56.5282L43.9475 56.4928L43.9219 56.3994C43.8978 56.3832 43.8737 56.3655 43.8511 56.3494L43.7803 56.2979L43.7562 56.2367L43.7065 56.1094L43.6221 56.0272L43.5317 55.9403L43.5377 55.8323L43.5453 55.7019C43.5302 55.6825 43.5136 55.6632 43.4986 55.6439L43.4654 55.602L43.4564 55.5762L43.3962 55.399L43.3464 55.2299C43.3239 55.1896 43.2998 55.1493 43.2787 55.1075L43.2937 55.1268L43.1838 54.9738L43.0798 54.8159L43.0346 54.7466L43.0467 54.6919L43.0768 54.5453C43.0512 54.5163 43.0256 54.4889 43 54.4599L42.9714 54.4261L42.9684 54.4116L42.9217 54.2247C42.9021 54.0878 43.0663 54.0717 43.0949 54.1522L43.1476 54.3085Z" fill="#ABA000"></path> <path d="M40.1131 47.0388C39.2196 46.0832 39.2196 44.534 40.1131 43.5784C41.0067 42.6229 42.4554 42.6229 43.3489 43.5784C44.2424 44.534 44.2424 46.0832 43.3489 47.0388C42.4554 47.9943 41.0067 47.9943 40.1131 47.0388Z" fill="#31332A"></path> <path d="M40.8092 43.7835C40.8092 44.1637 41.2566 44.4714 41.8094 44.4714C42.3622 44.4714 42.8096 44.1637 42.8096 43.7835C42.8096 43.4034 42.3622 43.0957 41.8094 43.0957C41.2566 43.0941 40.8092 43.4034 40.8092 43.7835Z" fill="#636A78"></path> <path d="M51.812 42.1331L51.8452 42.3087L52.1269 42.3264L52.1495 42.5277L52.4613 42.539L52.2233 42.9031L52.7972 42.7661L52.8107 42.9739L52.7821 43.2027L52.9297 43.3315L53.1466 43.4266L53.2129 43.6006L53.1255 43.847L52.8695 44.1611L53.0578 44.2723L53.4147 44.3206L53.4373 44.5107L53.5428 44.6685L53.1858 44.9891L53.5729 45.0503L53.3198 45.3209L53.7838 45.3741L53.8531 45.5481L53.4825 45.8348L53.8983 45.9234L53.6708 46.1618L53.5277 46.3744L53.7491 46.4437C54.2869 45.9959 54.6318 45.2984 54.6318 44.5139C54.6318 43.1624 53.6076 42.0654 52.3423 42.0654C52.16 42.0654 51.9823 42.0896 51.812 42.1331Z" fill="#31332A"></path> <path d="M52.872 42.5005C52.7831 42.6503 52.9217 42.9145 53.1823 43.0917C53.4429 43.2689 53.726 43.2914 53.8149 43.1416C53.9038 42.9918 53.7652 42.7277 53.5046 42.5505C53.244 42.3733 52.9608 42.3507 52.872 42.5005Z" fill="#636A78"></path> <path d="M46.9603 46.7859C46.9633 46.8084 46.9678 46.8438 46.9768 46.8873C47.0446 47.2353 47.3188 48.1679 47.974 48.2791C48.6488 48.3919 51.0649 47.2836 51.4822 46.8422C51.5214 46.802 51.5439 46.7649 51.5439 46.7359C51.5439 46.7101 51.5244 46.6747 51.4867 46.6328C51.1357 46.2204 49.2438 45.1025 48.6187 44.7369C48.4786 44.6547 48.3159 44.6499 48.1744 44.7256C47.3007 45.1831 47.0055 46.3123 46.9648 46.686C46.9603 46.7311 46.9588 46.7649 46.9603 46.7859Z" fill="#FC8B2D"></path> <path d="M46.9603 46.786C46.9633 46.8086 46.9678 46.844 46.9768 46.8875C47.3534 46.931 47.73 46.9455 48.1066 46.9584C48.4892 46.968 48.8718 46.9664 49.2529 46.9584C49.6355 46.9519 50.0166 46.939 50.3992 46.9197C50.7607 46.9004 51.1222 46.8794 51.4822 46.8424C51.5214 46.8021 51.5439 46.7651 51.5439 46.7361C51.5439 46.7103 51.5244 46.6749 51.4867 46.633C51.1222 46.6024 50.7592 46.5879 50.3961 46.5782C50.0135 46.5686 49.6325 46.5621 49.2499 46.5637C48.8673 46.5637 48.4862 46.5718 48.1051 46.5879C47.7255 46.6072 47.3444 46.633 46.9633 46.6845C46.9603 46.7313 46.9588 46.7651 46.9603 46.786Z" fill="#D13301"></path> <path d="M48.9435 45.3959C48.9149 45.4861 49.0053 45.6101 49.1469 45.6746C49.2885 45.739 49.427 45.7181 49.4557 45.6279C49.4843 45.5377 49.3939 45.4136 49.2523 45.3492C49.1107 45.2864 48.9721 45.3057 48.9435 45.3959Z" fill="#D13301"></path> <path d="M31.9027 70.9018H33.8985L33.7644 64.5277C33.7644 64.5196 33.7644 64.51 33.7644 64.5003C33.7735 64.2522 33.9678 64.0605 34.1983 64.0686C34.4302 64.0783 34.6095 64.2861 34.6019 64.5325L34.379 70.8728L39.746 70.3042C39.874 70.2913 39.9885 70.3911 40.0005 70.5265C40.0126 70.6634 39.9192 70.7858 39.7911 70.7987L35.813 71.2207L40.4614 72.1228C40.588 72.147 40.6723 72.2774 40.6482 72.4127C40.6271 72.5336 40.5292 72.6173 40.4193 72.6173C40.4057 72.6173 40.3922 72.6157 40.3771 72.6141L35.3069 71.6299L38.6328 73.8254C38.7428 73.8979 38.7759 74.051 38.7081 74.1686C38.6403 74.2862 38.4972 74.3216 38.3873 74.2491L34.0672 71.3979L31.9012 71.3995C31.7731 71.3995 31.6692 71.2884 31.6692 71.1515C31.6692 71.0145 31.7731 70.9018 31.9027 70.9018Z" fill="#FC8B2D"></path> <path d="M40.7605 70.3802C40.7605 70.5171 40.8644 70.6283 40.9924 70.6283L43.1585 70.6267L47.4785 73.4779C47.5885 73.5487 47.7316 73.5133 47.7994 73.3957C47.8672 73.2797 47.8325 73.1267 47.7241 73.0526L44.3967 70.857L49.4684 71.8413C49.4819 71.8445 49.497 71.8445 49.5105 71.8445C49.6205 71.8445 49.7184 71.7591 49.7395 71.6399C49.7621 71.5046 49.6777 71.3757 49.5512 71.35L44.9028 70.4479L48.8809 70.0258C49.0089 70.0113 49.1023 69.8905 49.0888 69.7536C49.0767 69.6167 48.9623 69.5184 48.8342 69.5313L43.4673 70.0999L43.5998 66.3306L43.3739 66.1147L43.1826 66.0664L43.0877 66.366L42.9536 66.5368L42.9099 66.4965L42.9868 70.1273H40.9909C40.8629 70.1322 40.7605 70.2433 40.7605 70.3802Z" fill="#FC8B2D"></path> </g> <g clip-path="url(#clip2)"> <path d="M36.5312 22.5869C36.521 22.5859 36.5125 22.5892 36.504 22.5926C36.4625 22.599 36.4209 22.6054 36.381 22.6161C36.2241 22.6529 36.0832 22.6932 35.95 22.7405C35.9075 22.7571 35.8608 22.7754 35.8243 22.7946C35.5916 22.9005 35.3978 23.0307 35.2334 23.1986C35.1866 23.2415 35.1474 23.2914 35.1039 23.3429C34.9726 23.5078 34.8641 23.6932 34.7673 23.9086C34.7544 23.9383 34.7441 23.9621 34.7313 23.9917C34.6567 24.1639 34.5905 24.3575 34.531 24.5681C34.151 24.1351 33.7949 23.8259 33.4 23.6551C33.1176 23.534 32.8187 23.4834 32.4746 23.5047C32.3321 23.5161 32.1829 23.5351 32.0243 23.5676C30.8206 23.8319 30.0399 24.9264 30.2786 26.0113C30.3259 26.2196 30.3944 26.4195 30.4858 26.6155C30.5395 26.7276 30.5958 26.8337 30.658 26.9425C30.6689 26.9579 30.6739 26.9708 30.6849 26.9862C30.7067 27.0171 30.7261 27.0539 30.7479 27.0848C30.8455 27.2339 30.9558 27.3781 31.0763 27.5232C31.1597 27.6237 31.2516 27.7208 31.3451 27.8222C31.9268 28.4326 32.6969 28.9988 33.5526 29.5463C34.2706 30.0047 35.0429 30.4517 35.8254 30.8996C35.8448 30.9117 35.8626 30.9196 35.8863 30.93C35.9057 30.9421 35.9234 30.95 35.9386 30.9638C35.9642 30.9291 35.9881 30.8901 36.0154 30.8597C36.0947 30.7498 36.1698 30.6415 36.2492 30.5316C37.1792 29.2307 38.0633 27.9378 38.5862 26.7224C38.6016 26.6868 38.6145 26.6571 38.6299 26.6215C38.7388 26.3619 38.8273 26.1004 38.9006 25.8499C39.0688 25.2417 39.1157 24.6613 38.9955 24.1167C38.7599 23.0651 37.676 22.4098 36.5312 22.5869Z" fill="#F42403"></path> <path d="M19.7797 27.7208C19.1263 26.8772 17.8711 26.7474 16.9112 27.4093C16.9027 27.4126 16.8959 27.4202 16.8891 27.4278C16.8542 27.4513 16.8194 27.4748 16.7904 27.5009C16.6628 27.6002 16.5539 27.6971 16.4568 27.7992C16.4253 27.8312 16.3912 27.8692 16.3656 27.9039C16.2028 28.1008 16.0823 28.3057 16.0075 28.5273C15.9861 28.585 15.9663 28.647 15.9524 28.7116C15.904 28.913 15.8868 29.1317 15.8907 29.3668C15.8923 29.3958 15.8896 29.4264 15.8928 29.4597C15.8987 29.6497 15.924 29.8518 15.9543 30.0667C15.4249 29.8401 14.973 29.7113 14.5434 29.7267C14.2433 29.7358 13.9472 29.8172 13.6473 29.9889C13.5224 30.0575 13.3982 30.1406 13.2706 30.2399C12.3001 30.9995 12.0648 32.3242 12.7435 33.2073C12.8723 33.3738 13.0207 33.5277 13.187 33.6647C13.2807 33.7414 13.3786 33.8165 13.485 33.8882C13.5011 33.8918 13.5146 33.9013 13.5298 33.915C13.5627 33.9366 13.5957 33.9583 13.6269 33.9756C13.7765 34.0699 13.9413 34.1533 14.1087 34.2307C14.2287 34.2872 14.3514 34.3378 14.4782 34.3867C15.2614 34.6865 16.1986 34.8668 17.2038 34.9958C18.043 35.1011 18.9367 35.1703 19.8303 35.2394C19.8506 35.2413 19.8752 35.2416 19.8998 35.2418C19.9201 35.2437 19.9404 35.2456 19.9607 35.2475C19.9686 35.205 19.9747 35.1582 19.9843 35.12C20.0061 34.9882 20.0279 34.8564 20.054 34.7229C20.332 33.1448 20.5794 31.5886 20.5316 30.2662C20.531 30.227 20.5277 30.1938 20.5271 30.1546C20.5132 29.8692 20.4857 29.5989 20.4387 29.3412C20.3282 28.709 20.1225 28.1585 19.7797 27.7208Z" fill="#F42403"></path> <path d="M21.5267 8.2625C21.5571 7.93999 21.5679 7.63007 21.5533 7.33012L21.5516 7.32585C21.5246 6.60673 21.3786 5.95885 21.0618 5.41237C20.4552 4.36311 19.0587 4.02246 17.8796 4.6123C17.8711 4.61563 17.8584 4.62061 17.8516 4.62821C17.8108 4.64911 17.77 4.67001 17.7309 4.69518C17.5754 4.78565 17.4318 4.88135 17.3084 4.97895C17.2684 5.01433 17.2267 5.04544 17.1867 5.08082C16.9689 5.2746 16.8068 5.48596 16.6896 5.72415C16.6554 5.78684 16.6271 5.85215 16.6005 5.92173C16.5155 6.14236 16.4592 6.38625 16.43 6.64915C16.429 6.68406 16.422 6.71636 16.421 6.75127C16.4022 6.96572 16.3943 7.19561 16.399 7.44521C15.8363 7.10842 15.351 6.89417 14.8614 6.84427C14.5158 6.81194 14.1758 6.85633 13.8108 6.99928C13.6622 7.05745 13.5059 7.13344 13.3462 7.22557C12.1327 7.92751 11.6646 9.38281 12.2956 10.4817C12.4166 10.6907 12.5614 10.8855 12.7258 11.0676C12.8193 11.169 12.9214 11.2671 13.0277 11.3636C13.0429 11.3773 13.058 11.3911 13.0732 11.4049C13.1078 11.4308 13.1399 11.4626 13.1745 11.4885C13.3315 11.6144 13.5012 11.7353 13.6778 11.8485C13.802 11.9281 13.9346 12.0044 14.0715 12.0789C14.9124 12.5385 15.9352 12.8875 17.048 13.1913C17.9789 13.4431 18.9743 13.6597 19.9681 13.8721C19.9943 13.8766 20.0163 13.8828 20.0426 13.8873C20.0646 13.8935 20.0908 13.898 20.1128 13.9042C20.1275 13.8541 20.1438 13.8082 20.1601 13.7624C20.2058 13.6164 20.2514 13.4703 20.297 13.3243L20.2953 13.32C20.8554 11.5871 21.3705 9.8767 21.5185 8.37911C21.5195 8.3442 21.5231 8.30335 21.5267 8.2625Z" fill="#F42403"></path> </g> <defs> <clipPath id="clip0"> <rect width="88" height="88" fill="white" transform="matrix(-1 0 0 1 88 0)"></rect> </clipPath> <clipPath id="clip1"> <rect width="33" height="39" fill="white" transform="matrix(-1 0 0 1 55 37)"></rect> </clipPath> <clipPath id="clip2"> <rect width="27.8541" height="31.1311" fill="white" transform="translate(3.64648 10.1758) rotate(-21.3832)"></rect> </clipPath> </defs> </svg> 