<?xml version="1.0" encoding="UTF-8" standalone="no"?> <svg xmlns="http://www.w3.org/2000/svg" xmlns:xlink="http://www.w3.org/1999/xlink" xmlns:serif="http://www.serif.com/" width="100%" height="100%" viewBox="0 0 799 802" xml:space="preserve" style="fill-rule:evenodd;clip-rule:evenodd;stroke-linejoin:round;stroke-miterlimit:2;"> <g transform="matrix(1,0,0,1,-7661.62,-3929.27)"> <g> <g transform="matrix(1.64528,-0.199877,0.199877,1.64528,8467.39,-2084.95)"> <path d="M-919.672,3829.43L-919.847,3811.07L-951.298,3811.37L-951.405,3800.07L-910.861,3799.69L-910.578,3829.4L-919.672,3829.43Z" style="fill-rule:nonzero;"></path> <path d="M-910.131,3837.64L-907.666,3848.66L-930.898,3853.86L-904.012,3864.99L-901.66,3875.51L-941.228,3884.36L-943.694,3873.34L-920.518,3868.15L-947.335,3857.06L-949.7,3846.49L-910.131,3837.64Z" style="fill-rule:nonzero;"></path> <path d="M-906.624,3938.29L-922.021,3946.09L-926.76,3936.74L-919.475,3933.05L-931.205,3909.9L-938.49,3913.59L-943.255,3904.19L-927.858,3896.39L-927.204,3897.68C-926.087,3899.8 -923.859,3900.56 -920.521,3899.97C-917.182,3899.38 -912.74,3897.81 -907.193,3895.26L-895.823,3890.02L-881.056,3919.16L-909.111,3933.38L-906.624,3938.29ZM-903.541,3904.65C-907.469,3906.46 -910.898,3907.81 -913.829,3908.69C-916.761,3909.57 -919.203,3909.88 -921.155,3909.61L-914.217,3923.3L-894.273,3913.2L-899.536,3902.81L-903.541,3904.65Z" style="fill-rule:nonzero;"></path> <path d="M-861.774,3943.92C-859.376,3946.69 -857.754,3949.5 -856.907,3952.34C-856.061,3955.18 -856.013,3957.9 -856.763,3960.48C-857.514,3963.07 -859.043,3965.36 -861.352,3967.36C-863.661,3969.35 -866.142,3970.52 -868.796,3970.88C-871.45,3971.23 -874.121,3970.78 -876.809,3969.53C-879.496,3968.28 -882.039,3966.27 -884.437,3963.49L-889.056,3958.14L-897.078,3965.07L-904.574,3956.39L-873.89,3929.89L-861.774,3943.92ZM-878.053,3957.06C-876.513,3958.84 -874.965,3959.85 -873.408,3960.09C-871.851,3960.33 -870.356,3959.83 -868.924,3958.59C-867.492,3957.35 -866.773,3955.94 -866.767,3954.35C-866.76,3952.76 -867.527,3951.08 -869.066,3949.3L-873.231,3944.47L-882.218,3952.24L-878.053,3957.06Z" style="fill-rule:nonzero;"></path> <path d="M-852.362,4008.4C-855.826,4005.87 -858.404,4002.87 -860.096,3999.39C-861.789,3995.91 -862.479,3992.3 -862.167,3988.56C-861.854,3984.82 -860.515,3981.33 -858.15,3978.09C-855.784,3974.84 -852.869,3972.5 -849.405,3971.06C-845.942,3969.61 -842.294,3969.17 -838.464,3969.71C-834.633,3970.26 -830.986,3971.8 -827.522,3974.32C-824.058,3976.85 -821.48,3979.85 -819.788,3983.33C-818.095,3986.81 -817.405,3990.42 -817.717,3994.16C-818.03,3997.89 -819.369,4001.39 -821.734,4004.63C-824.1,4007.88 -827.015,4010.22 -830.479,4011.66C-833.942,4013.1 -837.59,4013.55 -841.42,4013C-845.251,4012.46 -848.898,4010.92 -852.362,4008.4ZM-846.766,4000.72C-845.112,4001.93 -843.33,4002.63 -841.42,4002.83C-839.509,4003.02 -837.646,4002.7 -835.831,4001.85C-834.016,4000.99 -832.438,3999.65 -831.096,3997.81C-829.753,3995.97 -828.955,3994.05 -828.7,3992.06C-828.445,3990.07 -828.704,3988.2 -829.477,3986.44C-830.251,3984.68 -831.464,3983.2 -833.118,3982C-834.772,3980.79 -836.554,3980.09 -838.464,3979.89C-840.375,3979.69 -842.237,3980.02 -844.053,3980.87C-845.868,3981.72 -847.446,3983.07 -848.788,3984.91C-850.13,3986.75 -850.929,3988.66 -851.184,3990.65C-851.439,3992.64 -851.18,3994.51 -850.407,3996.27C-849.633,3998.03 -848.42,3999.51 -846.766,4000.72Z" style="fill-rule:nonzero;"></path> <path d="M-802.714,3991.75L-792.235,3995.96L-801.118,4018.05L-776.704,4002.21L-766.709,4006.23L-781.838,4043.85L-792.317,4039.63L-783.456,4017.6L-807.794,4033.41L-817.843,4029.36L-802.714,3991.75Z" style="fill-rule:nonzero;"></path> <path d="M-734.057,4031.8C-731.977,4032.99 -730.44,4034.52 -729.446,4036.4C-728.452,4038.28 -728.127,4040.3 -728.47,4042.47C-728.861,4044.95 -730.04,4046.98 -732.008,4048.54C-733.975,4050.11 -736.466,4051.15 -739.48,4051.67C-742.494,4052.19 -745.718,4052.18 -749.151,4051.64C-751.859,4051.22 -754.563,4050.46 -757.265,4049.37C-759.966,4048.27 -762.492,4046.88 -764.843,4045.18L-760.221,4037.82C-758.573,4039.01 -756.766,4040.01 -754.801,4040.81C-752.835,4041.61 -750.899,4042.16 -748.992,4042.46C-746.474,4042.86 -744.35,4042.77 -742.618,4042.21C-740.887,4041.64 -739.904,4040.61 -739.669,4039.12C-739.482,4037.94 -739.84,4036.99 -740.741,4036.26C-741.643,4035.53 -742.933,4035.03 -744.611,4034.77L-754.852,4033.15L-753.543,4024.85L-744.217,4026.33C-742.691,4026.57 -741.461,4026.45 -740.525,4025.97C-739.59,4025.49 -739.041,4024.74 -738.878,4023.71C-738.674,4022.41 -739.164,4021.31 -740.35,4020.4C-741.535,4019.49 -743.158,4018.87 -745.217,4018.55C-746.896,4018.28 -748.707,4018.24 -750.651,4018.42C-752.596,4018.6 -754.476,4019 -756.293,4019.61L-758.257,4010.51C-753.66,4009.12 -748.806,4008.83 -743.694,4009.64C-740.414,4010.16 -737.446,4011.1 -734.79,4012.48C-732.134,4013.86 -730.115,4015.55 -728.732,4017.57C-727.35,4019.59 -726.848,4021.8 -727.228,4024.2C-727.523,4026.07 -728.272,4027.66 -729.477,4028.97C-730.681,4030.29 -732.208,4031.23 -734.057,4031.8Z" style="fill-rule:nonzero;"></path> <path d="M-692.366,4054.12C-696.642,4054.43 -700.549,4053.8 -704.087,4052.23C-707.626,4050.66 -710.483,4048.35 -712.657,4045.3C-714.832,4042.24 -716.063,4038.71 -716.351,4034.7C-716.638,4030.7 -715.925,4027.03 -714.209,4023.69C-712.494,4020.35 -709.996,4017.66 -706.718,4015.6C-703.439,4013.55 -699.662,4012.37 -695.387,4012.06C-691.112,4011.75 -687.205,4012.38 -683.666,4013.95C-680.127,4015.51 -677.271,4017.82 -675.096,4020.88C-672.921,4023.94 -671.69,4027.47 -671.402,4031.47C-671.115,4035.48 -671.829,4039.15 -673.544,4042.49C-675.26,4045.82 -677.757,4048.52 -681.035,4050.58C-684.314,4052.63 -688.091,4053.81 -692.366,4054.12ZM-693.047,4044.64C-691.005,4044.5 -689.191,4043.88 -687.604,4042.8C-686.017,4041.72 -684.805,4040.27 -683.968,4038.45C-683.131,4036.62 -682.794,4034.58 -682.957,4032.3C-683.12,4030.03 -683.746,4028.05 -684.835,4026.37C-685.924,4024.69 -687.331,4023.42 -689.056,4022.58C-690.782,4021.74 -692.665,4021.39 -694.706,4021.53C-696.748,4021.68 -698.562,4022.29 -700.149,4023.38C-701.736,4024.46 -702.948,4025.91 -703.785,4027.73C-704.622,4029.55 -704.959,4031.6 -704.796,4033.87C-704.633,4036.14 -704.007,4038.12 -702.918,4039.81C-701.829,4041.49 -700.422,4042.75 -698.697,4043.6C-696.971,4044.44 -695.088,4044.79 -693.047,4044.64Z" style="fill-rule:nonzero;"></path> <path d="M-629.79,3997.91L-617.589,4036.58L-628.36,4039.98L-637.825,4009.98L-648.928,4013.49L-647.162,4019.85C-645.603,4025.43 -644.636,4030.07 -644.262,4033.76C-643.888,4037.45 -644.267,4040.51 -645.399,4042.95C-646.531,4045.4 -648.681,4047.12 -651.848,4048.12C-653.321,4048.58 -655.048,4048.88 -657.028,4049.02L-659.245,4039.88C-658.731,4039.84 -658.216,4039.74 -657.701,4039.58C-656.265,4039.12 -655.34,4038.2 -654.927,4036.82C-654.514,4035.43 -654.464,4033.67 -654.778,4031.52C-655.091,4029.37 -655.71,4026.64 -656.634,4023.33L-660.945,4007.74L-629.79,3997.91Z" style="fill-rule:nonzero;"></path> <path d="M-591.076,3975.42L-570.172,4010.16L-579.85,4015.99L-585.106,4007.25L-590.466,4010.48L-590.918,4022.64L-601.241,4028.86L-600.316,4014.44C-603.249,4014.81 -605.91,4014.39 -608.299,4013.2C-610.688,4012 -612.689,4010.06 -614.301,4007.38C-615.934,4004.66 -616.719,4001.94 -616.656,3999.19C-616.593,3996.45 -615.706,3993.85 -613.993,3991.37C-612.281,3988.9 -609.854,3986.72 -606.71,3984.83L-591.076,3975.42ZM-601.853,3992.45C-605.724,3994.78 -606.595,3997.72 -604.465,4001.26C-603.409,4003.01 -602.12,4004.05 -600.596,4004.37C-599.073,4004.69 -597.385,4004.3 -595.532,4003.18L-589.675,3999.66L-596.096,3988.99L-601.853,3992.45Z" style="fill-rule:nonzero;"></path> <path d="M-529.55,3960.44L-517.203,3972.67L-524.581,3980.12L-530.466,3974.29L-553.862,3997.92L-582.67,3969.38L-574.722,3961.36L-552.375,3983.49L-541.411,3972.42L-563.758,3950.29L-555.81,3942.26L-533.463,3964.39L-529.55,3960.44Z" style="fill-rule:nonzero;"></path> <path d="M-547.544,3932.24L-541.735,3922.55L-521.318,3934.8L-533.126,3908.2L-527.586,3898.96L-492.812,3919.81L-498.621,3929.5L-518.988,3917.28L-507.2,3943.8L-512.771,3953.09L-547.544,3932.24Z" style="fill-rule:nonzero;"></path> <path d="M-513.061,3856.34L-474.437,3868.68L-477.873,3879.44L-487.585,3876.34L-489.488,3882.3L-481.804,3891.74L-485.469,3903.22L-494.278,3891.77C-496.241,3893.98 -498.515,3895.43 -501.102,3896.1C-503.689,3896.77 -506.472,3896.63 -509.451,3895.68C-512.468,3894.72 -514.856,3893.18 -516.617,3891.08C-518.377,3888.98 -519.429,3886.43 -519.772,3883.45C-520.115,3880.46 -519.728,3877.22 -518.612,3873.72L-513.061,3856.34ZM-509.934,3876.25C-511.309,3880.56 -510.028,3883.34 -506.092,3884.59C-504.142,3885.22 -502.489,3885.15 -501.13,3884.39C-499.772,3883.62 -498.764,3882.21 -498.106,3880.15L-496.027,3873.64L-507.89,3869.85L-509.934,3876.25Z" style="fill-rule:nonzero;"></path> </g> <g transform="matrix(1.64849,-0.171375,0.171375,1.64849,8578.34,-2076.96)"> <path d="M-875.313,3635.61L-863.223,3669.05C-861.911,3672.61 -861.466,3675.93 -861.889,3679C-862.312,3682.07 -863.543,3684.74 -865.582,3687.01C-867.078,3688.68 -869.051,3690.13 -871.501,3691.35L-875.974,3683.68C-874.571,3682.81 -873.496,3681.96 -872.747,3681.12C-871.999,3680.29 -871.521,3679.38 -871.314,3678.4C-871.107,3677.42 -871.161,3676.29 -871.475,3675.03L-903.722,3667.24L-895.633,3658.23L-874.758,3664.29L-882.783,3643.93L-875.313,3635.61Z" style="fill-rule:nonzero;"></path> <path d="M-823.894,3648.26C-827.352,3650.72 -830.977,3652.21 -834.771,3652.71C-838.564,3653.21 -842.177,3652.72 -845.611,3651.23C-849.044,3649.74 -851.938,3647.35 -854.294,3644.05C-856.649,3640.75 -857.972,3637.23 -858.262,3633.5C-858.552,3629.77 -857.843,3626.2 -856.136,3622.77C-854.429,3619.35 -851.846,3616.4 -848.389,3613.93C-845.371,3611.78 -842.271,3610.37 -839.088,3609.72C-835.905,3609.06 -832.794,3609.16 -829.755,3610.03L-831.861,3619.64C-835.837,3618.59 -839.35,3619.15 -842.399,3621.33C-844.191,3622.61 -845.506,3624.14 -846.344,3625.92C-847.182,3627.71 -847.475,3629.59 -847.225,3631.57C-846.974,3633.55 -846.187,3635.47 -844.864,3637.32C-843.541,3639.17 -841.983,3640.54 -840.193,3641.42C-838.402,3642.3 -836.527,3642.64 -834.567,3642.43C-832.608,3642.21 -830.732,3641.47 -828.941,3640.19C-825.892,3638.01 -824.218,3634.87 -823.92,3630.77L-814.144,3631.91C-814.311,3635.06 -815.224,3638.04 -816.881,3640.83C-818.539,3643.63 -820.877,3646.1 -823.894,3648.26Z" style="fill-rule:nonzero;"></path> <path d="M-818.915,3596.35L-808.457,3592.09L-799.464,3614.13L-792.958,3585.76L-782.982,3581.69L-767.666,3619.24L-778.124,3623.5L-787.095,3601.51L-793.57,3629.8L-803.599,3633.89L-818.915,3596.35Z" style="fill-rule:nonzero;"></path> <path d="M-725.938,3570.88L-719.854,3610.97L-731.021,3612.66L-735.74,3581.57L-747.251,3583.31L-746.489,3589.88C-745.811,3595.63 -745.572,3600.36 -745.771,3604.06C-745.971,3607.76 -746.819,3610.74 -748.315,3612.97C-749.811,3615.21 -752.201,3616.58 -755.484,3617.08C-757.011,3617.31 -758.764,3617.34 -760.742,3617.17L-761.52,3607.8C-761.007,3607.84 -760.483,3607.82 -759.948,3607.74C-758.459,3607.51 -757.404,3606.75 -756.782,3605.44C-756.159,3604.14 -755.837,3602.4 -755.815,3600.23C-755.793,3598.06 -755.983,3595.26 -756.384,3591.85L-758.236,3575.78L-725.938,3570.88Z" style="fill-rule:nonzero;"></path> <path d="M-675.732,3605.07L-676.482,3613.9L-708.918,3611.14L-705.486,3570.74L-673.8,3573.43L-674.55,3582.26L-694.924,3580.53L-695.502,3587.34L-677.553,3588.87L-678.279,3597.41L-696.228,3595.88L-696.856,3603.27L-675.732,3605.07Z" style="fill-rule:nonzero;"></path> <path d="M-618.398,3588.39L-630.689,3627.03L-641.618,3623.56L-636.825,3608.49L-651.728,3603.75L-656.522,3618.82L-667.451,3615.34L-655.159,3576.7L-644.23,3580.18L-648.848,3594.69L-633.945,3599.43L-629.327,3584.92L-618.398,3588.39Z" style="fill-rule:nonzero;"></path> <path d="M-567.012,3617.19L-588.307,3651.69L-598.067,3645.67L-589.762,3632.21L-603.07,3624L-611.375,3637.46L-621.135,3631.43L-599.839,3596.93L-590.08,3602.95L-598.081,3615.92L-584.772,3624.13L-576.771,3611.17L-567.012,3617.19Z" style="fill-rule:nonzero;"></path> <path d="M-554.84,3672.78L-566.827,3660.53L-574.687,3663.76L-582.867,3655.39L-541.365,3639.84L-533.468,3647.91L-549.902,3689.1L-558.245,3680.57L-554.84,3672.78ZM-551.143,3664.47L-545.511,3651.67L-558.432,3657.01L-551.143,3664.47Z" style="fill-rule:nonzero;"></path> <path d="M-495.015,3701.24L-529.486,3722.59L-535.433,3712.99L-526.766,3707.62L-530.06,3702.3L-542.234,3702L-548.577,3691.76L-534.151,3692.5C-534.557,3689.57 -534.175,3686.91 -533.007,3684.5C-531.839,3682.1 -529.925,3680.07 -527.266,3678.43C-524.574,3676.76 -521.857,3675.94 -519.114,3675.97C-516.372,3675.99 -513.754,3676.85 -511.26,3678.53C-508.766,3680.21 -506.553,3682.61 -504.621,3685.73L-495.015,3701.24ZM-512.182,3690.68C-514.56,3686.84 -517.506,3686.01 -521.019,3688.18C-522.759,3689.26 -523.78,3690.56 -524.083,3692.09C-524.386,3693.62 -523.969,3695.3 -522.83,3697.14L-519.231,3702.95L-508.644,3696.39L-512.182,3690.68Z" style="fill-rule:nonzero;"></path> </g> </g> <g transform="matrix(1,0,0,1,-30.1236,9.51587)"> <g transform="matrix(0.883072,0,0,0.883072,7921.63,4151.23)"> <path d="M225.098,36.336C214.058,23.776 204.018,11.776 196.218,2.216C195.937,1.859 195.615,1.537 195.258,1.256C192.814,-0.711 189.239,-0.325 187.272,2.119C187.267,2.125 187.263,2.13 187.258,2.136C179.258,11.896 169.378,23.536 158.338,36.336C109.818,92.616 42.698,170.336 42.698,234.456C42.698,316.78 109.434,383.516 191.758,383.516C274.082,383.516 340.818,316.78 340.818,234.456C340.818,170.456 273.698,92.616 225.098,36.336ZM289.098,331.776C235.334,385.546 148.16,385.551 94.389,331.787C68.573,305.974 54.066,270.964 54.058,234.456C54.058,174.456 119.538,98.656 166.978,43.776C176.018,33.296 184.418,23.776 191.738,14.656C199.058,23.776 207.458,33.296 216.498,43.776C263.738,98.656 329.418,174.496 329.418,234.456C329.459,270.968 314.948,305.991 289.098,331.776Z" style="fill-rule:nonzero;stroke:black;stroke-width:6.67px;"></path> </g> <g transform="matrix(0.883072,0,0,0.883072,7921.63,4151.23)"> <path d="M192.378,323.256L192.378,323.296C144.683,323.318 106,284.671 105.978,236.976L105.978,236.896C105.978,233.748 103.426,231.196 100.278,231.196C97.13,231.196 94.578,233.748 94.578,236.896C94.534,290.843 138.231,334.612 192.178,334.656L192.378,334.656C195.526,334.656 198.078,332.104 198.078,328.956C198.078,325.808 195.526,323.256 192.378,323.256Z" style="fill-rule:nonzero;stroke:black;stroke-width:4.4px;"></path> </g> </g> </g> </svg> 