<?xml version="1.0" encoding="UTF-8" standalone="no"?> <svg xmlns="http://www.w3.org/2000/svg" xmlns:xlink="http://www.w3.org/1999/xlink" xmlns:serif="http://www.serif.com/" width="100%" height="100%" viewBox="0 0 77 72" xml:space="preserve" style="fill-rule:evenodd;clip-rule:evenodd;stroke-linejoin:round;stroke-miterlimit:2;"> <g transform="matrix(1,0,0,1,-1120.94,-165.344)"> <path d="M1124.58,216.111C1124.58,216.111 1129.86,224.09 1149.18,225.067C1168.51,226.044 1178.19,223.351 1178.19,223.351L1189.13,219.263L1193.06,216.939L1192.37,223.192L1192.16,227.121L1184.46,229.775L1181.75,231.634L1178.73,232.536C1178.73,232.536 1154.55,235.268 1148.5,234.312C1142.45,233.357 1131.83,230.436 1131.83,230.436C1131.83,230.436 1126.89,227.569 1126.41,227.304C1125.93,227.039 1123.92,224.756 1123.7,224.118C1123.49,223.481 1124.58,216.111 1124.58,216.111Z" style="fill:rgb(253,238,33);"></path> <path d="M1127.59,199.427L1127.48,207.497L1131.62,211.532C1131.62,211.532 1144.42,215.886 1155.14,216.735C1165.87,217.585 1178.73,215.62 1185.63,213.814C1192.53,212.009 1194.55,207.868 1194.55,207.868L1195.61,202.24L1195.03,199.639C1195.03,199.639 1187.06,203.037 1185.15,204.045C1183.24,205.054 1170.87,207.839 1164.5,207.733C1158.13,207.627 1147.09,206.936 1145.87,206.777C1144.65,206.618 1138.81,204.176 1138.81,204.176C1138.81,204.176 1135.73,203.22 1134.45,202.636C1133.18,202.052 1127.59,199.427 1127.59,199.427Z" style="fill:rgb(253,238,33);"></path> <path d="M1122.59,182.913L1122.93,188.392C1122.93,188.392 1126.26,194.384 1133.53,196.136C1140.81,197.888 1147.97,198.738 1147.97,198.738L1157.95,198.844L1165.55,198.844L1183.81,194.851L1188.48,191.58C1188.48,191.58 1189.76,189.541 1189.8,189.117C1189.84,188.692 1189.42,183.595 1189.42,183.595L1189.5,181.683L1181.26,185.581L1172.3,188.012C1172.3,188.012 1156.42,189.801 1152.17,189.429C1147.92,189.058 1131.36,186.297 1131.2,186.138C1131.04,185.978 1124.72,182.952 1124.72,182.952L1122.59,182.913Z" style="fill:rgb(253,238,33);"></path> <g transform="matrix(0.148506,0,0,0.148506,1120.94,162.917)"> <path d="M478.382,177.199C478.991,174.482 479.319,171.7 479.319,168.851L479.319,103.489C479.319,46.884 355.84,16.34 239.659,16.34C123.478,16.34 0,46.884 0,103.489C0,105.931 0.245,108.32 0.694,110.664C0.269,111.829 0,113.071 0,114.383L0,168.851C0,186.959 12.652,202.395 33.644,215.023C33.016,217.767 32.681,220.538 32.681,223.318C32.681,225.76 32.926,228.149 33.375,230.494C32.949,231.659 32.681,232.901 32.681,234.213L32.681,288.681C32.681,293.682 33.664,298.475 35.501,303.066C15.399,317.962 10.894,332.873 10.894,343.149C10.894,345.591 11.139,347.98 11.588,350.324C11.162,351.489 10.894,352.73 10.894,354.043L10.894,408.511C10.894,465.116 134.373,495.66 250.554,495.66C366.735,495.66 490.214,465.116 490.214,408.511L490.214,343.149C490.214,338.313 489.247,333.537 487.372,328.874C502.912,317.45 512,304.025 512,288.681L512,223.318C512,211.322 505.987,193.895 478.382,177.199ZM81.343,59.903C123.468,45.862 179.694,38.128 239.659,38.128C299.624,38.128 355.848,45.862 397.975,59.903C435.268,72.334 457.531,88.628 457.531,103.489C457.531,118.35 435.268,134.644 397.975,147.075C355.847,161.116 299.624,168.85 239.659,168.85C179.694,168.85 123.467,161.116 81.343,147.075C44.05,134.644 21.787,118.35 21.787,103.489C21.787,88.628 44.051,72.334 81.343,59.903ZM457.532,141.516L457.532,168.851C457.532,181.44 441.51,195.048 413.958,206.474L413.958,164.507C431.517,158.009 446.414,150.332 457.532,141.516ZM392.17,171.598L392.17,214.279C378.832,218.421 364.21,221.958 348.596,224.853L348.596,181.493C363.948,178.784 378.596,175.481 392.17,171.598ZM326.809,184.885L326.809,228.398C312.834,230.356 298.254,231.84 283.235,232.815L283.235,189.22C297.996,188.259 312.609,186.81 326.809,184.885ZM261.447,190.283L261.447,233.865C254.252,234.093 246.985,234.212 239.66,234.212C232.335,234.212 225.067,234.093 217.873,233.865L217.873,190.282C225.143,190.518 232.415,190.637 239.66,190.637C246.904,190.638 254.177,190.519 261.447,190.283ZM196.085,189.22L196.085,232.816C181.066,231.84 166.485,230.357 152.51,228.399L152.51,184.886C166.71,186.81 181.323,188.259 196.085,189.22ZM130.723,181.494L130.723,224.854C115.109,221.958 100.486,218.422 87.149,214.28L87.149,171.598C100.723,175.481 115.372,178.785 130.723,181.494ZM21.787,168.851L21.787,141.516C32.905,150.332 47.802,158.009 65.361,164.507L65.361,206.474C37.809,195.048 21.787,181.44 21.787,168.851ZM54.468,261.344C65.586,270.16 80.483,277.837 98.042,284.335L98.042,326.303C70.49,314.877 54.468,301.269 54.468,288.68L54.468,261.344ZM76.255,446.134C48.703,434.708 32.681,421.1 32.681,408.511L32.681,381.176C43.799,389.992 58.696,397.669 76.255,404.167L76.255,446.134ZM141.617,464.514C126.003,461.618 111.38,458.082 98.043,453.94L98.043,411.258C111.617,415.14 126.266,418.444 141.617,421.154L141.617,464.514ZM206.979,472.475C191.96,471.499 177.379,470.015 163.404,468.058L163.404,424.545C177.604,426.469 192.217,427.918 206.979,428.88L206.979,472.475ZM272.34,473.525C265.145,473.753 257.878,473.872 250.553,473.872C243.228,473.872 235.96,473.753 228.766,473.525L228.766,429.943C236.036,430.179 243.308,430.298 250.553,430.298C257.798,430.298 265.07,430.179 272.34,429.943L272.34,473.525ZM337.702,468.058C323.727,470.016 309.147,471.5 294.128,472.475L294.128,428.88C308.89,427.919 323.503,426.47 337.702,424.546L337.702,468.058ZM403.064,453.939C389.726,458.081 375.104,461.618 359.49,464.513L359.49,421.153C374.842,418.444 389.491,415.14 403.064,411.258L403.064,453.939ZM468.426,408.511C468.426,421.1 452.404,434.708 424.852,446.134L424.852,404.167C442.412,397.668 457.309,389.992 468.426,381.176L468.426,408.511ZM408.87,386.735C366.742,400.776 310.519,408.51 250.554,408.51C190.589,408.51 134.362,400.776 92.238,386.735C54.945,374.304 32.682,358.01 32.682,343.149C32.682,334.622 40.065,326.825 47.919,320.94C84.404,356.795 180.638,375.83 272.342,375.83C345.676,375.83 421.905,363.656 468.165,340.444C468.326,341.348 468.427,342.249 468.427,343.149C468.426,358.011 446.162,374.304 408.87,386.735ZM119.83,334.11L119.83,291.427C133.404,295.309 148.053,298.613 163.404,301.322L163.404,344.684C147.79,341.789 133.167,338.252 119.83,334.11ZM185.192,348.229L185.192,304.714C199.392,306.638 214.005,308.087 228.766,309.049L228.766,352.646C213.747,351.67 199.166,350.186 185.192,348.229ZM250.553,353.695L250.553,310.111C257.823,310.347 265.095,310.466 272.34,310.466C279.585,310.466 286.857,310.347 294.127,310.111L294.127,353.695C286.932,353.923 279.665,354.042 272.34,354.042C265.015,354.042 257.748,353.923 250.553,353.695ZM315.915,352.645L315.915,309.048C330.677,308.087 345.29,306.638 359.489,304.713L359.489,348.228C345.515,350.186 330.934,351.67 315.915,352.645ZM381.277,344.684L381.277,301.322C396.629,298.613 411.278,295.309 424.851,291.427L424.851,334.11C411.513,338.252 396.891,341.789 381.277,344.684ZM490.213,288.681C490.213,301.27 474.191,314.878 446.639,326.304L446.639,284.336C464.199,277.837 479.096,270.161 490.213,261.345L490.213,288.681ZM430.657,266.904C388.532,280.946 332.306,288.679 272.341,288.679C212.376,288.679 156.149,280.946 114.025,266.904C78.653,255.114 56.84,239.849 54.683,225.627C101.462,245.575 171.799,256 239.66,256C335.16,256 435.573,235.358 468.301,196.572C482.484,205.381 490.213,214.749 490.213,223.318C490.213,238.179 467.949,254.473 430.657,266.904Z" style="fill-rule:nonzero;"></path> </g> </g> </svg> 