<?xml version="1.0" encoding="UTF-8"?> <svg xmlns="http://www.w3.org/2000/svg" width="97" height="84" viewBox="0 0 97 84" fill="none"> <rect width="84" height="84" rx="42" fill="white"></rect> <g clip-path="url(#clip0)"> <path d="M84.7467 59.6269C81.4287 61.4494 79.1082 64.8718 78.8377 68.8498C78.809 69.272 79.1423 69.6315 79.5654 69.6315H83.5449L91.2132 67.0699L93.4527 63.7913L95.3786 60.312C95.5839 59.9411 95.4294 59.4762 95.0455 59.2962C93.6358 58.6348 92.0697 58.254 90.4191 58.2255L84.7467 59.6269Z" fill="#FED402"></path> <path d="M71.7971 62.6423H75.5684L67.1473 70.1223H39.0511L31.5788 62.6423H71.7971Z" fill="#E5E1E5"></path> <path d="M79.4912 11.1953L80.207 14.1095L87.0417 45.635L87.4248 51.015L84.7473 51.8233L82.5722 46.6041L75.5273 14.1095L75.3219 11.4455L79.4912 11.1953Z" fill="#EFEDEF"></path> <path d="M27.7234 67.6532H23.575C23.2 67.6532 22.9283 67.3008 23.0168 66.9365C24.2312 61.9425 28.7381 58.2227 34.1005 58.2227C39.7164 58.2227 44.3942 62.3026 45.334 67.6532H27.7234Z" fill="#FEE97D"></path> <path d="M76.1738 17.0953L75.5265 14.1095L75.3211 11.4455L79.4903 11.1953L80.2062 14.1095L80.8535 17.0953H76.1738Z" fill="#E5E1E5"></path> <path d="M84.0329 14.1094H74.2075C73.6384 14.1094 73.1769 13.648 73.1769 13.0789V11.6952C73.1769 10.2998 74.1882 9.10995 75.5654 8.88512L83.6952 7.55732C84.9702 7.34906 86.1279 8.33319 86.1279 9.62501V12.0143C86.1281 13.1714 85.1901 14.1094 84.0329 14.1094Z" fill="#FEE45A"></path> <path d="M78.3379 12.2799C80.5947 12.2799 82.4242 10.4505 82.4242 8.19363V7.79547C82.4242 7.78517 82.4227 7.77531 82.4225 7.76501L83.6952 7.5572C84.9702 7.34894 86.1279 8.33306 86.1279 9.62488V12.0141C86.1279 13.1712 85.1899 14.1091 84.0329 14.1091H74.2075C73.6384 14.1091 73.1769 13.6477 73.1769 13.0786V12.2797H78.3379V12.2799Z" fill="#FEDF30"></path> <path d="M65.4121 67.6532L83.5459 53.5786L86.256 51.3679L87.9893 57.37L84.7477 59.6269L74.1035 67.6534L65.981 73.2797L62.6263 69.01L65.4121 67.6532Z" fill="#FEE97D"></path> <path d="M90.2202 76.4707C86.4759 76.4707 83.4405 73.4353 83.4405 69.6909C83.4405 65.9465 86.4759 62.9111 90.2202 62.9111C93.9646 62.9111 97 65.9465 97 69.6909C97 73.4353 93.9646 76.4707 90.2202 76.4707Z" fill="#736572"></path> <path d="M83.6355 51.5195L87.6799 50.7587L89.1518 52.3733L92.4989 67.81C92.6945 68.7147 92.1197 69.606 91.2165 69.8015L88.7816 70.33C87.8769 70.5256 86.9856 69.9523 86.79 69.0476L83.4414 53.6004L83.6355 51.5195Z" fill="#FEE45A"></path> <path d="M34.1665 76.3732C30.4432 76.3732 27.4248 73.3548 27.4248 69.6315C27.4248 65.9081 30.4432 62.8898 34.1665 62.8898C37.8898 62.8898 40.9082 65.9081 40.9082 69.6315C40.9082 73.3548 37.8898 76.3732 34.1665 76.3732Z" fill="#736572"></path> <path d="M73.9692 68.9845L69.82 73.1336C69.5288 73.4249 69.1336 73.5887 68.7216 73.5887H38.8169L33.8776 71.6398C33.2346 71.3862 32.8121 70.7651 32.8121 70.0739V69.3369C32.8121 68.4072 33.5657 67.6534 34.4955 67.6534H74.102L74.1035 68.6597C74.1037 68.7815 74.0553 68.8984 73.9692 68.9845Z" fill="#EFEDEF"></path> <path d="M61.8115 71.7796C63.5052 71.7796 65.1295 71.1067 66.3271 69.9091L68.5827 67.6534H74.102L74.1035 68.6597C74.1037 68.7815 74.0553 68.8984 73.9692 68.9845L69.8202 73.1335C69.5288 73.4249 69.1338 73.5885 68.7217 73.5885H38.817L34.232 71.7794H61.8115V71.7796Z" fill="#E5E1E5"></path> <path d="M87.0417 45.6351L87.4248 51.0151L84.7473 51.8233L82.5722 46.6041L81.9836 43.8892L86.4532 42.92L87.0417 45.6351Z" fill="#E5E1E5"></path> <path d="M87.8303 68.3195C88.7336 68.1239 89.3083 67.2327 89.1128 66.328L85.813 51.1096L87.679 50.7587L89.1508 52.3733L92.4979 67.81C92.6935 68.7147 92.1187 69.606 91.2155 69.8015L88.7806 70.33C87.8759 70.5256 86.9846 69.9523 86.789 69.0476L86.685 68.5679L87.8303 68.3195Z" fill="#FEDF30"></path> <path d="M82.4138 46.8511C82.1839 46.9018 82.0376 47.1288 82.0884 47.3587L83.441 53.6005L83.5455 53.5781L89.1514 52.3734L87.7958 46.121C87.745 45.8911 87.5181 45.7448 87.2882 45.7941L82.4138 46.8511Z" fill="#D7D0D6"></path> <path d="M85.766 50.8911L84.7789 46.3381L87.2882 45.794C87.5181 45.7447 87.745 45.891 87.7958 46.1209L89.1514 52.3732L86.2239 53.0025L85.766 50.8911Z" fill="#B8B2B8"></path> </g> <path d="M41.4449 47.6628L41.551 47.5174L41.744 47.6337L41.7976 47.3271L41.9778 47.409L42.0328 47.0879L42.2092 47.1592L42.4098 47.3139L42.5134 47.1473L42.6655 47.1434L42.7485 46.8949L42.8584 46.7402L43.0182 46.7614L43.27 47.1275L43.3096 46.7059L43.4694 46.7336L43.6445 46.8222L43.7582 46.6742L43.9652 46.887L44.1237 46.9134L44.1774 46.5288L44.295 46.3953L44.5199 46.6794L44.6529 46.6054L44.7193 46.2776L44.9404 46.5446L45.0145 46.2459L45.1654 46.2406L45.297 46.1693L45.4849 46.3014L45.6204 46.238L45.8312 46.4508L45.8504 45.9697L46.0715 46.2142L46.2517 46.3054L46.285 45.897L46.4281 45.8666L46.5661 45.8164L46.7157 45.8045L46.9483 46.0463L47.0952 46.0186L47.2026 45.8719L47.3483 45.8415L47.4902 45.7979L47.494 45.3749L47.7867 45.7423V45.3234L47.9413 45.3194L48.0167 45.1119L48.2378 45.2705L48.4947 45.4992L48.5344 45.2137L48.6187 45.0392L48.6826 44.8238L49.0264 45.2163L49.1069 45.0379L49.1108 44.7061L49.4137 44.985L49.5095 44.8423L49.6041 44.7022L49.8099 44.7722L49.8482 44.529L49.9262 44.3651L50.0438 44.2739L50.2661 44.3612L50.4591 44.3942L50.5103 44.188H50.6866L50.5844 43.7492L50.8387 43.8721L50.8873 43.6752L51.1199 43.7558L51.1493 43.5351L51.3768 43.5523L51.318 43.3593L51.5506 43.2496L51.5557 43.0989L51.4739 42.9271L51.5557 42.7923L51.5915 42.6456L51.3014 42.405L51.6874 42.3614L51.7398 42.2213L51.6912 42.0468L51.5583 41.8354L51.6068 41.6887L51.6644 41.5459L52.1117 41.571L51.773 41.2565L51.9545 41.1719L52.2484 41.1481L52.0657 40.8877L51.9621 40.659L52.1168 40.5678L52.3072 40.5018L52.1909 40.252L52.3852 40.1925L52.3711 40.0008L52.5015 39.9017L52.5679 39.7616L52.8095 39.7497L52.8491 39.5898L53.0984 39.5977L53.0741 39.3849L53.322 39.4008L53.1878 39.0836L53.4984 39.1655L53.4447 38.9104L53.3834 38.6381L53.6083 38.65L53.892 38.732L54.0237 38.6606L53.869 38.2601L54.1898 38.4055L54.1655 38.1425L54.4275 38.235L54.3317 37.8636L54.4314 37.742L54.6755 37.8279L54.6653 37.5438L54.8416 37.5372L55.0691 37.6178L55.2992 37.7182L55.2391 37.3217L55.4679 37.4261L55.5216 37.2147L55.7746 37.3878L55.7299 36.9596L55.8424 36.8446L56.0775 37.0045L56.1223 36.7269L56.2411 36.6186L56.5287 36.9516L56.6143 36.7613L56.7306 36.6476L56.8584 36.5564L57.0808 36.7825L57.1626 36.5419L57.2482 36.2842L57.4949 36.6609L57.5742 36.3529L57.7646 36.5419L57.9167 36.5736L58.0547 36.5221L58.1442 36.1586L58.3384 36.4811L58.4803 36.4547L58.5889 36.0833L58.75 36.2088L58.9021 36.2736L59.0593 36.5234L59.1871 36.0132L59.3417 36.4626L59.4862 36.2141L59.628 36.4573L59.7891 36L59.9156 36.4348L60.0805 36.1494L60.1955 36.5274L60.3757 36.1837L60.5112 36.3L60.6709 36.2194L60.7962 36.3767L60.9764 36.1956L61.0518 36.5961L61.2167 36.5075L61.3483 36.5895L61.5413 36.4124L61.6154 36.7098L61.8199 36.5168L61.9094 36.7362L62.1612 36.4243L62.1433 36.9503L62.3784 36.719L62.4091 37.0574L62.6136 36.9292L62.8526 36.7375L62.8615 37.0944L63.066 37.0005L63.2309 36.9992L63.2437 37.3111L63.4814 37.1697L63.484 37.479L63.691 37.4076L63.7025 37.6812L63.8993 37.6376L64.1984 37.4354L64.2853 37.5834L64.4157 37.6601L64.5371 37.7513L64.4233 38.1663L64.7032 38.0354L64.8758 38.0579L65.0266 38.1134L65.1135 38.2469L65.1927 38.387L65.2132 38.5906L65.2515 38.769L65.4662 38.7584L65.6413 38.7941L65.5493 39.0968L65.9149 38.9527L65.6477 39.4074L66.113 39.1893L65.8343 39.6294L66.2497 39.4748L66.2535 39.6678L66.1193 39.9612L66.4874 39.87L66.2932 40.1964L66.3238 40.3537L66.5628 40.3683L66.582 40.5348L66.8466 40.5427L66.6446 40.8414L67.1303 40.7291L67.1431 40.8996L67.1188 41.086L67.2428 41.193L67.4281 41.2697L67.4843 41.4124L67.4102 41.6146L67.1929 41.8737L67.354 41.9649L67.6556 42.0059L67.676 42.1605L67.7655 42.29L67.4639 42.5531L67.7923 42.6033L67.5776 42.8253L67.9713 42.8676L68.0301 43.0117L67.7157 43.247L68.0684 43.3196L67.8741 43.5153L67.754 43.6897L68.0646 43.7875L68.1732 43.9263L67.9866 44.1047L67.8268 44.2739L68.1221 44.3942L67.947 44.5594L68.1975 44.6956L67.809 44.8621L68.2959 45.0009L67.8013 45.1529L67.901 45.3009L68.2 45.4621L68.1949 45.6141L67.878 45.7423L68.1911 45.9221L68.2205 46.0807L67.7872 46.1759L67.9751 46.3543L68.0173 46.5142L67.6402 46.6345L67.823 46.8037L67.8077 46.9557L68.0952 47.0812L68.0339 47.2385L67.9725 47.3958L68.177 47.5359L67.993 47.6972L68.094 47.8452L68.117 47.9972L67.8051 48.1532L67.9214 48.3025L68.2 48.4545L67.9917 48.6039L68.0889 48.7585L67.9483 48.9052L67.8268 49.0493L68.1822 49.2224L67.8217 49.348L67.7323 49.4894L67.9483 49.6612L67.8268 49.8L67.9789 49.9705L67.9508 50.1199L67.8614 50.26L67.8741 50.4146L67.9061 50.5745L67.7195 50.6935L67.7502 50.8521L67.6965 50.9948L67.8243 51.1799L67.6351 51.2896L67.6402 51.4469L67.7182 51.624L67.6786 51.772L67.4473 51.8606L67.6326 52.0773L67.5559 52.2121L67.5674 52.3787L67.4345 52.4923L67.1009 52.528L67.4306 52.8175L67.3105 52.9338L67.3488 53.1162L66.9731 53.1175L67.207 53.3898L67.1303 53.522L66.6549 53.4559L66.7533 53.6713L66.5846 53.7506L66.5858 53.9198L66.5488 54.0691L66.5015 54.2145L66.3788 54.3137L66.6076 54.6309L66.5373 54.7683L66.4363 54.8846L66.0299 54.7934L66.1436 55.0525L66.1206 55.2217L65.8944 55.2415L65.6094 55.2111L65.6886 55.4596L65.4701 55.4728L65.4752 55.6658L65.3729 55.7728L65.5327 56.1085L65.4202 56.2103L65.1467 56.1654L65.1109 56.3346L65.0445 56.4773L64.964 56.6095L64.5882 56.4403L64.7825 56.8527L64.4476 56.7139L64.6419 57.1448L64.4975 57.2082L64.3518 57.2717L63.9735 57.0562L64.1754 57.5281L63.8687 57.388L63.6386 57.3325L63.6476 57.5809L63.5926 57.7528L63.4622 57.8241L63.222 57.7435L63.1823 57.9404L62.9587 57.8717L63.02 58.2246L62.8884 58.2933L62.6609 58.2114L62.4832 58.1995L62.5804 58.6409L62.3017 58.4599L62.2302 58.6291L62.0346 58.5788L61.9669 58.7586L61.9528 59.0427L61.802 59.0745L61.7126 59.2265L61.425 58.982L61.3036 59.0639L61.2269 59.2423L61.1476 59.4234L60.9713 59.393L60.7297 59.2027L60.5981 59.2608L60.5738 59.5847L60.3258 59.3573L60.207 59.4498L60.1456 59.697L60.0434 59.845L59.8772 59.8133L59.7763 59.9719L59.6267 59.9878L59.389 59.7287L59.3494 60.0882L59.1372 59.8926L58.9749 59.853L58.8944 60.0988L58.7819 60.2389L58.5838 60.0605L58.5212 60.4094L58.3397 60.2825L58.1979 60.3142L58.0905 60.5072L57.9346 60.4834L57.7493 60.3023L57.6189 60.3962L57.5371 60.7517L57.3582 60.5931L57.2163 60.6301L57.0374 60.4398L56.9108 60.5667L56.7766 60.6618L56.6603 60.9064L56.4955 60.7795L56.3153 60.4887L56.1926 60.7081L56.0417 60.6566L55.8922 60.6169L55.7388 60.5032L55.6072 60.7055L55.473 60.9103L55.3235 60.8694L55.1663 60.6024L55.0295 60.8509L54.8838 60.9209L54.7368 60.9447L54.5899 60.6011L54.4454 60.5191L54.2946 60.9645L54.1502 60.831L54.0096 60.6896L53.8716 60.5231L53.7297 60.4834L53.5661 60.794L53.4281 60.6711L53.2696 60.8231L53.1137 60.9169L52.9884 60.687L52.8696 60.4411L52.7111 60.5455L52.5373 60.7649L52.4159 60.5707L52.2382 60.7676L52.0925 60.7438L51.9698 60.5892L51.787 60.7742L51.7193 60.338L51.4918 60.7345L51.3947 60.4742L51.2733 60.3473L51.1582 60.2006L50.9141 60.5865L50.7902 60.4715L50.6969 60.2442L50.5959 60.0631L50.4476 60.0552L50.3479 59.8834L50.2125 59.8358L49.9172 60.2812L49.9006 59.8622L49.6437 60.1596L49.5057 60.1014L49.53 59.6098L49.3689 59.6269L49.2769 59.4657L49.0648 59.6045L48.9727 59.4472L48.8794 59.3005L48.634 59.4948L48.5011 59.4313L48.4577 59.1829L48.1791 59.4181L48.1867 59.0745L47.9055 59.2978L47.8966 59.0005L47.8583 58.7705L47.5732 58.9767L47.5183 58.7784L47.4787 58.5603L47.3125 58.5564L47.0646 58.6713L47.1298 58.3039L46.9994 58.2391L46.9061 58.1189L46.7054 58.1506L46.368 58.3607L46.5163 57.9167L46.1929 58.0938L46.1035 57.9656L46.0651 57.7765L45.8977 57.7448L45.8555 57.5664L45.8159 57.3893L45.6625 57.3391L45.6945 57.0906L45.3686 57.2175L45.4095 56.965L45.3545 56.8143L45.1334 56.8209L45.2216 56.5394L44.8446 56.6808L44.6541 56.6465L44.9276 56.2182L44.6452 56.2605L44.4688 56.2103L44.3793 56.0887L44.4573 55.8429L44.1084 55.9116L44.3282 55.5719L44.0701 55.568L44.125 55.3525L44.0355 55.2323L43.7914 55.2085L44.0113 54.9005L43.6738 54.9269L43.7787 54.6943L43.5703 54.6388L43.3837 54.5661L43.6432 54.2634L43.3058 54.2648L43.5601 53.9753L43.3249 53.9211L43.2035 53.8114L43.3083 53.6026L43.1307 53.5153L43.031 53.3924L42.9006 53.2801L43.1486 53.029L43.1332 52.877L42.9862 52.7712L42.7345 52.6946L42.6386 52.565L42.5862 52.421L42.6207 52.2531L42.8316 52.0403L42.7894 51.8976L42.7575 51.7509L42.6501 51.6227L42.7383 51.4508L42.7754 51.2909L42.4955 51.1931L42.7051 51.0028L42.5402 50.8798L42.2296 50.7754L42.4955 50.5838L42.3741 50.4476L42.6041 50.2692L42.3856 50.1423L42.4955 49.9811L42.3613 49.8423L42.5274 49.6784L42.5402 49.5291L42.0686 49.4048L42.4405 49.2343L42.4149 49.0863L42.5287 48.933L42.4584 48.6792L42.1504 48.7347L42.0763 48.5629L41.7785 48.7426L41.8577 48.3633L41.7286 48.2919L41.5037 48.317L41.4615 48.1386L41.4129 47.98L41.2954 47.8835L41.0001 47.7514L41.4551 47.7381L41.4449 47.6628Z" fill="#FCEE21"></path> <path d="M43.4153 48.7016L43.4625 48.5298L43.4613 48.5457L43.4792 48.3844C43.5073 48.2774 43.6338 48.3276 43.6376 48.3884L43.6338 48.5496V48.5563L43.6325 48.5629L43.6057 48.7109L43.6479 48.7995L43.791 48.8788L43.8434 48.9078L43.8306 48.9673L43.8012 49.1101L43.8728 49.1999L43.8779 49.2065L43.8818 49.2145L43.9431 49.3361L44.0453 49.4378L44.0517 49.4444L44.0568 49.4511L44.1374 49.5766L44.154 49.6017L44.1501 49.6321L44.1284 49.7947L44.2332 50.0379L44.3278 50.1317L44.4415 50.2163L44.5975 50.2758L44.6563 50.2983L44.6486 50.363L44.6333 50.4912L44.7508 50.5164L44.816 50.5309L44.8135 50.5996L44.8084 50.7371L44.9119 50.7781L44.9643 50.7992L44.963 50.8574L44.9579 51.0199L45.0282 51.0794L45.1841 51.1124L45.2416 51.1243L45.2467 51.1851L45.2595 51.3332L45.3566 51.3847L45.496 51.4482L45.5023 51.4508L45.5075 51.4548L45.6289 51.5394L45.6391 51.5473L45.6468 51.5579L45.735 51.6768L45.818 51.7746L45.9407 51.8249L45.9791 51.8407L45.988 51.883L46.0187 52.0258L46.1248 52.0509L46.1465 52.0562L46.1631 52.072L46.2475 52.1579L46.3868 52.1619L46.4251 52.1632L46.4481 52.1949L46.5312 52.3099L46.6334 52.3681L46.7715 52.3958L46.8034 52.4024L46.8213 52.4315L46.8916 52.5412L47.0105 52.5505H47.0156L47.0207 52.5518L47.1664 52.5822L47.1741 52.5835L47.1817 52.5862L47.3147 52.6443L47.3377 52.6536L47.3504 52.6747L47.4131 52.7752L47.5332 52.7329L47.56 52.7236L47.5856 52.7329C47.6546 52.7593 47.7236 52.7818 47.7927 52.8135C47.8591 52.8412 47.9217 52.873 47.9856 52.9034L48.1186 52.9351L48.1518 52.943L48.1697 52.9734L48.2298 53.0778L48.3409 52.9906L48.3639 52.9721L48.3933 52.9734L48.5378 52.9827L48.5812 52.9853L48.6017 53.025L48.6809 53.1783L48.7742 53.1466L48.787 53.1426H48.801L48.9442 53.1466L49.0873 53.136L49.1218 53.1333L49.1474 53.1585L49.233 53.2431L49.334 53.1611L49.3596 53.1413L49.3915 53.1452L49.5359 53.1598L49.5577 53.1624L49.5756 53.177L49.6829 53.2616L49.7864 53.214L49.8031 53.206L49.821 53.2074L49.9411 53.2126L50.06 53.1307L50.074 53.1215L50.0906 53.1188L50.2325 53.0924L50.2529 53.0884L50.2721 53.095L50.3948 53.1386L50.506 53.0924L50.5392 53.0792L50.5712 53.0963L50.7143 53.1717L50.837 53.1743C50.9265 53.1519 51.0172 53.1307 51.108 53.1122L51.2383 53.0514L51.3725 52.9972L51.4965 52.9219L51.5042 52.9166L51.5131 52.9139L51.6345 52.8743L51.7368 52.7765L51.7547 52.7593L51.7802 52.7553L51.9272 52.7355L51.9451 52.7329L51.9617 52.7382L52.0627 52.7712L52.0998 52.6139L52.11 52.569L52.1534 52.5558L52.2915 52.5121L52.3094 52.5069L52.3285 52.5108L52.4883 52.5399L52.5854 52.5121L52.6544 52.3892L52.6813 52.3416L52.7337 52.3496L52.8487 52.3668L52.8807 52.2346L52.8934 52.1817L52.9458 52.1738L53.0979 52.1513L53.1938 52.1183L53.227 51.9689L53.2411 51.9028L53.3063 51.9055L53.4941 51.9121C53.558 51.9147 53.5849 52.0614 53.489 52.076L53.3842 52.0799L53.365 52.2068L53.3574 52.261L53.2948 52.2875C53.2475 52.3073 53.2002 52.3284 53.1529 52.3469L53.1491 52.3483L53.1324 52.3522L53.0647 52.3654L53.0404 52.4923L53.0187 52.6113L52.887 52.5981L52.8078 52.5901L52.772 52.6615L52.7465 52.713L52.6762 52.7368L52.533 52.7857L52.5062 52.795L52.4602 52.7897L52.3349 52.7752L52.3081 52.9232L52.271 53.132L52.055 53.0699L51.9234 53.0316L51.8889 53.0382L51.8186 53.1109L51.7905 53.14L51.7355 53.1598L51.6307 53.1981L51.5182 53.2721L51.5106 53.2774L51.485 53.2893L51.3546 53.3475L51.2281 53.4136L51.2102 53.4228L51.177 53.4307C51.0837 53.4532 50.9904 53.477 50.8971 53.5034L50.8754 53.51H50.837L50.6875 53.5114L50.6364 53.5127L50.5763 53.4836L50.5277 53.4598L50.4919 53.4757L50.4089 53.5127L50.3079 53.4796L50.2299 53.4545L50.212 53.4585L50.1149 53.5299L50.0472 53.5788L49.95 53.5774L49.8746 53.5761L49.7839 53.6197L49.6356 53.6911L49.4963 53.5841L49.4503 53.5484L49.4069 53.5841L49.2151 53.7453L49.0247 53.5655L48.9864 53.5299L48.9634 53.5325L48.9544 53.5338H48.9352H48.8458L48.7333 53.5735L48.4969 53.6581L48.387 53.4506L48.1186 53.6634L47.9396 53.3567L47.9026 53.2933L47.8885 53.2906L47.8578 53.284L47.8259 53.2682L47.7313 53.2232C47.6994 53.2074 47.67 53.1955 47.6393 53.1823C47.6112 53.1704 47.5856 53.1585 47.5562 53.1479L47.4795 53.1756L47.2495 53.2589L47.114 53.0461L47.0718 52.9787L47.0552 52.9721L46.9581 52.951L46.8226 52.9404L46.6667 52.9272L46.5836 52.795L46.5631 52.7619L46.544 52.758L46.4941 52.7474L46.4532 52.7236L46.3267 52.6496L46.2666 52.6152L46.2283 52.5624L46.2232 52.5544L46.204 52.5531L46.0813 52.5478L45.997 52.4606L45.9522 52.4143L45.8845 52.3985L45.6915 52.3522L45.6532 52.1592L45.6455 52.1209L45.5867 52.0958L45.5445 52.0443L45.4436 51.92L45.3745 51.8249L45.3145 51.7812L45.1969 51.7244L45.055 51.6477L44.9093 51.5684L44.8991 51.4231L44.8595 51.4138L44.8147 51.3741L44.7023 51.2724L44.5962 51.1759L44.6039 51.049L44.6051 51.0305L44.4518 50.9644L44.4646 50.7952L44.2626 50.7437L44.2997 50.523L44.3035 50.5005L44.2831 50.4912L44.2677 50.478L44.145 50.3776L44.1246 50.3604L44.122 50.3564L44.0172 50.2428L43.9814 50.2044L43.9699 50.174L43.8626 49.8872L43.8383 49.8225L43.8472 49.7762L43.8715 49.6506L43.8434 49.5991L43.7603 49.5039L43.7348 49.4748L43.7284 49.4603L43.6721 49.3268L43.5993 49.2211L43.5533 49.1537L43.5699 49.0942L43.5942 49.0056L43.5264 48.962L43.4868 48.9369L43.4753 48.9078C43.4562 48.8616 43.4383 48.8127 43.4216 48.7651L43.405 48.7215L43.4153 48.7016Z" fill="#ABA000"></path> <path d="M58.9448 50.2017L59.0547 50.2996L59.0867 50.3286L59.0815 50.3722L59.0637 50.5097L59.1365 50.5996L59.2362 50.7119L59.24 50.7159L59.2426 50.7199L59.3244 50.8428L59.3295 50.8507L59.3333 50.86L59.3832 50.9987L59.4343 51.1217L59.5263 51.2208L59.5493 51.2446V51.2789L59.5468 51.4177L59.6337 51.4931L59.6477 51.505L59.6554 51.5208L59.7078 51.6345L59.8228 51.7072L59.8471 51.723L59.8561 51.7521L59.8982 51.8869L59.9698 51.9887L60.0759 52.0812L60.0951 52.0984L60.1002 52.1248L60.1308 52.2517L60.2305 52.3231L60.2331 52.3257L60.2356 52.3284L60.3468 52.4249L60.3507 52.4288L60.3545 52.4328L60.4504 52.5412L60.4619 52.5544L60.467 52.5716L60.4976 52.6667L60.5437 52.6601L60.6255 52.602C60.6945 52.5425 60.7622 52.4817 60.8299 52.4209L60.9143 52.3112L60.9309 52.2887L60.9578 52.2821L61.0677 52.2557L61.0587 52.1248L61.0574 52.0984L61.0702 52.0759L61.1444 51.9504L61.1661 51.9134L61.2083 51.912L61.3488 51.9068L61.3885 51.9054L61.4127 51.9372L61.469 52.0085L61.4728 52.0138L61.4754 52.0191L61.5482 52.146L61.6287 52.2676L61.6441 52.2914L61.6415 52.3205L61.6326 52.4421L61.7412 52.5042L61.7642 52.5174L61.7757 52.5412L61.8371 52.6773L61.8447 52.6945V52.713L61.8422 52.8478L61.9278 52.9311L61.938 52.9417L61.9444 52.9549L61.9994 53.0725L62.1106 53.1584L62.1208 53.1664L62.1285 53.1782L62.209 53.3025L62.2179 53.3157L62.2205 53.3316L62.2461 53.4637L62.3304 53.5589L62.3496 53.58L62.3509 53.6091L62.3598 53.7638L62.4122 53.8814C62.4659 53.9594 62.5196 54.0374 62.572 54.1167C62.6384 54.1854 62.7036 54.2554 62.7662 54.3268L62.8314 54.3797L62.8915 54.3347L62.9669 54.2131L62.9758 54.1986L62.9899 54.1894L63.1164 54.1048L63.1279 54.0968L63.1407 54.0942L63.2506 54.0664L63.2481 53.9171V53.8801L63.2736 53.855L63.3835 53.7505L63.3938 53.74L63.4078 53.7347L63.5522 53.6752L63.6379 53.5972L63.6724 53.4584L63.6826 53.4188L63.7197 53.4029L63.8321 53.3554L63.8334 53.2205V53.1796L63.8654 53.1558L63.9893 53.0646L64.0737 52.984L64.0775 52.8346L64.0788 52.7844L64.1223 52.7632L64.2513 52.6985L64.2718 52.6469L64.3114 52.5478L64.3932 52.6139L64.4686 52.676L64.4967 52.6998L64.498 52.7368L64.5044 52.8888L64.53 53.0157L64.6054 53.1122L64.7332 53.1954L64.76 53.2139L64.7677 53.247L64.769 53.2549L64.7792 53.2443L64.7932 53.2377L64.8993 53.1901L64.9543 53.0712L64.9709 53.0355L65.008 53.0262L65.1473 52.9919L65.2393 52.9165L65.3211 52.8055L65.3313 52.791L65.3467 52.7831L65.4578 52.7236L65.5064 52.6073L65.5716 52.4672L65.5767 52.4553L65.5857 52.446C65.6457 52.3813 65.7045 52.3152 65.7633 52.2491L65.7799 52.1103L65.785 52.0706L65.8183 52.0508L65.9346 51.9795L65.9934 51.8697L65.9985 51.8592L66.0061 51.8512L66.0982 51.7587L66.1391 51.6384L66.1736 51.4944L66.1774 51.4812L66.1851 51.4693L66.2618 51.3464C66.3167 51.3027 66.4266 51.3265 66.3947 51.4349L66.3359 51.5446L66.3103 51.686L66.3078 51.6953L66.2669 51.8407L66.2618 51.8592L66.2413 51.8816L66.157 51.9768C66.1378 52.0178 66.1186 52.0588 66.0982 52.0984L66.0841 52.1248L66.0547 52.1447L65.9767 52.1962L65.9665 52.3033L65.9627 52.3416L65.9333 52.3773C65.8771 52.446 65.8195 52.5134 65.7607 52.5808L65.7083 52.7038C65.6905 52.7513 65.6726 52.7976 65.6534 52.8439L65.6342 52.8928L65.5857 52.9192L65.4809 52.976L65.4131 53.0685L65.4029 53.0818L65.3876 53.095L65.2751 53.1888L65.2495 53.21L65.215 53.2192L65.1319 53.2404L65.0962 53.3197L65.0731 53.3725L65.0195 53.3977L64.9159 53.4466L64.8367 53.5325L64.6322 53.7532L64.5709 53.4545C64.5645 53.4214 64.5581 53.3871 64.5517 53.354C64.5274 53.3342 64.5031 53.3144 64.4788 53.2932L64.4456 53.2628L64.3664 53.1267L64.3434 53.0884L64.3421 53.0752L64.3319 52.9179L64.3306 52.902C64.3331 52.8809 64.3344 52.8597 64.3357 52.8386L64.2437 52.8888C64.2437 52.9324 64.245 52.9773 64.2462 53.021L64.2475 53.0553L64.2168 53.0897L64.112 53.206L64.1018 53.2153L64.0328 53.2747L64.043 53.4135L64.0494 53.4902L63.9612 53.5378L63.8845 53.5787L63.8679 53.6845L63.8628 53.7201L63.8194 53.7677L63.7146 53.8827L63.7031 53.8946L63.6622 53.9158L63.5561 53.97L63.5407 53.9871C63.5459 54.0334 63.5497 54.0797 63.5522 54.1259L63.5599 54.2964L63.3848 54.3493L63.2621 54.3863C63.2442 54.3995 63.2263 54.4114 63.2084 54.4246L63.1509 54.5224L63.1292 54.5594L63.0896 54.5885C63.05 54.6189 63.0103 54.6506 62.9694 54.6797L62.8212 54.7868L62.6857 54.6718L62.572 54.5753L62.5553 54.5608L62.5464 54.5502L62.4505 54.4405C62.4173 54.4048 62.3841 54.3704 62.3521 54.3334L62.3304 54.307L62.3266 54.3004C62.2767 54.2158 62.2256 54.1312 62.1732 54.0493L62.1579 54.0241L62.1528 54.0122C62.1336 53.966 62.117 53.9184 62.1004 53.8708L62.0812 53.818V53.7955L62.0825 53.6792L62.0428 53.6263L62.0032 53.5734L61.9994 53.5364L61.984 53.4003L61.9431 53.325L61.8537 53.243L61.8179 53.2113L61.809 53.1875L61.7617 53.0606L61.6824 52.9707L61.639 52.9218L61.6441 52.8756L61.6594 52.7223C61.6492 52.6945 61.639 52.6681 61.6287 52.6416L61.5124 52.5676L61.4588 52.5332L61.4651 52.4764C61.4703 52.4275 61.4767 52.3799 61.4818 52.331L61.4179 52.2319L61.3463 52.1037L61.3207 52.0693C61.3028 52.0707 61.2862 52.072 61.2683 52.0733C61.2594 52.0918 61.2504 52.1103 61.2415 52.1288C61.2466 52.1552 61.2517 52.1817 61.2581 52.2081L61.2824 52.3072L61.3016 52.3879L61.184 52.4447L61.0983 52.487C61.0805 52.5253 61.0626 52.5636 61.0421 52.6007L61.0178 52.6271C60.9872 52.6654 60.959 52.7064 60.9258 52.7408C60.8926 52.7764 60.8619 52.8148 60.8274 52.8478L60.8095 52.8624C60.7775 52.8888 60.7443 52.9139 60.7111 52.9377L60.6689 52.9694L60.6114 52.9787C60.5679 52.9853 60.5245 52.9906 60.4823 52.9972L60.2842 53.0249L60.2241 52.832L60.1896 52.7183L60.1385 52.6588L60.0478 52.5782L59.9353 52.4962L59.8637 52.4447L59.8433 52.3588C59.8356 52.3297 59.8305 52.2993 59.8241 52.2689L59.7717 52.2213L59.7474 52.1989L59.7359 52.1817L59.6541 52.0588L59.6311 52.0231L59.6234 51.994L59.6017 51.9173C59.5813 51.9041 59.5608 51.8896 59.5417 51.8764L59.4816 51.8341L59.4611 51.7838L59.419 51.6794L59.3474 51.612L59.2707 51.5406L59.2758 51.4521L59.2822 51.345C59.2694 51.3292 59.2554 51.3133 59.2426 51.2974L59.2145 51.2631L59.2068 51.2419L59.1557 51.0965L59.1135 50.9578C59.0943 50.9247 59.0739 50.8917 59.056 50.8573L59.0688 50.8732L58.9755 50.7476L58.8873 50.6181L58.8489 50.5613L58.8592 50.5163L58.8847 50.396C58.863 50.3722 58.8413 50.3498 58.8195 50.326L58.7953 50.2982L58.7927 50.2863L58.7531 50.133C58.7365 50.0207 58.8758 50.0075 58.9001 50.0735L58.9448 50.2017Z" fill="#ABA000"></path> <path d="M56.369 44.2366C55.6109 43.4526 55.6109 42.1814 56.369 41.3974C57.1272 40.6133 58.3564 40.6133 59.1145 41.3974C59.8727 42.1814 59.8727 43.4526 59.1145 44.2366C58.3564 45.0207 57.1272 45.0207 56.369 44.2366Z" fill="#31332A"></path> <path d="M56.959 41.5657C56.959 41.8776 57.3386 42.1301 57.8076 42.1301C58.2767 42.1301 58.6562 41.8776 58.6562 41.5657C58.6562 41.2538 58.2767 41.0013 57.8076 41.0013C57.3386 41 56.959 41.2538 56.959 41.5657Z" fill="#636A78"></path> <path d="M66.2959 40.211L66.324 40.3551L66.563 40.3696L66.5822 40.5348L66.8468 40.5441L66.6448 40.8428L67.1318 40.7305L67.1433 40.901L67.119 41.0886L67.2443 41.1944L67.4283 41.2724L67.4845 41.4151L67.4104 41.6173L67.1931 41.8751L67.3529 41.9663L67.6558 42.0059L67.675 42.1619L67.7644 42.2914L67.4615 42.5544L67.79 42.6047L67.5753 42.8267L67.9689 42.8703L68.0277 43.0131L67.7133 43.2483L68.0661 43.321L67.8731 43.5166L67.7516 43.6911L67.9395 43.7479C68.3958 43.3805 68.6885 42.8082 68.6885 42.1645C68.6885 41.0556 67.8194 40.1555 66.7458 40.1555C66.5912 40.1555 66.4403 40.1753 66.2959 40.211Z" fill="#31332A"></path> <path d="M67.1957 40.5124C67.1203 40.6353 67.2378 40.8521 67.459 40.9975C67.6801 41.1428 67.9203 41.1614 67.9957 41.0384C68.0711 40.9155 67.9536 40.6988 67.7325 40.5534C67.5114 40.408 67.2711 40.3895 67.1957 40.5124Z" fill="#636A78"></path> <path d="M62.1792 44.0295C62.1817 44.048 62.1856 44.077 62.1932 44.1127C62.2508 44.3982 62.4834 45.1635 63.0393 45.2547C63.6119 45.3472 65.6619 44.4379 66.016 44.0757C66.0492 44.0427 66.0684 44.0123 66.0684 43.9885C66.0684 43.9673 66.0517 43.9383 66.0198 43.9039C65.722 43.5655 64.1167 42.6483 63.5863 42.3482C63.4675 42.2808 63.3295 42.2769 63.2093 42.339C62.468 42.7144 62.2175 43.6409 62.183 43.9475C62.1792 43.9845 62.1779 44.0123 62.1792 44.0295Z" fill="#FC8B2D"></path> <path d="M62.1792 44.0295C62.1817 44.048 62.1856 44.0771 62.1932 44.1128C62.5128 44.1485 62.8323 44.1604 63.1518 44.1709C63.4764 44.1789 63.8011 44.1776 64.1244 44.1709C64.449 44.1657 64.7724 44.1551 65.097 44.1392C65.4038 44.1234 65.7105 44.1062 66.016 44.0758C66.0492 44.0427 66.0684 44.0123 66.0684 43.9885C66.0684 43.9674 66.0517 43.9383 66.0198 43.904C65.7105 43.8788 65.4025 43.867 65.0945 43.859C64.7698 43.8511 64.4465 43.8458 64.1219 43.8471C63.7972 43.8471 63.4739 43.8537 63.1505 43.867C62.8284 43.8828 62.5051 43.904 62.1817 43.9463C62.1792 43.9846 62.1779 44.0123 62.1792 44.0295Z" fill="#D13301"></path> <path d="M63.8618 42.8889C63.8375 42.9629 63.9142 43.0647 64.0343 43.1175C64.1544 43.1704 64.272 43.1532 64.2963 43.0792C64.3206 43.0052 64.2439 42.9034 64.1238 42.8505C64.0036 42.799 63.886 42.8149 63.8618 42.8889Z" fill="#D13301"></path> <path d="M49.4042 63.8167H51.0976L50.9838 58.5867C50.9838 58.5801 50.9838 58.5722 50.9838 58.5643C50.9915 58.3607 51.1564 58.2034 51.3519 58.21C51.5488 58.218 51.7008 58.3885 51.6945 58.5907L51.5053 63.793L56.0591 63.3264C56.1677 63.3158 56.2648 63.3978 56.2751 63.5088C56.2853 63.6211 56.206 63.7216 56.0974 63.7322L52.722 64.0784L56.6662 64.8186C56.7735 64.8384 56.8451 64.9455 56.8246 65.0565C56.8067 65.1556 56.7237 65.2244 56.6304 65.2244C56.6189 65.2244 56.6074 65.223 56.5946 65.2217L52.2926 64.4142L55.1146 66.2157C55.2079 66.2751 55.236 66.4007 55.1785 66.4972C55.121 66.5937 54.9995 66.6227 54.9062 66.5633L51.2407 64.2238L49.4029 64.2252C49.2942 64.2252 49.206 64.134 49.206 64.0216C49.206 63.9093 49.2942 63.8167 49.4042 63.8167Z" fill="#FC8B2D"></path> <path d="M56.9193 63.3885C56.9193 63.5009 57.0075 63.5921 57.1161 63.5921L58.954 63.5908L62.6195 65.9302C62.7128 65.9884 62.8342 65.9593 62.8918 65.8628C62.9493 65.7676 62.9199 65.6421 62.8278 65.5813L60.0046 63.7798L64.3079 64.5873C64.3194 64.59 64.3321 64.59 64.3436 64.59C64.4369 64.59 64.52 64.5199 64.5379 64.4221C64.5571 64.3111 64.4855 64.2054 64.3782 64.1842L60.434 63.4441L63.8094 63.0978C63.918 63.0859 63.9973 62.9867 63.9858 62.8744C63.9756 62.7621 63.8784 62.6814 63.7698 62.692L59.216 63.1586L59.3285 60.0658L59.1368 59.8887L58.9745 59.849L58.8939 60.0948L58.7802 60.2349L58.7431 60.2019L58.8083 63.181H57.1149C57.0062 63.185 56.9193 63.2762 56.9193 63.3885Z" fill="#FC8B2D"></path> <g clip-path="url(#clip1)"> <path d="M53.6935 23.5133C53.685 23.5125 53.6778 23.5153 53.6706 23.5181C53.6355 23.5235 53.6005 23.5289 53.5668 23.5379C53.4343 23.569 53.3154 23.6031 53.2029 23.643C53.1671 23.657 53.1276 23.6724 53.0968 23.6887C52.9004 23.7781 52.7367 23.8879 52.598 24.0297C52.5585 24.0659 52.5253 24.108 52.4887 24.1515C52.3778 24.2907 52.2862 24.4472 52.2045 24.6291C52.1936 24.6541 52.1849 24.6742 52.1741 24.6992C52.1111 24.8446 52.0553 25.008 52.005 25.1858C51.6842 24.8203 51.3836 24.5593 51.0503 24.4151C50.8118 24.3128 50.5595 24.2701 50.269 24.2881C50.1488 24.2977 50.0228 24.3138 49.8889 24.3412C48.8728 24.5643 48.2137 25.4883 48.4153 26.4041C48.4552 26.5799 48.513 26.7488 48.5902 26.9142C48.6355 27.0088 48.683 27.0984 48.7355 27.1902C48.7447 27.2033 48.7489 27.2141 48.7582 27.2271C48.7767 27.2532 48.793 27.2843 48.8114 27.3103C48.8938 27.4362 48.9869 27.5579 49.0886 27.6804C49.159 27.7653 49.2366 27.8473 49.3156 27.9329C49.8066 28.4481 50.4567 28.9261 51.1791 29.3883C51.7852 29.7753 52.4372 30.1526 53.0977 30.5308C53.1141 30.541 53.1291 30.5476 53.1491 30.5564C53.1655 30.5667 53.1805 30.5733 53.1933 30.5849C53.2149 30.5556 53.2351 30.5228 53.2581 30.4971C53.3251 30.4043 53.3885 30.3129 53.4555 30.2201C54.2406 29.1219 54.987 28.0305 55.4284 27.0044C55.4414 26.9743 55.4522 26.9493 55.4652 26.9192C55.5572 26.7001 55.6319 26.4794 55.6938 26.2679C55.8358 25.7544 55.8753 25.2644 55.7739 24.8047C55.575 23.917 54.66 23.3638 53.6935 23.5133Z" fill="#F42403"></path> <path d="M39.5532 27.8473C39.0015 27.1352 37.942 27.0256 37.1316 27.5843C37.1244 27.5871 37.1187 27.5936 37.1129 27.6C37.0835 27.6198 37.0541 27.6397 37.0297 27.6617C36.9219 27.7455 36.83 27.8273 36.748 27.9135C36.7214 27.9406 36.6926 27.9726 36.671 28.0019C36.5336 28.1681 36.4319 28.3411 36.3687 28.5282C36.3506 28.5769 36.3339 28.6292 36.3222 28.6837C36.2813 28.8537 36.2668 29.0384 36.2701 29.2369C36.2715 29.2613 36.2692 29.2872 36.2719 29.3153C36.2769 29.4756 36.2982 29.6463 36.3238 29.8277C35.8769 29.6364 35.4955 29.5277 35.1327 29.5407C34.8794 29.5483 34.6295 29.6171 34.3762 29.762C34.2708 29.8199 34.166 29.8901 34.0583 29.9739C33.239 30.6152 33.0404 31.7335 33.6133 32.4789C33.7221 32.6195 33.8473 32.7494 33.9877 32.8651C34.0668 32.9298 34.1494 32.9932 34.2393 33.0538C34.2529 33.0568 34.2643 33.0648 34.2771 33.0764C34.3049 33.0947 34.3327 33.1129 34.3591 33.1275C34.4853 33.2071 34.6245 33.2775 34.7658 33.3429C34.8671 33.3906 34.9706 33.4333 35.0777 33.4746C35.7389 33.7277 36.53 33.8799 37.3786 33.9888C38.0871 34.0777 38.8415 34.1361 39.5959 34.1945C39.613 34.1961 39.6338 34.1963 39.6545 34.1965C39.6717 34.1981 39.6888 34.1997 39.706 34.2013C39.7126 34.1654 39.7178 34.1259 39.7258 34.0936C39.7443 33.9823 39.7627 33.8711 39.7847 33.7584C40.0194 32.4262 40.2282 31.1124 40.1879 29.9962C40.1874 29.9631 40.1846 29.935 40.1841 29.9019C40.1724 29.6609 40.1492 29.4328 40.1095 29.2153C40.0162 28.6816 39.8425 28.2168 39.5532 27.8473Z" fill="#F42403"></path> <path d="M41.0272 11.4207C41.0529 11.1484 41.062 10.8868 41.0496 10.6336L41.0482 10.63C41.0254 10.0229 40.9022 9.47597 40.6348 9.01463C40.1226 8.12886 38.9437 7.84129 37.9484 8.33923C37.9412 8.34204 37.9305 8.34625 37.9247 8.35266C37.8903 8.3703 37.8559 8.38794 37.8229 8.40919C37.6916 8.48557 37.5703 8.56636 37.4662 8.64875C37.4324 8.67862 37.3973 8.70488 37.3635 8.73475C37.1796 8.89833 37.0428 9.07675 36.9438 9.27783C36.9149 9.33076 36.891 9.38589 36.8686 9.44463C36.7969 9.63088 36.7494 9.83677 36.7247 10.0587C36.7238 10.0882 36.7179 10.1154 36.7171 10.1449C36.7012 10.3259 36.6945 10.52 36.6985 10.7307C36.2235 10.4464 35.8137 10.2655 35.4005 10.2234C35.1088 10.1961 34.8217 10.2336 34.5135 10.3543C34.3881 10.4034 34.2562 10.4675 34.1213 10.5453C33.0969 11.1379 32.7018 12.3664 33.2345 13.2941C33.3366 13.4705 33.4589 13.6349 33.5976 13.7887C33.6766 13.8743 33.7627 13.9571 33.8525 14.0385C33.8653 14.0502 33.8781 14.0618 33.8909 14.0734C33.9202 14.0953 33.9472 14.1221 33.9764 14.144C34.109 14.2503 34.2522 14.3523 34.4013 14.448C34.5061 14.5151 34.6181 14.5795 34.7337 14.6424C35.4435 15.0304 36.3069 15.325 37.2464 15.5815C38.0322 15.794 38.8725 15.9769 39.7115 16.1562C39.7336 16.16 39.7522 16.1652 39.7744 16.1691C39.7929 16.1743 39.8151 16.1781 39.8337 16.1833C39.846 16.141 39.8598 16.1023 39.8736 16.0636C39.9121 15.9403 39.9506 15.817 39.9891 15.6937L39.9877 15.6901C40.4605 14.2272 40.8954 12.7834 41.0203 11.5191C41.0211 11.4896 41.0242 11.4552 41.0272 11.4207Z" fill="#F42403"></path> </g> <defs> <clipPath id="clip0"> <rect width="74" height="74" fill="white" transform="matrix(-1 0 0 1 97 5)"></rect> </clipPath> <clipPath id="clip1"> <rect width="23.514" height="26.2804" fill="white" transform="translate(25.9336 13.0355) rotate(-21.3832)"></rect> </clipPath> </defs> </svg> 