<?xml version="1.0" encoding="UTF-8"?> <svg xmlns="http://www.w3.org/2000/svg" width="98" height="68" viewBox="0 0 98 68" fill="none"> <g clip-path="url(#clip0)"> <path d="M87.4323 40.0083L63.0342 53.1055C61.9315 53.6971 60.5579 53.2831 59.9662 52.1807L52.259 37.8232C51.6674 36.7205 52.0814 35.347 53.1838 34.7552L77.5819 21.658C78.6846 21.0664 80.0582 21.4804 80.6499 22.5828L88.357 36.9403C88.9491 38.0428 88.535 39.4166 87.4323 40.0083Z" fill="#8CBAFA"></path> <path d="M88.3565 36.9405L87.3949 35.1486C87.9219 36.1305 87.4551 37.4061 86.3527 37.9979L61.9543 51.0949C60.8518 51.687 59.5307 51.3708 59.0037 50.389L59.9656 52.181C60.5574 53.2834 61.9309 53.6974 63.0336 53.1057L87.4318 40.0085C88.5345 39.4168 88.9486 38.043 88.3565 36.9405Z" fill="#5692D8"></path> <path d="M56.0972 38.1384C55.9462 38.0929 55.813 37.9898 55.7326 37.8401C55.5718 37.5406 55.6842 37.1679 55.9836 37.0071L67.9343 30.592C68.2338 30.4312 68.6068 30.5437 68.7673 30.843C68.928 31.1425 68.8156 31.5156 68.5162 31.676L56.5655 38.0914C56.4158 38.1715 56.2478 38.1838 56.0972 38.1384Z" fill="#252D4C"></path> <path d="M58.1352 41.9362C57.9843 41.8907 57.851 41.7877 57.7707 41.6379C57.6099 41.3385 57.7223 40.9657 58.0217 40.805L69.9724 34.3898C70.2719 34.2291 70.6449 34.3415 70.8054 34.6409C70.9661 34.9403 70.8537 35.3134 70.5543 35.4739L58.6036 41.889C58.4539 41.9694 58.2859 41.9816 58.1352 41.9362Z" fill="#252D4C"></path> <path d="M75.988 25.8392L73.5972 27.1223C72.6573 27.6268 72.3045 28.7976 72.809 29.7375C73.3135 30.6774 74.4846 31.0303 75.4245 30.5258L77.8149 29.2426C78.7548 28.7381 79.1077 27.5673 78.6032 26.6274C78.0986 25.6875 76.9276 25.3346 75.988 25.8392Z" fill="#FFCD34"></path> </g> <g clip-path="url(#clip1)"> <path d="M10.2697 61.7299C10.1034 58.2257 21.1188 54.8536 34.8732 54.1981C48.6276 53.5427 59.9125 55.852 60.0788 59.3562C60.2451 62.8605 49.2297 66.2325 35.4753 66.888C21.7209 67.5434 10.4359 65.2341 10.2697 61.7299Z" fill="#E3E3E3"></path> <path d="M-0.000610795 24.7071L0.639157 24.9823L0.89194 25.1887L0.998046 25.5234L1.08854 25.8987L1.57539 25.8424L1.85626 25.9956L1.68461 26.7931L2.33374 26.4178L2.4929 26.7775L3.16075 26.6618L3.31367 27.1934L3.06713 27.5156L3.11706 27.8283L2.3119 28.1848L3.33552 28.4444L3.31055 28.7603L2.94854 29.1043L3.23877 29.3952L3.00159 29.7361L3.47595 30.0019L2.97663 30.3772L3.23565 30.6618L2.66142 31.0653L3.33552 31.2842L3.6944 31.5406L3.23565 31.941L3.84421 32.1474L3.76306 32.482L3.5727 32.8448L3.80363 33.1169L3.87229 33.4234L3.96591 33.7236L3.50715 34.1708L3.43226 34.5242L3.54461 34.8276L3.75682 35.0997L4.29984 35.2623L4.61817 35.4875L4.65561 35.8065L4.11884 36.3351L4.40283 36.5696L4.61817 36.8261L5.00514 37.0106L4.77732 37.4484L5.04259 37.6799L5.5544 37.7956L5.00202 38.4023L5.7354 38.3992L5.17054 39.0372L5.57624 39.1873L6.02876 39.303L5.80094 39.7909L6.5312 39.7346L6.05372 40.382L6.58426 40.4321L6.77775 40.6854L6.65916 41.1389L7.2209 41.1451L6.74342 41.8613L7.50177 41.7143L7.33325 42.2304L7.52673 42.4868L7.9106 42.5931L8.52227 42.5024L7.9262 43.4032L8.34127 43.4751L9.15891 43.1811L8.96854 43.7722L9.44914 43.7597L9.56773 44.0756L9.47723 44.6072L10.1857 44.3414L10.1139 44.8637L10.4478 44.97L10.5352 45.3391L10.6288 45.7144L10.9908 45.7801L11.0751 46.1772L11.2686 46.4462L11.9707 46.074L11.6493 47.0091L12.3796 46.5682L12.8165 46.5025L13.0162 46.7558L13.3002 46.8934L13.1598 47.6659L13.6965 47.4251L14.0586 47.4345L14.1428 47.8942L14.2614 48.3102L14.8793 47.8755L14.9636 48.3602L14.9823 48.9826L15.594 48.5166L15.5753 49.2359L16.1807 48.7418L16.2743 49.2641L16.5614 49.3954L17.0951 48.9888L17.2979 49.2985L17.4977 49.6268L17.9595 49.336L18.1593 49.6769L18.5088 49.6394L18.4557 50.6746L18.7553 50.7965L19.314 50.171L19.3514 51.053L19.9912 50.1179L20.2845 50.2148L20.503 50.5745L20.8244 50.5932L21.046 50.9717L21.2489 51.4502L21.5172 51.6941L22.0447 50.881L22.2943 51.1906L22.5596 51.4564L22.7718 52.0069L23.2649 51.1718L23.4116 52.0913L23.8079 51.7035L24.0763 52.0288L24.3946 52.0757L24.7753 51.6628L25.0406 52.0725L25.4057 51.6034L25.749 51.3845L26.0081 51.9005L26.2796 52.3853L26.6166 52.1883L26.9599 51.8661L27.2595 52.1257L27.6153 51.4721L27.9242 51.5534L28.2238 51.9068L28.5297 52.2039L28.8417 52.4822L29.1694 51.544L29.4815 51.716L29.8029 52.4416L30.1213 52.3915L30.4365 52.2446L30.7361 51.7223L31.0762 52.2821L31.4008 52.3696L31.6941 51.9412L31.9781 51.5127L32.3121 51.7535L32.6366 51.8349L32.9643 51.9443L33.2296 51.4814L33.6197 52.0913L33.9754 52.3603L34.2282 51.8442L34.5185 51.6472L34.7962 51.3782L35.1832 51.7754L35.4921 51.6972L35.8791 52.0319L36.0601 51.2844L36.341 51.0874L36.7436 51.4658L37.0806 51.5158L37.3147 51.1093L37.6236 51.0436L38.02 51.3094L38.1542 50.5776L38.5817 50.9529L38.8283 50.6589L39.003 50.1429L39.3557 50.2273L39.8176 50.637L39.9018 49.8802L40.4168 50.4244L40.7413 50.3931L40.9598 50.0584L41.3218 50.1241L41.5402 49.8114L41.6744 49.2922L41.9303 49.0952L42.4671 49.5737L42.517 48.8919L42.8042 48.7699L43.3284 49.1702L43.7092 49.2328L43.8621 48.895L43.8808 48.8512L44.0462 48.4728L44.3115 48.3039L44.892 48.7824L44.9513 49.042L44.9606 49.0483L45.2165 48.992L45.4787 48.9357L45.6222 49.1734L45.6722 49.2578L45.8157 49.2328L45.9562 49.2078L46.0841 49.286C46.2526 49.3892 46.4274 49.4892 46.599 49.5862L46.8705 49.6894L47.0047 49.7394L47.0796 49.8708L47.1857 50.0616L47.3449 50.1147L47.4385 50.146L47.5103 50.2211L47.6539 50.3681L47.7381 50.3837L48.0721 50.2649L48.3779 50.1523L48.562 50.4306L48.7649 50.734L48.8023 50.7903L48.821 50.8622L48.8897 51.1218L48.9334 51.1374L49.2111 51.1687L49.286 51.175L49.3609 51.2125L49.4639 51.2625L49.7292 51.1499L50.3034 50.9091L50.3346 51.5377L50.3409 51.7004L50.5 51.5909L50.8371 51.3595L51.1023 51.6816L51.2147 51.8161L51.377 51.8442L51.5892 51.8818L51.6984 52.0694C51.7452 52.1507 51.7952 52.232 51.8451 52.3165L51.9387 52.2602L52.3819 51.9881L52.6066 52.4666L52.7064 52.6793L52.7938 52.6198L53.056 52.4385L53.3306 52.6167L53.599 52.7887L53.7519 52.8888L53.7613 52.9232L54.1357 52.6918L54.3823 53.1765C54.4822 53.3673 54.5758 53.5643 54.6725 53.7583L54.9035 53.8646H54.9066L54.9534 53.802L54.7942 53.5706L54.9159 53.336L54.9128 53.3329L54.6694 53.1453L54.7162 52.8388L54.7287 52.7512L54.6382 52.648L54.5914 52.5886L54.5602 52.5166L54.426 52.2164L54.4041 52.1726L54.3948 52.1226L54.323 51.813L54.298 51.6972L54.323 51.5784L54.376 51.347L54.3448 51.1312L54.3011 50.8403L54.4822 50.6902L54.2824 50.4494L53.9641 50.071L54.245 49.8082L53.8299 49.4705L54.3292 49.0608L54.6101 48.8325L54.6663 48.6949L54.7131 48.5228L54.8067 48.1788L55.1531 48.1382L55.331 48.1163L55.356 48.1131L55.3747 48.11L55.6961 48.1006L55.8522 48.0944L55.9801 48.1694L56.2579 48.3383L56.2672 48.3446L56.3765 48.2414L56.9507 47.7128L57.2066 48.4447L57.2534 48.5729L57.3033 48.5322L57.9057 48.035L58.0992 48.7261L58.4924 48.5135L58.6671 49.1014L58.6734 49.1265L58.8107 49.0014L59.1103 48.7324L59.4286 48.967L59.5878 49.0827L59.7594 49.0921L59.8437 49.0952L59.9186 49.1265L60.2119 49.2453L60.3586 49.3516L60.4397 49.5049L60.5708 49.7551L60.6676 49.777L60.7175 49.7895L60.7581 49.8051L60.9734 49.8989H60.9828L61.2293 49.5987L61.3822 49.4111L61.6163 49.4267L61.9284 49.4486L62.0657 49.458L62.1718 49.5362L62.2716 49.6112L62.3653 49.5799L62.6243 49.4892L62.824 49.6738L62.9988 49.8364L63.1392 49.6988L63.3639 49.4736L63.6479 49.6081L63.9631 49.7582L63.9881 49.7707L64.0099 49.7864L64.2409 49.9333L64.3501 49.7832L64.4937 49.5831L64.734 49.5956L65.0335 49.6112L65.3269 49.5987L65.4236 49.5956L65.5079 49.63L65.8075 49.7488L65.8574 49.6268L66.0291 49.2015L66.3037 49.3297L66.2881 49.2297L66.2756 49.164H66.26L65.9011 49.1827L65.8231 48.8325L65.7732 48.5979L65.6608 48.5322L65.6452 48.5228L65.6327 48.5135L65.4798 48.4009L65.2364 48.3821L64.9836 48.3665L64.8806 48.135L64.8213 48.0068L64.6965 47.9818L64.6528 47.9724L64.6122 47.9568L64.3189 47.8317L64.1223 47.7504L64.0723 47.5471L63.9881 47.2187L63.857 47.2437L63.5231 47.3063L63.392 47.0029L63.2297 47.0467L62.8864 47.1374L62.7366 46.8152L62.59 46.4994L62.5744 46.4618L62.565 46.4243L62.5088 46.2116L62.3809 46.1241L62.1967 45.999L62.1936 45.7769V45.7519H61.8004L61.7692 45.4329L61.635 45.4579L61.0795 45.5517L61.145 44.9919L61.1638 44.823L61.1357 44.8074L60.7737 44.6635L60.2525 44.4603L60.5895 44.013L60.6738 43.8973L60.5833 43.8535L60.524 43.7034L60.3867 43.3594L60.2962 43.1373L60.4397 42.9466L60.5989 42.737L60.6239 42.4868L60.6457 42.2554L60.8548 42.149L61.1794 41.9833L61.2168 41.9677L61.2543 41.9551L61.3822 41.9176L61.4041 41.8363L61.4353 41.4454L61.4602 41.167L61.7255 41.0763L62.0563 40.9669L62.0844 40.9575L62.1156 40.9512L62.3715 40.9074L62.5369 40.7792L62.5806 40.7417L62.6368 40.7198L62.7273 40.6823L62.7647 40.5009L62.7897 40.3851L62.8677 40.2976L63.0831 40.0599L63.1299 40.0036L63.1954 39.9692L63.4763 39.8191L63.5855 39.7597L63.7103 39.769L63.985 39.7909C64.063 39.7127 64.1004 39.6752 64.1785 39.6002L64.1628 39.3374L64.1254 38.7276L64.709 38.8996L64.7152 38.9027L64.7433 38.5149L65.1896 38.5712L65.4486 38.6025L65.4205 38.4711L65.4018 38.3867L65.1553 38.0239L64.9524 37.7237L64.8713 37.6861L64.6747 37.7049L64.581 37.7143L64.4905 37.683L64.3595 37.6361L64.2221 37.6986L63.9038 37.9176L63.5761 38.1459L63.3265 37.8331L63.1486 37.6142L63.1361 37.6079L62.9145 37.708L62.54 37.8769L62.3559 37.5141L62.2248 37.2577L62.1999 37.2483L61.8878 37.2796L61.6756 37.3015L61.5289 37.1451L61.2543 36.8448L60.9297 36.4977L61.3104 36.21L61.6662 35.9441L61.6725 35.8628L61.6756 35.8222L61.6849 35.7846L61.6974 35.7346L61.4197 35.4469L61.1294 35.1466L61.4197 34.8464L61.5071 34.7557L61.4727 34.6087L61.3853 34.2271L61.7598 34.1052L61.9003 34.0614L61.8972 34.0551L61.8472 33.7111L62.1718 33.5923L62.3216 33.536V33.5328L62.2436 33.1888L62.2311 33.1325L62.2342 33.0731L62.2498 32.7259L62.256 32.6134L62.3153 32.5195L62.487 32.2443L62.5338 32.1661L62.6118 32.1161L62.7429 32.0285L62.7491 31.8972L62.7554 31.7439L62.8584 31.6282L62.902 31.5813L62.7585 31.5344L62.5868 31.475L62.462 31.55L62.2311 31.6939L62.0189 31.5406L61.9252 31.475L61.8972 31.5062L61.6163 31.8033L61.3323 31.5187L61.17 31.3561L61.1544 31.3686L61.1138 31.3968L61.0764 31.4124L60.8392 31.5062L60.6145 31.7126L60.5864 31.7408L60.5583 31.7564L60.2619 31.9378L60.0652 32.0629L59.8749 31.9472L59.6814 31.8284L59.6221 31.8534L59.3943 32.0942L59.2102 32.2912L58.973 32.1786L58.8388 32.113L58.7264 32.2068L58.5205 32.3788L58.3051 32.2349L58.1304 32.1192L58.0118 32.1818L57.8152 32.285L57.7777 32.2568L57.7746 32.1536L58.1865 31.9222L57.9088 31.5344L57.9525 31.4218L58.0274 31.2341L57.9618 30.8995L58.3644 30.6493L58.2989 30.3147L58.2708 29.9894L58.4643 29.6954L58.5267 29.3827L58.1959 29.023L58.4612 28.7322L57.993 28.3694L58.1865 28.0723L58.9667 27.8064L58.1959 27.4436L58.4612 27.1403L58.767 26.8338L58.5548 26.5085L59.0073 26.1958L58.4019 25.8736L58.1522 25.5609L58.8263 25.2325L58.7795 24.9135L58.561 24.6039L58.9605 24.263L58.5173 23.969L58.6515 23.6406L58.7857 23.3091L58.1616 23.0433L58.1959 22.7243L57.7996 22.3677L58.6141 22.1144L58.5236 21.7766L58.1148 21.4013L59.0541 21.2012L58.9886 20.8665L58.3114 20.4881L58.9979 20.2192L59.0104 19.897L58.3613 19.5593L58.146 19.2496L59.2195 18.9275L58.1616 18.6367L59.0042 18.2895L58.4612 18.0018L58.8388 17.6546L58.199 17.4013L58.5485 17.0479L58.9511 16.6726L58.7171 16.3817L58.043 16.1753L58.3051 15.8094L58.7264 15.3966L57.9618 15.2433L58.6453 14.7492L58.5173 14.4458L57.6622 14.3551L58.1304 13.886L57.4157 13.7828L58.0711 13.2292L57.8745 12.9571L57.8308 12.6288L57.1754 12.5474L56.8259 12.3567L57.2971 11.8125L57.4594 11.3872L57.3346 11.0869L56.9351 10.9243L56.6636 10.6991L56.7166 10.305L56.6917 9.94851L55.6368 10.1831L56.0769 9.55758L55.5027 9.53881L55.4621 9.19166L54.944 9.16039L54.8785 8.82888L55.2998 8.14083L54.504 8.33161L54.7942 7.71237L54.7849 7.30892L53.8861 7.63418L54.4884 6.70844L53.4804 7.16818L54.0609 6.2143L53.2682 6.51454L53.4648 5.87966L53.084 5.8046L52.619 5.82962L52.5379 5.45433L52.4942 5.02586L52.3226 4.73188L52.1353 4.45353L51.8076 4.33781L51.4331 4.2909L50.8277 4.56612L51.0743 3.69355L50.809 3.50278L50.525 3.34015L50.3377 3.03053L49.6855 3.45587L49.2611 3.54969L49.2361 2.97423L48.7867 3.12435L48.7805 2.47384L48.2655 2.77407L48.2375 2.1173L47.8786 2.12043L47.4385 2.32059L47.4167 1.56999L46.9018 1.97344L46.4555 2.2424L46.3899 1.53247L45.8813 2.01722L45.9218 0.910097L45.3726 1.56687L45.1822 1.10713L44.7359 1.5137L44.5736 0.888204L44.1523 1.26037L43.8683 1.08836L43.5095 1.27601L43.3472 0.431592L42.954 0.813145L42.6824 0.478504L42.336 0.647388L42.0427 0.400317L41.6495 1.12589L41.3998 0.328385L41.0409 0.928862L40.76 0L40.4105 0.960136L40.1047 0.44723L39.7926 0.969519L39.4555 0.0250198L39.1809 1.09775L38.8376 0.572329L38.5099 0.437847L38.1604 0.172011L37.9264 0.953881L37.6205 1.01018L37.1992 0.331513L37.0026 1.09462L36.7061 1.20408L36.3722 1.1384L35.9603 0.741213L35.7917 1.39173L35.255 0.600476L35.0708 1.14153L34.8929 1.64505L34.4092 1.16968L34.1346 1.36045L33.8818 1.60127L33.6946 2.00159L33.0704 1.30103L32.8114 1.52934L32.7146 2.11418L32.2059 1.77641L31.9594 2.01722L32.0562 2.91794L31.5069 2.55515L31.3883 2.99925L30.8952 2.78033L31.0232 3.61224L30.5238 3.4027L30.0308 3.23381L29.65 3.24945L29.675 3.8468L29.1413 3.66541L28.926 3.91873L29.132 4.7006L28.564 4.50357L28.617 5.05713L27.9211 4.75064L28.2582 5.59193L27.971 5.74205L27.3562 5.57004L26.8694 5.54502L27.0005 6.11735L27.1159 6.65215L26.4419 6.48014L26.7321 7.14316L26.1984 7.11189L26.2515 7.55912L25.7085 7.54348L25.6242 7.88125L25.0999 7.90627L24.9532 8.20025L24.6724 8.40667L24.7005 8.81011L24.276 8.93521L24.5288 9.4575L24.1169 9.59511L23.7798 9.78588L24.0045 10.2675L24.4009 10.818L23.7642 10.8649L23.3679 11.0431L24.1044 11.7062L23.1338 11.653L23.009 11.9532L22.8998 12.2628L23.19 12.707L23.2961 13.076L23.1806 13.37L22.3443 13.4607L22.9747 13.9673L22.8966 14.2738L22.7187 14.5584L22.8966 14.9212L22.8873 15.2402L22.3848 15.4685L22.5128 15.8751L22.0197 15.8407L21.9542 16.3036L21.4517 16.1347L21.3456 16.5475L20.7963 16.291L21.0148 17.2136H20.6341L20.5248 17.6452L20.1004 17.5764L19.6167 17.3919L19.3639 17.5858L19.1954 17.9298L19.1142 18.4396L18.668 18.2926L18.462 18.5866L18.256 18.8869L17.5975 18.302L17.5882 18.9963L17.4134 19.3716L16.6675 18.546L16.5302 18.9963L16.3461 19.3622L16.2618 19.9627L15.7063 19.4842L15.2257 19.1496L15.0634 19.5843L14.7264 19.5905L14.7295 20.4725L14.096 19.7L14.0866 20.5882L13.7777 20.6789L13.4594 20.7414L13.2253 21.0511L12.907 21.1105L12.4045 20.6007L12.08 20.6257L11.7804 20.7321L11.4714 20.7946L11.3965 21.6547L11.0064 21.4639L10.5258 20.951L10.4852 21.9612L10.0265 21.5139L9.73314 21.6484L9.32744 21.3701L9.04032 21.5202L8.71576 21.5327L8.55348 22.1582L8.076 21.5952L7.92932 22.2864L7.63909 22.4459L7.15536 21.8486L6.89946 22.1269L6.78399 22.9369L6.44071 22.8806L5.99131 22.4334L5.74477 22.743L5.36403 22.5585L5.01763 22.4991L4.93336 23.3873L4.38722 22.6179L4.04082 22.5741L3.80051 22.8994L3.61951 23.4217L3.28871 23.428L3.06401 23.7751L2.63021 23.453L2.24636 23.3029L2.12777 23.9784L1.73767 23.8064L1.6222 24.4506L1.2009 24.2067L0.973074 24.5132L0.994922 24.6727L-0.000610795 24.7071Z" fill="#FCEE21"></path> <path d="M44.5774 30.9525L44.5368 30.9431L44.5056 30.9181L44.2653 30.7179L43.9969 30.6397L43.9782 30.6335L43.9688 30.6272L43.5069 30.3989L43.1137 30.8117L43.0232 30.9056L42.9171 30.8336L42.683 30.6741L42.4147 30.6491L42.3117 30.6397L42.2867 30.5428L42.1712 30.1331L41.9559 30.2676L41.9091 30.2957L41.8592 30.2863L41.5876 30.2394L41.2849 30.3364L41.1632 30.377L41.1226 30.2582L40.9729 29.7984L40.7513 29.9267L40.7076 29.9517L40.6608 29.9392L40.4205 29.8672L40.1209 30.1081L40.0366 30.1769L39.968 30.0955L39.6964 29.7797L39.4499 29.5389L39.219 29.5983L38.9194 30.0299L38.8351 30.1487L38.7633 30.0236L38.4575 29.4982C38.4357 29.4575 38.4481 29.4044 38.4887 29.3825C38.5293 29.3575 38.5823 29.37 38.6042 29.4106L38.8445 29.8047L39.0785 29.4513L39.1004 29.4231L39.1378 29.4138L39.4499 29.3262L39.5061 29.3105L39.5498 29.3512L39.8431 29.6264L39.8462 29.6295L39.8494 29.6327L40.0585 29.8641L40.3175 29.6452L40.3612 29.6077L40.4205 29.6233L40.6701 29.6921L40.976 29.5076L41.1039 29.4294L41.1539 29.5733L41.3224 30.0486L41.5346 29.9736L41.5658 29.9642L41.597 29.9704L41.8498 30.0111L42.1775 29.7953L42.3335 29.6952L42.3897 29.8766L42.5364 30.3645L42.7455 30.377L42.7829 30.3801L42.8172 30.402L42.9764 30.5052L43.354 30.0893L43.4352 30.0048L43.5444 30.0549L44.103 30.3207L44.3932 30.3989L44.4244 30.4083L44.4525 30.4302L44.6897 30.6178L44.9331 30.6679L45.2421 30.6335L45.3482 30.621L45.4106 30.7148L45.6291 31.04L45.8444 31.1683L46.1003 31.1808L46.4186 31.1307L46.4966 31.1182L46.5622 31.1651L46.7994 31.334L47.0646 31.3434L47.1021 31.3465L47.1395 31.3622L47.3486 31.4529L47.6139 31.3153L47.6981 31.2715L47.7887 31.309L48.0945 31.4279L48.1039 31.431L48.1163 31.4372L48.263 31.5154L48.5189 31.2246L48.5845 31.1464L48.6937 31.1495L49.0089 31.1589H49.037L49.0682 31.1683L49.374 31.2621L49.4146 31.2746L49.452 31.3028L49.683 31.4904L49.9202 31.4935H49.995L50.0606 31.5404L50.2322 31.6718L50.4101 31.5717L50.7284 31.3184L50.9531 31.137L51.1029 31.3903L51.2153 31.5874L51.312 31.4779L51.5086 31.2527L51.7084 31.4841L51.8082 31.603L51.9331 31.456L52.1546 31.1964L52.3606 31.4748L52.4792 31.6343L52.5728 31.5436L52.7039 31.4153L52.8787 31.4873L53.1627 31.5999L53.3437 31.628L53.5684 31.4904L53.6994 31.4122L53.843 31.4779L54.0271 31.5623C54.1925 31.4716 54.3548 31.3841 54.5233 31.3028L54.773 31.1808L54.9197 31.4185L55.1038 31.7125C55.2224 31.6436 55.341 31.5748 55.4564 31.5029L55.6312 31.3966L55.8028 31.5217L56.0275 31.6812L56.2179 31.6499L56.246 31.6436L56.2834 31.6468L56.5425 31.6562L56.7796 31.5811L57.0636 31.4529L57.357 31.3028L57.5411 31.2089L57.7128 31.334L57.8782 31.4529L57.9593 31.4091L57.9156 31.5217L58.1934 31.9095L57.7814 32.1409L57.7845 32.2441L57.6503 32.1409L57.4693 32.0064L57.3507 32.0627L57.0324 32.2003L57.0106 32.2097L56.995 32.216L56.6829 32.3067L56.6236 32.3223L56.5706 32.3192L56.2803 32.3004L55.9994 32.3411L55.8653 32.3598L55.7623 32.2848L55.5937 32.1597C55.4471 32.2441 55.3004 32.3286 55.1506 32.4099L54.8822 32.5569L54.7324 32.3004L54.5389 31.9783C54.4141 32.0408 54.2924 32.0971 54.1707 32.1628L54.0365 32.2347L53.9054 32.1691L53.7244 32.0815L53.5465 32.1847L53.4529 32.241L53.353 32.2222L53.0378 32.1659L53.0004 32.1597L52.9754 32.1503L52.8287 32.0877L52.6415 32.266L52.4074 32.4912L52.2233 32.2316L52.1172 32.0815L52.0142 32.1972L51.8051 32.4318L51.6085 32.1941L51.4993 32.0627L51.3651 32.2097L51.1217 32.4756L50.95 32.1659L50.8065 31.9064L50.7035 31.9845L50.6847 31.9971L50.6691 32.0064L50.3352 32.1878L50.1917 32.266L50.0699 32.1691L49.8328 31.9814L49.5956 31.9752L49.5113 31.972L49.452 31.9189L49.193 31.6999L48.9589 31.6218L48.7779 31.6124L48.4721 31.947L48.3535 32.0752L48.2068 31.9908L47.9166 31.8282L47.7138 31.7437L47.4485 31.8751L47.358 31.9189L47.2675 31.8782L47.0022 31.7531L46.7182 31.7375L46.6558 31.7312L46.609 31.6968L46.3905 31.5311L46.1378 31.5686L46.1159 31.5717L46.0972 31.5686L45.7726 31.5436L45.7258 31.5404L45.6884 31.5185L45.4013 31.3403L45.3638 31.3153L45.342 31.284L45.1641 31.0088L44.9394 31.0275L44.9113 31.0307L44.8863 31.0244L44.5774 30.9525Z" fill="#ABA000"></path> <path d="M33.9753 41.1014L34.0158 40.9763L34.1625 40.5165C34.175 40.4728 34.2218 40.4477 34.2655 40.4603C34.3123 40.4728 34.3404 40.5197 34.3279 40.5666L34.2374 40.9012L34.7024 40.8762L34.8709 40.8668L34.8054 41.0295L34.6525 41.4204L34.9989 41.411L35.0582 41.4079L35.1019 41.4548L35.3047 41.6706L35.5638 41.8426L35.57 41.8457L35.5794 41.8551L35.8009 42.0553L36.0662 42.221L36.0912 42.2367L36.113 42.2648L36.294 42.5244L36.3034 42.5369L36.3127 42.5619L36.4282 42.8684L36.5468 43.0654L36.837 43.1155L36.9619 43.1374L36.9868 43.2719C37.0243 43.4658 37.0524 43.6597 37.0805 43.8536L37.4331 43.7347L37.6297 43.669L37.7015 43.8723L37.7982 44.1413L38.0105 44.2633L38.0385 44.2789L38.0666 44.3102L38.2008 44.4603L38.5129 44.4353L38.8 44.4134L38.7657 44.7105L38.7407 44.9294L38.8999 44.8731L39.0622 44.8137L39.1808 44.9482L39.3961 45.1921L39.4179 45.2171L39.4335 45.2547L39.5802 45.558L39.652 45.6644L39.9391 45.5924L40.0764 45.558L40.1888 45.6581L40.4291 45.8677L40.4915 45.9239L40.5164 46.0146L40.5882 46.2836L40.7568 46.3587L40.8036 46.3806L40.8473 46.4243L41.0782 46.6558L41.1156 46.6933L41.1406 46.7496L41.228 46.9466L41.4121 46.9842L41.4433 46.9904L41.4808 47.0061L41.668 47.0905L42.0113 46.9967L42.3733 46.8997L42.4108 47.2813L42.4513 47.6597L42.5387 47.7316L42.7322 47.7817L43.0693 47.7441L43.1941 47.7316L43.3033 47.8098L43.4999 47.9474L43.7621 47.9975L43.8432 48.0131L43.9181 48.0725L44.071 48.2007L44.3113 48.2133L44.4455 48.2195L44.5485 48.3227L44.7794 48.5573L44.8512 48.6292L44.8762 48.7387L44.8887 48.795L44.3082 48.3165L44.0429 48.4854L43.8775 48.8638L43.8588 48.9076L43.787 48.9013L43.7028 48.8262L43.5218 48.6699L43.2846 48.6167L43.2066 48.6011L43.1504 48.5573L42.9944 48.4416L42.7322 48.4635L42.6667 48.4697L42.6105 48.4541L42.2922 48.3603L42.2204 48.3384L42.1705 48.2977L41.9239 48.0913L41.8116 47.9975L41.8022 47.863L41.7897 47.7129L41.7117 47.7316L41.5994 47.7598L41.5026 47.7129L41.2405 47.5878L40.944 47.5221L40.7817 47.4846L40.7224 47.3376L40.5976 47.0311L40.4509 46.8747L40.2137 46.7621L40.0827 46.6996L40.0515 46.5651L39.9734 46.2367L39.911 46.1773L39.5896 46.2492L39.3992 46.2899L39.2993 46.1335L39.1152 45.8489L39.1027 45.827L39.0965 45.8114L38.9623 45.508L38.8905 45.4236L38.5191 45.5424L38.1259 45.6706L38.1852 45.2703L38.2352 44.9325L38.1072 44.9388L37.9886 44.9419L37.9168 44.8575L37.7296 44.6354L37.4924 44.4853L37.4175 44.4384L37.3957 44.3633L37.3457 44.207L36.9712 44.3196L36.7341 44.3915L36.7091 44.1538C36.6841 43.9224 36.656 43.6909 36.6248 43.4595L36.3939 43.4095L36.3096 43.3938L36.2722 43.325L36.1099 43.0373L36.1005 43.0217L36.0974 43.0091L35.9944 42.6964L35.8509 42.4743L35.6137 42.3148L35.6012 42.3055L35.5918 42.2992L35.3734 42.0834L35.1206 41.902L35.105 41.8926L35.0956 41.8801L34.9271 41.6894L34.459 41.6831L34.2655 41.68L34.3435 41.508L34.5277 41.1014L34.1032 41.1045L33.9753 41.1014Z" fill="#ABA000"></path> <path d="M33.3402 17.3189C31.6949 15.6701 31.6949 12.9969 33.3402 11.3481C34.9855 9.69923 37.653 9.69923 39.2983 11.3481C40.9436 12.9969 40.9436 15.6701 39.2983 17.3189C37.653 18.9678 34.9855 18.9678 33.3402 17.3189Z" fill="#31332A"></path> <path d="M36.4624 12.8886C35.4455 12.8886 34.6212 12.3565 34.6212 11.7002C34.6212 11.0438 35.4455 10.5117 36.4624 10.5117C37.4793 10.5117 38.3037 11.0438 38.3037 11.7002C38.3037 12.3565 37.4793 12.8886 36.4624 12.8886Z" fill="#636A78"></path> <path d="M54.875 8.8542L54.9342 9.15756L55.4523 9.18884L55.4929 9.53599L56.0671 9.55475L55.6271 10.1802L56.6819 9.94569L56.7069 10.3022L56.6538 10.6963L56.9253 10.9183L57.3248 11.081L57.4496 11.3812L57.2873 11.8065L56.8161 12.3476L57.1625 12.5415L57.8179 12.6259L57.8616 12.9543L58.0582 13.2264L57.4028 13.78L58.1143 13.8832L57.6493 14.3492L58.5044 14.4399L58.6324 14.7401L57.9489 15.2343L58.7135 15.3875L58.2922 15.8003L58.027 16.1662L58.4327 16.2882C59.422 15.5157 60.0586 14.3116 60.0586 12.9575C60.0586 10.6243 58.1705 8.73535 55.8455 8.73535C55.5147 8.73848 55.187 8.77601 54.875 8.8542Z" fill="#31332A"></path> <path d="M56.8293 9.48612C56.6671 9.7457 56.923 10.2023 57.4004 10.5057C57.8811 10.8122 58.4022 10.8497 58.5645 10.5901C58.7268 10.3305 58.4709 9.87392 57.9934 9.57056C57.5128 9.26719 56.9916 9.22966 56.8293 9.48612Z" fill="#636A78"></path> <path d="M45.9434 16.8794C45.9465 16.9201 45.9559 16.9795 45.9746 17.0545C46.0995 17.655 46.6019 19.2657 47.8096 19.4564C49.0517 19.6535 53.4988 17.7395 54.2666 16.9764C54.3383 16.9044 54.3789 16.8419 54.3789 16.795C54.3789 16.7512 54.3415 16.6918 54.2759 16.6167C53.6299 15.9068 50.1471 13.9771 48.9955 13.3485C48.7396 13.2077 48.44 13.1984 48.1779 13.3266C46.5707 14.1147 46.0246 16.0631 45.9497 16.7074C45.9434 16.7856 45.9403 16.845 45.9434 16.8794Z" fill="#FC8B2D"></path> <path d="M45.9434 16.8796C45.9465 16.9203 45.9559 16.9797 45.9746 17.0547C46.6674 17.1298 47.3634 17.1548 48.0531 17.1767C48.7552 17.1923 49.4605 17.1892 50.1627 17.1767C50.8649 17.1673 51.5671 17.1423 52.2724 17.111C52.9371 17.0798 53.605 17.0422 54.2666 16.9765C54.3383 16.9046 54.3789 16.8421 54.3789 16.7952C54.3789 16.7514 54.3415 16.6919 54.2759 16.6169C53.605 16.5668 52.9371 16.5387 52.2693 16.5231C51.5671 16.5074 50.8649 16.4949 50.1596 16.498C49.4574 16.498 48.7552 16.5106 48.0531 16.5418C47.354 16.5762 46.6518 16.62 45.9528 16.7076C45.9434 16.7858 45.9403 16.8452 45.9434 16.8796Z" fill="#D13301"></path> <path d="M49.6101 14.59C49.5571 14.7463 49.7225 14.959 49.9846 15.0716C50.2436 15.1811 50.4996 15.1467 50.5526 14.9903C50.6057 14.8339 50.4403 14.6212 50.1781 14.5087C49.9191 14.3992 49.6632 14.4367 49.6101 14.59Z" fill="#D13301"></path> <path d="M18.2275 58.4775H21.9007L21.6541 47.4812C21.6541 47.4656 21.6541 47.45 21.6541 47.4343C21.6697 47.009 22.0286 46.6743 22.4531 46.69C22.8775 46.7056 23.2114 47.0653 23.1958 47.4906L22.7839 58.4274L32.6612 57.4454C32.8952 57.4235 33.1074 57.5955 33.1293 57.8301C33.1511 58.0646 32.9795 58.2773 32.7454 58.2992L25.4209 59.0279L33.9781 60.5854C34.2122 60.6292 34.3651 60.8512 34.3245 61.0858C34.2871 61.2922 34.1061 61.4392 33.9032 61.4392C33.8783 61.4392 33.8533 61.436 33.8252 61.4329L24.4909 59.7347L30.6139 63.5221C30.8168 63.6472 30.8792 63.9099 30.7544 64.1132C30.6295 64.3165 30.3674 64.379 30.1645 64.2539L22.2128 59.3375L18.2244 59.3406C17.9872 59.3406 17.7968 59.1499 17.7968 58.9122C17.8 58.6714 17.9903 58.4775 18.2275 58.4775Z" fill="#FC8B2D"></path> <path d="M34.531 57.5803C34.531 57.818 34.7214 58.0088 34.9586 58.0088L38.9469 58.0056L46.8987 62.922C47.1016 63.0471 47.3637 62.9846 47.4885 62.7813C47.6134 62.5811 47.551 62.3153 47.3512 62.1902L41.2282 58.4028L50.5625 60.101C50.5875 60.1073 50.6124 60.1073 50.6405 60.1073C50.8434 60.1073 51.0244 59.9603 51.0618 59.7539C51.1024 59.5193 50.9495 59.2973 50.7154 59.2535L42.1582 57.6991L49.4827 56.9704C49.7199 56.9454 49.8915 56.7359 49.8666 56.5013C49.8447 56.2668 49.6325 56.0947 49.3985 56.1166L39.5212 57.0987L39.7615 50.6029L39.3464 50.2307L38.9938 50.1494L38.819 50.6654L38.5725 50.9594L38.4913 50.8875L38.6317 57.1518H34.9586C34.7214 57.1518 34.531 57.3426 34.531 57.5803Z" fill="#FC8B2D"></path> </g> <defs> <clipPath id="clip0"> <rect width="42" height="42" fill="white" transform="translate(56.9531 14.833) rotate(16.7731)"></rect> </clipPath> <clipPath id="clip1"> <rect width="95" height="67" fill="white" transform="matrix(-1 0 0 1 95 0)"></rect> </clipPath> </defs> </svg> 