<?xml version="1.0" encoding="UTF-8"?> <svg xmlns="http://www.w3.org/2000/svg" width="114" height="53" viewBox="0 0 114 53" fill="none"> <rect width="114" height="53" rx="7" fill="#F6F6F6"></rect> <path d="M11.1003 25.7397L12.304 15.1355H23.9973V18.5891H15.7002L15.1843 23.0743C16.1683 22.5489 17.2144 22.2862 18.3226 22.2862C20.3097 22.2862 21.8669 22.9024 22.9942 24.1348C24.1215 25.3671 24.6851 27.0915 24.6851 29.3079C24.6851 30.6549 24.3985 31.8634 23.8253 32.9334C23.2617 33.9938 22.4496 34.8202 21.3892 35.4125C20.3288 35.9952 19.0773 36.2866 17.6348 36.2866C16.3737 36.2866 15.2034 36.0334 14.1239 35.5271C13.0444 35.0112 12.1894 34.29 11.5588 33.3633C10.9379 32.4366 10.6083 31.381 10.5701 30.1964H14.6685C14.7544 31.0657 15.0554 31.744 15.5712 32.2312C16.0967 32.7089 16.7797 32.9477 17.6204 32.9477C18.5567 32.9477 19.2779 32.6133 19.7843 31.9446C20.2906 31.2663 20.5438 30.311 20.5438 29.0786C20.5438 27.894 20.2524 26.9864 19.6696 26.3559C19.0869 25.7254 18.2605 25.4101 17.1905 25.4101C16.2065 25.4101 15.4088 25.6681 14.7974 26.184L14.3962 26.5565L11.1003 25.7397ZM28.5829 41.2304L26.4191 40.0984L26.9349 39.1669C27.575 38.0014 27.9046 36.8407 27.9237 35.6847V32.4748H31.4202L31.4059 35.3408C31.3963 36.4012 31.1288 37.4712 30.6034 38.5507C30.078 39.6303 29.4045 40.5235 28.5829 41.2304ZM48.5446 27.3733C48.5446 30.2584 47.9475 32.4653 46.7533 33.9938C45.5591 35.5223 43.8109 36.2866 41.5085 36.2866C39.2348 36.2866 37.4961 35.5367 36.2924 34.0368C35.0887 32.5369 34.4725 30.3874 34.4438 27.5883V23.7479C34.4438 20.8341 35.0457 18.6225 36.2494 17.1131C37.4627 15.6036 39.2062 14.8489 41.4799 14.8489C43.7536 14.8489 45.4923 15.5989 46.696 17.0987C47.8997 18.5891 48.5159 20.7338 48.5446 23.5329V27.3733ZM44.4032 23.1603C44.4032 21.4312 44.1644 20.1749 43.6867 19.3915C43.2186 18.5986 42.483 18.2021 41.4799 18.2021C40.5054 18.2021 39.7842 18.5795 39.316 19.3342C38.8575 20.0794 38.6139 21.2497 38.5852 22.8451V27.9179C38.5852 29.6184 38.8145 30.8842 39.2731 31.7153C39.7412 32.5369 40.4863 32.9477 41.5085 32.9477C42.5212 32.9477 43.252 32.5512 43.701 31.7583C44.15 30.9654 44.3841 29.7521 44.4032 28.1185V23.1603Z" fill="#4D4D4D"></path> <path d="M65.9734 34H65.101V29.7857L63.814 30.2255V29.4865L65.8617 28.7331H65.9734V34ZM71.3269 34H67.7976V33.398L69.546 31.4909C69.7984 31.2097 69.9774 30.9754 70.0832 30.7879C70.1913 30.5981 70.2454 30.4082 70.2454 30.2183C70.2454 29.9684 70.1745 29.7665 70.0327 29.6127C69.8933 29.4589 69.7046 29.382 69.4667 29.382C69.1831 29.382 68.9632 29.4685 68.807 29.6415C68.6508 29.8146 68.5727 30.0513 68.5727 30.3517H67.6966C67.6966 30.0321 67.7687 29.7449 67.9129 29.4901C68.0596 29.2329 68.2674 29.0335 68.5366 28.8917C68.8082 28.7499 69.1206 28.679 69.4739 28.679C69.9834 28.679 70.3848 28.8076 70.678 29.0647C70.9736 29.3195 71.1214 29.6728 71.1214 30.1246C71.1214 30.3866 71.0469 30.6617 70.8979 30.9501C70.7513 31.2361 70.5098 31.5618 70.1733 31.9271L68.8899 33.3006H71.3269V34ZM75.2997 30.1354C75.2997 30.3926 75.2336 30.6221 75.1014 30.824C74.9692 31.0234 74.7889 31.1809 74.5606 31.2962C74.8346 31.4236 75.0449 31.5978 75.1915 31.819C75.3405 32.0401 75.415 32.29 75.415 32.5688C75.415 33.0302 75.2588 33.3968 74.9464 33.6683C74.6339 33.9375 74.2181 34.0721 73.699 34.0721C73.1775 34.0721 72.7593 33.9363 72.4445 33.6647C72.132 33.3932 71.9758 33.0278 71.9758 32.5688C71.9758 32.2876 72.0503 32.0353 72.1993 31.8117C72.3483 31.5882 72.5574 31.4164 72.8266 31.2962C72.6007 31.1809 72.4216 31.0234 72.2895 30.824C72.1597 30.6221 72.0948 30.3926 72.0948 30.1354C72.0948 29.6884 72.239 29.3339 72.5274 29.0719C72.8158 28.81 73.2051 28.679 73.6954 28.679C74.1881 28.679 74.5786 28.81 74.8671 29.0719C75.1555 29.3339 75.2997 29.6884 75.2997 30.1354ZM74.539 32.5255C74.539 32.266 74.4609 32.0569 74.3047 31.8983C74.1509 31.7372 73.9466 31.6567 73.6918 31.6567C73.4371 31.6567 73.2328 31.736 73.079 31.8947C72.9275 32.0533 72.8518 32.2636 72.8518 32.5255C72.8518 32.7827 72.9263 32.9882 73.0754 33.142C73.2268 33.2958 73.4347 33.3727 73.699 33.3727C73.9634 33.3727 74.1689 33.2982 74.3155 33.1492C74.4645 33.0002 74.539 32.7923 74.539 32.5255ZM74.4272 30.1679C74.4272 29.9395 74.3611 29.7521 74.229 29.6055C74.0968 29.4565 73.9189 29.382 73.6954 29.382C73.4719 29.382 73.2953 29.4529 73.1655 29.5947C73.0357 29.734 72.9708 29.9251 72.9708 30.1679C72.9708 30.4082 73.0357 30.5993 73.1655 30.7411C73.2977 30.8829 73.4755 30.9537 73.699 30.9537C73.9225 30.9537 74.0992 30.8829 74.229 30.7411C74.3611 30.5993 74.4272 30.4082 74.4272 30.1679ZM77.9205 32.0136C77.9205 31.6315 77.9962 31.2878 78.1476 30.9826C78.299 30.675 78.5117 30.4394 78.7857 30.276C79.0597 30.1102 79.3745 30.0273 79.7302 30.0273C80.2566 30.0273 80.6832 30.1967 81.01 30.5356C81.3393 30.8744 81.5171 31.3239 81.5436 31.8838L81.5472 32.0893C81.5472 32.4739 81.4727 32.8176 81.3237 33.1204C81.1771 33.4232 80.9656 33.6575 80.6892 33.8234C80.4152 33.9892 80.098 34.0721 79.7374 34.0721C79.1871 34.0721 78.7461 33.8894 78.4144 33.5241C78.0851 33.1564 77.9205 32.6673 77.9205 32.0569V32.0136ZM78.7965 32.0893C78.7965 32.4907 78.8795 32.8055 79.0453 33.0339C79.2111 33.2598 79.4418 33.3727 79.7374 33.3727C80.0331 33.3727 80.2626 33.2574 80.426 33.0266C80.5918 32.7959 80.6748 32.4582 80.6748 32.0136C80.6748 31.6195 80.5894 31.307 80.4188 31.0763C80.2506 30.8456 80.021 30.7302 79.7302 30.7302C79.4442 30.7302 79.2171 30.8444 79.0489 31.0727C78.8807 31.2986 78.7965 31.6375 78.7965 32.0893ZM82.3223 30.0994H83.1983V33.3006H84.7196V30.0994H85.5956V33.3006H86.1256L86.0535 35.1572H85.2567V34H82.3223V30.0994ZM88.4616 34.0721C87.9064 34.0721 87.4558 33.8979 87.1097 33.5494C86.7661 33.1985 86.5942 32.7322 86.5942 32.1506V32.0425C86.5942 31.6531 86.6687 31.3058 86.8177 31.0006C86.9691 30.693 87.1806 30.4539 87.4522 30.2832C87.7238 30.1126 88.0266 30.0273 88.3607 30.0273C88.8918 30.0273 89.3016 30.1967 89.59 30.5356C89.8808 30.8744 90.0262 31.3539 90.0262 31.974V32.3273H87.4774C87.5039 32.6493 87.6108 32.9041 87.7983 33.0915C87.9882 33.279 88.2261 33.3727 88.5121 33.3727C88.9135 33.3727 89.2403 33.2105 89.4927 32.886L89.9649 33.3367C89.8087 33.5698 89.5996 33.7513 89.3376 33.881C89.0781 34.0084 88.7861 34.0721 88.4616 34.0721ZM88.3571 30.7302C88.1167 30.7302 87.9221 30.8144 87.7731 30.9826C87.6265 31.1508 87.5327 31.3852 87.4919 31.6856H89.161V31.6207C89.1418 31.3275 89.0637 31.1064 88.9267 30.9574C88.7897 30.8059 88.5998 30.7302 88.3571 30.7302ZM94.0134 34H93.1373V32.4246H91.6196V34H90.7436V30.0994H91.6196V31.7252H93.1373V30.0994H94.0134V34ZM94.7848 32.0136C94.7848 31.6315 94.8605 31.2878 95.012 30.9826C95.1634 30.675 95.3761 30.4394 95.6501 30.276C95.924 30.1102 96.2389 30.0273 96.5946 30.0273C97.1209 30.0273 97.5475 30.1967 97.8744 30.5356C98.2036 30.8744 98.3815 31.3239 98.4079 31.8838L98.4115 32.0893C98.4115 32.4739 98.337 32.8176 98.188 33.1204C98.0414 33.4232 97.8299 33.6575 97.5535 33.8234C97.2795 33.9892 96.9623 34.0721 96.6018 34.0721C96.0514 34.0721 95.6104 33.8894 95.2787 33.5241C94.9495 33.1564 94.7848 32.6673 94.7848 32.0569V32.0136ZM95.6609 32.0893C95.6609 32.4907 95.7438 32.8055 95.9096 33.0339C96.0754 33.2598 96.3062 33.3727 96.6018 33.3727C96.8974 33.3727 97.1269 33.2574 97.2903 33.0266C97.4562 32.7959 97.5391 32.4582 97.5391 32.0136C97.5391 31.6195 97.4538 31.307 97.2831 31.0763C97.1149 30.8456 96.8854 30.7302 96.5946 30.7302C96.3086 30.7302 96.0815 30.8444 95.9132 31.0727C95.745 31.2986 95.6609 31.6375 95.6609 32.0893ZM100.538 32.457H100.095V34H99.219V30.0994H100.095V31.6567H100.481L101.559 30.0994H102.64L101.231 31.9668L102.759 34H101.62L100.538 32.457Z" fill="#4D4D4D"></path> <path d="M66.5 17L67.2858 19.4184H69.8287L67.7714 20.9131L68.5572 23.3316L66.5 21.8369L64.4428 23.3316L65.2286 20.9131L63.1713 19.4184H65.7142L66.5 17Z" fill="#F8CD46"></path> <path d="M74.5 17L75.2858 19.4184H77.8287L75.7714 20.9131L76.5572 23.3316L74.5 21.8369L72.4428 23.3316L73.2286 20.9131L71.1713 19.4184H73.7142L74.5 17Z" fill="#F8CD46"></path> <path d="M82.5 17L83.2858 19.4184H85.8287L83.7714 20.9131L84.5572 23.3316L82.5 21.8369L80.4428 23.3316L81.2286 20.9131L79.1713 19.4184H81.7142L82.5 17Z" fill="#F8CD46"></path> <path d="M90.5 17L91.2858 19.4184H93.8287L91.7714 20.9131L92.5572 23.3316L90.5 21.8369L88.4428 23.3316L89.2286 20.9131L87.1713 19.4184H89.7142L90.5 17Z" fill="#F8CD46"></path> <path d="M98.5 17L99.2858 19.4184H101.829L99.7714 20.9131L100.557 23.3316L98.5 21.8369L96.4428 23.3316L97.2286 20.9131L95.1713 19.4184H97.7142L98.5 17Z" fill="#F8CD46"></path> </svg> 