<?xml version="1.0" encoding="UTF-8"?> <svg xmlns="http://www.w3.org/2000/svg" width="69" height="59" viewBox="0 0 69 59" fill="none"> <path d="M54.7479 3.42427C54.802 3.80223 54.5373 4.15607 54.1576 4.21178C53.9722 4.23904 35.477 7.15691 24.7027 21.5917C18.3124 30.1532 15.8808 41.026 17.4428 53.9212L18.6084 51.5747C18.7797 51.2317 19.1955 51.0882 19.5409 51.2557C19.8849 51.4224 20.0255 51.8374 19.8546 52.1809L17.2028 57.5183L13.0988 53.1508C12.8373 52.8734 12.8536 52.4349 13.135 52.1727C13.1747 52.1355 13.2178 52.1042 13.2636 52.0777C13.5375 51.9196 13.8933 51.9631 14.1177 52.2012L16.0894 54.2997C14.4326 40.952 16.9436 29.6744 23.5892 20.7709C27.4321 15.6224 32.2231 11.8959 36.8574 9.22033C45.6288 4.15615 53.8366 2.86161 53.9617 2.84283C54.3408 2.78592 54.6929 3.04607 54.7479 3.42427Z" fill="black"></path> </svg> 