<?xml version="1.0" encoding="UTF-8" standalone="no"?> <svg xmlns="http://www.w3.org/2000/svg" xmlns:xlink="http://www.w3.org/1999/xlink" xmlns:serif="http://www.serif.com/" width="100%" height="100%" viewBox="0 0 60 68" xml:space="preserve" style="fill-rule:evenodd;clip-rule:evenodd;stroke-linecap:round;stroke-linejoin:round;stroke-miterlimit:1.5;"> <g transform="matrix(1,0,0,1,-1051.07,-171.84)"> <g transform="matrix(1,0,0,1,0.0437368,0.604001)"> <g transform="matrix(1,0,0,1,93.8651,158.824)"> <path d="M991.949,42.977C995.313,40.182 997.408,36.677 997.351,31.968C997.351,31.968 1004.84,29.558 1010.14,25.901C1014.87,22.635 1016.46,24.523 1015.85,26.951C1014.32,33.051 1006.36,36.646 1006.36,36.646C1006.36,36.646 1012.84,35.623 1013.06,39.221C1013.35,43.94 1003.93,43.742 1000.76,43.356C1000.76,43.356 1006.96,45.018 1006.36,47.851C1005.69,50.977 1001.16,49.499 999.298,48.122C996.783,46.262 991.949,42.977 991.949,42.977Z" style="fill:none;stroke:black;stroke-width:1.5px;"></path> </g> <g transform="matrix(-1,0,0,1,2067.74,158.824)"> <path d="M991.949,42.977C995.313,40.182 997.408,36.677 997.351,31.968C997.351,31.968 1004.84,29.558 1010.14,25.901C1014.87,22.635 1016.46,24.523 1015.85,26.951C1014.32,33.051 1006.36,36.646 1006.36,36.646C1006.36,36.646 1012.84,35.623 1013.06,39.221C1013.35,43.94 1003.93,43.742 1000.76,43.356C1000.76,43.356 1006.96,45.018 1006.36,47.851C1005.69,50.977 1001.16,49.499 999.298,48.122C996.783,46.262 991.949,42.977 991.949,42.977Z" style="fill:none;stroke:black;stroke-width:1.5px;"></path> </g> </g> <g transform="matrix(1,0,0,1,-0.956263,0.604001)"> <g> <g transform="matrix(3.62709,0,0,4.84102,-2829.41,-1278.17)"> <rect x="1074.71" y="299.946" width="7.254" height="0.761" style="fill:none;stroke:black;stroke-width:0.33px;"></rect> </g> <g transform="matrix(0.591838,0,0,9.93383,428.303,-2807.68)"> <path d="M1081.96,300.107C1081.96,300.018 1080.76,299.946 1079.27,299.946C1078.66,299.946 1078.01,299.946 1077.4,299.946C1075.91,299.946 1074.71,300.018 1074.71,300.107C1074.71,300.236 1074.71,300.417 1074.71,300.547C1074.71,300.635 1075.91,300.707 1077.4,300.707C1078.01,300.707 1078.66,300.707 1079.27,300.707C1080.76,300.707 1081.96,300.635 1081.96,300.547C1081.96,300.417 1081.96,300.236 1081.96,300.107Z" style="fill:rgb(253,238,33);"></path> </g> <g transform="matrix(0.591838,0,0,9.93383,458.908,-2807.68)"> <path d="M1081.96,300.107C1081.96,300.018 1080.76,299.946 1079.27,299.946C1078.66,299.946 1078.01,299.946 1077.4,299.946C1075.91,299.946 1074.71,300.018 1074.71,300.107C1074.71,300.236 1074.71,300.417 1074.71,300.547C1074.71,300.635 1075.91,300.707 1077.4,300.707C1078.01,300.707 1078.66,300.707 1079.27,300.707C1080.76,300.707 1081.96,300.635 1081.96,300.547C1081.96,300.417 1081.96,300.236 1081.96,300.107Z" style="fill:rgb(253,238,33);"></path> </g> </g> <g transform="matrix(1,0,0,0.971681,0.807321,6.75475)"> <g transform="matrix(2.94655,0,0,6.95349,-2097.22,-1916.87)"> <rect x="1077.97" y="301.006" width="1.305" height="6.207" style="fill:none;stroke:black;stroke-width:0.35px;"></rect> </g> <g> <g transform="matrix(2.05249,0,0,2.05249,-1132.89,-441.399)"> <path d="M1076.37,324.389C1076.36,324.31 1076.35,324.229 1076.35,324.148C1076.35,322.917 1077.37,321.917 1078.63,321.917C1079.89,321.917 1080.91,322.917 1080.91,324.148C1080.91,324.229 1080.91,324.31 1080.9,324.389L1076.37,324.389Z" style="fill:rgb(235,235,235);stroke:black;stroke-width:0.69px;"></path> </g> <g transform="matrix(2.05249,0,0,2.05249,-1132.85,-440.063)"> <path d="M1076.33,323.91C1077.06,322.088 1079.84,321.995 1080.88,323.834L1080.24,326.314L1078.64,326.386L1076.96,326.282L1076.33,323.91Z" style="stroke:black;stroke-width:0.69px;"></path> </g> <g transform="matrix(2.05249,0,0,2.18284,-1132.91,-483.813)"> <path d="M1079.78,324.606C1079.78,324.014 1079.28,323.534 1078.67,323.534C1078.65,323.534 1078.63,323.534 1078.61,323.534C1078,323.534 1077.5,324.014 1077.5,324.606C1077.5,326.007 1077.5,328.444 1077.5,329.844C1077.5,330.437 1078,330.917 1078.61,330.917C1078.63,330.917 1078.65,330.917 1078.67,330.917C1079.28,330.917 1079.78,330.437 1079.78,329.844C1079.78,328.444 1079.78,326.007 1079.78,324.606Z" style="fill:rgb(253,238,33);stroke:black;stroke-width:0.67px;"></path> </g> </g> </g> </g> <g transform="matrix(0.591838,0,0,9.93383,427.347,-2807.07)"> <path d="M1083.14,300.107C1083.14,299.979 1081.41,299.876 1079.27,299.876L1077.4,299.876C1075.26,299.876 1073.52,299.979 1073.52,300.107C1073.52,300.236 1073.52,300.417 1073.52,300.547C1073.52,300.674 1075.26,300.778 1077.4,300.778L1079.27,300.778C1081.41,300.778 1083.14,300.674 1083.14,300.547L1083.14,300.107ZM1080.78,300.107L1080.78,300.547C1080.78,300.596 1080.1,300.637 1079.27,300.637C1079.27,300.637 1077.4,300.637 1077.4,300.637C1076.57,300.637 1075.89,300.596 1075.89,300.547L1075.89,300.107C1075.89,300.057 1076.57,300.017 1077.4,300.017C1077.4,300.017 1079.27,300.017 1079.27,300.017C1080.1,300.017 1080.78,300.057 1080.78,300.107Z"></path> </g> <g transform="matrix(0.591838,0,0,9.93383,457.951,-2807.07)"> <path d="M1083.14,300.107C1083.14,299.979 1081.41,299.876 1079.27,299.876L1077.4,299.876C1075.26,299.876 1073.52,299.979 1073.52,300.107C1073.52,300.236 1073.52,300.417 1073.52,300.547C1073.52,300.674 1075.26,300.778 1077.4,300.778L1079.27,300.778C1081.41,300.778 1083.14,300.674 1083.14,300.547L1083.14,300.107ZM1080.78,300.107L1080.78,300.547C1080.78,300.596 1080.1,300.637 1079.27,300.637C1079.27,300.637 1077.4,300.637 1077.4,300.637C1076.57,300.637 1075.89,300.596 1075.89,300.547L1075.89,300.107C1075.89,300.057 1076.57,300.017 1077.4,300.017C1077.4,300.017 1079.27,300.017 1079.27,300.017C1080.1,300.017 1080.78,300.057 1080.78,300.107Z"></path> </g> </g> </svg> 