<?xml version="1.0" encoding="UTF-8" standalone="no"?> <svg xmlns="http://www.w3.org/2000/svg" xmlns:xlink="http://www.w3.org/1999/xlink" xmlns:serif="http://www.serif.com/" width="100%" height="100%" viewBox="0 0 65 62" xml:space="preserve" style="fill-rule:evenodd;clip-rule:evenodd;stroke-linejoin:round;stroke-miterlimit:2;"> <g transform="matrix(1,0,0,1,-1338.73,-175.306)"> <g transform="matrix(1,0,0,1,567.857,-204.447)"> <g transform="matrix(1,0,0,1,736.401,-1715.27)"> <g transform="matrix(1,0,0,1,11.5836,2066.84)"> <path d="M58.655,45.786C58.287,45.418 57.69,45.418 57.323,45.786L56.288,46.821C55.92,47.189 55.92,47.785 56.288,48.153C56.472,48.337 56.713,48.429 56.954,48.429C57.195,48.429 57.436,48.337 57.62,48.153L58.655,47.118C59.022,46.75 59.022,46.154 58.655,45.786Z" style="fill-rule:nonzero;stroke:black;stroke-width:0.22px;"></path> </g> <g transform="matrix(1,0,0,1,11.5836,2066.84)"> <path d="M59.522,50.997C59.763,50.997 60.004,50.905 60.188,50.721L61.223,49.686C61.591,49.318 61.591,48.722 61.223,48.354C60.855,47.987 60.259,47.987 59.891,48.355L58.856,49.39C58.488,49.757 58.488,50.354 58.856,50.721C59.04,50.905 59.281,50.997 59.522,50.997Z" style="fill-rule:nonzero;stroke:black;stroke-width:0.22px;"></path> </g> <g transform="matrix(1,0,0,1,11.5836,2066.84)"> <path d="M62.459,50.923L61.424,51.958C61.057,52.326 61.057,52.922 61.424,53.29C61.608,53.474 61.849,53.565 62.09,53.565C62.331,53.565 62.572,53.474 62.756,53.289L63.791,52.255C64.159,51.887 64.159,51.29 63.791,50.923C63.423,50.555 62.827,50.555 62.459,50.923Z" style="fill-rule:nonzero;stroke:black;stroke-width:0.22px;"></path> </g> <g transform="matrix(1,0,0,1,11.5836,2066.84)"> <path d="M63.993,55.858C64.177,56.042 64.418,56.134 64.659,56.134C64.9,56.134 65.141,56.042 65.325,55.858L66.36,54.823C66.728,54.455 66.728,53.859 66.36,53.491C65.992,53.123 65.396,53.123 65.028,53.491L63.993,54.526C63.625,54.894 63.625,55.49 63.993,55.858Z" style="fill-rule:nonzero;stroke:black;stroke-width:0.22px;"></path> </g> <g transform="matrix(1,0,0,1,11.5836,2066.84)"> <path d="M30.772,80.042L29.034,81.78C28.666,82.148 28.666,82.744 29.034,83.112C29.401,83.48 29.998,83.48 30.366,83.112L32.103,81.374C32.471,81.007 32.471,80.41 32.103,80.043C31.736,79.675 31.139,79.675 30.772,80.042Z" style="fill-rule:nonzero;stroke:black;stroke-width:0.22px;"></path> </g> <g transform="matrix(1,0,0,1,11.5836,2066.84)"> <path d="M66.799,72.98L61.173,69.731C60.542,69.367 59.759,69.367 59.129,69.731L53.502,72.98C52.872,73.343 52.481,74.022 52.481,74.749L52.481,81.247C52.481,81.974 52.872,82.652 53.502,83.016L59.129,86.265C59.444,86.447 59.798,86.538 60.151,86.538C60.504,86.538 60.858,86.447 61.173,86.265L66.8,83.016C67.43,82.653 67.821,81.974 67.821,81.247L67.821,74.749C67.821,74.022 67.43,73.343 66.799,72.98ZM65.937,81.247C65.937,81.304 65.907,81.357 65.857,81.385L60.231,84.634C60.181,84.662 60.12,84.662 60.071,84.634L54.444,81.385C54.395,81.357 54.364,81.304 54.364,81.247L54.364,74.749C54.364,74.693 54.395,74.639 54.444,74.611L60.071,71.362C60.095,71.348 60.123,71.341 60.151,71.341C60.178,71.341 60.206,71.348 60.231,71.362L65.858,74.611C65.907,74.639 65.938,74.692 65.938,74.749L65.938,81.247L65.937,81.247Z" style="fill-rule:nonzero;stroke:black;stroke-width:0.22px;"></path> </g> <g transform="matrix(1,0,0,1,11.5836,2066.84)"> <path d="M60.15,74.522C58.233,74.522 56.674,76.081 56.674,77.998C56.674,79.915 58.233,81.474 60.15,81.474C62.067,81.474 63.627,79.915 63.627,77.998C63.627,76.081 62.067,74.522 60.15,74.522ZM60.15,79.591C59.272,79.591 58.557,78.876 58.557,77.998C58.557,77.12 59.272,76.405 60.15,76.405C61.029,76.405 61.743,77.119 61.743,77.998C61.743,78.876 61.029,79.591 60.15,79.591Z" style="fill:rgb(253,238,33);fill-rule:nonzero;"></path> </g> <g transform="matrix(1,0,0,1,11.5836,2066.84)"> <path d="M76.147,70.399C76.147,72.316 77.706,73.876 79.623,73.876C81.54,73.876 83.099,72.316 83.099,70.399C83.099,68.482 81.54,66.923 79.623,66.923C77.706,66.923 76.147,68.482 76.147,70.399ZM81.216,70.399C81.216,71.278 80.501,71.992 79.623,71.992C78.745,71.992 78.03,71.278 78.03,70.399C78.03,69.521 78.744,68.807 79.623,68.807C80.501,68.807 81.216,69.521 81.216,70.399Z" style="fill:rgb(253,238,33);fill-rule:nonzero;"></path> </g> <g transform="matrix(1,0,0,1,11.5836,2066.84)"> <path d="M86.272,65.381L80.645,62.132C80.015,61.769 79.232,61.768 78.602,62.132L72.975,65.381C72.345,65.745 71.953,66.423 71.953,67.151L71.953,73.648C71.953,74.376 72.345,75.054 72.975,75.418L78.602,78.666C78.917,78.848 79.27,78.939 79.624,78.939C79.977,78.939 80.33,78.848 80.645,78.666L85.947,75.608C86.397,75.348 86.552,74.772 86.292,74.321C86.032,73.871 85.455,73.717 85.005,73.977L79.703,77.035C79.654,77.063 79.593,77.063 79.544,77.035L73.917,73.786C73.868,73.758 73.837,73.705 73.837,73.648L73.837,67.151C73.837,67.094 73.868,67.041 73.917,67.012L79.544,63.764C79.593,63.735 79.654,63.735 79.704,63.764L85.33,67.012C85.38,67.041 85.41,67.094 85.41,67.151L85.41,73.648C85.41,73.705 85.38,73.758 85.331,73.786L84.992,73.982C84.542,74.242 84.387,74.818 84.647,75.268C84.908,75.719 85.484,75.873 85.934,75.613L86.272,75.418C86.903,75.054 87.294,74.376 87.294,73.648L87.294,67.151C87.294,66.423 86.903,65.745 86.272,65.381Z" style="fill-rule:nonzero;stroke:black;stroke-width:0.22px;"></path> </g> <g transform="matrix(1,0,0,1,11.5836,2066.84)"> <path d="M63.506,61.737C69.086,62.894 74.846,61.195 78.899,57.142C83.67,52.372 85.019,45.418 82.826,39.399C82.715,39.097 82.459,38.872 82.144,38.802C81.83,38.733 81.502,38.828 81.275,39.056L73.538,46.792L67.084,45.063L65.355,38.608L66.282,37.681C66.65,37.313 66.65,36.717 66.282,36.349C65.914,35.981 65.318,35.981 64.95,36.349L63.638,37.661C63.4,37.899 63.307,38.246 63.395,38.571L65.406,46.075C65.493,46.4 65.747,46.654 66.072,46.741L73.576,48.752C73.901,48.839 74.248,48.747 74.486,48.509L81.502,41.493C82.788,46.577 81.32,52.059 77.568,55.81C73.979,59.399 68.866,60.925 63.889,59.893C61.148,59.324 58.308,60.259 56.476,62.331L36.473,84.962C36.47,84.965 36.467,84.969 36.464,84.972C35.842,85.697 35.089,86.265 34.226,86.662C33.754,86.879 33.547,87.438 33.764,87.911C33.982,88.384 34.541,88.59 35.013,88.373C36.121,87.863 37.089,87.134 37.888,86.205L57.887,63.579C59.273,62.011 61.425,61.305 63.506,61.737Z" style="fill-rule:nonzero;stroke:black;stroke-width:0.22px;"></path> </g> <g transform="matrix(1,0,0,1,11.5836,2066.84)"> <path d="M30.929,87.241C29.376,87.115 27.913,86.438 26.81,85.335C24.113,82.638 24.247,78.199 27.174,75.683C27.177,75.68 27.181,75.677 27.184,75.674L49.815,55.671C51.888,53.839 52.822,50.998 52.254,48.258C51.221,43.281 52.747,38.168 56.336,34.579C60.088,30.827 65.569,29.359 70.654,30.645L64.7,36.567C64.332,36.935 64.332,37.531 64.7,37.899C65.068,38.267 65.664,38.267 66.032,37.899L73.091,30.872C73.318,30.644 73.414,30.316 73.344,30.002C73.275,29.688 73.049,29.431 72.747,29.321C66.728,27.128 59.774,28.477 55.004,33.247C50.965,37.286 49.248,43.04 50.409,48.64C50.841,50.721 50.135,52.874 48.568,54.26L25.941,74.259C22.213,77.469 21.996,83.185 25.478,86.667C26.897,88.086 28.778,88.956 30.777,89.119C31.294,89.16 31.75,88.776 31.792,88.256C31.834,87.737 31.448,87.283 30.929,87.241Z" style="fill-rule:nonzero;stroke:black;stroke-width:0.22px;"></path> </g> </g> <path d="M778.715,438.788C778.741,438.793 778.924,438.808 779.291,438.852C779.838,438.917 780.81,438.942 782.044,438.316C782.321,438.175 782.663,438.031 782.969,437.825C785.547,436.085 783.519,439.114 783.519,439.114L782.875,439.985C780.963,440.777 779.083,440.85 777.592,440.501L776.952,439.459L778.167,439.13L778.715,438.788Z" style="stroke:black;stroke-width:0.2px;stroke-linecap:round;stroke-miterlimit:1.5;"></path> </g> </g> </svg> 