<?xml version="1.0" encoding="UTF-8" standalone="no"?> <svg xmlns="http://www.w3.org/2000/svg" xmlns:xlink="http://www.w3.org/1999/xlink" xmlns:serif="http://www.serif.com/" width="100%" height="100%" viewBox="0 0 451 451" xml:space="preserve" style="fill-rule:evenodd;clip-rule:evenodd;stroke-linejoin:round;stroke-miterlimit:2;"> <g transform="matrix(1,0,0,1,-3824.39,526.635)"> <path d="M3877.63,-400.553L4049.39,-353.44L4222.38,-400.7L4265.46,-349.384L4103.65,-288.705L4054.58,-344.515L4038.1,-341.144L3996.14,-290.578L3869.28,-332.225L3835.57,-345.709L3843.43,-367.808L3877.63,-400.553Z" style="fill:rgb(253,238,33);"></path> <g id="_003-open-cardboard-box.svg" serif:id="003-open-cardboard-box.svg" transform="matrix(1,0,0,1,4049.39,-301.634)"> <g transform="matrix(1,0,0,1,-225,-225)"> <clipPath id="_clip1"> <rect x="0" y="0" width="450.001" height="450.001"></rect> </clipPath> <g clip-path="url(#_clip1)"> <g> <path d="M448.554,177.103C448.554,177.103 406.404,120.796 406.379,120.764C406.368,120.749 405.449,119.117 402.617,118.216L226.973,68.62C225.682,68.256 224.318,68.256 223.027,68.62L47.383,118.216C47.383,118.216 44.985,118.908 43.544,120.853C42.967,121.632 1.447,177.103 1.447,177.103C0.055,178.965 -0.363,181.381 0.325,183.602C1.014,185.823 2.725,187.58 4.926,188.327L42.097,200.942L42.097,301.816C42.097,304.754 43.868,307.401 46.584,308.523L222.229,381.104C222.751,381.32 223.413,381.655 225,381.655C226.587,381.655 227.771,381.104 227.771,381.104L403.417,308.523C406.133,307.401 407.903,304.753 407.903,301.816L407.903,200.94L445.074,188.325C447.275,187.578 448.986,185.82 449.675,183.6C450.363,181.381 449.945,178.965 448.554,177.103ZM19.062,177.794L52.2,133.514L65.603,137.206L141.034,157.984L212.369,177.636L170.532,229.201L19.062,177.794ZM217.743,363.542L56.613,296.961L56.613,205.867L170.653,244.575C171.417,244.836 172.204,244.959 172.985,244.959C175.13,244.959 177.216,244.006 178.62,242.273L217.744,194.054L217.743,363.542ZM225,166.062L76.37,125.116L225,83.146L373.63,125.116L225,166.062ZM393.388,296.961L232.257,363.542L232.257,194.056L271.381,242.275C272.785,244.006 274.871,244.961 277.016,244.961C277.797,244.961 278.584,244.838 279.349,244.577L393.388,205.869L393.388,296.961ZM279.469,229.203L237.632,177.638L397.801,133.514L430.94,177.794L279.469,229.203Z" style="fill-rule:nonzero;"></path> </g> </g> </g> </g> </g> </svg> 