<?xml version="1.0" encoding="UTF-8"?> <svg xmlns="http://www.w3.org/2000/svg" width="318" height="188" viewBox="0 0 318 188" fill="none"> <path d="M45.9517 171.34C45.9494 170.539 46.1367 169.869 46.5137 169.33C46.8907 168.791 47.4413 168.413 48.1654 168.195C49.2343 167.875 50.19 168.033 51.0325 168.669C51.8716 169.295 52.517 170.36 52.9687 171.866L54.7531 177.814L42.6845 181.435L40.9984 175.814C40.5777 174.412 40.5202 173.239 40.8259 172.295C41.1317 171.352 41.7845 170.73 42.7845 170.43C43.3822 170.25 43.9557 170.241 44.5051 170.402C45.0431 170.567 45.5252 170.879 45.9517 171.34ZM46.8516 177.159L46.0706 174.556C45.8879 173.946 45.6293 173.523 45.2948 173.285C44.9488 173.05 44.5345 173.006 44.0517 173.15C43.5805 173.292 43.2667 173.561 43.1104 173.959C42.9506 174.345 42.9604 174.837 43.1397 175.435L43.9207 178.038L46.8516 177.159ZM50.9308 172.59C50.5377 171.28 49.824 170.78 48.7895 171.09C47.7895 171.39 47.4861 172.195 47.8792 173.506L48.7998 176.574L51.8515 175.659L50.9308 172.59Z" fill="black"></path> <path d="M41.3898 152.661L41.9775 153.876L45.2833 152.278L46.4901 154.773L43.1842 156.372L43.7719 157.587L47.971 157.836L49.4128 160.818L43.5836 160.257L40.6005 164.839L39.3076 162.165L41.762 158.599L41.1586 157.351L37.7718 158.989L36.5651 156.493L39.9519 154.856L39.3564 153.624L35.0293 153.317L33.7364 150.643L39.1799 151.15L42.3528 146.217L43.8024 149.215L41.3898 152.661Z" fill="black"></path> <path d="M31.6715 133.036L32.2397 134.261L35.5706 132.716L36.7373 135.23L33.4063 136.776L33.9745 138L38.1691 138.316L39.563 141.321L33.7435 140.667L30.6875 145.2L29.4376 142.506L31.9486 138.98L31.3653 137.723L27.9527 139.306L26.7861 136.791L30.1987 135.208L29.6229 133.967L25.3012 133.591L24.0512 130.897L29.486 131.491L32.7373 126.609L34.1388 129.63L31.6715 133.036Z" fill="black"></path> <path d="M24.8638 113.01L25.0931 114.34L28.7118 113.716L29.1825 116.448L25.5639 117.072L25.7932 118.402L29.7603 119.801L30.3228 123.065L24.8749 120.917L20.7428 124.496L20.2384 121.569L23.582 118.82L23.3466 117.454L19.6392 118.093L19.1684 115.361L22.8758 114.722L22.6435 113.374L18.5693 111.884L18.0649 108.957L23.1568 110.948L27.5684 107.082L28.134 110.364L24.8638 113.01Z" fill="black"></path> <path d="M26.128 92.5931L25.7221 93.8807L29.2242 94.9848L28.3907 97.6285L24.8886 96.5244L24.4827 97.8119L27.3678 100.873L26.3719 104.032L22.5141 99.626L17.201 100.914L18.094 98.0814L22.326 97.1697L22.7427 95.8479L19.1548 94.7167L19.9883 92.073L23.5762 93.2041L23.9876 91.8994L21.0491 88.7082L21.9421 85.8757L25.5558 89.9781L31.2484 88.5643L30.2471 91.7402L26.128 92.5931Z" fill="black"></path> <path d="M36.0819 74.2415L35.2598 75.3122L38.1723 77.5485L36.4841 79.7472L33.5716 77.5109L32.7494 78.5817L34.4122 82.4455L32.3952 85.0725L30.2788 79.6122L24.8458 79.0035L26.6545 76.6478L30.9429 77.2399L31.787 76.1406L28.8031 73.8495L30.4913 71.6509L33.4752 73.942L34.3083 72.8569L32.6399 68.8526L34.4487 66.4969L36.4396 71.5886L42.2721 72.209L40.2441 74.8502L36.0819 74.2415Z" fill="black"></path> <path d="M51.0061 58.4041L49.9934 59.2969L52.4217 62.0513L50.3423 63.8844L47.9141 61.13L46.9014 62.0227L47.7904 66.1341L45.3059 68.3243L44.2787 62.559L39.064 60.9172L41.2919 58.9532L45.3865 60.3587L46.4262 59.4422L43.9384 56.6202L46.0178 54.7871L48.5055 57.6091L49.5317 56.7044L48.6642 52.454L50.8921 50.49L51.8671 55.8694L57.4716 57.5996L54.9736 59.8016L51.0061 58.4041Z" fill="black"></path> <path d="M58.4889 49.5073L62.9579 47.0626L64.0377 49.0365L59.5687 51.4812L58.4889 49.5073Z" fill="black"></path> <path d="M77.0584 44.101L75.7616 44.4763L76.7824 48.0035L74.1197 48.7741L73.0988 45.2469L71.8021 45.6222L70.8518 49.7199L67.6703 50.6406L69.2013 44.9882L65.1856 41.2783L68.0386 40.4527L71.142 43.4709L72.4733 43.0856L71.4275 39.4719L74.0902 38.7013L75.1361 42.315L76.4501 41.9347L77.4792 37.7205L80.3321 36.8948L78.9185 42.176L83.249 46.132L80.0503 47.0578L77.0584 44.101Z" fill="black"></path> <path d="M97.5324 40.7657L96.184 40.8309L96.3613 44.4986L93.5925 44.6325L93.4152 40.9647L92.0668 41.0299L90.1945 44.7967L86.8864 44.9567L89.6832 39.8116L86.6345 35.2736L89.601 35.1301L91.9222 38.7843L93.3066 38.7174L93.1249 34.9598L95.8936 34.8259L96.0753 38.5835L97.4417 38.5174L99.4175 34.6555L102.384 34.5121L99.7874 39.3231L103.085 44.1735L99.7593 44.3343L97.5324 40.7657Z" fill="black"></path> <path d="M119.432 41.4587L118.09 41.3175L117.706 44.9694L114.949 44.6796L115.333 41.0277L113.99 40.8865L111.565 44.3239L108.272 43.9776L111.82 39.3191L109.499 34.3692L112.453 34.6798L114.19 38.6451L115.568 38.79L115.961 35.0486L118.718 35.3385L118.325 39.0799L119.685 39.2229L122.227 35.7074L125.181 36.0179L121.881 40.3768L124.401 45.6733L121.089 45.3251L119.432 41.4587Z" fill="black"></path> <path d="M131.899 40.5569L136.917 41.4356L136.528 43.6519L131.511 42.7731L131.899 40.5569Z" fill="black"></path> <path d="M149.838 46.6077L148.519 46.3176L147.73 49.9038L145.023 49.3081L145.812 45.7219L144.493 45.4318L141.7 48.5771L138.466 47.8654L142.512 43.6319L140.758 38.454L143.658 39.0922L144.942 43.2266L146.295 43.5245L147.104 39.8503L149.811 40.446L149.003 44.1201L150.339 44.4141L153.257 41.2041L156.157 41.8423L152.392 45.8057L154.305 51.3504L151.053 50.6348L149.838 46.6077Z" fill="black"></path> <path d="M170.705 51.5561L169.395 51.2304L168.509 54.794L165.819 54.1253L166.705 50.5617L165.395 50.2361L162.518 53.3046L159.303 52.5056L163.463 48.3833L161.849 43.1597L164.731 43.8762L165.903 48.0438L167.248 48.3782L168.155 44.7273L170.845 45.396L169.938 49.0469L171.265 49.3769L174.269 46.2471L177.151 46.9635L173.28 50.8236L175.042 56.418L171.811 55.6147L170.705 51.5561Z" fill="black"></path> <path d="M192.778 56.9785L191.464 56.6703L190.626 60.2453L187.927 59.6123L188.765 56.0373L187.451 55.7291L184.615 58.8355L181.39 58.0793L185.494 53.9021L183.812 48.7004L186.703 49.3786L187.93 53.5303L189.279 53.8468L190.138 50.1841L192.837 50.8171L191.978 54.4797L193.31 54.7921L196.272 51.6227L199.163 52.3008L195.343 56.2119L197.18 61.7824L193.938 61.0221L192.778 56.9785Z" fill="black"></path> <path d="M214.602 61.4564L213.27 61.2385L212.677 64.8623L209.941 64.415L210.534 60.7911L209.202 60.5732L206.584 63.8659L203.315 63.3314L207.125 58.8839L205.092 53.8092L208.023 54.2885L209.529 58.3469L210.897 58.5706L211.504 54.8579L214.24 55.3053L213.633 59.018L214.983 59.2388L217.722 55.8747L220.653 56.354L217.109 60.5166L219.321 65.9488L216.034 65.4114L214.602 61.4564Z" fill="black"></path> <path d="M226.601 60.5373L231.686 60.836L231.554 63.0821L226.469 62.7835L226.601 60.5373Z" fill="black"></path> <path d="M246.17 62.829L244.832 63.0117L245.329 66.6499L242.583 67.0251L242.086 63.3869L240.748 63.5697L239.212 67.4856L235.931 67.9339L238.267 62.5642L234.834 58.3098L237.776 57.9078L240.408 61.3452L241.781 61.1576L241.272 57.4303L244.018 57.055L244.528 60.7824L245.883 60.5973L247.514 56.5775L250.457 56.1755L248.29 61.1949L251.999 65.7387L248.7 66.1894L246.17 62.829Z" fill="black"></path> <path d="M267.68 55.0183L266.536 55.7345L268.484 58.8471L266.134 60.3177L264.186 57.205L263.042 57.9212L263.25 62.1225L260.443 63.8796L260.367 58.024L255.488 55.5561L258.006 53.9805L261.817 56.0331L262.992 55.2978L260.997 52.1088L263.346 50.6382L265.342 53.8272L266.502 53.1014L266.337 48.7666L268.855 47.191L268.942 52.6573L274.19 55.2757L271.368 57.0423L267.68 55.0183Z" fill="black"></path> <path d="M284.858 39.2347L284.039 40.3079L286.958 42.5356L285.276 44.7392L282.357 42.5115L281.538 43.5846L283.212 47.4436L281.203 50.0765L279.071 44.6224L273.636 44.0297L275.438 41.6687L279.728 42.2482L280.569 41.1464L277.578 38.8641L279.26 36.6605L282.25 38.9428L283.08 37.8554L281.4 33.8559L283.202 31.4949L285.208 36.5807L291.042 37.184L289.022 39.8312L284.858 39.2347Z" fill="black"></path> <path d="M296.26 19.8868L295.687 21.1094L299.013 22.6665L297.837 25.177L294.512 23.6199L293.939 24.8425L296.395 28.2579L294.99 31.2574L291.748 26.3805L286.312 26.9553L287.571 24.2656L291.886 23.921L292.474 22.6658L289.067 21.0705L290.243 18.56L293.65 20.1553L294.23 18.9164L291.739 15.365L292.998 12.6752L296.038 17.2191L301.867 16.5698L300.455 19.5855L296.26 19.8868Z" fill="black"></path> </svg> 