<?xml version="1.0" encoding="UTF-8"?> <svg xmlns="http://www.w3.org/2000/svg" width="107" height="44" viewBox="0 0 107 44" fill="none"> <rect width="107" height="44" rx="7" fill="white"></rect> <path d="M12.4283 25.5223C14.3217 25.5223 15.8566 24.0138 15.8566 22.153C15.8566 20.2921 14.3217 18.7836 12.4283 18.7836C10.5349 18.7836 9 20.2921 9 22.153C9 24.0138 10.5349 25.5223 12.4283 25.5223Z" fill="#FCEE21"></path> <path d="M26.3228 25.5223C28.2162 25.5223 29.7511 24.0138 29.7511 22.153C29.7511 20.2921 28.2162 18.7836 26.3228 18.7836C24.4294 18.7836 22.8945 20.2921 22.8945 22.153C22.8945 24.0138 24.4294 25.5223 26.3228 25.5223Z" fill="#FCEE21"></path> <path d="M25.1473 23.4458H13.7594C12.6978 23.4458 11.7863 22.8096 11.4342 21.8222C11.082 20.8348 11.3927 19.7812 12.2213 19.1298L12.2628 19.0992L23.3814 11.48C24.21 10.91 25.2871 10.8438 26.183 11.3019C27.079 11.76 27.6383 12.6659 27.6383 13.6584V20.9926C27.6383 22.3515 26.5197 23.4458 25.1473 23.4458ZM13.1483 20.3055C12.6771 20.6872 12.8117 21.186 12.8635 21.3336C12.9153 21.4812 13.1328 21.9596 13.7594 21.9596H25.1473C25.6859 21.9596 26.1209 21.5321 26.1209 21.0028V13.6635C26.1209 13.2207 25.8827 12.8288 25.4787 12.6252C25.08 12.4216 24.6191 12.4471 24.2462 12.7016L13.1483 20.3055Z" fill="black"></path> <path d="M39.2291 32.6941C38.5766 32.3582 38.0691 31.8951 37.7117 31.2996C37.3492 30.7041 37.168 30.0323 37.168 29.279C37.168 28.5257 37.3492 27.8539 37.7117 27.2635C38.0742 26.6731 38.5817 26.215 39.2291 25.8842C39.8816 25.5534 40.617 25.3905 41.4456 25.3905C42.2897 25.3905 43.0199 25.5737 43.631 25.9402C44.2472 26.3066 44.6822 26.8156 44.936 27.4671L42.9163 28.5155C42.5797 27.8386 42.0825 27.4976 41.43 27.4976C40.9639 27.4976 40.5755 27.6554 40.27 27.971C39.9645 28.2865 39.8091 28.7242 39.8091 29.2841C39.8091 29.849 39.9645 30.2969 40.27 30.6176C40.5755 30.9382 40.9639 31.1011 41.43 31.1011C42.0825 31.1011 42.5745 30.7601 42.9163 30.0832L44.936 31.1265C44.6771 31.778 44.242 32.287 43.631 32.6534C43.0147 33.0199 42.2897 33.2031 41.4456 33.2031C40.617 33.1929 39.8816 33.025 39.2291 32.6941Z" fill="black"></path> <path d="M51.8948 26.2399C52.5473 26.81 52.8736 27.6905 52.8736 28.8713V33.0702H50.4396V32.093C50.0616 32.8259 49.3314 33.1924 48.2387 33.1924C47.6587 33.1924 47.1615 33.0906 46.742 32.887C46.3226 32.6834 46.0015 32.4035 45.784 32.0574C45.5665 31.7113 45.4629 31.3092 45.4629 30.8664C45.4629 30.1488 45.7322 29.594 46.2759 29.2021C46.8145 28.8051 47.6535 28.6117 48.7773 28.6117H50.2635C50.2169 27.8126 49.6887 27.4105 48.684 27.4105C48.3267 27.4105 47.9642 27.4665 47.5965 27.5836C47.2288 27.7006 46.9181 27.8584 46.6592 28.0671L45.7788 26.2705C46.1931 25.9905 46.6954 25.7768 47.2858 25.6241C47.8762 25.4714 48.4717 25.395 49.0673 25.395C50.2998 25.3849 51.2423 25.6699 51.8948 26.2399ZM49.7612 31.299C49.9891 31.1514 50.1548 30.9326 50.2584 30.6425V29.9859H49.1294C48.3681 29.9859 47.9901 30.2404 47.9901 30.7544C47.9901 30.9886 48.0781 31.1718 48.249 31.3143C48.4251 31.4517 48.6633 31.523 48.9637 31.523C49.2692 31.5179 49.5333 31.4466 49.7612 31.299Z" fill="black"></path> <path d="M61.6741 33.0703V29.0953L59.7631 32.3985H58.6497L56.7906 29.0393V33.0703H54.4395V25.5071H57.1893L59.266 29.4567L61.5498 25.5071H64.0097L64.0252 33.0653H61.6741V33.0703Z" fill="black"></path> <path d="M67.2988 32.6937C66.6567 32.3578 66.1543 31.8946 65.7918 31.2991C65.4293 30.7036 65.248 30.0318 65.248 29.2785C65.248 28.5354 65.4293 27.8636 65.7918 27.2681C66.1543 26.6726 66.6515 26.2095 67.2884 25.8786C67.9254 25.5478 68.6453 25.3849 69.4531 25.3849C70.261 25.3849 70.986 25.5478 71.6282 25.8786C72.2703 26.2095 72.7675 26.6675 73.1248 27.2579C73.4822 27.8483 73.6634 28.5202 73.6634 29.2734C73.6634 30.0267 73.4822 30.6985 73.1248 31.294C72.7675 31.8895 72.2652 32.3527 71.6282 32.6886C70.986 33.0245 70.261 33.1925 69.4531 33.1925C68.6608 33.1925 67.941 33.0245 67.2988 32.6937ZM70.5873 30.6069C70.8825 30.2863 71.0275 29.8435 71.0275 29.2734C71.0275 28.7136 70.8825 28.281 70.5873 27.9603C70.2921 27.6448 69.9192 27.487 69.4583 27.487C68.9974 27.487 68.6245 27.6448 68.3294 27.9603C68.0342 28.2759 67.8892 28.7136 67.8892 29.2734C67.8892 29.8384 68.0342 30.2863 68.3294 30.6069C68.6245 30.9276 68.9974 31.0904 69.4583 31.0904C69.9192 31.0854 70.2921 30.9276 70.5873 30.6069Z" fill="black"></path> <path d="M78.3843 30.3779H77.5039V33.0703H74.8887V25.5071H77.5039V28.2963H78.4412L80.2693 25.5071H83.0347L80.5334 29.131L83.2005 33.0653H80.1191L78.3843 30.3779Z" fill="black"></path> <path d="M89.7991 26.2399C90.4516 26.81 90.7779 27.6905 90.7779 28.8713V33.0702H88.3439V32.093C87.9659 32.8259 87.2357 33.1924 86.143 33.1924C85.5629 33.1924 85.0658 33.0906 84.6463 32.887C84.2269 32.6834 83.9058 32.4035 83.6883 32.0574C83.4708 31.7113 83.3672 31.3092 83.3672 30.8664C83.3672 30.1488 83.6365 29.594 84.1802 29.2021C84.7188 28.8051 85.5578 28.6117 86.6815 28.6117H88.1678C88.1212 27.8126 87.593 27.4105 86.5883 27.4105C86.231 27.4105 85.8685 27.4665 85.5008 27.5836C85.1331 27.7006 84.8224 27.8584 84.5635 28.0671L83.6831 26.2705C84.0974 25.9905 84.5997 25.7768 85.1901 25.6241C85.7805 25.4714 86.376 25.395 86.9715 25.395C88.2041 25.3849 89.1466 25.6699 89.7991 26.2399ZM87.6655 31.299C87.8934 31.1514 88.0591 30.9326 88.1626 30.6425V29.9859H87.0337C86.2724 29.9859 85.8944 30.2404 85.8944 30.7544C85.8944 30.9886 85.9824 31.1718 86.1533 31.3143C86.3294 31.4517 86.5676 31.523 86.868 31.523C87.1735 31.5179 87.4376 31.4466 87.6655 31.299Z" fill="black"></path> <path d="M99.0019 27.6142H96.6094V33.0653H94.0096V27.6142H91.6016V25.5071H99.0019V27.6142Z" fill="black"></path> <path d="M45.3128 22.5042V17.5672L42.8374 21.7255H42.0969L39.6629 17.5571V22.5093H38.0938V15.058H39.8959L42.5112 19.7151L45.2507 15.058H46.8613L46.8768 22.5042H45.3128Z" fill="black"></path> <path d="M50.4455 22.1123C49.8499 21.7866 49.3839 21.3336 49.0473 20.7534C48.7106 20.1732 48.5449 19.5166 48.5449 18.7786C48.5449 18.0457 48.7106 17.3891 49.0473 16.814C49.3839 16.2389 49.8448 15.7859 50.4455 15.4602C51.041 15.1344 51.7091 14.9716 52.4548 14.9716C53.2057 14.9716 53.879 15.1344 54.4745 15.4602C55.0701 15.7859 55.5361 16.2389 55.8727 16.814C56.2094 17.3891 56.3751 18.0457 56.3751 18.7786C56.3751 19.5115 56.2094 20.1732 55.8727 20.7534C55.5361 21.3336 55.0752 21.7866 54.4745 22.1123C53.879 22.4381 53.2057 22.6009 52.4548 22.6009C51.7091 22.6009 51.041 22.4381 50.4455 22.1123ZM54.0188 20.4684C54.4331 20.0408 54.6402 19.4759 54.6402 18.7786C54.6402 18.0813 54.4331 17.5164 54.0188 17.0888C53.6045 16.6613 53.0814 16.4476 52.4496 16.4476C51.8178 16.4476 51.2948 16.6613 50.8909 17.0888C50.4817 17.5164 50.2798 18.0813 50.2798 18.7786C50.2798 19.4759 50.4817 20.0408 50.8909 20.4684C51.3 20.8959 51.8178 21.1097 52.4496 21.1097C53.0866 21.1097 53.6097 20.8959 54.0188 20.4684Z" fill="black"></path> <path d="M59.5436 22.5042H58.0625V15.0428H59.787V19.9238L63.9248 15.0428H65.4059V22.5042H63.6814V17.6233L59.5436 22.5042ZM64.0853 13.3683C63.4432 13.7958 62.656 14.0045 61.7342 14.0045C60.8124 14.0045 60.0252 13.7908 59.3831 13.3683V12.0145C60.1029 12.4522 60.8849 12.6659 61.7342 12.6659C62.5835 12.6659 63.3655 12.4471 64.0853 12.0145V13.3683Z" fill="black"></path> </svg> 