<?xml version="1.0" encoding="UTF-8"?>
 <svg xmlns="http://www.w3.org/2000/svg" width="33" height="34" viewBox="0 0 33 34" fill="none"> <path fill-rule="evenodd" clip-rule="evenodd" d="M33 17C33 26.3888 25.6127 34 16.5 34C7.3873 34 0 26.3888 0 17C0 7.61116 7.3873 0 16.5 0C25.6127 0 33 7.61116 33 17ZM23.4589 10.3118L7.55012 16.6316C6.45974 17.0708 6.47899 17.6927 7.36312 17.9817L11.4359 19.2907L20.8835 13.1622C21.3221 12.8618 21.7291 13.0318 21.3964 13.3336L13.7514 20.4495L13.4585 24.7746C13.8847 24.7746 14.0704 24.5833 14.2904 24.3567L16.28 22.3818L20.405 25.5141C21.1571 25.9533 21.6947 25.7266 21.8955 24.7944L24.6042 11.6463L24.6029 11.6478C24.8421 10.4974 24.1972 10.037 23.4589 10.3118Z" fill="#5D5D5D"></path>
 </svg> 