<?xml version="1.0" encoding="UTF-8"?> <svg xmlns="http://www.w3.org/2000/svg" width="47" height="47" viewBox="0 0 47 47" fill="none"> <g clip-path="url(#clip0)"> <path d="M23.5 47.001C36.4787 47.001 47 36.4797 47 23.501C47 10.5223 36.4787 0.000976562 23.5 0.000976562C10.5213 0.000976562 0 10.5223 0 23.501C0 36.4797 10.5213 47.001 23.5 47.001Z" fill="#039BE5"></path> <path d="M10.7531 22.9925L33.411 14.2563C34.4627 13.8764 35.3811 14.5129 35.0404 16.103L35.0423 16.1011L31.1844 34.2764C30.8985 35.565 30.1328 35.8783 29.0616 35.2712L23.1866 30.9413L20.3529 33.6713C20.0395 33.9846 19.7752 34.249 19.1681 34.249L19.5852 28.2702L30.4735 18.4335C30.9474 18.0163 30.3678 17.7813 29.7431 18.1965L16.2874 26.6683L10.4868 24.8588C9.22757 24.4593 9.20015 23.5995 10.7531 22.9925Z" fill="white"></path> </g> <defs> <clipPath id="clip0"> <rect width="47" height="47" fill="white" transform="translate(0 0.000976562)"></rect> </clipPath> </defs> </svg> 