<?xml version="1.0" encoding="UTF-8"?>
 <svg xmlns="http://www.w3.org/2000/svg" width="33" height="34" viewBox="0 0 33 34" fill="none">
     <path fill-rule="evenodd" clip-rule="evenodd" d="M20.5346 19.9335C20.3644 20.4254 19.5477 20.8738 19.1548 20.9343C18.8031 20.9885 18.3576 21.0108 17.8678 20.8515C17.5708 20.7537 17.1902 20.6241 16.7035 20.4073C14.6534 19.4957 13.3138 17.3697 13.2117 17.2294C13.1096 17.0892 12.3774 16.0883 12.3774 15.0523C12.3774 14.0164 12.9054 13.5064 13.0931 13.296C13.2798 13.0857 13.5015 13.0325 13.6376 13.0325C13.7737 13.0325 13.9098 13.0336 14.0295 13.04C14.1553 13.0464 14.3234 12.9911 14.4894 13.4012C14.6596 13.823 15.0679 14.859 15.1195 14.9642C15.17 15.0693 15.2041 15.1926 15.136 15.3328C15.0679 15.4731 15.0339 15.5613 14.9318 15.6845C14.8297 15.8067 14.7173 15.9587 14.6255 16.0532C14.5234 16.1573 14.4162 16.2721 14.5358 16.4825C14.6554 16.6928 15.0648 17.3824 15.6722 17.9402C16.4529 18.6574 17.1119 18.8795 17.3161 18.9857C17.5202 19.0909 17.6399 19.0728 17.7585 18.9326C17.8781 18.7923 18.27 18.3185 18.4061 18.107C18.5422 17.8967 18.6783 17.9317 18.866 18.0018C19.0527 18.072 20.0581 18.5809 20.2623 18.6872C20.4665 18.7923 20.6026 18.8444 20.6542 18.9326C20.7047 19.0208 20.7047 19.4415 20.5346 19.9335ZM16.5364 9.92261C12.7868 9.92261 9.73638 13.0634 9.73535 16.9234C9.73535 18.2462 10.0942 19.535 10.7749 20.6496L10.9368 20.9142L10.2499 23.4981L12.8229 22.8033L13.0704 22.9542C14.114 23.5927 15.3103 23.9306 16.5302 23.9306H16.5333C20.2799 23.9306 23.3293 20.7898 23.3313 16.9287C23.3313 15.0577 22.626 13.2992 21.3421 11.9754C20.0581 10.6525 18.3514 9.92261 16.5364 9.92261Z" fill="#5D5D5D">
    </path>
    <path fill-rule="evenodd" clip-rule="evenodd" d="M16.534 25.3534H16.5309C15.1614 25.3534 13.8167 24.9996 12.6225 24.3281L8.28609 25.5L9.44728 21.1342C8.73159 19.8571 8.35416 18.4078 8.35519 16.9224C8.35725 12.2783 12.0254 8.5 16.534 8.5C18.7213 8.5 20.7756 9.37762 22.3193 10.9703C23.8631 12.5619 24.7139 14.6784 24.7129 16.9299C24.7108 21.5741 21.0416 25.3534 16.534 25.3534ZM16.5 0C7.38684 0 0 7.61069 0 17C0 26.3883 7.38684 34 16.5 34C25.6121 34 33 26.3883 33 17C33 7.61069 25.6121 0 16.5 0Z" fill="#5D5D5D">
    </path>
 </svg> 