<?xml version="1.0" encoding="UTF-8"?> <svg xmlns="http://www.w3.org/2000/svg" width="47" height="47" viewBox="0 0 47 47" fill="none"> <g clip-path="url(#clip0)"> <path fill-rule="evenodd" clip-rule="evenodd" d="M29.247 27.5563C29.0046 28.2364 27.8414 28.8562 27.2818 28.9399C26.7809 29.0148 26.1464 29.0456 25.4488 28.8253C25.0258 28.6902 24.4838 28.511 23.7905 28.2114C20.8707 26.9512 18.9628 24.0122 18.8174 23.8184C18.672 23.6245 17.6291 22.2409 17.6291 20.8089C17.6291 19.3769 18.3811 18.6719 18.6485 18.3811C18.9143 18.0902 19.2301 18.0168 19.424 18.0168C19.6178 18.0168 19.8117 18.0183 19.9821 18.0271C20.1613 18.0359 20.4007 17.9595 20.6371 18.5265C20.8795 19.1096 21.4611 20.5416 21.5345 20.687C21.6065 20.8324 21.655 21.0028 21.558 21.1966C21.4611 21.3905 21.4126 21.5124 21.2672 21.6828C21.1218 21.8517 20.9617 22.0617 20.831 22.1925C20.6856 22.3364 20.5329 22.495 20.7032 22.7858C20.8736 23.0766 21.4567 24.0299 22.3218 24.801C23.4336 25.7924 24.3722 26.0993 24.663 26.2462C24.9538 26.3916 25.1242 26.3666 25.2931 26.1728C25.4635 25.9789 26.0216 25.3238 26.2155 25.0315C26.4093 24.7407 26.6032 24.7892 26.8705 24.8861C27.1364 24.9831 28.5684 25.6866 28.8592 25.8335C29.15 25.9789 29.3439 26.0509 29.4173 26.1728C29.4893 26.2947 29.4893 26.8763 29.247 27.5563ZM23.5526 13.7178C18.2122 13.7178 13.8677 18.0594 13.8662 23.3954C13.8662 25.224 14.3773 27.0055 15.3467 28.5463L15.5773 28.912L14.5991 32.484L18.2636 31.5234L18.6161 31.732C20.1025 32.6147 21.8063 33.0818 23.5438 33.0818H23.5482C28.8842 33.0818 33.2273 28.7401 33.2302 23.4027C33.2302 20.8162 32.2256 18.3855 30.397 16.5554C28.5684 14.7268 26.1376 13.7178 23.5526 13.7178Z" fill="#67D449"></path> <path fill-rule="evenodd" clip-rule="evenodd" d="M23.5485 35.0483H23.5441C21.5936 35.0483 19.6783 34.5592 17.9775 33.6309L11.8014 35.251L13.4552 29.2159C12.4359 27.4504 11.8983 25.4471 11.8998 23.3938C11.9028 16.9739 17.1271 11.751 23.5485 11.751C26.6637 11.751 29.5894 12.9642 31.7882 15.1658C33.9869 17.366 35.1986 20.2918 35.1971 23.404C35.1942 29.8239 29.9684 35.0483 23.5485 35.0483ZM23.5 0.000976562C10.5207 0.000976562 0 10.5216 0 23.501C0 36.4789 10.5207 47.001 23.5 47.001C36.4779 47.001 47 36.4789 47 23.501C47 10.5216 36.4779 0.000976562 23.5 0.000976562Z" fill="#67D449"></path> </g> <defs> <clipPath id="clip0"> <rect width="47" height="47" fill="white" transform="translate(0 0.000976562)"></rect> </clipPath> </defs> </svg> 