<?xml version="1.0" encoding="UTF-8"?> <svg xmlns="http://www.w3.org/2000/svg" width="103" height="21" viewBox="0 0 103 21" fill="none"> <path d="M34.8817 3.41631H35.7911V6.05846H36.9281L37.9742 1.8675V0.182282H34.8817V3.41631ZM21.0564 7.01506C21.7386 7.01506 22.0567 7.56174 22.0567 11.8439H19.8285C19.9194 7.56174 20.2832 7.01506 21.0564 7.01506ZM25.1949 15.6248H23.7395V16.1259C23.7395 18.2214 23.1481 19.2236 21.9202 19.2236C20.5105 19.2236 19.8283 18.3123 19.8283 13.5291V13.1649H25.3765C25.3765 7.56174 24.1486 5.3752 21.0562 5.3752C17.9637 5.3752 15.9626 8.56387 15.9626 13.484C15.9626 18.358 17.8727 21 21.1472 21C23.9668 21 25.1947 19.4057 25.1947 16.0349V15.6248H25.1949ZM63.8167 7.01506C64.4988 7.01506 64.8172 7.56174 64.8172 11.8439H62.7142C62.8051 7.56174 63.0435 7.01506 63.8167 7.01506ZM67.9552 15.6248H66.4998V16.1259C66.4998 18.2214 65.9086 19.2236 64.6807 19.2236C63.2708 19.2236 62.714 18.3123 62.714 13.5291V13.1649H68.137C68.137 7.56174 66.9091 5.3752 63.8165 5.3752C60.724 5.3752 58.723 8.56387 58.723 13.4838C58.723 18.358 60.6333 21 63.9076 21C66.7272 21 67.9552 19.4057 67.9552 16.0349V15.6248ZM88.0564 21C90.103 21 90.9671 19.7245 90.9671 17.9022V15.6248H89.6028V17.9022C89.6028 18.8592 89.4663 19.1777 89.0116 19.1777C88.6022 19.1777 88.4658 18.9044 88.4658 18.0388V7.10612H90.9671V5.69407H88.5112V1.45758H87.1013L85.0093 5.87618H83.7814V7.06059H84.8728V17.1733C84.873 19.8156 85.3278 21 88.0564 21ZM77.5054 9.42941C77.5054 6.60514 76.2322 5.4209 73.5035 5.4209C70.7748 5.4209 68.9102 7.37963 68.9102 9.70292V10.614H72.0483V8.47281C72.0483 7.24287 72.3212 6.78742 73.0034 6.78742C73.6857 6.78742 73.9584 7.19734 73.9584 8.47281V10.9784C69.8199 12.3903 68.5466 13.4383 68.5466 16.9458C68.5466 19.679 69.6379 21 71.5027 21C73.0944 21 73.8222 19.9066 74.2314 19.2236V20.7267H78.279V19.4966H77.5058V9.42941H77.5054ZM101.2 19.4966V8.70045C101.2 6.46839 100.199 5.42073 98.4253 5.42073C96.2878 5.42073 95.4237 7.01506 95.4237 7.01506V0L90.9215 0.501148V1.68539H91.9674V19.4966H91.2398V20.7267H96.2425V19.4966H95.515V10.0671C95.515 8.42728 95.9697 7.74402 96.7882 7.74402C97.3794 7.74402 97.6067 8.10842 97.6067 9.01949V19.4966H96.7882V20.7267H102.2V19.4966H101.2ZM73.9582 12.2537V16.9001C73.9582 18.2668 73.6855 18.8136 72.9123 18.8136C72.3212 18.8136 72.0482 18.3123 72.0482 16.6726C72.0482 13.8937 72.2756 13.2104 73.9582 12.2537ZM58.03 19.4966V1.41222H59.0761V0.227641H52.8454V1.41205H54.1188V9.88486H50.1169V1.41222H51.4357V0.227641H45.1141V1.41205H46.2057V19.4964H45.1141V20.7265H51.4357V19.4964H50.1169V11.2973H54.1188V19.4966H52.8454V20.7267H59.0761V19.4966H58.03ZM83.0538 19.4966V0L78.3696 0.501148V1.68539H79.5066V19.4966H78.779V20.7267H84.1454V19.4966H83.0538ZM44.8868 16.6725C44.8868 11.8439 39.7024 11.5249 39.7024 8.33606C39.7024 7.24287 40.2481 6.6962 41.1122 6.6962C42.431 6.6962 43.1133 8.01719 43.2042 10.7958H44.3865V6.24058C44.3865 6.24058 43.0677 5.42073 41.0666 5.42073C38.6563 5.42073 36.7007 6.78725 36.7007 9.566C36.7007 14.1214 41.7487 14.7593 41.7487 17.8567C41.7487 19.0868 41.1575 19.679 40.2023 19.679C38.7469 19.679 38.0193 18.4035 37.9284 15.2602H36.7461V20.1802C36.7461 20.1802 38.2015 21 40.3388 21C42.9768 21 44.8868 19.4966 44.8868 16.6725ZM15.2806 19.4966V1.41222H16.2357V0.227641H10.9147L8.27708 11.7527L5.45745 0.227641H0V1.41205H1.13701V19.4964H0V20.7265H4.18391V19.4964H2.86509V6.78725L6.18504 20.7265H8.0951L11.3694 6.6962V19.4964H10.1415V20.7265H16.2357V19.4964H15.2806V19.4966ZM35.4273 19.4966V8.70045C35.4273 6.46839 34.427 5.42073 32.6987 5.42073C30.5612 5.42073 29.6971 7.01506 29.6971 7.01506V5.42073L25.1493 5.92188V7.15182H26.1954V19.4966H25.104V20.7267H30.5156V19.4966H29.788V10.0671C29.788 8.42728 30.2429 7.74402 31.0614 7.74402C31.6526 7.74402 31.8799 8.10842 31.8799 9.01949V19.4966H31.0614V20.7267H36.1549V19.4966H35.4273Z" fill="white"></path> </svg> 