<?xml version="1.0" encoding="UTF-8"?> <!-- Generator: Adobe Illustrator 24.3.0, SVG Export Plug-In . SVG Version: 6.00 Build 0) --> <svg xmlns="http://www.w3.org/2000/svg" xmlns:xlink="http://www.w3.org/1999/xlink" id="Слой_1" x="0px" y="0px" viewBox="0 0 383 174.3" style="enable-background:new 0 0 383 174.3;" xml:space="preserve"> <style type="text/css"> .st0{fill:#F9E70D;} </style> <g> <g> <path class="st0" d="M123.6,110.3H96.2c-1.4,0-2.5-1.1-2.5-2.5s1.1-2.5,2.5-2.5h27.4c1.4,0,2.5,1.1,2.5,2.5S125,110.3,123.6,110.3 z"></path> <path class="st0" d="M58.3,96.1c-1.4,0-2.5-1.1-2.5-2.5V41.7c0-1.4,1.1-2.5,2.5-2.5s2.5,1.1,2.5,2.5v51.9 C60.8,95,59.7,96.1,58.3,96.1z"></path> <path class="st0" d="M84.2,70.1H32.3c-1.4,0-2.5-1.1-2.5-2.5s1.1-2.5,2.5-2.5h51.9c1.4,0,2.5,1.1,2.5,2.5S85.6,70.1,84.2,70.1z"></path> <path class="st0" d="M189.9,174.3c-14.5,0-27.5-9.7-33-24.6l-6.1-16.6H73.5c-1.9,5.1-4.8,13.2-6.1,16.6 c-5.7,15.2-18.3,24.6-32.9,24.6c-19,0-34.5-15.5-34.5-34.5c0-1.4,0.1-2.9,0.3-4.8l13.8-99.4C17,15.3,34.6,0,55.1,0 C69,0,81.8,6.8,89.5,18.3h45.7C142.8,6.8,155.6,0,169.5,0c20.5,0,38.1,15.3,41,35.6l13.8,99.3c0.2,1.9,0.3,3.4,0.3,4.8 C224.5,158.8,208.9,174.3,189.9,174.3z M70.1,128.1h84.2l7.3,19.8c4.8,13,15.9,21.4,28.4,21.4c16.3,0,29.6-13.2,29.7-29.5 c0-1.2-0.1-2.5-0.3-4.2l-13.8-99.2C203,18.5,187.5,5,169.5,5c-12.7,0-24.2,6.4-30.9,17.1l-0.7,1.2H86.7L86,22.1 C79.3,11.4,67.8,5,55.1,5c-18,0-33.5,13.5-36,31.4L5.3,135.6c-0.2,1.6-0.3,2.9-0.3,4.2c0,16.3,13.2,29.5,29.5,29.5 c12.5,0,23.3-8.2,28.3-21.4c1.4-3.8,4.9-13.3,6.7-18.2L70.1,128.1z"></path> <path class="st0" d="M145,74.5c-9,0-16.4-7.4-16.4-16.4S136,41.7,145,41.7s16.4,7.4,16.4,16.4S154,74.5,145,74.5z M145,46.7 c-6.3,0-11.4,5.1-11.4,11.4s5.1,11.4,11.4,11.4s11.4-5.1,11.4-11.4C156.4,51.9,151.2,46.7,145,46.7z"></path> </g> <path class="st0" d="M177.7,102.2c-9,0-16.4-7.4-16.4-16.4s7.4-16.4,16.4-16.4s16.4,7.4,16.4,16.4S186.7,102.2,177.7,102.2z M177.7,74.4c-6.3,0-11.4,5.1-11.4,11.4s5.1,11.4,11.4,11.4s11.4-5.1,11.4-11.4S184,74.4,177.7,74.4z"></path> </g> <g> <path class="st0" d="M256.7,169.5l22.6-29.3l-20.7-26.6h6.7l17.7,23l17.4-23h6.7l-20.3,26.6l22.5,29.3h-6.7L283,143.7l-19.6,25.8 H256.7z"></path> <path class="st0" d="M375,169.5h-56.4l35.1-38.7c4.8-5.5,8.2-9.6,10-12.3c3.6-5.5,5.3-10.7,5.3-15.6c0-5.9-2-10.7-6-14.7 c-4-3.9-9.1-5.9-15.3-5.9c-6.6,0-11.8,2.2-15.8,6.7c-3.6,3.9-5.3,8.9-5.3,14.9h-6c0-7.8,2.4-14.2,7.3-19.2c5.1-5.3,11.9-8,20.3-8 c7.9,0,14.4,2.5,19.5,7.5c5.1,5,7.7,11.2,7.7,18.6c0,6.5-2.2,12.8-6.6,18.8c-2.1,2.9-4.8,6.2-8.1,9.9L331.4,164H375V169.5z"></path> </g> </svg> 