<?xml version="1.0" encoding="UTF-8"?> <svg xmlns="http://www.w3.org/2000/svg" width="6566" height="1041" viewBox="0 0 6566 1041" fill="none"> <path fill-rule="evenodd" clip-rule="evenodd" d="M1345.8 685.214C1352.8 689.913 1354.22 699.576 1348.98 706.2C1297.26 771.459 1224.15 813.384 1118.48 813.384C945.74 813.384 822.853 690.497 822.853 515.437C822.853 345.017 946.895 217.491 1111.51 217.491C1277.3 217.491 1394.38 346.185 1394.38 515.437C1394.38 521.158 1394.14 532.268 1393.91 541.421C1393.71 549.551 1387.06 556.015 1378.93 556.015H956.167C961.967 638.331 1035.01 699.768 1119.63 699.768C1182.25 699.768 1216.68 676.991 1246.22 639.048C1251.07 632.81 1259.81 631.277 1266.4 635.65C1285.82 648.579 1325.15 671.363 1345.8 685.214ZM1261.07 458.633C1252.95 383.278 1190.35 327.629 1109.21 327.629C1030.36 327.629 965.445 393.705 957.335 458.633H1261.07Z" fill="#263238"></path> <path fill-rule="evenodd" clip-rule="evenodd" d="M3810.36 685.214C3817.36 689.913 3818.78 699.576 3813.53 706.2C3761.81 771.459 3688.71 813.384 3583.02 813.384C3410.29 813.384 3287.4 690.497 3287.4 515.437C3287.4 345.017 3411.45 217.491 3576.06 217.491C3741.86 217.491 3858.94 346.185 3858.94 515.437C3858.94 521.158 3858.69 532.268 3858.46 541.421C3858.26 549.551 3851.61 556.015 3843.48 556.015H3420.72C3426.53 638.331 3499.56 699.768 3584.19 699.768C3646.8 699.768 3681.24 676.991 3710.76 639.048C3715.63 632.81 3724.37 631.277 3730.95 635.65C3750.39 648.579 3789.71 671.363 3810.36 685.214ZM3725.62 458.633C3717.5 383.278 3654.89 327.629 3573.76 327.629C3494.91 327.629 3430 393.705 3421.89 458.633H3725.62Z" fill="#263238"></path> <path fill-rule="evenodd" clip-rule="evenodd" d="M5519.03 685.214C5526.03 689.913 5527.45 699.576 5522.21 706.2C5470.49 771.459 5397.39 813.384 5291.69 813.384C5118.97 813.384 4996.08 690.497 4996.08 515.437C4996.08 345.017 5120.13 217.491 5284.74 217.491C5450.53 217.491 5567.61 346.185 5567.61 515.437C5567.61 521.158 5567.36 532.268 5567.14 541.421C5566.94 549.551 5560.29 556.015 5552.16 556.015H5129.4C5135.2 638.331 5208.24 699.768 5292.86 699.768C5355.47 699.768 5389.92 676.991 5419.44 639.048C5424.3 632.81 5433.05 631.277 5439.62 635.65C5459.06 648.579 5498.38 671.363 5519.03 685.214ZM5434.29 458.633C5426.18 383.278 5363.57 327.629 5282.44 327.629C5203.59 327.629 5138.67 393.705 5130.57 458.633H5434.29Z" fill="#263238"></path> <path fill-rule="evenodd" clip-rule="evenodd" d="M1728.45 685.427C1665.68 685.427 1636.72 656.464 1636.72 591.277V352.889H1702.24C1710.52 352.889 1717.23 346.179 1717.23 337.903V249.574C1717.23 241.298 1710.52 234.594 1702.24 234.594H1636.72V92.6661C1636.72 84.3834 1630.01 77.6802 1621.73 77.6802H1521.52C1513.24 77.6802 1506.53 84.3834 1506.53 92.6661V234.594H1444.08C1435.81 234.594 1429.1 241.298 1429.1 249.574V337.903C1429.1 346.179 1435.81 352.889 1444.08 352.889H1506.53V616.63C1506.53 739.749 1577.75 813.372 1696.04 813.372C1716.54 813.372 1731.04 811.082 1747.17 805.208C1757.45 801.472 1764.12 791.477 1764.07 780.533L1763.76 698.521C1763.61 689.535 1755.66 682.739 1746.75 683.914C1740.01 684.81 1733.23 685.427 1728.45 685.427Z" fill="#263238"></path> <path fill-rule="evenodd" clip-rule="evenodd" d="M2084.87 685.427C2022.1 685.427 1993.13 656.464 1993.13 591.277V352.889H2058.66C2066.93 352.889 2073.64 346.179 2073.64 337.903V249.574C2073.64 241.298 2066.93 234.594 2058.66 234.594H1993.13V92.6661C1993.13 84.3834 1986.42 77.6802 1978.15 77.6802H1877.93C1869.65 77.6802 1862.94 84.3834 1862.94 92.6661V234.594H1800.5C1792.22 234.594 1785.52 241.298 1785.52 249.574V337.903C1785.52 346.179 1792.22 352.889 1800.5 352.889H1862.94V616.63C1862.94 739.749 1934.16 813.372 2052.45 813.372C2072.95 813.372 2087.45 811.082 2103.59 805.208C2113.87 801.472 2120.53 791.477 2120.49 780.533L2120.17 698.521C2120.03 689.535 2112.08 682.739 2103.16 683.914C2096.42 684.81 2089.65 685.427 2084.87 685.427Z" fill="#263238"></path> <path fill-rule="evenodd" clip-rule="evenodd" d="M3947.65 328.075V446.357V798.387C3947.65 806.663 3954.36 813.38 3962.63 813.38H4062.84C4071.13 813.38 4077.83 806.663 4077.83 798.387V446.357V328.075V155.571V37.2831V21.7994C4077.83 13.5233 4071.13 6.81348 4062.84 6.81348H3962.63C3954.36 6.81348 3947.65 13.5233 3947.65 21.7994V37.2831V155.571V328.075Z" fill="#263238"></path> <mask id="mask0" mask-type="alpha" maskUnits="userSpaceOnUse" x="0" y="29" width="753" height="785"> <path d="M0 29.2969H752.395V813.371H0V29.2969Z" fill="white"></path> </mask> <g mask="url(#mask0)"> <path fill-rule="evenodd" clip-rule="evenodd" d="M372.033 403.932V489.082C372.033 497.359 378.742 504.068 387.018 504.068H618.61C601.308 613.297 511.545 691.167 391.498 691.167C245.495 691.167 131.946 570.038 131.946 421.871C131.946 272.623 246.577 152.576 390.417 152.576C471.027 152.576 539.473 185.216 584.371 244.098C588.99 250.15 597.432 251.737 603.95 247.801L690.859 195.231C697.615 191.136 699.341 182.156 694.708 175.758C631.001 87.8071 521.321 29.2969 391.498 29.2969C176.286 29.2969 -0.000976562 205.571 -0.000976562 421.871C-0.000976562 638.165 173.041 813.371 390.417 813.371C605.635 813.371 752.395 650.065 752.395 439.18V405.498C752.395 397.222 745.685 390.519 737.409 390.519H385.459C378.046 390.519 372.033 396.525 372.033 403.932Z" fill="#263238"></path> </g> <path fill-rule="evenodd" clip-rule="evenodd" d="M2572.28 367.553V476.224V799.61C2572.28 807.216 2578.99 813.375 2587.27 813.375H2687.49C2695.76 813.375 2702.47 807.216 2702.47 799.61V476.224V367.553V209.086V100.414V86.1849C2702.47 78.5924 2695.76 72.4268 2687.49 72.4268H2587.27C2578.99 72.4268 2572.28 78.5924 2572.28 86.1849V100.414V209.086V367.553Z" fill="#263238"></path> <path fill-rule="evenodd" clip-rule="evenodd" d="M2830.37 813.373C3045.59 813.373 3221.87 646.789 3221.87 442.395C3221.87 237.994 3048.83 72.4189 2831.46 72.4189H2687.49L2689.02 187.913H2830.37C2976.38 187.913 3089.93 302.371 3089.93 442.395C3089.93 583.434 2975.29 696.864 2831.46 696.864H2676.96V813.373H2830.37Z" fill="#263238"></path> <path fill-rule="evenodd" clip-rule="evenodd" d="M2340.78 654.901C2278.65 654.901 2261.21 672.342 2261.21 734.476C2261.21 796.61 2278.65 814.052 2340.78 814.052C2402.92 814.052 2420.36 796.61 2420.36 734.476C2420.36 672.342 2402.92 654.901 2340.78 654.901Z" fill="#FF9D00"></path> <path fill-rule="evenodd" clip-rule="evenodd" d="M4219.68 568.032V686.327V798.39C4219.68 806.666 4226.39 813.376 4234.67 813.376H4334.87C4343.15 813.376 4349.85 806.666 4349.85 798.39V686.327V568.032V395.528V277.24V261.756C4349.85 253.48 4343.15 246.771 4334.87 246.771H4234.67C4226.39 246.771 4219.68 253.48 4219.68 261.756V277.24V395.528V568.032Z" fill="#263238"></path> <path fill-rule="evenodd" clip-rule="evenodd" d="M4284.77 0C4222.64 0 4205.2 17.4416 4205.2 79.5755C4205.2 141.716 4222.64 159.151 4284.77 159.151C4346.9 159.151 4364.34 141.716 4364.34 79.5755C4364.34 17.4416 4346.9 0 4284.77 0Z" fill="#263238"></path> <path fill-rule="evenodd" clip-rule="evenodd" d="M4972.58 247.534H4859.34C4859.34 247.534 4848.16 246.372 4841.33 264.112L4696.53 639.916L4551.75 264.112C4544.91 246.372 4533.73 247.534 4533.73 247.534H4420.5C4420.5 247.534 4404.16 248.536 4411.45 267.252L4625.69 786.974C4625.69 786.974 4634.54 813.376 4664.97 813.376H4702.29H4728.1C4758.54 813.376 4767.38 786.974 4767.38 786.974L4981.62 267.252C4988.92 248.536 4972.58 247.534 4972.58 247.534Z" fill="#263238"></path> <mask id="mask1" mask-type="alpha" maskUnits="userSpaceOnUse" x="5991" y="247" width="575" height="570"> <path d="M5991.65 247.518H6565.57V816.555H5991.65V247.518Z" fill="white"></path> </mask> <g mask="url(#mask1)"> <path fill-rule="evenodd" clip-rule="evenodd" d="M6554.65 247.534H6441.41C6441.41 247.534 6430.23 246.372 6423.4 264.112L6278.61 639.916L6133.82 264.112C6126.98 246.372 6115.8 247.534 6115.8 247.534H6002.57C6002.57 247.534 5986.23 248.536 5993.52 267.252L6221.23 816.555C6221.23 816.555 6216.61 813.376 6247.05 813.376H6284.37H6310.17C6340.61 813.376 6349.45 786.974 6349.45 786.974L6563.7 267.252C6570.99 248.536 6554.65 247.534 6554.65 247.534Z" fill="#1C2E36"></path> </g> <mask id="mask2" mask-type="alpha" maskUnits="userSpaceOnUse" x="6033" y="247" width="533" height="795"> <path d="M6033.56 247.52H6565.57V1041H6033.56V247.52Z" fill="white"></path> </mask> <g mask="url(#mask2)"> <path fill-rule="evenodd" clip-rule="evenodd" d="M6201.81 825.125C6173.37 896.032 6131.54 912.843 6068.77 913.281C6063.99 913.315 6057.21 912.744 6050.46 911.901C6041.55 910.773 6033.64 917.628 6033.56 926.621L6033.82 1008.63C6033.85 1019.57 6040.59 1029.53 6050.89 1033.2C6067.07 1038.95 6081.59 1041.14 6102.09 1041C6220.37 1040.16 6279.56 951.085 6322.95 849.555L6563.7 267.253C6570.99 248.538 6554.65 247.535 6554.65 247.535H6441.42C6441.42 247.535 6430.23 246.381 6423.4 264.114L6278.61 639.917L6201.81 825.125Z" fill="#263238"></path> </g> <path fill-rule="evenodd" clip-rule="evenodd" d="M5769.21 291.139V261.752C5769.21 253.476 5762.5 246.766 5754.22 246.766H5654.01C5645.74 246.766 5639.03 253.476 5639.03 261.745V277.235V395.53V568.034V686.329V798.392C5639.03 806.668 5645.74 813.378 5654.02 813.378H5754.22C5762.5 813.378 5769.21 806.668 5769.21 798.392V686.329V568.034V502.927C5769.21 382.104 5869.25 368.093 5931.17 367.961C5938.56 367.947 5944.49 361.934 5944.49 354.548V260.006C5944.49 252.832 5938.85 247.011 5931.68 246.567C5873.36 243.016 5815.12 246.766 5769.21 291.139Z" fill="#263238"></path> </svg> 